<svg xmlns="http://www.w3.org/2000/svg" xml:space="preserve" id="Layer_1" x="0" y="0" style="enable-background:new 0 0 215 215" version="1.1" viewBox="0 0 215 215"><style id="style1" type="text/css">.st483{fill-rule:evenodd;clip-rule:evenodd;fill:#ccc}</style><g id="g36" style="opacity:.8"><path id="path2" d="M76.39 194.57c-.85-2.99 1.65-5.71 2.62-8.6 1.01-3.01 2.19-5.92 3.27-8.75-11.67-3.65-22.16-8.15-30.61-14.96-6.09-4.93-12.12-10.65-16.04-17.83-1.33-2.42-3-4.69-4.09-7.16-1.42-3.14-2.46-6.89-3.77-10.49-3.18-8.85-3.83-18.67-2.78-30.41.45-5.02 2.39-9.99 4.1-14.63 1.74-4.8 3.78-8.87 6.38-12.42 2.74-3.74 5.16-7.55 8.02-10.82 2.9-3.32 6.2-6.35 9.33-9.4 3.44-3.33 6.9-5.79 10.8-8.12 3.93-2.33 8.33-3.79 12.94-6.04 8.83-4.3 19.19-7.6 30.44-8.11 25-1.15 42.59 8.08 55 19.57 6.54 6.04 11.63 12.32 16.04 21 4.11 8.1 7.37 18.1 7.36 29.3 0 25.1-8.76 40.26-20.78 52.83-10.49 10.97-27.53 20.79-48.13 21.81-1.48.07-3.17-.32-4.58 0-1.54.35-2.94 2.59-4.09 3.34-1.31.87-2.74 1.53-4.09 2.39-3.86 2.45-7.86 4.9-11.63 7.78-3.71 2.85-7.38 5.35-11.63 7.82-1.2.69-2.37 2.32-4.08 1.9zm18.34-51.72c.24 2.75-.68 5.62 0 8.43.3 1.25 2.32 3.41 3.27 4.61 2.57 3.28 3.93 6.02 6.71 9.07 1.09 1.21 3.16 3.56 4.25 3.84 2.18.52 6.11-.18 8.84-.49 14.39-1.65 25.17-5.94 34.21-12.09 3.61-2.44 7.32-5.28 10.15-8.27 11.4-12.11 21.86-29 20.47-52.85-.6-10.17-3.73-19.54-7.69-27.21-7.95-15.33-20.42-26.7-37.16-33.25-8.26-3.25-18.74-5.85-30.61-5.11-20.8 1.3-37.06 10.38-48.29 22.14-11.1 11.62-20.55 28.73-18.65 49.65.64 7 3.47 13.42 6.38 18.61 2.96 5.3 5.59 11.12 9.49 15.61 1.84 2.13 4.47 4.03 6.71 5.89 4.72 3.91 9.24 7.76 14.41 10.98 2.49 1.54 5.19 3.31 8.35 4.15-.24-3.43-1.35-7.32-1.64-11.15-.09-1.17-.19-2.62 0-3.81.13-.82.69-1.61.81-2.56.2-1.55 0-3.62 0-5.26 0-1.81-.57-3.99.65-4.44 1.24 3.14-.53 6.98.33 10.01.2.71 1.37 1.62 1.96 2.58 1.85 2.89 3.82 5.7 6.06 7.62.41-5.52-.85-10.74-1.31-15.44-.16-1.61-.74-3.6.49-4.93.23 4.51 1.39 9.05 1.81 13.67zm-37.32.63c-.09-1.08-.21-2.59-.5-3.34-.5-1.28-2.18-2.1-3.11-3.18-3.08-3.62-5.42-8.76-8.34-13.68-2.09-3.53-4.1-6.89-5.57-10.98-.5-1.42-1.34-2.74-1.63-3.99-1.18-5.03-1.26-12.7-.99-18.62.05-1.04-.07-2 0-2.87.12-1.46.83-2.08 1.15-3.01.6-1.77.79-3.58 1.3-5.26 3.78-12.31 9.58-21.08 17.52-29.59h-.48C41.92 63.5 28.32 77.7 27.12 104.33c-.26 5.64.41 10.67 1.47 15.27 1.57 6.78 3.83 13.48 6.87 19.1 1.52 2.79 2.96 5.78 4.75 8.27 4.3 6.03 10.38 11.24 16.54 15.45 4.85 3.32 9.71 6.3 15.54 8.43 3.85 1.4 7.68 3.68 12.61 3.35 2.03 1.08.36 2.83-.33 4.44-1.39 3.32-2.85 7.22-3.6 10.36 4.92-2.13 8.67-5.83 12.93-8.76 2.15-1.45 4.38-2.82 6.54-4.29 2.19-1.48 4.72-2.47 6.71-4.28-1.46-1.1-2.91-2.16-3.43-4.15-4.45-5.08-8.75-11.05-12.78-16.4-1.37-1.83-2.29-4.1-4.25-5.24.75 4.57 1.35 9.28 2.12 13.83-1.41 2.1-2.91-.38-4.9-.48-.21 2.39 1.52 5.81.81 8.13-2.15-2.1-.61-7.78-3.27-9.39-.34.75.19 1.73.33 2.69.29 2.06.83 5.26-.33 6.7-.46-.9-.26-2.07-.32-3.2-.16-2.66-.31-6.8-2.3-7.47-.11 2 .62 4.4.82 6.38.17 1.57.33 3.31-.16 3.82-1.3-.4-.73-2.08-.81-3.19-.31-3.72-.54-9.64-3.93-9.38-.51 1.48.46 3 .82 4.6.45 1.98 1.21 4.53 0 6.05-.92-.73-.41-1.65-.5-2.54-.28-3.11-1.75-5.59-1.47-9.22-.74-.57-1.11-1.48-2.45-1.44.21 1.83.65 4.09.99 6.21.32 2.03 1.08 4.99-.17 5.88-.88-.57-.42-1.85-.5-2.69-.15-1.85-.58-3.96-.81-5.9-.22-1.9-.26-4.41-1.8-5.1-.23 2.33.44 5.25.66 7.97.12 1.5.3 3.47-.49 4.6-1.08-4.15-.69-9.72-1.64-13.99-.59-.33-1.09-1.44-1.8-1.13.68 2.9-.03 7.95.49 11.47.17 1.15 1.63 2.9-.16 3.34-1.32-1.99-.64-5.28-.81-8.29-.25-4.2-.31-9.59-3.93-10.33-.17 3.28.6 7.57.82 11.45.07 1.21-.15 2.42 0 3.52.14 1.07 1.14 2.47-.49 3.01-1.04-1.39-.37-3.42-.48-5.41-.22-3.86-.72-8.99-1.15-12.42.06-.53.93-.26.98-.79-1-.43-1.6-2.03-2.78-1.75.88 2.5.33 6 .49 9.38.06 1.22.39 2.63.49 3.83.1 1.21.52 3.11-.82 3.51-.97-4.4-.45-9.82-.83-14.66z" class="st483"/><path id="path3" d="M135.81 40.18c-1.04.47-2.04-.16-2.62-.64-2.77-.35-4.86-1.34-7.53-2.21-1.68-.55-6.59-1.45-6.22-3.51.37-2.06 3.84-.02 5.24.48 1.11.38 2.54.91 4.09 1.44 2.95.99 8.95 1.52 7.04 4.44z" class="st483"/><path id="path4" d="M80.8 39.54c-.66-1.9 1.62-2.99 3.61-3.8 1.16-.49 5.67-2.14 5.73.16.03 1.48-2.09 1.34-3.44 1.73-2.07.61-3.94 3.06-5.9 1.91z" class="st483"/><path id="path5" d="M142.35 40.97c.14.41.22.87.16 1.43-.77.93-3.11.93-3.43-.15-.47-1.54 1.75-2.05 3.27-1.28z" class="st483"/><path id="path6" d="M122.23 46.55c-.12 1.67-1.81 2.05-2.79 3.01-.81.8-1.33 1.93-2.12 2.87-4.26 5.04-9.41 10.09-13.58 15.44-.63.81-1 2.22-2.3 2.22.41-1.99 2.34-3.85 3.77-5.55 2.89-3.45 5.94-6.89 9-10.35 2.48-2.84 4.5-5.58 7.53-7.8.26-.04.27.16.49.16z" class="st483"/><path id="path7" d="M142.03 52.6c.13.07.27.18.49.16.4 3.08-2.05 5.74-3.43 7.95-.58.93-1.13 1.88-1.81 2.72-.58.74-1.19 2.14-2.29 1.89.4-1.91 2.2-3.22 3.27-5.09 1.43-2.44 3.02-4.45 3.77-7.63z" class="st483"/><path id="path8" d="M150.38 53.07c1.06.66.37 2.19.49 3.84.04.57.36.92.33 1.26-.18 1.74-2 3.87-3.11 5.41-2.42 3.36-5.15 6.3-7.86 9.22-1.23 1.33-2.7 3.36-4.58 3.67.71-1.77 2.38-2.81 3.59-4.13 1.24-1.35 2.44-2.74 3.44-4.31-1.36.35-2.97 1.44-3.93 0-.96.29-1.04 1.43-2.29 1.43-.04-1.44 1.47-2.37 2.29-3.33 2.61-3.08 4.93-6.9 7.54-10.17.3-.56 0-1.69.98-1.6.54 2.21-1.48 3.9-2.63 5.57-1.21 1.75-2.63 3.47-3.59 5.24 1.4-.66 2.9-.5 2.95 1.28 1.62-1.24 2.77-2.92 3.92-4.62.02-.68-.51-.88-.64-1.43.91-2.14.79-5.29 1.79-7.32.44-.01.87-.01 1.31-.01z" class="st483"/><path id="path9" d="M156.11 56.1h.49c.61 2.33-.55 3.95-.98 6.22-.35 1.84.16 4.32-1.48 5.08-.24-3.41 1.25-7.78 1.97-11.3z" class="st483"/><path id="path10" d="M74.27 57.7c.24 1.15-1.12 1.68-1.8 2.23-3.86 3.11-7.43 7.14-11.63 10.17-.83.62-1.8 1.11-2.61 1.75-.69.57-1.3 1.79-2.46 1.43.8-1.85 2.73-2.82 4.26-3.97 4.66-3.52 8.89-8.02 13.59-11.62.21.01.43.01.65.01z" class="st483"/><path id="path11" d="M78.84 61.52c.34 1.12-1.12 1.87-1.8 2.38-4.95 3.8-10.53 7.51-15.38 11.62-.71.58-1.5 1.75-2.62 1.44.94-1.73 2.67-3 4.25-4.31 1.52-1.27 3.29-2.47 4.92-3.66 3.3-2.43 6.65-5.01 9.82-7.17.15-.09.27-.27.49-.3h.32z" class="st483"/><path id="path12" d="M160.04 61.52c.63 1.53-.95 2.23-.66 3.97-2.01 1.78-1.6 5.97-4.25 7.16-.55-1.02 1.25-2.19 1.3-3.66-1.24.42-2.12 1.64-2.95 2.55-4.96 5.44-10.24 11.22-15.22 16.86-.75.86-1.32 2.43-2.79 2.57 1.02-2.66 3.31-4.69 5.24-6.7 3.92-4.07 7.26-8.33 11.29-12.57 3.09-3.29 5.89-5.63 7.53-10.18h.51z" class="st483"/><path id="path13" d="M153 63.58c-.39 2.05-2.26 3.6-3.61 5.11-2.77 3.11-5.62 6.07-8.34 9.37-1.29 1.56-2.41 3.62-4.43 4.46.42-1.95 2.18-3.27 3.44-4.78 3.94-4.67 8.16-9.47 12.28-14.17.22.01.44.01.66.01z" class="st483"/><path id="path14" d="M80.16 68.22c-4.74 4.33-10.35 8.1-15.38 12.38-.59.53-1.23 1.7-2.29 1.3.68-1.7 2.38-2.77 3.76-3.84 4.27-3.31 8.57-6.94 13.09-10.18.52-.12.51.25.82.34z" class="st483"/><path id="path15" d="M129.1 76.15c-.53.28-.77.7-1.47.49-2.3-.75 1.66-3.95 1.47-.49z" class="st483"/><path id="path16" d="M117.32 84.75c-2.08.15-4.87-2.87-4.59-4.62.14-.83.95-1.3 1.8-1.11.67.15 1.54 2.01 2.12 2.72.78.93 1.76 2 .67 3.01z" class="st483"/><path id="path17" d="M50.69 89.68c1 1.35.23 4.58.49 7.01.11 1.08 1.05 3.08-.32 3.48-2.53.78-2.92-6.51-2.3-9.39.09-.34.44-.87.66-.94.28-.51.92-.21 1.47-.16z" class="st483"/><path id="path18" d="M35.14 112.13c-.02 3.07-.14 7.38-1.32 9.86-1.23-.64-.16-2.23 0-3.49.26-1.88.03-4.11.5-5.74-.11-.43.32-.33.33-.64.16.01.32.01.49.01z" class="st483"/><path id="path19" d="M36.94 112.13h.49c.56 4.9.51 11.95-.98 15.9-1.02-.58-.24-1.71-.16-2.54.33-3.8.54-8.46.49-12.89.08-.11.17-.25.16-.47z" class="st483"/><path id="path20" d="M40.22 117.85c.26-.04.28.16.49.16.17 5.11.48 11.71-.17 16.55-1.12-.7-.65-2.37-.65-3.66 0-3.64-.13-9.34.16-12.58-.04-.24.16-.25.17-.47z" class="st483"/><path id="path21" d="M60.19 119.46c1.91-.58 2.69 3.39 1.14 3.82-1.57.41-3.33-3.2-1.14-3.82z" class="st483"/><path id="path22" d="M42.83 142.68c-.91-.41-.49-1.65-.49-2.39-.03-5.73-.1-13.66.17-19.07.04-.19.32-.14.32-.33.27-.05.28.14.48.15.1 5.91.45 13.14.17 19.57-.02.64.41 1.93-.65 2.07z" class="st483"/><path id="path23" d="M44.8 128.34c1.18 1.1.66 3.24.66 4.94 0 4.47.09 9.24 0 13.86-.01.68.38 1.9-.49 2.21-1.11-.05-.63-1.48-.66-2.05-.21-5.73.17-12.63 0-18.47-.04-.27.16-.29.17-.5.1.01.21.01.32.01z" class="st483"/><path id="path24" d="M78.35 129.61h.33c1.66 1.59.83 6.72 1.15 10.52.13 1.59.96 3-.17 3.98-1.16-.18-.6-1.74-.65-2.54-.18-3.18-.22-8.49-.81-11.45-.05-.27.14-.29.15-.51z" class="st483"/><path id="path25" d="M99.47 129.61h.33c1.2.96.91 2.59 1.14 4 .88 5.2 1.17 11.71 1.47 17.34 1.4-5.89-.78-12.72-.16-18.31 1 .88.79 2.58.98 3.98.34 2.56.66 5.45.66 8.44 0 4.57.33 9.7 0 13.37-.05.48-.12 1.01-.49 1.43-1.12-.9-.13-3.11-1.63-3.81-.7-8.78-1.04-18.72-2.3-26.44z" class="st483"/><path id="path26" d="M105.04 129.61h.49c1 1.08.76 2.62.98 4 1.42 8.93 2.06 20.16 1.63 29.76-1.38-.48-.82-2.34-.82-3.35 0-10.07-.91-21.33-2.46-29.89-.03-.28.17-.3.18-.52z" class="st483"/><path id="path27" d="M47.75 130.59c.26-.05.28.15.49.16 0 7.37 1.35 15.12.32 22.44-1.16-1.02-.65-3.43-.65-5.43 0-5.66-.65-10.98-.48-16.55.13.03.15-.06.16-.16-.05-.23.15-.25.16-.46z" class="st483"/><path id="path28" d="M65.58 131.05c.22.07.26.29.49.33.11 1.42-.15 2.88 0 4.31.13 1.15 1.21 2.83-.16 3.32-.87-1.65-1.32-6.04-.33-7.96z" class="st483"/><path id="path29" d="M75.58 131.69c1.26 1.1.52 3.56.66 5.57.1 1.66.29 3.87.32 6.05.01 1.04.46 2.48-.49 2.88-.89-.52-.49-1.93-.49-2.71 0-3.89-.66-7.03-.5-11.29-.04-.28.16-.29.17-.49.11-.01.22-.01.33-.01z" class="st483"/><path id="path30" d="M69.03 132.5c.21.06.26.28.49.33-.48 2.04 1.03 3.71.16 5.08-1.2-.76-1.49-4.15-.65-5.41z" class="st483"/><path id="path31" d="M96.36 132.64c1.05 1.97.85 4.75 1.15 7.64.37 3.63 1.69 9.47.32 13.69-1.06-2.79-.28-5.83-.49-8.76-.3-4.1-1.47-8.14-1.47-12.1.09-.11.17-.25.17-.48.1.01.22.01.32.01z" class="st483"/><path id="path32" d="M72.3 133.61c.68 1.08.18 2.9.33 4.46.11 1.11.94 2.41 0 2.88-1.5-1.09-1.39-5.29-.82-7.33.16-.01.33-.01.49-.01z" class="st483"/><path id="path33" d="M50.86 136.16c1.21.68.53 1.85.49 2.86-.17 3.78.25 8.25.49 12.09.13 2.01.26 4-.32 5.43-1.13-1.31-.52-3.31-.65-5.11-.36-4.58-.74-9.84-.49-14.8.08-.12.17-.26.16-.47h.32z" class="st483"/><path id="path34" d="M53.31 137.9c.22.06.26.27.49.33.04 6.85 1.34 14.17.33 20.99-1.13-.6-.66-2.18-.66-3.17 0-5.69-.74-11.89-.32-17.66-.05-.26.15-.28.16-.49z" class="st483"/><path id="path35" d="M163.8 63.91c.13.07.26.15.48.15-.53 3.32-2.58 5.92-3.59 8.93-1.03 3.05-2.54 5.75-3.93 8.59 2.21-1.35 3.62-4.86 6.55-6.05 1.04-1.7 1.44-4 2.61-5.57 1.16 1.11-.16 2.63-.64 3.65-1.69 3.43-3.29 7.25-4.42 11.14 1.76-.36 1.77-2.41 3.76-2.54-.67 1.94-2.44 3.11-3.76 4.46-1.35 1.35-2.79 2.72-3.28 4.93 2.44-.82 3.86-4 6.55-5.1.12 1.26-1.21 2.14-1.97 2.87-5.7 5.53-12.77 10.8-18 17.02 4.06 1.44 6.18-1.68 8.51-3.65 1.7-1.44 3.47-2.63 4.59-3.98 5.07-6.15 9.8-14.3 13.09-21.34.04-.78-.2-1.88.33-2.23 1.09.24.7 2.44.49 2.87-2.42 4.9-5.53 11.22-8.68 15.29-.11.64.69.38.65.95-3.95 4.99-9.43 8.44-13.91 12.9.38 1.15 1.38 1.72 2.29 2.39 4.66-3.95 9.29-7.77 12.28-13.55 2.15-4.14 4.35-8.53 6.38-12.89.62-1.31.92-3.09 2.3-3.82.32 1.66-.96 3.16-1.64 4.61-2.06 4.43-4.65 9.05-6.55 13.85 2.91-1 4.68-3.98 6.55-6.69.71-1.02 1.63-2.53 2.95-2.54-.1 1.3-1.64 2.52-2.45 3.64-1.32 3.87-3.9 6.52-5.58 10.05 2.29-.27 3.53-3.78 6.06-3.83-.09.9-1.02 1.54-1.64 2.06-1.9 1.63-4.05 3.21-6.05 4.93-1.54 2.11-3.41 3.92-4.75 6.22-.75.13-.79-.41-1.47-.33-.62.69-1.75.85-1.8 2.07 1.51 1.24 2.73-.84 3.6-1.6 3.08-2.63 7.34-5.23 9.98-8.44 1.64-1.97 2.16-4.79 4.43-6.03.04 1.55-1.19 2.87-1.97 4.13-2.41 3.91-5.56 7.41-7.69 11.62 1.57.11 2.16-1.58 3.27-2.22.38-.23.74-.16 1.15-.33.82-.35 1.22-1.43 2.29-1.43-.03 1.99-2.62 2.85-3.27 4.79.7 2.1 6.09-.13 5.73 3.01-.1.82-.89.9-1.8 1.61-1.93 1.45-3.07 4.44-5.24 6.19-.58.48-1.33.78-1.96 1.28-1.56 1.22-2.8 2.98-3.93 3.8-1.7 1.26-4.42 1.29-5.89 2.72-.85.82-1.2 2.34-1.97 3.35-.88 1.11-2.03 1.48-2.46 2.54-.31.48-.02 1.57-.49 1.9-.91.15-.37-1.12-.99-1.27-.82-.16-1.36.75-2.29 1.27-2.37 1.36-4.81 1.91-2.61 5.41 1.33-.19 1.88-1.13 2.94-1.58.05-.8-1.15-1.03-.49-1.92.52-.48.68.27 1.31.16 5.7-4.48 13.39-8.39 18-13.85 1.11-1.31.9-4.18 3.44-4.61 2.22 2.04-1.88 7-3.44 8.59-.78.78-2.43 1.71-3.11 2.86-.8 1.4-1.17 3.29-1.96 4.78-.78 1.46-1.34 3.05-2.63 4.13-.53.47-1.75.88-2.45 1.43-1.69 1.42-3.87 6.8-5.24 2.25-.94.5-1.74 1.16-2.46 1.91 3 1.73-.57 3.08-2.77 4.13-1.54.73-3.26 1.3-4.58 1.91-2.63 1.2-4.39 4.65-6.55 2.07-1.08.36-2.42.84-3.77 1.73-.7.48-1.39 1.54-2.29 1.45-2.14-.25-.62-3.02.48-3.97-.46-.26-1.99.3-2.45-.31-.61.04-.39.88-.65 1.26-1.02-.31-1.53 0-1.8.79.64 1.06 2.1 1.27 2.12 2.4.02 1.23-1.25 1.21-2.45 1.74-1.81.77-5.26 3.27-6.72 1.41-.86-2.52 2.32-2.08 3.11-3.46-1.9.19-4.32 1.3-6.55 1.73-.84.13-.42-.97-.98-1.11-.89 0-1.68.88-2.3.16-.11-1.22 1.4-.88 1.31-2.08 2.47-.62 5.44-.74 7.37-1.9-.18-6.19-.87-13.02-1.8-18.61-.27-1.61.35-4.06-1.47-4.77-.99 5.32 1.31 12.51.82 19.56-.06.83.09 2.33-1.15 2.39.45-3.31-.13-9.2-.49-14.01-.12-1.66-.24-3.93-.65-4.93-.46-1.11-1.88-1.52-2.29-2.4-.16 1.84.26 4.01.49 6.55.33 3.79.84 8.29 1.15 12.4.1 1.35 1.11 3.84-.65 4.15-.6-.65 0-.99 0-1.59 0-.95-.37-1.92-.49-3.03-.44-4.13-.52-9.48-.99-13.7-.42-3.74-2.12-6.81-.16-9.53-.48-.33-1.21-.42-1.47-.95-1.14-4.35 8.18-4.48 8.18-6.69.01-2-2.17-.49-3.43-.33-.4-.95 1.34-1.09 1.47-2.06-.04-4.79-6.05-3.78-7.37-7.31-1.09-.29-2.32-.12-3.6-.64-.91-.4-1.45-1.29-2.13-1.6-1.15-.51-3.8-.19-3.11-2.24.79-2.34 6.94 1.13 8.02 1.42 1.09.3 2.43.16 3.28.65.48.33.42 1.2.65 1.76 1.81 2.42 6.64 1.92 6.71 6.03 2.95-1.5 4.89-4.11 7.21-6.36.7-.68 1.46-1.72 2.61-1.76-.58 1.76-2.57 3.32-4.08 4.8-1.58 1.52-3.27 2.99-4.75 4.46.1 1.11 1.02 1.43 1.31 2.37 3.78-2.47 6.2-6.28 9.33-9.39.35-.35.47.07.99 0 1.04-.92 2.21-1.52 3.27-2.39 1.14-.93 1.87-2.74 3.77-2.85-.9 2.17-3.04 3.34-4.75 4.77-5.08 4.18-9.42 9.33-12.93 15.27 4.01-3.25 7.6-8.31 11.79-11.93.7-.37 1.56.29 1.96-.49.39-.64-.17-.88-.17-1.57 1.69-1.92 3.28-3.93 4.91-5.9-.54-.75-1.53-2.12-2.95-2.06-1.97.11-1.64 2.74-3.93 3.02-1.46.19-3.35-.14-5.24 0-.99.07-1.95.41-2.94.49-3.69.28-7.26-.08-9.82.15-1.87.16-3.57.54-3.77-.79-.13-.92.77-1.23 1.15-1.92-.26-.75-.94-.93-.65-1.9.84-2.74 5.11 1.04 5.9 1.9 3.13.22 6.35-.11 8.67-.48 2.03-.33 4.26.45 5.9-.15 1.78-.63 2.33-3.83 5.4-2.7 5.85-6.83 12.77-12.61 19-19.1.16-.69-.62-.46-.66-.93 1.69-2.93 4.15-5.97 4.74-9.43-2.28 1.84-4.21 4.25-6.21 6.55-2 2.27-4.29 4.29-6.39 6.52-3.19 3.36-5.94 6.93-9 10.5-.89 1.03-1.69 2.7-3.27 2.87-.14-1.43 1.89-2.08 2.28-3.51-1.74-.29-3.54-1.28-2.94-3.32 1.66-.86 3.51.51 3.44 2.37 4.01-3.42 6.79-8.15 10.79-11.76 4.57-4.13 7.92-9.11 12.61-13.05 1.02-2.3 2.09-4.53 3.26-6.68zm-26.52 38.99c1.16.58 1.76 1.7 3.28 1.91 1.57-2.23 3.73-3.56 5.73-5.41 2.94-2.7 5.47-5.41 8.18-8.27 1.35-1.44 3.11-2.67 4.09-4.15 1.53-2.32 2.26-6.41 3.44-8.91-.01-.1-.02-.18-.16-.15-7.59 8.89-16.5 16.51-24.56 24.98zm7.37-.63c-1.21 1.03-3.1 2-3.11 3.81 1.77.3 2.81-1.54 3.77-2.55 3.33-3.51 7.13-6.55 10.47-9.86-.89-.98.63-1.89 0-2.39-3.6 3.61-7.33 7.74-11.13 10.99zm14.57 3.01c-.34-.09-.46-.38-.98-.31-1.83 1.97-4.29 3.36-5.73 5.73 2.02 3 4.43.16 6.22-1.45 3.53-3.15 6.58-7.86 8.35-11.6-3.7 1.49-5.23 5.09-7.86 7.63zm-19.97 2.87c-.9 1.24-2.27 2.04-2.78 3.65 1.5-.71 2.22-2.19 3.6-3-.03-.45-.29-.71-.82-.65zm19.64 6.05c4.31.82 5.22-2.98 6.72-5.4-.04-.15-.14-.21-.33-.17-2.06 1.93-4.62 3.35-6.39 5.57zm-19.32-2.87c-2.42 2.8-6.5 5.37-7.69 8.28 4.21-1.85 6.63-5.72 10.15-8.28.87-.62 2.04-.81 2.29-2.08-3.02-.87-3.61.79-4.75 2.08zm6.88-1.92c-2.54 1.66-4.4 3.97-6.55 5.9-1.2 1.08-2.64 2.06-3.11 3.51 1.43-.64 2.71-2.25 4.26-2.25-.2 1.63-2.03 1.86-3.12 2.56-.87.55-1.59 1.36-2.45 1.91-.86.58-2.19.89-2.29 2.07 1.41-.16 2.62-1.23 3.76-2.07 3.71-2.71 7.46-5.58 10.64-8.59.84.31 1.18-.31 1.63-.79-.55-1.12-1.21-2.1-2.77-2.25zm3.44 3.2c-2.28 2.39-5.13 4.24-7.04 7 .74.42 1.28.99 2.12 1.29 1.26-1.12 2.51-2.26 3.77-3.36 1.23-1.07 2.95-1.89 3.6-3.49-.95-.37-1.11-1.47-2.45-1.44zm2.94 2.86c-.98.82-1.88 2.34-3.27 3.49-1.41 1.17-3.21 2.03-3.6 3.34.88.97 1.65-.13 2.29-.62 2.28-1.73 4.94-3.59 6.39-5.73-.4-.92-1.34-.9-1.81-.48zm10.32 3.66c-2.13 2.84-4.87 5.64-6.71 7.82 2.3-1.84 4.73-4.04 7.04-6.22 1.27-1.2 2.99-2.16 3.61-3.83-1.79-1.3-3 .97-3.94 2.23zm-2.94-.31c-4.03 2.76-7.83 5.75-10.97 9.38 3.89-2.53 6.9-5.92 10.97-8.28.57-.13.62.24 1.15.16.6-1.32 1.81-2.05 2.29-3.51-1.83.11-2.3 1.51-3.44 2.25zm-2.79-1.59c-2.56 1.51-5.22 4.71-7.2 6.52.1.36.54.43.65.78 3.14-2.19 6.2-4.47 8.68-7.31-.75-.14-1.67-.27-2.13.01zm-31.43 5.72c2.18-1.19 3.59-3.08 4.91-5.11-2 1.36-3.42 3.26-4.91 5.11zm31.43 5.08c3.44-1.93 5.78-5 9-7.14.33-1.09 1.71-1.96 1.63-2.88-3.45 3.44-7.47 6.31-10.63 10.02zm-20.46-3.97c1.4-.56 2.25-1.64 2.79-3.02-1.22.64-3.13 1.39-2.79 3.02zm6.06-2.7c-1.39 1.63-4.59 2.32-4.59 4.77 1.83-1.5 4.31-2.38 5.25-4.77h-.66zm15.38.95c-2.4 1.61-4.58 3.76-6.54 5.89-.92 1.01-2.79 1.46-2.79 3.02 1.51-.79 3.11-1.85 4.26-3.02 1.89-1.95 3.81-3.79 5.56-5.89h-.49zm-38.14 1.44a16.742 16.742 0 0 1-4.09 3.34c.02.29.19 1.83.82 2.06 1.52-1.92 2.85-4.02 4.26-6.05-.45-.15-.81.43-.99.65zm23.57-.48c-1.26 1.73-5 2.6-4.58 4.92 2.18-1.22 4.54-2.58 5.4-4.92h-.82zm-14.4 2.54c1.05.11 2.85-1.08 2.62-2.23-1.24.39-2.37.9-2.62 2.23zm18.33 0c.9-.5 1.58-1.21 2.29-1.91-.93.38-2.28 1.18-2.29 1.91zm-13.58.64c.89.29 2.12-1 1.79-1.92-.95-.32-2.24.9-1.79 1.92zm-8.02 1.75c.81.21 2.4-.89 2.13-1.74-1.11.19-1.55 1.01-2.13 1.74zm4.74.77c1-.22 1.79-.68 2.13-1.55.02-.42-.26-.51-.48-.64-.58.64-2.15 1.06-1.65 2.19zm-9.49.64c1.1-.55 2.2-1.15 2.62-2.37-.04-.16-.19-.24-.32-.29-.74.82-2.82 1.15-2.3 2.66zm14.4-1.27c.55-.31 1.07-.65 1.31-1.25-.21-.02-.23-.22-.5-.15-.09.64-.87.63-.81 1.4zm5.08 2.41c2.03-.94 3.98-1.96 5.07-3.81-2.07.88-3.53 2.38-5.07 3.81zm-29.8-.48c1.6-.09 1.21 1.8 2.3 2.23.9-1.27 1.7-3.43 1.47-5.26-1.88.4-2.88 1.68-3.77 3.03zm24.23.78c1.21-.57 2.61-.96 2.79-2.54-1.49.32-2.44 1.15-2.79 2.54zm5.4 2.71c2.58-.8 4.16-3.49 5.4-5.08-1.51 1.88-5.44 2.22-5.4 5.08zm-13.75-1.57c1.01-.66 2.16-1.21 2.62-2.41-.23-.02-.27-.26-.49-.29-.66.85-2.5 1.35-2.13 2.7zm4.26-1.14c.84-.16 1.28-.77 1.47-1.57-.85.1-1.7.94-1.47 1.57zm-12.28.5c.63-.05 1.3-.65.98-1.12-.71-.03-1.24.7-.98 1.12zm3.43 1.73c1.01.15 3.13-1.41 2.46-2.38-.75.85-2.33.91-2.46 2.38zm27.51-.64c.99-.15 1.28-.97 1.8-1.59-.8.36-1.38.9-1.8 1.59zm-33.07-.14c.85.12 1.01-.42.99-1.11-.7 0-1.04.36-.99 1.11zm10.48 3.19c1.67-.52 3.36-1.83 2.62-4.15-1.4.74-3.76 1.96-2.62 4.15zm17.68-.66c1.02-.89 2.37-1.51 2.94-2.84-.04-.18-.17-.27-.32-.31-.51 1.29-2.55 1.95-2.62 3.15zm-20.95-.94c.79.07.94-.48 1.15-.97-.46.25-.85.57-1.15.97zm15.22-.48c-1.12 1.02-3.96 1.91-2.95 3.98 1.28-.84 4.69-2.23 2.95-3.98zm-21.78 1.91c-.31.64.06 1.39.33 1.91.68.13 1.31.32 2.13.32.06-1.56 1.48-2.58 1.48-3.66-1.71-.59-1.78 2.42-3.94 1.43zm25.88 3.18c2.18-.1 2.83-2.54 3.43-3.67-1.13 1.25-2.87 1.91-3.43 3.67zm12.92-.31c.24.08.4.24.5.47 1.51-.26 3.36-1.77 2.45-3.33-.97.95-2.49 1.38-2.95 2.86zm-31.92-.16c.23-.95.1-1.48-.16-2.38-1.14.01-1.06 2.44.16 2.38zm4.09 1.1c.52.09.43-.42.83-.48-.77-1.13.1-1.81.65-2.54-1.91-.56-2.94 1.92-1.48 3.02zm-5.88-1.43c-.18-2.94-2.59.7 0 0zm10.47 2.71c1.23-.27 3.07-2.29 1.48-3.34-.16 1.35-1.68 2.15-1.48 3.34zm17.02 2.87c1.93-.72 4.28-2.36 5.4-3.82.09-.11.72-1.11.32-1.11-1.92 1.62-4.06 3.04-5.72 4.93zm-31.75-3.03c.21 5.63 1.09 11.97 1.31 18.15-1.77 1.21-4.52 1.46-6.22 2.71 3.84-.19 6.42-1.63 8.35-3.66 1.23-.09 1.9-.71 2.62-1.28.05-2.79.47-5.75-.32-7.96-.36-1-1.52-1.52-1.64-2.54-.17-1.5.83-2.81.66-4.29-.92-.95-3.46-1.1-4.76-1.13zm36.66 2.08c1.52.09 1.95-.88 2.3-1.92-.84-.06-2.03.9-2.3 1.92zm-16.53 1.59c.74.02.89-.53.98-1.12-.62.06-1.29.64-.98 1.12zm-8.51 4.77c.55-.79 1.47-1.22 1.8-2.24-1.4-1.6-3.31 1.08-1.8 2.24zm13.75.47c1.51-.95 3.26-1.69 4.42-3.01-2.15.23-4.33 1.29-4.42 3.01zm-17.19 6.36c1.02-.33 1.48-1.2 2.29-1.74-.33-.68-.69-1.35-.65-2.37-2.49.1-1.56-3.16-2.45-4.64h-.49c.27 2.46-.4 7.16 1.3 8.75z" class="st483"/><path id="path36" d="M110.43 34.14c.33.87-.75 1.08-.98 1.75-.2.59.16 1.13-.16 1.73-1.2 2.28-4.64 2.91-7.04 4.16.12 2.33-2.14 3.03-3.44 4.45.4.9 2.53 1.03 3.44.47 2.12 2.68 5.93-.16 9.17-1.43 1.81-.69 5.81-1.48 8.18-1.9 2.47-.44 6.55-.97 9.32-.31.74.16 1.64.8 2.46.94 2.3.36 5.02-.4 7.03 1.12.99.72 1.42 3.53 2.79 3.82.79.16 1.24-.55 2.46-.48 2.18 1.5-.62 4.67-2.95 3.18-1.28.62-2.17 1.61-3.44 2.23-1 1.89-1.44 5.17-3.59 5.41.32-1.71 2.11-3.33 2.45-5.57-.97-.86-1.79.4-3.11.64-2.82.49-6.62-.73-8.84.48 1.82 2.48 8.84 1.54 7.53 6.22-.56 1.95-5.02 4.33-7.37 4.93-2.27.58-5.05-.14-7.54.15-1.8.23-3.79.89-5.39 1.27-1.85.44-3.38 1.37-4.1 2.39.23 6.01 1.89 10.58 3.93 14.81 3.55 1.97 9.53 1.92 13.42 3.8 1.11.55 2.81 1.44 2.13 3.2-1.76.99-3.03-.88-4.75-1.43-4.27-1.42-9.93-1.13-12.6-3.99-5.49.05-5.86-4.9-6.22-9.86-1.06-.58-1.8-.19-2.79-.33-2.42-.32-4.3-2.31-6.05-2.56-.81-.08-1.63.34-2.62.5-1.48.24-3.2.07-4.09.64-.87.53-1.12 1.9-1.96 2.23.47 2.82-1.43 9.38 1.14 11.45 1.75.62 5.05.29 5.73 1.92.47 1.08-.87 3.95-.49 6.04.34 1.85 2.14 4.47 3.44 5.42 1.03.75 2.6.77 2.78 1.59.63 2.83-5.97 1.73-7.7.93-1.25-.54-2.11-1.95-4.09-2.69-2.79-1.04-7.27-.32-8.35-2.06-1.25-2.02.45-3.77.81-5.73-.97-1.19-2.89-1.68-4.42-1.9-4.18-.65-11.02-.04-14.4-1.92-1.12-.63-3.95-3.34-4.42-4.79-.29-.86.21-2.1-.16-3.16-.53-1.55-3-1.7-3.6-3.51-1.23.22-1.01 1.7-2.46 1.28-1.66-.51-.35-4.06 1.48-4.15.06-1.55-1.55-2.17-2.13-3.51-1.14-2.6.42-5.28.99-7.8 1.41-1.55 2.65-3.27 4.09-4.79 2.53-1.13 4.66-2.68 8.02-3.01 2.06-2.79 1.11-7.73 4.43-9.53.6-.33 1.54-.27 2.45-.48 1.1-.26 2.18-.82 2.95-.96 1.86-.33 4.07-.19 5.73-.64 1.7-.46 3.7-1.26 5.57-1.9 1.98-.67 4.02-1.11 5.56-1.74 2.17-.9 4.12-1.95 6.22-2.73 2.19-.79 4.4-1.44 6.22-2.69-1.79-.16-4.06 1.3-4.41-.49-.28-1.39 1.25-1.7 2.61-1.9 3.15-.48 9.78-.57 11.13.79zM95.38 41.3c.69.21-.08 1.01.33 1.27 1.77-1.41 3.93-2.43 5.9-3.65-2.29.6-4.5 1.25-6.23 2.38zm-2.3.63c-2.07.82-4.49 2-7.19 2.87-2.6.84-5.17 1.86-7.54 2.56-2.14.63-4.56.38-6.54.79-.5.08-3.29.7-3.76.94-2.62 1.37-2.3 7.36-3.6 9.4-1.25 1.95-2.92 2.84-3.77 5.09 5.86-4.46 11.59-10.05 17.19-14.63.67-.56 1.6-2.06 2.78-1.28-8.24 6.97-16.42 15.52-25.21 21.65-.9.62-1.88 1.75-2.95 1.43.38-2.09 3.3-1.75 3.93-3.68.13-.38-.2-1-.16-1.42.24-2.33 2.78-3.5 3.27-5.89-1.29.49-3.06 1.27-4.09 2.06-1.74 1.36-4.78 5.45-4.26 8.44.21 1.21 1.93 2.39 2.62 4.15.4.99.38 2.47.82 3.18.59.95 2.67 1.36 3.28 2.7.63 1.39.09 2.76.48 3.82.41 1.13 2.32 3.05 3.28 3.52 2.33 1.11 5.44.85 8.35.77.43-.26.28-1.08.65-1.43 3.61-2.65 6.4-6.08 9.17-9.55-3.23 2.17-6.58 4.69-9.34 7.18-.9.79-1.76 2.07-3.11 2.06 1.25-3.52 4.24-5.33 6.88-7.49.37-.37.53.29 1.15.16 1.39-.93 2.43-2.21 3.92-3.02.62-.07.43.66 1.15.48.73-.84 1.53-1.61 2.13-2.58h.99c1.12-1.66 3.33-2.26 5.72-2.69.4-.31.24-1.15.5-1.59 4.26-4.82 8.65-9.58 12.6-14.49 1.31-1.62 3.21-3.08 3.77-5.23-3.58.06-4.98 2.52-6.88 4.6-3.48 3.83-6.29 7.71-9.49 11.3-.55.63-.96 2-2.13 1.75.49-1.89 2.11-3.19 3.26-4.61 3.67-4.48 7.32-8.73 10.98-13.04-2.17-1.15-3.49 1.31-4.59 2.37-3.87 3.77-7.21 8.31-10.48 12.28-.43.37.67.69.17 1.25-.8 1.15-2.21 1.69-2.62 3.19-6.17 4.56-12.12 9.82-18.01 14.49-.77.6-1.71 1.89-2.95 1.42-.23-.82.96-1.21 1.47-1.58 2.05-1.51 3.95-3.39 5.89-4.78 0-.64.36-.93.49-1.44 1.93-1.13 3.45-2.69 5.24-4.14 1.73-1.39 3.96-2.51 5.4-4.14 1.09-1.21 2.06-2.69 3.11-3.98 1.07-1.31 2.16-2.56 3.27-3.82 2.24-2.56 4.17-5.3 6.38-7.78 1.24-1.42 2.94-2.24 3.76-4-2.08-2.43-3.87.6-5.24 1.92-3.16 3.07-6.63 6.7-9 9.4-.18.45-.15 1.13-.32 1.6-2.37 1.99-5.3 3.27-7.69 5.08-3.26 2.45-6.31 5.19-9.34 7.8-1.91.44-2.45 3.01-4.26 3.03.43-1.88 2.21-3.03 3.6-4.16 1.46-1.17 3.01-2.3 4.42-3.48 2.91-2.42 6.11-4.48 9-6.84 5.83-4.77 9.96-11.11 15.56-16.07-1.27-1.28-1.47-3.69 0-4.93-2.17.73-3.4 2.68-4.91 4.13-3.77 3.66-7.88 7.47-11.13 11.46-.67.8-1.26 1.95-1.96 2.56-.46.38-1.11.48-1.63.78-1.67 1.06-3.16 2.6-4.75 3.83-3.31 2.55-6.61 4.89-9.82 7.33-1.56 1.17-3 2.94-5.08 3.33 1.08-2.09 3.27-3.26 5.08-4.61 5.51-4.17 11.76-8.06 16.53-12.91 5.69-5.74 10.63-12.03 16.87-17.18-.73-.18-1.06.22-1.31.31zm4.1 3.51c1.77.16 2.84-1.68 3.76-2.87-1.64.57-3.13 1.3-3.76 2.87zm33.56 1.11c-1.01-.14-1.95-.82-2.78-.95-2.95-.48-6.9-.17-9 .63-1.51.58-3.48 3.31-4.75 4.77-1.59 1.85-2.76 3.77-4.1 5.42-3.07 3.81-6.21 7.08-8.67 10.36-.48.27.37.57.16 1.1-1.1.69-1.55 2-3.11 2.22-.61-.09-.5-.88-.49-1.57-.63.2-1.69 1.4-2.45.47 2.1-4.28 5.85-7.21 8.84-10.66 3.05-3.52 6.11-6.98 9.01-10.67-3.45.71-5.36 2.41-7.2 4.77-3.68 4.71-7.41 9.19-11.13 13.38-1.52 1.7-3.6 3.18-4.1 5.42 3.96-1.3 6.08 1 8.19 1.75 1.81.64 4.37.35 5.73.79.38-1.66-.2-3.71-.81-4.93 3.42-3.62 7.36-7.22 10.48-10.99 1-1.21 1.93-3.22 3.92-3.02-2.66 3.62-6.65 6.8-8.84 10.34 2.37-.09 4.61-1.37 7.37-1.59 1.84-.13 3.72.24 5.57 0 2.63-.31 4.74-2.13 6.37-3.18-1.98-2.21-6.75-1.7-7.69-4.94-5.6-2.05 4.91-5 7.04-5.4.79-.15 1.61-.05 2.12-.16 1.23-.24 2.14-.97 2.95-1.11 1.45-.26 3.32.29 3.6-.63-.35-2.2-3.89-1.29-6.23-1.62zm-15.55 1.12c-1.5 1.21-2.91 3.14-4.42 4.93-3.6 4.27-7.46 8.26-10.96 12.28-.56.62-2.15 1.48-1.31 2.69 1.93-1.11 3.17-2.98 4.58-4.61 4.34-5 8.7-9.96 12.6-15.28.25-.04.02-.26-.17-.31 0 .19-.29.12-.32.3zM80.65 78.7c1.02-.33 2.96-1.3 1.96-2.55-.82.69-1.56 1.46-1.96 2.55zm-7.04 10.18c2.25-.18 3.5-2.43 4.91-3.96 1.47-1.57 3.37-3.14 4.25-5.11-.04-.11 0-.29-.16-.29-3.07 3.04-6.64 5.61-9 9.36zm6.87-3.66c-1.18 1.61-3.19 2.43-3.92 4.46 1.54.69 2.59-1.17 3.43-2.23 1.23-1.52 2.67-2.92 2.95-4.93-.03-.16-.18-.26-.33-.31-.88.89-2.29 1.55-2.13 3.01zm2.46.96c-1.47.16-2.33 2.27-3.28 3.5 1.34-.29 3.58-1.08 3.28-3.5zm-12.11 2.41c.61.62 1.51.46 1.64-.48-.47-.33-1.75-.29-1.64.48zm13.59 1.73c.08-.79-.32-1.7-1.15-1.59-.51.07-1.47 2.27-1.97 2.54.13.62.48 1.01.65 1.61.84-.78 2.35-1.52 2.47-2.56zm.97 3.82a7.454 7.454 0 0 0 2.47-2.7c-.36-.22-.7-.48-1.31-.47-.32 1.1-1.11 1.78-1.16 3.17zm-4.74 3.51c1.35.4 4.14 1.59 4.42-.49-.61-.49-.61.58-1.47.33-.06-.58.02-1.03.16-1.43-.48-.06-.74-.33-.82-.79.24-.82 1.19-.95 1.31-1.9-2.21.42-3.16 2.1-3.6 4.28zm7.36-1.6c.63-.45 1.35-.82 1.31-1.91-1.16-.08-1.04 1.11-1.31 1.91zm-.48 1.1c.03-.24.63-.75.16-.94-.27.18-.81.8-.16.94zm1.13 0c-.16.7.35.73.49 1.13-.48.02-1 .91-.33 1.11.36-.75 1-1.42.67-2.39-.39-.05-.63.02-.83.15z" class="st483"/></g></svg>