<svg width="161" height="168" viewBox="0 0 161 168" fill="none" xmlns="http://www.w3.org/2000/svg">
<g opacity="0.8">
<path fill-rule="evenodd" clip-rule="evenodd" d="M51.8644 167.837C51.0144 164.847 53.5144 162.127 54.4844 159.237C55.4944 156.227 56.6744 153.317 57.7544 150.487C46.0844 146.837 35.5944 142.337 27.1444 135.527C21.0544 130.597 15.0244 124.877 11.1044 117.697C9.77436 115.277 8.10436 113.007 7.01436 110.537C5.59436 107.397 4.55436 103.647 3.24436 100.047C0.0643592 91.197 -0.58564 81.377 0.46436 69.637C0.91436 64.617 2.85436 59.647 4.56436 55.007C6.30436 50.207 8.34436 46.137 10.9444 42.587C13.6844 38.847 16.1044 35.037 18.9644 31.767C21.8644 28.447 25.1644 25.417 28.2944 22.367C31.7344 19.037 35.1944 16.577 39.0944 14.247C43.0244 11.917 47.4244 10.457 52.0344 8.20698C60.8643 3.90698 71.2244 0.606984 82.4744 0.0969836C107.474 -1.05302 125.064 8.17698 137.474 19.667C144.014 25.707 149.104 31.987 153.514 40.667C157.624 48.767 160.884 58.767 160.874 69.967C160.874 95.067 152.114 110.227 140.094 122.797C129.604 133.767 112.564 143.587 91.9644 144.607C90.4844 144.677 88.7944 144.287 87.3844 144.607C85.8444 144.957 84.4444 147.197 83.2944 147.947C81.9844 148.817 80.5544 149.477 79.2044 150.337C75.3444 152.787 71.3444 155.237 67.5744 158.117C63.8644 160.967 60.1944 163.467 55.9444 165.937C54.7444 166.637 53.5744 168.257 51.8644 167.837ZM70.2044 116.117C70.4444 118.867 69.5244 121.737 70.2044 124.547C70.5044 125.797 72.5244 127.957 73.4744 129.157C76.0444 132.437 77.4044 135.177 80.1844 138.227C81.2744 139.437 83.3444 141.787 84.4344 142.067C86.6144 142.587 90.5444 141.887 93.2744 141.577C107.664 139.927 118.444 135.637 127.484 129.487C131.094 127.047 134.804 124.207 137.634 121.217C149.034 109.107 159.494 92.217 158.104 68.367C157.504 58.197 154.374 48.827 150.414 41.157C142.464 25.827 129.994 14.457 113.254 7.90698C104.994 4.65698 94.5144 2.05698 82.6444 2.79698C61.8444 4.09698 45.5844 13.177 34.3544 24.937C23.2544 36.557 13.8044 53.667 15.7044 74.587C16.3444 81.587 19.1744 88.007 22.0844 93.197C25.0444 98.497 27.6744 104.317 31.5744 108.807C33.4144 110.937 36.0444 112.837 38.2844 114.697C43.0044 118.607 47.5244 122.457 52.6944 125.677C55.1844 127.217 57.8844 128.987 61.0444 129.827C60.8044 126.397 59.6944 122.507 59.4044 118.677C59.3144 117.507 59.2144 116.057 59.4044 114.867C59.5344 114.047 60.0944 113.257 60.2144 112.307C60.4144 110.757 60.2144 108.687 60.2144 107.047C60.2144 105.237 59.6444 103.057 60.8644 102.607C62.1044 105.747 60.3344 109.587 61.1944 112.617C61.3944 113.327 62.5644 114.237 63.1544 115.197C65.0044 118.087 66.9744 120.897 69.2144 122.817C69.6244 117.297 68.3644 112.077 67.9044 107.377C67.7444 105.767 67.1644 103.777 68.3944 102.447C68.6244 106.967 69.7844 111.507 70.2044 116.117ZM32.8744 116.747C32.7844 115.667 32.6644 114.157 32.3744 113.407C31.8744 112.127 30.1944 111.307 29.2644 110.227C26.1844 106.607 23.8444 101.467 20.9244 96.547C18.8344 93.017 16.8244 89.657 15.3544 85.567C14.8544 84.147 14.0144 82.827 13.7244 81.577C12.5444 76.547 12.4644 68.877 12.7344 62.957C12.7844 61.917 12.6644 60.957 12.7344 60.087C12.8544 58.627 13.5644 58.007 13.8844 57.077C14.4844 55.307 14.6744 53.497 15.1844 51.817C18.9644 39.507 24.7644 30.737 32.7044 22.227C32.5444 22.227 32.3744 22.227 32.2244 22.227C17.3944 36.777 3.79436 50.977 2.59436 77.607C2.33436 83.247 3.00436 88.277 4.06436 92.877C5.63436 99.657 7.89436 106.357 10.9344 111.977C12.4544 114.767 13.8944 117.757 15.6844 120.247C19.9844 126.277 26.0644 131.487 32.2244 135.697C37.0744 139.017 41.9344 141.997 47.7644 144.127C51.6144 145.527 55.4444 147.807 60.3744 147.477C62.4044 148.557 60.7344 150.307 60.0444 151.917C58.6544 155.237 57.1944 159.137 56.4444 162.277C61.3644 160.147 65.1144 156.447 69.3744 153.517C71.5244 152.067 73.7544 150.697 75.9144 149.227C78.1044 147.747 80.6344 146.757 82.6244 144.947C81.1644 143.847 79.7144 142.787 79.1944 140.797C74.7444 135.717 70.4444 129.747 66.4144 124.397C65.0444 122.567 64.1244 120.297 62.1644 119.157C62.9144 123.727 63.5144 128.437 64.2844 132.987C62.8744 135.087 61.3744 132.607 59.3844 132.507C59.1744 134.897 60.9044 138.317 60.1944 140.637C58.0444 138.537 59.5844 132.857 56.9244 131.247C56.5844 131.997 57.1144 132.977 57.2544 133.937C57.5444 135.997 58.0844 139.197 56.9244 140.637C56.4644 139.737 56.6644 138.567 56.6044 137.437C56.4444 134.777 56.2944 130.637 54.3044 129.967C54.1944 131.967 54.9244 134.367 55.1244 136.347C55.2944 137.917 55.4544 139.657 54.9644 140.167C53.6644 139.767 54.2344 138.087 54.1544 136.977C53.8444 133.257 53.6144 127.337 50.2244 127.597C49.7144 129.077 50.6844 130.597 51.0444 132.197C51.4944 134.177 52.2544 136.727 51.0444 138.247C50.1244 137.517 50.6344 136.597 50.5444 135.707C50.2644 132.597 48.7944 130.117 49.0744 126.487C48.3344 125.917 47.9644 125.007 46.6244 125.047C46.8344 126.877 47.2744 129.137 47.6144 131.257C47.9344 133.287 48.6944 136.247 47.4444 137.137C46.5644 136.567 47.0244 135.287 46.9444 134.447C46.7944 132.597 46.3644 130.487 46.1344 128.547C45.9144 126.647 45.8744 124.137 44.3344 123.447C44.1044 125.777 44.7744 128.697 44.9944 131.417C45.1144 132.917 45.2944 134.887 44.5044 136.017C43.4244 131.867 43.8144 126.297 42.8644 122.027C42.2744 121.697 41.7744 120.587 41.0644 120.897C41.7444 123.797 41.0344 128.847 41.5544 132.367C41.7244 133.517 43.1844 135.267 41.3944 135.707C40.0744 133.717 40.7544 130.427 40.5844 127.417C40.3344 123.217 40.2744 117.827 36.6544 117.087C36.4844 120.367 37.2544 124.657 37.4744 128.537C37.5444 129.747 37.3244 130.957 37.4744 132.057C37.6144 133.127 38.6144 134.527 36.9844 135.067C35.9444 133.677 36.6144 131.647 36.5044 129.657C36.2844 125.797 35.7844 120.667 35.3544 117.237C35.4144 116.707 36.2844 116.977 36.3344 116.447C35.3344 116.017 34.7344 114.417 33.5544 114.697C34.4344 117.197 33.8844 120.697 34.0444 124.077C34.1044 125.297 34.4344 126.707 34.5344 127.907C34.6344 129.117 35.0544 131.017 33.7144 131.417C32.7444 127.017 33.2644 121.587 32.8744 116.747Z" fill="white"/>
<path fill-rule="evenodd" clip-rule="evenodd" d="M111.284 13.447C110.244 13.917 109.244 13.287 108.664 12.807C105.894 12.457 103.804 11.467 101.134 10.597C99.4544 10.047 94.5444 9.14697 94.9144 7.08697C95.2844 5.02697 98.7544 7.06698 100.154 7.56698C101.264 7.94698 102.694 8.47698 104.244 9.00698C107.194 9.99698 113.194 10.527 111.284 13.447Z" fill="white"/>
<path fill-rule="evenodd" clip-rule="evenodd" d="M56.2744 12.807C55.6144 10.907 57.8944 9.81698 59.8844 9.00698C61.0444 8.51698 65.5544 6.86697 65.6144 9.16697C65.6444 10.647 63.5244 10.507 62.1744 10.897C60.1044 11.517 58.2344 13.957 56.2744 12.807Z" fill="white"/>
<path fill-rule="evenodd" clip-rule="evenodd" d="M117.824 14.247C117.964 14.657 118.044 15.117 117.984 15.677C117.214 16.607 114.874 16.607 114.554 15.527C114.084 13.977 116.304 13.467 117.824 14.247Z" fill="white"/>
<path fill-rule="evenodd" clip-rule="evenodd" d="M97.7043 19.827C97.5843 21.497 95.8943 21.877 94.9143 22.837C94.1043 23.637 93.5843 24.767 92.7943 25.707C88.5343 30.747 83.3843 35.797 79.2143 41.147C78.5843 41.957 78.2143 43.367 76.9143 43.367C77.3243 41.377 79.2543 39.517 80.6843 37.817C83.5743 34.367 86.6243 30.927 89.6843 27.467C92.1643 24.627 94.1843 21.887 97.2143 19.667C97.4743 19.627 97.4843 19.827 97.7043 19.827Z" fill="white"/>
<path fill-rule="evenodd" clip-rule="evenodd" d="M117.504 25.867C117.634 25.937 117.774 26.047 117.994 26.027C118.394 29.107 115.944 31.767 114.564 33.977C113.984 34.907 113.434 35.857 112.754 36.697C112.174 37.437 111.564 38.837 110.464 38.587C110.864 36.677 112.664 35.367 113.734 33.497C115.164 31.057 116.754 29.047 117.504 25.867Z" fill="white"/>
<path fill-rule="evenodd" clip-rule="evenodd" d="M125.854 26.347C126.914 27.007 126.224 28.537 126.344 30.187C126.384 30.757 126.704 31.107 126.674 31.447C126.494 33.187 124.674 35.317 123.564 36.857C121.144 40.217 118.414 43.157 115.704 46.077C114.474 47.407 113.004 49.437 111.124 49.747C111.834 47.977 113.504 46.937 114.714 45.617C115.954 44.267 117.154 42.877 118.154 41.307C116.794 41.657 115.184 42.747 114.224 41.307C113.264 41.597 113.184 42.737 111.934 42.737C111.894 41.297 113.404 40.367 114.224 39.407C116.834 36.327 119.154 32.507 121.764 29.237C122.064 28.677 121.764 27.547 122.744 27.637C123.284 29.847 121.264 31.537 120.114 33.207C118.904 34.957 117.484 36.677 116.524 38.447C117.924 37.787 119.424 37.947 119.474 39.727C121.094 38.487 122.244 36.807 123.394 35.107C123.414 34.427 122.884 34.227 122.754 33.677C123.664 31.537 123.544 28.387 124.544 26.357C124.984 26.347 125.414 26.347 125.854 26.347Z" fill="white"/>
<path fill-rule="evenodd" clip-rule="evenodd" d="M131.584 29.367C131.744 29.367 131.904 29.367 132.074 29.367C132.684 31.697 131.524 33.317 131.094 35.587C130.744 37.427 131.254 39.907 129.614 40.667C129.374 37.257 130.864 32.897 131.584 29.367Z" fill="white"/>
<path fill-rule="evenodd" clip-rule="evenodd" d="M49.7344 30.967C49.9744 32.117 48.6144 32.647 47.9344 33.197C44.0744 36.307 40.5044 40.337 36.3044 43.367C35.4744 43.987 34.5044 44.477 33.6944 45.117C33.0044 45.687 32.3944 46.907 31.2344 46.547C32.0344 44.697 33.9644 43.727 35.4944 42.577C40.1544 39.057 44.3844 34.557 49.0844 30.957C49.3044 30.967 49.5244 30.967 49.7344 30.967Z" fill="white"/>
<path fill-rule="evenodd" clip-rule="evenodd" d="M54.3144 34.797C54.6544 35.917 53.1944 36.667 52.5144 37.177C47.5644 40.977 41.9844 44.687 37.1344 48.797C36.4244 49.377 35.6344 50.547 34.5144 50.237C35.4544 48.507 37.1844 47.237 38.7644 45.927C40.2844 44.657 42.0544 43.457 43.6844 42.267C46.9844 39.837 50.3344 37.257 53.5044 35.097C53.6544 35.007 53.7744 34.827 53.9944 34.797C54.1044 34.797 54.2144 34.797 54.3144 34.797Z" fill="white"/>
<path fill-rule="evenodd" clip-rule="evenodd" d="M135.514 34.797C136.144 36.327 134.564 37.027 134.854 38.767C132.844 40.547 133.254 44.737 130.604 45.927C130.054 44.907 131.854 43.737 131.904 42.267C130.664 42.687 129.784 43.907 128.954 44.817C123.994 50.257 118.714 56.037 113.734 61.677C112.984 62.537 112.414 64.107 110.944 64.247C111.964 61.587 114.254 59.557 116.184 57.547C120.104 53.477 123.444 49.217 127.474 44.977C130.564 41.687 133.364 39.347 135.004 34.797C135.184 34.797 135.344 34.797 135.514 34.797Z" fill="white"/>
<path fill-rule="evenodd" clip-rule="evenodd" d="M128.474 36.847C128.084 38.897 126.214 40.447 124.864 41.957C122.094 45.067 119.244 48.027 116.524 51.327C115.234 52.887 114.114 54.947 112.094 55.787C112.514 53.837 114.274 52.517 115.534 51.007C119.474 46.337 123.694 41.537 127.814 36.837C128.034 36.847 128.254 36.847 128.474 36.847Z" fill="white"/>
<path fill-rule="evenodd" clip-rule="evenodd" d="M55.6344 41.487C50.8944 45.817 45.2843 49.587 40.2543 53.867C39.6643 54.397 39.0244 55.567 37.9644 55.167C38.6444 53.467 40.3443 52.397 41.7243 51.327C45.9944 48.017 50.2944 44.387 54.8144 41.147C55.3344 41.027 55.3244 41.397 55.6344 41.487Z" fill="white"/>
<path fill-rule="evenodd" clip-rule="evenodd" d="M104.574 49.427C104.044 49.707 103.804 50.127 103.104 49.917C100.804 49.157 104.764 45.967 104.574 49.427Z" fill="white"/>
<path fill-rule="evenodd" clip-rule="evenodd" d="M92.7943 58.017C90.7143 58.167 87.9243 55.147 88.2043 53.397C88.3443 52.567 89.1543 52.097 90.0043 52.287C90.6743 52.437 91.5443 54.297 92.1243 55.007C92.8943 55.937 93.8843 57.007 92.7943 58.017Z" fill="white"/>
<path fill-rule="evenodd" clip-rule="evenodd" d="M26.1644 62.957C27.1644 64.307 26.3944 67.537 26.6544 69.967C26.7644 71.047 27.7044 73.047 26.3344 73.447C23.8044 74.227 23.4144 66.937 24.0344 64.057C24.1244 63.717 24.4744 63.187 24.6944 63.117C24.9744 62.597 25.6144 62.897 26.1644 62.957Z" fill="white"/>
<path fill-rule="evenodd" clip-rule="evenodd" d="M10.6143 85.407C10.5943 88.477 10.4743 92.787 9.29432 95.267C8.06432 94.627 9.13432 93.037 9.29432 91.777C9.55432 89.897 9.32432 87.667 9.79432 86.037C9.68432 85.607 10.1143 85.707 10.1243 85.397C10.2843 85.407 10.4443 85.407 10.6143 85.407Z" fill="white"/>
<path fill-rule="evenodd" clip-rule="evenodd" d="M12.4144 85.407C12.5844 85.407 12.7344 85.407 12.9044 85.407C13.4644 90.307 13.4144 97.357 11.9244 101.307C10.9044 100.727 11.6844 99.597 11.7644 98.767C12.0944 94.967 12.3044 90.307 12.2544 85.877C12.3344 85.757 12.4244 85.617 12.4144 85.407Z" fill="white"/>
<path fill-rule="evenodd" clip-rule="evenodd" d="M15.6943 91.117C15.9543 91.077 15.9743 91.277 16.1843 91.277C16.3543 96.387 16.6643 102.987 16.0143 107.827C14.8943 107.127 15.3643 105.457 15.3643 104.167C15.3643 100.527 15.2343 94.827 15.5243 91.587C15.4843 91.347 15.6843 91.337 15.6943 91.117Z" fill="white"/>
<path fill-rule="evenodd" clip-rule="evenodd" d="M35.6643 92.727C37.5743 92.147 38.3543 96.117 36.8043 96.547C35.2343 96.967 33.4743 93.347 35.6643 92.727Z" fill="white"/>
<path fill-rule="evenodd" clip-rule="evenodd" d="M18.3043 115.957C17.3943 115.547 17.8143 114.307 17.8143 113.567C17.7843 107.837 17.7143 99.907 17.9843 94.497C18.0243 94.307 18.3043 94.357 18.3043 94.167C18.5743 94.117 18.5843 94.307 18.7843 94.317C18.8843 100.227 19.2343 107.457 18.9543 113.887C18.9343 114.517 19.3643 115.817 18.3043 115.957Z" fill="white"/>
<path fill-rule="evenodd" clip-rule="evenodd" d="M20.2744 101.617C21.4544 102.717 20.9344 104.857 20.9344 106.557C20.9344 111.027 21.0244 115.797 20.9344 120.417C20.9244 121.097 21.3144 122.317 20.4444 122.627C19.3344 122.577 19.8144 121.147 19.7844 120.577C19.5744 114.847 19.9544 107.947 19.7844 102.107C19.7444 101.837 19.9444 101.817 19.9544 101.607C20.0544 101.617 20.1644 101.617 20.2744 101.617Z" fill="white"/>
<path fill-rule="evenodd" clip-rule="evenodd" d="M53.8244 102.887C53.9344 102.887 54.0444 102.887 54.1544 102.887C55.8144 104.477 54.9844 109.607 55.3044 113.407C55.4344 114.997 56.2644 116.407 55.1344 117.387C53.9744 117.207 54.5344 115.647 54.4844 114.847C54.3044 111.667 54.2644 106.357 53.6744 103.397C53.6244 103.117 53.8144 103.097 53.8244 102.887Z" fill="white"/>
<path fill-rule="evenodd" clip-rule="evenodd" d="M74.9443 102.887C75.0543 102.887 75.1643 102.887 75.2743 102.887C76.4743 103.847 76.1843 105.477 76.4143 106.887C77.2943 112.087 77.5843 118.597 77.8843 124.227C79.2843 118.337 77.1043 111.507 77.7243 105.917C78.7243 106.797 78.5143 108.497 78.7043 109.897C79.0443 112.457 79.3643 115.347 79.3643 118.337C79.3643 122.907 79.6943 128.037 79.3643 131.707C79.3143 132.187 79.2443 132.717 78.8743 133.137C77.7543 132.237 78.7443 130.027 77.2443 129.327C76.5443 120.537 76.2043 110.597 74.9443 102.887Z" fill="white"/>
<path fill-rule="evenodd" clip-rule="evenodd" d="M80.5144 102.887C80.6844 102.887 80.8444 102.887 81.0044 102.887C82.0044 103.967 81.7644 105.507 81.9844 106.887C83.4044 115.817 84.0444 127.047 83.6144 136.647C82.2344 136.167 82.7944 134.307 82.7944 133.297C82.7944 123.227 81.8844 111.967 80.3344 103.407C80.3044 103.117 80.5044 103.097 80.5144 102.887Z" fill="white"/>
<path fill-rule="evenodd" clip-rule="evenodd" d="M23.2243 103.857C23.4843 103.807 23.5043 104.007 23.7143 104.017C23.7143 111.387 25.0643 119.137 24.0343 126.457C22.8743 125.437 23.3843 123.027 23.3843 121.027C23.3843 115.367 22.7343 110.047 22.9043 104.477C23.0343 104.507 23.0543 104.417 23.0643 104.317C23.0143 104.087 23.2143 104.067 23.2243 103.857Z" fill="white"/>
<path fill-rule="evenodd" clip-rule="evenodd" d="M41.0544 104.327C41.2744 104.397 41.3144 104.617 41.5444 104.657C41.6544 106.077 41.3944 107.537 41.5444 108.967C41.6744 110.117 42.7544 111.797 41.3844 112.287C40.5144 110.627 40.0644 106.247 41.0544 104.327Z" fill="white"/>
<path fill-rule="evenodd" clip-rule="evenodd" d="M51.0543 104.967C52.3143 106.067 51.5743 108.527 51.7143 110.537C51.8143 112.197 52.0043 114.407 52.0343 116.587C52.0443 117.627 52.4943 119.067 51.5443 119.467C50.6543 118.947 51.0543 117.537 51.0543 116.757C51.0543 112.867 50.3943 109.727 50.5543 105.467C50.5143 105.187 50.7143 105.177 50.7243 104.977C50.8343 104.967 50.9443 104.967 51.0543 104.967Z" fill="white"/>
<path fill-rule="evenodd" clip-rule="evenodd" d="M44.5044 105.767C44.7144 105.827 44.7644 106.047 44.9944 106.097C44.5144 108.137 46.0244 109.807 45.1544 111.177C43.9444 110.417 43.6644 107.027 44.5044 105.767Z" fill="white"/>
<path fill-rule="evenodd" clip-rule="evenodd" d="M71.8344 105.917C72.8844 107.887 72.6844 110.667 72.9844 113.557C73.3544 117.187 74.6744 123.027 73.3044 127.247C72.2444 124.457 73.0244 121.417 72.8144 118.487C72.5144 114.387 71.3444 110.347 71.3444 106.387C71.4344 106.277 71.5144 106.137 71.5144 105.907C71.6144 105.917 71.7344 105.917 71.8344 105.917Z" fill="white"/>
<path fill-rule="evenodd" clip-rule="evenodd" d="M47.7744 106.887C48.4544 107.967 47.9544 109.787 48.1044 111.347C48.2144 112.457 49.0444 113.757 48.1044 114.227C46.6044 113.137 46.7144 108.937 47.2844 106.897C47.4444 106.887 47.6144 106.887 47.7744 106.887Z" fill="white"/>
<path fill-rule="evenodd" clip-rule="evenodd" d="M26.3344 109.427C27.5444 110.107 26.8644 111.277 26.8244 112.287C26.6544 116.067 27.0744 120.537 27.3144 124.377C27.4444 126.387 27.5744 128.377 26.9944 129.807C25.8644 128.497 26.4744 126.497 26.3444 124.697C25.9844 120.117 25.6044 114.857 25.8544 109.897C25.9344 109.777 26.0244 109.637 26.0144 109.427C26.1044 109.427 26.2244 109.427 26.3344 109.427Z" fill="white"/>
<path fill-rule="evenodd" clip-rule="evenodd" d="M28.7844 111.177C29.0044 111.237 29.0444 111.447 29.2744 111.507C29.3144 118.357 30.6144 125.677 29.6044 132.497C28.4744 131.897 28.9444 130.317 28.9444 129.327C28.9444 123.637 28.2044 117.437 28.6244 111.667C28.5744 111.407 28.7744 111.377 28.7844 111.177Z" fill="white"/>
<path fill-rule="evenodd" clip-rule="evenodd" d="M139.274 37.177C139.404 37.247 139.534 37.327 139.754 37.327C139.224 40.647 137.174 43.247 136.164 46.257C135.134 49.307 133.624 52.007 132.234 54.847C134.444 53.497 135.854 49.987 138.784 48.797C139.824 47.097 140.224 44.797 141.394 43.227C142.554 44.337 141.234 45.857 140.754 46.877C139.064 50.307 137.464 54.127 136.334 58.017C138.094 57.657 138.104 55.607 140.094 55.477C139.424 57.417 137.654 58.587 136.334 59.937C134.984 61.287 133.544 62.657 133.054 64.867C135.494 64.047 136.914 60.867 139.604 59.767C139.724 61.027 138.394 61.907 137.634 62.637C131.934 68.167 124.864 73.437 119.634 79.657C123.694 81.097 125.814 77.977 128.144 76.007C129.844 74.567 131.614 73.377 132.734 72.027C137.804 65.877 142.534 57.727 145.824 50.687C145.864 49.907 145.624 48.807 146.154 48.457C147.244 48.697 146.854 50.897 146.644 51.327C144.224 56.227 141.114 62.547 137.964 66.617C137.854 67.257 138.654 66.997 138.614 67.567C134.664 72.557 129.184 76.007 124.704 80.467C125.084 81.617 126.084 82.187 126.994 82.857C131.654 78.907 136.284 75.087 139.274 69.307C141.424 65.167 143.624 60.777 145.654 56.417C146.274 55.107 146.574 53.327 147.954 52.597C148.274 54.257 146.994 55.757 146.314 57.207C144.254 61.637 141.664 66.257 139.764 71.057C142.674 70.057 144.444 67.077 146.314 64.367C147.024 63.347 147.944 61.837 149.264 61.827C149.164 63.127 147.624 64.347 146.814 65.467C145.494 69.337 142.914 71.987 141.234 75.517C143.524 75.247 144.764 71.737 147.294 71.687C147.204 72.587 146.274 73.227 145.654 73.747C143.754 75.377 141.604 76.957 139.604 78.677C138.064 80.787 136.194 82.597 134.854 84.897C134.104 85.027 134.064 84.487 133.384 84.567C132.764 85.257 131.634 85.417 131.584 86.637C133.094 87.877 134.314 85.797 135.184 85.037C138.264 82.407 142.524 79.807 145.164 76.597C146.804 74.627 147.324 71.807 149.594 70.567C149.634 72.117 148.404 73.437 147.624 74.697C145.214 78.607 142.064 82.107 139.934 86.317C141.504 86.427 142.094 84.737 143.204 84.097C143.584 83.867 143.944 83.937 144.354 83.767C145.174 83.417 145.574 82.337 146.644 82.337C146.614 84.327 144.024 85.187 143.374 87.127C144.074 89.227 149.464 86.997 149.104 90.137C149.004 90.957 148.214 91.037 147.304 91.747C145.374 93.197 144.234 96.187 142.064 97.937C141.484 98.417 140.734 98.717 140.104 99.217C138.544 100.437 137.304 102.197 136.174 103.017C134.474 104.277 131.754 104.307 130.284 105.737C129.434 106.557 129.084 108.077 128.314 109.087C127.434 110.197 126.284 110.567 125.854 111.627C125.544 112.107 125.834 113.197 125.364 113.527C124.454 113.677 124.994 112.407 124.374 112.257C123.554 112.097 123.014 113.007 122.084 113.527C119.714 114.887 117.274 115.437 119.474 118.937C120.804 118.747 121.354 117.807 122.414 117.357C122.464 116.557 121.264 116.327 121.924 115.437C122.444 114.957 122.604 115.707 123.234 115.597C128.934 111.117 136.624 107.207 141.234 101.747C142.344 100.437 142.134 97.567 144.674 97.137C146.894 99.177 142.794 104.137 141.234 105.727C140.454 106.507 138.804 107.437 138.124 108.587C137.324 109.987 136.954 111.877 136.164 113.367C135.384 114.827 134.824 116.417 133.534 117.497C133.004 117.967 131.784 118.377 131.084 118.927C129.394 120.347 127.214 125.727 125.844 121.177C124.904 121.677 124.104 122.337 123.384 123.087C126.384 124.817 122.814 126.167 120.614 127.217C119.074 127.947 117.354 128.517 116.034 129.127C113.404 130.327 111.644 133.777 109.484 131.197C108.404 131.557 107.064 132.037 105.714 132.927C105.014 133.407 104.324 134.467 103.424 134.377C101.284 134.127 102.804 131.357 103.904 130.407C103.444 130.147 101.914 130.707 101.454 130.097C100.844 130.137 101.064 130.977 100.804 131.357C99.7843 131.047 99.2743 131.357 99.0043 132.147C99.6443 133.207 101.104 133.417 101.124 134.547C101.144 135.777 99.8743 135.757 98.6743 136.287C96.8643 137.057 93.4143 139.557 91.9543 137.697C91.0943 135.177 94.2743 135.617 95.0643 134.237C93.1643 134.427 90.7443 135.537 88.5143 135.967C87.6743 136.097 88.0943 134.997 87.5343 134.857C86.6443 134.857 85.8543 135.737 85.2343 135.017C85.1243 133.797 86.6343 134.137 86.5443 132.937C89.0143 132.317 91.9843 132.197 93.9143 131.037C93.7343 124.847 93.0443 118.017 92.1143 112.427C91.8443 110.817 92.4643 108.367 90.6443 107.657C89.6543 112.977 91.9543 120.167 91.4643 127.217C91.4043 128.047 91.5543 129.547 90.3143 129.607C90.7643 126.297 90.1843 120.407 89.8243 115.597C89.7043 113.937 89.5843 111.667 89.1743 110.667C88.7143 109.557 87.2943 109.147 86.8843 108.267C86.7243 110.107 87.1443 112.277 87.3743 114.817C87.7043 118.607 88.2143 123.107 88.5243 127.217C88.6243 128.567 89.6343 131.057 87.8743 131.367C87.2743 130.717 87.8743 130.377 87.8743 129.777C87.8743 128.827 87.5043 127.857 87.3843 126.747C86.9443 122.617 86.8643 117.267 86.3943 113.047C85.9743 109.307 84.2743 106.237 86.2343 103.517C85.7543 103.187 85.0243 103.097 84.7643 102.567C83.6243 98.217 92.9443 98.087 92.9443 95.877C92.9543 93.877 90.7743 95.387 89.5143 95.547C89.1143 94.597 90.8543 94.457 90.9843 93.487C90.9443 88.697 84.9343 89.707 83.6143 86.177C82.5243 85.887 81.2943 86.057 80.0143 85.537C79.1043 85.137 78.5643 84.247 77.8843 83.937C76.7343 83.427 74.0843 83.747 74.7743 81.697C75.5643 79.357 81.7143 82.827 82.7943 83.117C83.8843 83.417 85.2243 83.277 86.0743 83.767C86.5543 84.097 86.4943 84.967 86.7243 85.527C88.5343 87.947 93.3643 87.447 93.4343 91.557C96.3843 90.057 98.3243 87.447 100.644 85.197C101.344 84.517 102.104 83.477 103.254 83.437C102.674 85.197 100.684 86.757 99.1743 88.237C97.5943 89.757 95.9043 91.227 94.4243 92.697C94.5243 93.807 95.4443 94.127 95.7343 95.067C99.5143 92.597 101.934 88.787 105.064 85.677C105.414 85.327 105.534 85.747 106.054 85.677C107.094 84.757 108.264 84.157 109.324 83.287C110.464 82.357 111.194 80.547 113.094 80.437C112.194 82.607 110.054 83.777 108.344 85.207C103.264 89.387 98.9243 94.537 95.4143 100.477C99.4243 97.227 103.014 92.167 107.204 88.547C107.904 88.177 108.764 88.837 109.164 88.057C109.554 87.417 108.994 87.177 108.994 86.487C110.684 84.567 112.274 82.557 113.904 80.587C113.364 79.837 112.374 78.467 110.954 78.527C108.984 78.637 109.314 81.267 107.024 81.547C105.564 81.737 103.674 81.407 101.784 81.547C100.794 81.617 99.8343 81.957 98.8443 82.037C95.1543 82.317 91.5843 81.957 89.0243 82.187C87.1543 82.347 85.4543 82.727 85.2543 81.397C85.1243 80.477 86.0243 80.167 86.4043 79.477C86.1443 78.727 85.4643 78.547 85.7543 77.577C86.5943 74.837 90.8643 78.617 91.6543 79.477C94.7843 79.697 98.0043 79.367 100.324 78.997C102.354 78.667 104.584 79.447 106.224 78.847C108.004 78.217 108.554 75.017 111.624 76.147C117.474 69.317 124.394 63.537 130.624 57.047C130.784 56.357 130.004 56.587 129.964 56.117C131.654 53.187 134.114 50.147 134.704 46.687C132.424 48.527 130.494 50.937 128.494 53.237C126.494 55.507 124.204 57.527 122.104 59.757C118.914 63.117 116.164 66.687 113.104 70.257C112.214 71.287 111.414 72.957 109.834 73.127C109.694 71.697 111.724 71.047 112.114 69.617C110.374 69.327 108.574 68.337 109.174 66.297C110.834 65.437 112.684 66.807 112.614 68.667C116.624 65.247 119.404 60.517 123.404 56.907C127.974 52.777 131.324 47.797 136.014 43.857C137.034 41.567 138.104 39.337 139.274 37.177ZM112.754 76.167C113.914 76.747 114.514 77.867 116.034 78.077C117.604 75.847 119.764 74.517 121.764 72.667C124.704 69.967 127.234 67.257 129.944 64.397C131.294 62.957 133.054 61.727 134.034 60.247C135.564 57.927 136.294 53.837 137.474 51.337C137.464 51.237 137.454 51.157 137.314 51.187C129.724 60.087 120.814 67.697 112.754 76.167ZM120.124 75.537C118.914 76.567 117.024 77.537 117.014 79.347C118.784 79.647 119.824 77.807 120.784 76.797C124.114 73.287 127.914 70.247 131.254 66.937C130.364 65.957 131.884 65.047 131.254 64.547C127.654 68.157 123.924 72.297 120.124 75.537ZM134.694 78.547C134.354 78.457 134.234 78.167 133.714 78.237C131.884 80.207 129.424 81.597 127.984 83.967C130.004 86.967 132.414 84.127 134.204 82.517C137.734 79.367 140.784 74.657 142.554 70.917C138.854 72.417 137.324 76.017 134.694 78.547ZM114.724 81.417C113.824 82.657 112.454 83.457 111.944 85.067C113.444 84.357 114.164 82.877 115.544 82.067C115.504 81.617 115.254 81.367 114.724 81.417ZM134.364 87.467C138.674 88.287 139.584 84.487 141.084 82.067C141.044 81.917 140.944 81.857 140.754 81.897C138.694 83.827 136.134 85.257 134.364 87.467ZM115.044 84.597C112.624 87.397 108.544 89.967 107.354 92.877C111.564 91.027 113.984 87.157 117.504 84.597C118.374 83.977 119.544 83.787 119.794 82.517C116.774 81.647 116.184 83.307 115.044 84.597ZM121.924 82.677C119.384 84.337 117.524 86.647 115.374 88.577C114.174 89.657 112.734 90.637 112.264 92.087C113.694 91.447 114.974 89.837 116.524 89.837C116.324 91.467 114.494 91.697 113.404 92.397C112.534 92.947 111.814 93.757 110.954 94.307C110.094 94.887 108.764 95.197 108.664 96.377C110.074 96.217 111.284 95.147 112.424 94.307C116.134 91.597 119.884 88.727 123.064 85.717C123.904 86.027 124.244 85.407 124.694 84.927C124.144 83.817 123.484 82.827 121.924 82.677ZM125.364 85.877C123.084 88.267 120.234 90.117 118.324 92.877C119.064 93.297 119.604 93.867 120.444 94.167C121.704 93.047 122.954 91.907 124.214 90.807C125.444 89.737 127.164 88.917 127.814 87.317C126.864 86.957 126.704 85.847 125.364 85.877ZM128.304 88.747C127.324 89.567 126.424 91.087 125.034 92.237C123.624 93.407 121.824 94.267 121.434 95.577C122.314 96.547 123.084 95.447 123.724 94.957C126.004 93.227 128.664 91.367 130.114 89.227C129.714 88.297 128.774 88.327 128.304 88.747ZM138.624 92.397C136.494 95.237 133.754 98.037 131.914 100.217C134.214 98.377 136.644 96.177 138.954 93.997C140.224 92.797 141.944 91.837 142.564 90.167C140.774 88.877 139.564 91.137 138.624 92.397ZM135.674 92.087C131.644 94.847 127.844 97.837 124.704 101.467C128.594 98.937 131.604 95.547 135.674 93.187C136.244 93.057 136.294 93.427 136.824 93.347C137.424 92.027 138.634 91.297 139.114 89.837C137.294 89.947 136.824 91.347 135.674 92.087ZM132.894 90.497C130.334 92.007 127.674 95.207 125.694 97.017C125.794 97.377 126.234 97.447 126.344 97.797C129.484 95.607 132.544 93.327 135.024 90.487C134.274 90.357 133.354 90.227 132.894 90.497ZM101.464 96.227C103.644 95.037 105.054 93.147 106.374 91.117C104.374 92.467 102.954 94.367 101.464 96.227ZM132.894 101.307C136.334 99.377 138.674 96.307 141.894 94.167C142.224 93.077 143.604 92.207 143.524 91.287C140.074 94.717 136.044 97.597 132.894 101.307ZM112.434 97.327C113.834 96.767 114.684 95.687 115.224 94.307C114.004 94.957 112.094 95.707 112.434 97.327ZM118.494 94.627C117.104 96.257 113.904 96.947 113.904 99.397C115.734 97.897 118.214 97.017 119.154 94.627C118.924 94.627 118.704 94.627 118.494 94.627ZM133.874 95.577C131.474 97.187 129.294 99.337 127.334 101.467C126.414 102.477 124.544 102.927 124.544 104.487C126.054 103.697 127.654 102.637 128.804 101.467C130.694 99.517 132.614 97.677 134.364 95.577C134.204 95.577 134.034 95.577 133.874 95.577ZM95.7343 97.017C94.6043 98.297 93.2043 99.447 91.6443 100.357C91.6643 100.647 91.8343 102.187 92.4643 102.417C93.9843 100.497 95.3143 98.397 96.7243 96.367C96.2643 96.227 95.9143 96.797 95.7343 97.017ZM119.304 96.547C118.044 98.277 114.304 99.147 114.724 101.467C116.904 100.247 119.264 98.887 120.124 96.547C119.854 96.547 119.584 96.547 119.304 96.547ZM104.904 99.087C105.954 99.197 107.754 98.007 107.524 96.857C106.284 97.237 105.154 97.747 104.904 99.087ZM123.234 99.087C124.134 98.587 124.814 97.877 125.524 97.177C124.594 97.547 123.234 98.357 123.234 99.087ZM109.644 99.727C110.534 100.017 111.764 98.727 111.434 97.807C110.494 97.477 109.204 98.697 109.644 99.727ZM101.634 101.467C102.444 101.677 104.034 100.577 103.764 99.727C102.654 99.927 102.214 100.747 101.634 101.467ZM106.374 102.247C107.374 102.027 108.164 101.567 108.504 100.697C108.524 100.277 108.244 100.187 108.024 100.057C107.444 100.687 105.874 101.107 106.374 102.247ZM96.8843 102.887C97.9843 102.337 99.0843 101.737 99.5043 100.517C99.4643 100.357 99.3143 100.277 99.1843 100.227C98.4443 101.037 96.3643 101.367 96.8843 102.887ZM111.284 101.617C111.834 101.307 112.354 100.967 112.594 100.367C112.384 100.347 112.364 100.147 112.094 100.217C112.004 100.857 111.224 100.837 111.284 101.617ZM116.364 104.027C118.394 103.087 120.344 102.067 121.434 100.217C119.364 101.097 117.904 102.587 116.364 104.027ZM86.5643 103.537C88.1643 103.447 87.7743 105.337 88.8643 105.767C89.7643 104.497 90.5643 102.337 90.3343 100.507C88.4543 100.907 87.4543 102.187 86.5643 103.537ZM110.794 104.327C112.004 103.757 113.404 103.367 113.584 101.787C112.094 102.097 111.144 102.927 110.794 104.327ZM116.194 107.027C118.774 106.227 120.354 103.537 121.594 101.947C120.074 103.837 116.154 104.167 116.194 107.027ZM102.444 105.457C103.454 104.797 104.604 104.247 105.064 103.047C104.834 103.027 104.794 102.787 104.574 102.757C103.914 103.617 102.074 104.107 102.444 105.457ZM106.704 104.327C107.544 104.167 107.984 103.557 108.174 102.757C107.324 102.847 106.474 103.697 106.704 104.327ZM94.4243 104.817C95.0543 104.767 95.7243 104.167 95.4043 103.697C94.6843 103.667 94.1643 104.397 94.4243 104.817ZM97.8543 106.557C98.8643 106.707 100.984 105.147 100.314 104.177C99.5643 105.017 97.9843 105.087 97.8543 106.557ZM125.364 105.917C126.354 105.767 126.644 104.947 127.164 104.327C126.364 104.687 125.774 105.217 125.364 105.917ZM92.2943 105.767C93.1443 105.887 93.3043 105.347 93.2843 104.657C92.5843 104.667 92.2443 105.017 92.2943 105.767ZM102.774 108.967C104.444 108.447 106.134 107.137 105.394 104.817C103.994 105.547 101.634 106.777 102.774 108.967ZM120.454 108.297C121.474 107.407 122.824 106.787 123.394 105.457C123.354 105.277 123.224 105.187 123.074 105.147C122.564 106.447 120.524 107.107 120.454 108.297ZM99.5043 107.357C100.294 107.427 100.444 106.877 100.654 106.387C100.194 106.647 99.7943 106.967 99.5043 107.357ZM114.724 106.887C113.604 107.907 110.764 108.797 111.774 110.867C113.054 110.027 116.464 108.627 114.724 106.887ZM92.9443 108.787C92.6343 109.427 93.0043 110.177 93.2743 110.697C93.9543 110.827 94.5843 111.017 95.4043 111.017C95.4643 109.457 96.8843 108.437 96.8843 107.357C95.1743 106.777 95.1043 109.777 92.9443 108.787ZM118.824 111.967C121.004 111.867 121.654 109.427 122.254 108.297C121.124 109.547 119.384 110.207 118.824 111.967ZM131.744 111.657C131.984 111.737 132.144 111.897 132.244 112.127C133.754 111.867 135.604 110.357 134.694 108.797C133.724 109.747 132.194 110.177 131.744 111.657ZM99.8243 111.507C100.054 110.557 99.9243 110.027 99.6643 109.127C98.5243 109.127 98.6043 111.557 99.8243 111.507ZM103.914 112.597C104.434 112.687 104.344 112.177 104.744 112.117C103.974 110.987 104.844 110.307 105.394 109.577C103.484 109.017 102.454 111.507 103.914 112.597ZM98.0343 111.177C95.4443 111.867 97.8443 108.237 98.0343 111.177V111.177ZM108.504 113.877C109.734 113.607 111.574 111.587 109.984 110.537C109.814 111.887 108.304 112.687 108.504 113.877ZM125.524 116.747C127.454 116.027 129.804 114.387 130.924 112.927C131.014 112.817 131.644 111.817 131.244 111.817C129.324 113.437 127.184 114.857 125.524 116.747ZM93.7743 113.727C93.9843 119.357 94.8643 125.697 95.0843 131.877C93.3143 133.087 90.5643 133.337 88.8643 134.587C92.7043 134.397 95.2843 132.957 97.2143 130.927C98.4443 130.837 99.1143 130.217 99.8343 129.647C99.8843 126.857 100.304 123.897 99.5143 121.687C99.1543 120.687 97.9943 120.167 97.8743 119.147C97.7043 117.647 98.7043 116.337 98.5343 114.857C97.6143 113.897 95.0743 113.747 93.7743 113.727ZM130.434 115.797C131.954 115.887 132.384 114.917 132.734 113.877C131.884 113.827 130.704 114.787 130.434 115.797ZM113.904 117.387C114.644 117.407 114.794 116.857 114.884 116.267C114.264 116.327 113.594 116.907 113.904 117.387ZM105.394 122.167C105.944 121.377 106.864 120.947 107.194 119.927C105.794 118.317 103.884 121.007 105.394 122.167ZM119.144 122.627C120.654 121.677 122.404 120.937 123.564 119.617C121.414 119.857 119.234 120.907 119.144 122.627ZM101.944 128.997C102.964 128.667 103.424 127.797 104.234 127.257C103.904 126.577 103.544 125.907 103.584 124.887C101.094 124.987 102.024 121.727 101.134 120.247C100.974 120.247 100.814 120.247 100.644 120.247C100.924 122.697 100.254 127.397 101.944 128.997Z" fill="white"/>
<path fill-rule="evenodd" clip-rule="evenodd" d="M85.9043 7.41698C86.2343 8.28698 85.1543 8.49698 84.9243 9.16698C84.7243 9.75698 85.0843 10.297 84.7643 10.897C83.5643 13.177 80.1243 13.807 77.7243 15.057C77.8443 17.387 75.5843 18.087 74.2843 19.507C74.6843 20.407 76.8143 20.537 77.7243 19.977C79.8443 22.657 83.6543 19.817 86.8943 18.547C88.7043 17.857 92.7043 17.067 95.0743 16.647C97.5443 16.207 101.624 15.677 104.394 16.337C105.134 16.497 106.034 17.137 106.854 17.277C109.154 17.637 111.874 16.877 113.884 18.397C114.874 19.117 115.304 21.927 116.674 22.217C117.464 22.377 117.914 21.667 119.134 21.737C121.314 23.237 118.514 26.407 116.184 24.917C114.904 25.537 114.014 26.527 112.744 27.147C111.744 29.037 111.304 32.317 109.154 32.557C109.474 30.847 111.264 29.227 111.604 26.987C110.634 26.127 109.814 27.387 108.494 27.627C105.674 28.117 101.874 26.897 99.6543 28.107C101.474 30.587 108.494 29.647 107.184 34.327C106.624 36.277 102.164 38.657 99.8143 39.257C97.5443 39.837 94.7643 39.117 92.2743 39.407C90.4743 39.637 88.4843 40.297 86.8843 40.677C85.0343 41.117 83.5043 42.047 82.7843 43.067C83.0143 49.077 84.6743 53.647 86.7143 57.877C90.2643 59.847 96.2443 59.797 100.134 61.677C101.244 62.227 102.944 63.117 102.264 64.877C100.504 65.867 99.2343 63.997 97.5143 63.447C93.2443 62.027 87.5843 62.317 84.9143 59.457C79.4243 59.507 79.0543 54.557 78.6943 49.597C77.6343 49.017 76.8943 49.407 75.9043 49.267C73.4843 48.947 71.6043 46.957 69.8543 46.707C69.0443 46.627 68.2243 47.047 67.2343 47.207C65.7543 47.447 64.0343 47.277 63.1443 47.847C62.2743 48.377 62.0243 49.747 61.1843 50.077C61.6543 52.897 59.7543 59.457 62.3243 61.527C64.0743 62.147 67.3743 61.817 68.0543 63.447C68.5243 64.527 67.1843 67.397 67.5643 69.487C67.9043 71.337 69.7043 73.957 71.0043 74.907C72.0343 75.657 73.6043 75.677 73.7843 76.497C74.4143 79.327 67.8143 78.227 66.0843 77.427C64.8343 76.887 63.9743 75.477 61.9943 74.737C59.2043 73.697 54.7243 74.417 53.6443 72.677C52.3943 70.657 54.0943 68.907 54.4543 66.947C53.4843 65.757 51.5643 65.267 50.0343 65.047C45.8543 64.397 39.0143 65.007 35.6343 63.127C34.5143 62.497 31.6843 59.787 31.2143 58.337C30.9243 57.477 31.4243 56.237 31.0543 55.177C30.5243 53.627 28.0543 53.477 27.4543 51.667C26.2243 51.887 26.4443 53.367 24.9943 52.947C23.3343 52.437 24.6443 48.887 26.4743 48.797C26.5343 47.247 24.9243 46.627 24.3443 45.287C23.2043 42.687 24.7643 40.007 25.3343 37.487C26.7443 35.937 27.9843 34.217 29.4243 32.697C31.9543 31.567 34.0843 30.017 37.4443 29.687C39.5043 26.897 38.5543 21.957 41.8743 20.157C42.4743 19.827 43.4143 19.887 44.3243 19.677C45.4243 19.417 46.5043 18.857 47.2743 18.717C49.1343 18.387 51.3443 18.527 53.0043 18.077C54.7043 17.617 56.7043 16.817 58.5743 16.177C60.5543 15.507 62.5943 15.067 64.1343 14.437C66.3043 13.537 68.2543 12.487 70.3543 11.707C72.5443 10.917 74.7543 10.267 76.5743 9.01699C74.7843 8.85699 72.5143 10.317 72.1643 8.52698C71.8843 7.13698 73.4143 6.82699 74.7743 6.62699C77.9243 6.14699 84.5543 6.04698 85.9043 7.41698ZM70.8543 14.577C71.5443 14.787 70.7743 15.587 71.1843 15.847C72.9543 14.437 75.1143 13.417 77.0843 12.197C74.7943 12.797 72.5843 13.437 70.8543 14.577ZM68.5543 15.207C66.4843 16.027 64.0643 17.207 61.3643 18.077C58.7643 18.917 56.1943 19.937 53.8243 20.637C51.6843 21.267 49.2643 21.017 47.2843 21.427C46.7843 21.507 43.9943 22.127 43.5243 22.367C40.9043 23.737 41.2243 29.727 39.9243 31.767C38.6743 33.717 37.0043 34.607 36.1543 36.857C42.0143 32.397 47.7443 26.807 53.3443 22.227C54.0143 21.667 54.9443 20.167 56.1243 20.947C47.8843 27.917 39.7043 36.467 30.9143 42.597C30.0143 43.217 29.0343 44.347 27.9643 44.027C28.3443 41.937 31.2643 42.277 31.8943 40.347C32.0243 39.967 31.6943 39.347 31.7343 38.927C31.9743 36.597 34.5143 35.427 35.0043 33.037C33.7143 33.527 31.9443 34.307 30.9143 35.097C29.1743 36.457 26.1343 40.547 26.6543 43.537C26.8643 44.747 28.5843 45.927 29.2743 47.687C29.6743 48.677 29.6543 50.157 30.0943 50.867C30.6843 51.817 32.7643 52.227 33.3743 53.567C34.0043 54.957 33.4643 56.327 33.8543 57.387C34.2643 58.517 36.1743 60.437 37.1343 60.907C39.4643 62.017 42.5743 61.757 45.4843 61.677C45.9143 61.417 45.7643 60.597 46.1343 60.247C49.7443 57.597 52.5343 54.167 55.3043 50.697C52.0743 52.867 48.7243 55.387 45.9643 57.877C45.0643 58.667 44.2043 59.947 42.8543 59.937C44.1043 56.417 47.0943 54.607 49.7343 52.447C50.1043 52.077 50.2643 52.737 50.8843 52.607C52.2743 51.677 53.3143 50.397 54.8043 49.587C55.4243 49.517 55.2343 50.247 55.9543 50.067C56.6843 49.227 57.4843 48.457 58.0843 47.487C58.4143 47.487 58.7443 47.487 59.0743 47.487C60.1943 45.827 62.4043 45.227 64.7943 44.797C65.1943 44.487 65.0343 43.647 65.2943 43.207C69.5543 38.387 73.9443 33.627 77.8943 28.717C79.2043 27.097 81.1043 25.637 81.6643 23.487C78.0843 23.547 76.6843 26.007 74.7843 28.087C71.3043 31.917 68.4943 35.797 65.2943 39.387C64.7443 40.017 64.3343 41.387 63.1643 41.137C63.6543 39.247 65.2743 37.947 66.4243 36.527C70.0943 32.047 73.7443 27.797 77.4043 23.487C75.2343 22.337 73.9143 24.797 72.8143 25.857C68.9443 29.627 65.6043 34.167 62.3343 38.137C61.9043 38.507 63.0043 38.827 62.5043 39.387C61.7043 40.537 60.2943 41.077 59.8843 42.577C53.7143 47.137 47.7643 52.397 41.8743 57.067C41.1043 57.667 40.1643 58.957 38.9243 58.487C38.6943 57.667 39.8843 57.277 40.3943 56.907C42.4443 55.397 44.3443 53.517 46.2843 52.127C46.2843 51.487 46.6443 51.197 46.7743 50.687C48.7043 49.557 50.2243 47.997 52.0143 46.547C53.7443 45.157 55.9743 44.037 57.4143 42.407C58.5043 41.197 59.4743 39.717 60.5243 38.427C61.5943 37.117 62.6843 35.867 63.7943 34.607C66.0343 32.047 67.9643 29.307 70.1743 26.827C71.4143 25.407 73.1143 24.587 73.9343 22.827C71.8543 20.397 70.0643 23.427 68.6943 24.747C65.5343 27.817 62.0643 31.447 59.6943 34.147C59.5143 34.597 59.5443 35.277 59.3743 35.747C57.0043 37.737 54.0743 39.017 51.6843 40.827C48.4243 43.277 45.3743 46.017 42.3443 48.627C40.4343 49.067 39.8943 51.637 38.0843 51.657C38.5143 49.777 40.2943 48.627 41.6843 47.497C43.1443 46.327 44.6943 45.197 46.1043 44.017C49.0143 41.597 52.2143 39.537 55.1043 37.177C60.9343 32.407 65.0643 26.067 70.6643 21.107C69.3943 19.827 69.1943 17.417 70.6643 16.177C68.4943 16.907 67.2643 18.857 65.7543 20.307C61.9843 23.967 57.8743 27.777 54.6243 31.767C53.9543 32.567 53.3643 33.717 52.6643 34.327C52.2043 34.707 51.5543 34.807 51.0343 35.107C49.3643 36.167 47.8743 37.707 46.2843 38.937C42.9743 41.487 39.6743 43.827 36.4643 46.267C34.9043 47.437 33.4643 49.207 31.3843 49.597C32.4643 47.507 34.6543 46.337 36.4643 44.987C41.9743 40.817 48.2243 36.927 52.9943 32.077C58.6843 26.337 63.6243 20.047 69.8643 14.897C69.1343 14.707 68.8043 15.107 68.5543 15.207ZM72.6543 18.707C74.4243 18.867 75.4943 17.027 76.4143 15.837C74.7643 16.407 73.2843 17.137 72.6543 18.707ZM106.214 19.827C105.204 19.687 104.264 19.007 103.434 18.877C100.484 18.397 96.5343 18.707 94.4343 19.507C92.9243 20.087 90.9543 22.817 89.6843 24.277C88.0943 26.127 86.9243 28.047 85.5843 29.697C82.5143 33.507 79.3743 36.777 76.9143 40.057C76.4343 40.327 77.2843 40.627 77.0743 41.157C75.9743 41.847 75.5243 43.157 73.9643 43.377C73.3543 43.287 73.4643 42.497 73.4743 41.807C72.8443 42.007 71.7843 43.207 71.0243 42.277C73.1243 37.997 76.8743 35.067 79.8643 31.617C82.9143 28.097 85.9743 24.637 88.8743 20.947C85.4243 21.657 83.5143 23.357 81.6743 25.717C77.9943 30.427 74.2643 34.907 70.5443 39.097C69.0243 40.797 66.9443 42.277 66.4443 44.517C70.4043 43.217 72.5243 45.517 74.6343 46.267C76.4443 46.907 79.0043 46.617 80.3643 47.057C80.7443 45.397 80.1643 43.347 79.5543 42.127C82.9743 38.507 86.9143 34.907 90.0343 31.137C91.0343 29.927 91.9643 27.917 93.9543 28.117C91.2943 31.737 87.3043 34.917 85.1143 38.457C87.4843 38.367 89.7243 37.087 92.4843 36.867C94.3243 36.737 96.2043 37.107 98.0543 36.867C100.684 36.557 102.794 34.737 104.424 33.687C102.444 31.477 97.6743 31.987 96.7343 28.747C91.1343 26.697 101.644 23.747 103.774 23.347C104.564 23.197 105.384 23.297 105.894 23.187C107.124 22.947 108.034 22.217 108.844 22.077C110.294 21.817 112.164 22.367 112.444 21.447C112.094 19.237 108.554 20.157 106.214 19.827ZM90.6643 20.937C89.1643 22.147 87.7543 24.077 86.2443 25.867C82.6443 30.137 78.7843 34.127 75.2843 38.147C74.7243 38.767 73.1343 39.627 73.9743 40.837C75.9043 39.727 77.1443 37.857 78.5543 36.227C82.8943 31.227 87.2543 26.267 91.1543 20.947C91.4043 20.907 91.1743 20.687 90.9843 20.637C90.9843 20.827 90.6943 20.757 90.6643 20.937ZM56.1243 51.977C57.1443 51.647 59.0843 50.677 58.0843 49.427C57.2643 50.107 56.5243 50.877 56.1243 51.977ZM49.0843 62.147C51.3343 61.967 52.5843 59.717 53.9943 58.187C55.4643 56.617 57.3643 55.047 58.2443 53.077C58.2043 52.967 58.2443 52.787 58.0843 52.787C55.0143 55.827 51.4443 58.407 49.0843 62.147ZM55.9543 58.497C54.7743 60.107 52.7643 60.927 52.0343 62.957C53.5743 63.647 54.6243 61.787 55.4643 60.727C56.6943 59.207 58.1343 57.807 58.4143 55.797C58.3843 55.637 58.2343 55.537 58.0843 55.487C57.2043 56.377 55.7943 57.037 55.9543 58.497ZM58.4143 59.457C56.9443 59.617 56.0843 61.727 55.1343 62.957C56.4743 62.657 58.7143 61.877 58.4143 59.457ZM46.3043 61.857C46.9143 62.477 47.8143 62.317 47.9443 61.377C47.4643 61.047 46.1943 61.087 46.3043 61.857ZM59.8943 63.587C59.9743 62.797 59.5743 61.887 58.7443 61.997C58.2343 62.067 57.2743 64.267 56.7843 64.537C56.9143 65.157 57.2643 65.547 57.4343 66.147C58.2643 65.377 59.7743 64.637 59.8943 63.587ZM60.8643 67.407C61.9043 66.717 62.7343 65.817 63.3343 64.707C62.9743 64.487 62.6343 64.227 62.0243 64.237C61.6943 65.347 60.9143 66.017 60.8643 67.407ZM56.1243 70.917C57.4743 71.317 60.2643 72.507 60.5443 70.427C59.9343 69.937 59.9343 71.007 59.0743 70.757C59.0143 70.177 59.0943 69.727 59.2343 69.327C58.7543 69.267 58.4943 68.997 58.4143 68.537C58.6543 67.717 59.6043 67.587 59.7243 66.637C57.5143 67.057 56.5643 68.747 56.1243 70.917ZM63.4843 69.317C64.1143 68.867 64.8343 68.497 64.7943 67.407C63.6343 67.337 63.7543 68.527 63.4843 69.317ZM63.0043 70.427C63.0343 70.187 63.6343 69.677 63.1643 69.487C62.8943 69.657 62.3543 70.277 63.0043 70.427ZM64.1343 70.427C63.9743 71.127 64.4843 71.157 64.6243 71.557C64.1443 71.577 63.6243 72.467 64.2943 72.667C64.6543 71.917 65.2943 71.247 64.9643 70.277C64.5743 70.227 64.3343 70.297 64.1343 70.427Z" fill="white"/>
</g>
</svg>
