<?xml version="1.0" encoding="UTF-8" standalone="no"?>
<!-- Generator: Adobe Illustrator 27.3.1, SVG Export Plug-In . SVG Version: 6.00 Build 0)  -->

<svg
   version="1.1"
   id="Layer_1"
   x="0px"
   y="0px"
   viewBox="0 0 215 215"
   style="enable-background:new 0 0 215 215;"
   xml:space="preserve"
   sodipodi:docname="Untitled-web-09.svg"
   inkscape:version="1.3.2 (091e20e, 2023-11-25, custom)"
   xmlns:inkscape="http://www.inkscape.org/namespaces/inkscape"
   xmlns:sodipodi="http://sodipodi.sourceforge.net/DTD/sodipodi-0.dtd"
   xmlns="http://www.w3.org/2000/svg"
   xmlns:svg="http://www.w3.org/2000/svg"><defs
   id="defs36" /><sodipodi:namedview
   id="namedview36"
   pagecolor="#ffffff"
   bordercolor="#000000"
   borderopacity="0.25"
   inkscape:showpageshadow="2"
   inkscape:pageopacity="0.0"
   inkscape:pagecheckerboard="0"
   inkscape:deskcolor="#d1d1d1"
   inkscape:zoom="0.52267442"
   inkscape:cx="228.63181"
   inkscape:cy="129.14349"
   inkscape:window-width="1920"
   inkscape:window-height="1137"
   inkscape:window-x="1912"
   inkscape:window-y="-8"
   inkscape:window-maximized="1"
   inkscape:current-layer="Layer_1" />
<style
   type="text/css"
   id="style1">
	.st0{fill:#021828;}
	.st1{fill:none;stroke:#FFFFFF;stroke-miterlimit:10;}
	.st2{fill:#FFFFFF;}
	.st3{opacity:0.7;fill:#021828;}
	.st4{fill:#FFFFFF;stroke:#021828;stroke-width:2;stroke-miterlimit:10;}
	.st5{fill-rule:evenodd;clip-rule:evenodd;fill:#FFFFFF;stroke:#021828;stroke-width:2;stroke-miterlimit:10;}
	.st6{fill:#EC00BA;}
	.st7{fill:#009520;}
	.st8{fill:#FAFCFB;}
	.st9{fill:#FF0000;}
	.st10{fill-rule:evenodd;clip-rule:evenodd;fill:#1779FF;}
	.st11{opacity:0.8;}
	.st12{fill-rule:evenodd;clip-rule:evenodd;fill:#FFFFFF;}
	.st13{fill:none;stroke:#6B7479;stroke-miterlimit:10;}
	.st14{fill:none;stroke:#6B7479;stroke-miterlimit:10;stroke-dasharray:11.9916,5.9958;}
	.st15{fill:none;stroke:#6B7479;stroke-miterlimit:10;stroke-dasharray:12.0398,6.0199;}
	.st16{fill:#BFC4CC;}
	.st17{fill:#837579;}
	.st18{fill:#CCCCCC;}
	.st19{fill:#E6E6E6;}
	.st20{fill:#B8B8B8;}
	.st21{fill:#5F5F5F;}
	.st22{fill:#9D9D9D;}
	.st23{fill:#518FE8;}
	.st24{fill:#65BBFF;}
	.st25{fill:#165F9F;}
	.st26{fill:#87D0E0;}
	.st27{fill:#C9974B;}
	.st28{fill:#EBC26C;}
	.st29{fill:#AB7835;}
	.st30{fill:#965A2C;}
	.st31{fill:#F2E5DA;}
	.st32{fill:#F1C33A;}
	.st33{fill:#FFE057;}
	.st34{fill:#F7900B;}
	.st35{fill:#1F4094;}
	.st36{fill:#1B47B6;}
	.st37{fill:#3F72E9;}
	.st38{fill:#6B9DED;}
	.st39{fill:#2750B8;}
	.st40{fill:#133BA1;}
	.st41{fill-rule:evenodd;clip-rule:evenodd;fill:#010007;}
	.st42{fill-rule:evenodd;clip-rule:evenodd;fill:#18171D;}
	.st43{fill-rule:evenodd;clip-rule:evenodd;}
	.st44{fill-rule:evenodd;clip-rule:evenodd;fill:#2E2D30;}
	.st45{fill-rule:evenodd;clip-rule:evenodd;fill:#1B1B1F;}
	.st46{fill-rule:evenodd;clip-rule:evenodd;fill:#3B3B3B;}
	.st47{fill-rule:evenodd;clip-rule:evenodd;fill:#F0982F;}
	.st48{fill-rule:evenodd;clip-rule:evenodd;fill:#C35719;}
	.st49{fill-rule:evenodd;clip-rule:evenodd;fill:#9E470F;}
	.st50{fill-rule:evenodd;clip-rule:evenodd;fill:#B35014;}
	.st51{fill-rule:evenodd;clip-rule:evenodd;fill:#BF5517;}
	.st52{fill:#B35014;}
	.st53{fill:#F7BB06;}
	.st54{fill:#1E1E1E;}
	.st55{fill:#393939;}
	.st56{fill:#0E0E0E;}
	.st57{fill:#151515;}
	.st58{fill:#838383;}
	.st59{fill:#51341F;}
	.st60{fill:#2B160D;}
	.st61{fill:#7E583C;}
	.st62{fill:#3F2614;}
	.st63{fill:#604029;}
	.st64{fill:#1B1B1B;}
	.st65{fill:#2A2A2A;}
	.st66{fill:#940000;}
	.st67{fill:#541D12;}
	.st68{fill:#7A0000;}
	.st69{fill:#F1BC95;}
	.st70{fill:#EC762D;}
	.st71{fill:#E6BDB3;}
	.st72{fill:#FF8537;}
	.st73{fill:#D16824;}
	.st74{fill:#D18D6D;}
	.st75{fill:#C77752;}
	.st76{fill:#DEB08A;}
	.st77{fill:#F0B88F;}
	.st78{fill:#DF9876;}
	.st79{fill:#4F2900;}
	.st80{fill:#422200;}
	.st81{fill:#703A00;}
	.st82{fill:#272727;}
	.st83{fill:#FFB700;}
	.st84{fill-rule:evenodd;clip-rule:evenodd;fill:#CECECE;}
	.st85{fill-rule:evenodd;clip-rule:evenodd;fill:#A19E9C;}
	.st86{fill-rule:evenodd;clip-rule:evenodd;fill:#7C7774;}
	.st87{fill:#DD9100;}
	.st88{fill:#F77211;}
	.st89{fill:#1D1D1D;}
	.st90{fill:#C97735;}
	.st91{fill:#BC5705;}
	.st92{fill:#BD4D00;}
	.st93{fill:#E07705;}
	.st94{fill:#E09C05;}
	.st95{fill:#EDA94D;}
	.st96{fill:#916C28;}
	.st97{fill:#636363;}
	.st98{fill:#888888;}
	.st99{fill:#4A4A4A;}
	.st100{fill:#BFBFBF;}
	.st101{fill:#0F0F0F;}
	.st102{fill:#D8E2EC;}
	.st103{fill:#ADC2D7;}
	.st104{fill:#6D6D6D;}
	.st105{fill:#D6B163;}
	.st106{fill:#91693A;}
	.st107{fill:#B78841;}
	.st108{fill:#7D5129;}
	.st109{fill:#613F1F;}
	.st110{fill:#996232;}
	.st111{fill:#AD7E45;}
	.st112{fill:#471D1D;}
	.st113{fill:#DAB697;}
	.st114{fill:#BF8937;}
	.st115{fill:#C2BFB4;}
	.st116{fill:#FFDC91;}
	.st117{fill:#D6AC54;}
	.st118{fill:#B39876;}
	.st119{fill:#C9C9C9;}
	.st120{fill:#EBEBEB;}
	.st121{fill:#ABABAB;}
	.st122{fill:#125200;}
	.st123{fill:#11FF00;}
	.st124{fill:#94000A;}
	.st125{fill:#F91F43;}
	.st126{fill:#868686;}
	.st127{fill:#BA6900;}
	.st128{fill:#DE9A23;}
	.st129{fill:#F87F12;}
	.st130{fill:#C7C7C7;}
	.st131{fill:#3D3D3D;}
	.st132{fill:#451803;}
	.st133{fill:#541D04;}
	.st134{fill:#690000;}
	.st135{fill:#F2F2F2;}
	.st136{fill:#C2C2C2;}
	.st137{fill:#A7A7A7;}
	.st138{fill:#A3A3A3;}
	.st139{fill:#373737;}
	.st140{fill:#4E4E4E;}
	.st141{fill:#C3C3C3;}
	.st142{fill:#0A0A0A;}
	.st143{fill:#2A8DDE;}
	.st144{fill:#0262C2;}
	.st145{fill:#2D2D2D;}
	.st146{fill:#414141;}
	.st147{fill:#B7B7B7;}
	.st148{fill:#8895C7;}
	.st149{fill:#98B3E6;}
	.st150{fill:#ABCEFF;}
	.st151{fill:#046DBA;}
	.st152{fill:#2A5275;}
	.st153{fill:#31618A;}
	.st154{fill:#998385;}
	.st155{fill:#D1C9CA;}
	.st156{fill:#7E898D;}
	.st157{fill:#545354;}
	.st158{fill:#CF1F30;}
	.st159{fill:#002D54;}
	.st160{fill:url(#SVGID_00000114070411688755616770000017196878172220257718_);}
	.st161{fill:#D3C9CA;}
	.st162{fill:#14375E;}
	.st163{fill:#BCAEAF;}
	.st164{fill:#A3B5C9;}
	.st165{fill:#8F8F8F;}
	.st166{fill:#6485AC;}
	.st167{fill:#7DA6D6;}
	.st168{fill:#746872;}
	.st169{fill:#EBE7E7;}
	.st170{fill:#73757D;}
	.st171{fill:#38363A;}
	.st172{fill:#696969;}
	.st173{fill:url(#SVGID_00000137134309291489531300000011151481593446705292_);}
	.st174{fill:url(#SVGID_00000143597965553889725660000016052217500071601827_);}
	.st175{fill:#B1B1B1;}
	.st176{fill:#41313E;}
	.st177{fill:#E64958;}
	.st178{fill:#BF3737;}
	.st179{fill:#FE8B95;}
	.st180{fill:#E06969;}
	.st181{fill:url(#SVGID_00000048482900627400930700000011672241737230695568_);}
	.st182{fill:#E0E0E0;}
	.st183{fill:url(#SVGID_00000057828498891709302700000014507161727271180464_);}
	.st184{fill:#3B4345;}
	.st185{fill:#C06262;}
	.st186{fill:#C16767;}
	.st187{fill:#C26D6D;}
	.st188{fill:#C27272;}
	.st189{fill:#C37878;}
	.st190{fill:#C47D7D;}
	.st191{fill:#C58383;}
	.st192{fill:#C68888;}
	.st193{fill:#C68E8E;}
	.st194{fill:#C79393;}
	.st195{fill:#C89999;}
	.st196{fill:#C99E9E;}
	.st197{fill:#C9A4A4;}
	.st198{fill:#CAA9A9;}
	.st199{fill:#CBAFAF;}
	.st200{fill:#CCB4B4;}
	.st201{fill:#CDBABA;}
	.st202{fill:#CDBFBF;}
	.st203{fill:#CEC5C5;}
	.st204{fill:#CFCACA;}
	.st205{fill:#313131;}
	.st206{fill:#1F1F1F;}
	.st207{fill:#3B3B3B;}
	.st208{fill:#727272;}
	.st209{fill:#A9A9A9;}
	.st210{fill:#E9EAE7;}
	.st211{fill:#737373;}
	.st212{fill:#949494;}
	.st213{fill:#575757;}
	.st214{fill:#CDCDCD;}
	.st215{fill:#DCDED9;}
	.st216{fill:#181818;}
	.st217{fill:#252525;}
	.st218{fill:#5C5C5C;}
	.st219{fill:#7E7E7E;}
	.st220{fill:#424242;}
	.st221{fill:#585858;}
	.st222{fill:#4F4F4F;}
	.st223{fill:#FFE72A;}
	.st224{fill:#FCAB2A;}
	.st225{fill:#EFA12A;}
	.st226{fill:#CD8732;}
	.st227{fill:#FFBD29;}
	.st228{fill:#F6A629;}
	.st229{fill:#0D0D0D;}
	.st230{fill:#1A1A1A;}
	.st231{fill:#6C6C6C;}
	.st232{fill:#404040;}
	.st233{fill:#676767;}
	.st234{fill:#92978D;}
	.st235{fill:#73796C;}
	.st236{fill:#C5CAD8;}
	.st237{fill:#CCD1DE;}
	.st238{fill:#2E2E2E;}
	.st239{fill:#ABB2B2;}
	.st240{fill:#616161;}
	.st241{fill:#131313;}
	.st242{fill:#C0FFFF;}
	.st243{fill:url(#SVGID_00000179611620453931951040000004188787892553712021_);}
	.st244{fill:#65818A;}
	.st245{fill:#A6DDFF;}
	.st246{fill:url(#SVGID_00000090997778794795116810000012722228767868075447_);}
	.st247{clip-path:url(#SVGID_00000005974963874092106060000011293706920314952372_);}
	.st248{clip-path:url(#SVGID_00000005974963874092106060000011293706920314952372_);fill:#1F1F1F;}
	.st249{clip-path:url(#SVGID_00000005974963874092106060000011293706920314952372_);fill:#2A2A2A;}
	.st250{clip-path:url(#SVGID_00000005974963874092106060000011293706920314952372_);fill:#1D1D1D;}
	.st251{clip-path:url(#SVGID_00000005974963874092106060000011293706920314952372_);fill:#3B3B3B;}
	.st252{clip-path:url(#SVGID_00000005974963874092106060000011293706920314952372_);fill:#727272;}
	.st253{clip-path:url(#SVGID_00000005974963874092106060000011293706920314952372_);fill:#A9A9A9;}
	.st254{clip-path:url(#SVGID_00000005974963874092106060000011293706920314952372_);fill:#E9EAE7;}
	.st255{clip-path:url(#SVGID_00000005974963874092106060000011293706920314952372_);fill:#737373;}
	.st256{clip-path:url(#SVGID_00000005974963874092106060000011293706920314952372_);fill:#949494;}
	.st257{clip-path:url(#SVGID_00000005974963874092106060000011293706920314952372_);fill:#CDCDCD;}
	.st258{clip-path:url(#SVGID_00000005974963874092106060000011293706920314952372_);fill:#DCDED9;}
	.st259{clip-path:url(#SVGID_00000005974963874092106060000011293706920314952372_);fill:#E0E0E0;}
	.st260{fill:#212121;}
	.st261{fill:#EA7C00;}
	.st262{fill:#666666;}
	.st263{fill:#E3EAF5;}
	.st264{fill:#BDC3D6;}
	.st265{fill:#D8DDE8;}
	.st266{fill:#6F94A3;}
	.st267{fill:#D5D5D5;}
	.st268{fill:url(#SVGID_00000064341530776581773380000007996607427604430226_);}
	.st269{fill:url(#SVGID_00000025403895485070577720000006825279333317807494_);}
	.st270{fill:#DA5400;}
	.st271{fill:#FFB345;}
	.st272{fill:#111111;}
	.st273{fill:#242424;}
	.st274{fill:#030303;}
	.st275{fill:#161714;}
	.st276{fill:#FF8D31;}
	.st277{fill:#454545;}
	.st278{fill:#606666;}
	.st279{fill:#FFF2D1;}
	.st280{fill:url(#SVGID_00000118370459300561432150000016895865698128560783_);}
	.st281{fill:#42413D;}
	.st282{fill:#949491;}
	.st283{fill:#6A6869;}
	.st284{fill:#EBEAE5;}
	.st285{fill:#9A998E;}
	.st286{fill:#7B7B6D;}
	.st287{fill:#727071;}
	.st288{fill:#AEAEAE;}
	.st289{fill:#D1EBEE;}
	.st290{fill:#829AA9;}
	.st291{fill:url(#SVGID_00000101083668756654794290000014820257169945756351_);}
	.st292{fill:url(#SVGID_00000121959280422802185840000015928824498302788515_);}
	.st293{fill:#1C1C1A;}
	.st294{fill:#555454;}
	.st295{fill:#767576;}
	.st296{fill:url(#SVGID_00000026146989396922029460000003407840845448479154_);}
	.st297{fill:#DB3400;}
	.st298{fill:#040404;}
	.st299{fill:#20211E;}
	.st300{clip-path:url(#SVGID_00000100343153184611687160000000403130212873468567_);}
	.st301{clip-path:url(#SVGID_00000100343153184611687160000000403130212873468567_);fill:#1F1F1F;}
	.st302{clip-path:url(#SVGID_00000100343153184611687160000000403130212873468567_);fill:#2A2A2A;}
	.st303{clip-path:url(#SVGID_00000100343153184611687160000000403130212873468567_);fill:#1D1D1D;}
	.st304{clip-path:url(#SVGID_00000100343153184611687160000000403130212873468567_);fill:#3B3B3B;}
	.st305{clip-path:url(#SVGID_00000100343153184611687160000000403130212873468567_);fill:#727272;}
	.st306{clip-path:url(#SVGID_00000100343153184611687160000000403130212873468567_);fill:#A9A9A9;}
	.st307{clip-path:url(#SVGID_00000100343153184611687160000000403130212873468567_);fill:#E9EAE7;}
	.st308{clip-path:url(#SVGID_00000100343153184611687160000000403130212873468567_);fill:#4D4D4D;}
	.st309{clip-path:url(#SVGID_00000100343153184611687160000000403130212873468567_);fill:#949494;}
	.st310{clip-path:url(#SVGID_00000100343153184611687160000000403130212873468567_);fill:#DCDED9;}
	.st311{clip-path:url(#SVGID_00000100343153184611687160000000403130212873468567_);fill:#C4C4C4;}
	.st312{fill:#8C4D00;}
	.st313{fill:#135E00;}
	.st314{fill:#C7C6C4;}
	.st315{clip-path:url(#SVGID_00000158718510730283470880000014978481217798469517_);fill:#1D1D1D;}
	.st316{clip-path:url(#SVGID_00000158718510730283470880000014978481217798469517_);}
	.st317{clip-path:url(#SVGID_00000158718510730283470880000014978481217798469517_);fill:#1F1F1F;}
	.st318{clip-path:url(#SVGID_00000158718510730283470880000014978481217798469517_);fill:#2A2A2A;}
	.st319{clip-path:url(#SVGID_00000158718510730283470880000014978481217798469517_);fill:#3B3B3B;}
	.st320{clip-path:url(#SVGID_00000158718510730283470880000014978481217798469517_);fill:#727272;}
	.st321{clip-path:url(#SVGID_00000158718510730283470880000014978481217798469517_);fill:#A9A9A9;}
	.st322{clip-path:url(#SVGID_00000158718510730283470880000014978481217798469517_);fill:#E9EAE7;}
	.st323{clip-path:url(#SVGID_00000158718510730283470880000014978481217798469517_);fill:#4D4D4D;}
	.st324{clip-path:url(#SVGID_00000158718510730283470880000014978481217798469517_);fill:#949494;}
	.st325{clip-path:url(#SVGID_00000158718510730283470880000014978481217798469517_);fill:#DCDED9;}
	.st326{clip-path:url(#SVGID_00000158718510730283470880000014978481217798469517_);fill:#C4C4C4;}
	.st327{fill:#4A4A45;}
	.st328{fill:#363631;}
	.st329{fill:url(#SVGID_00000045612102722728849360000002379731103927736481_);}
	.st330{fill:#C59A08;}
	.st331{fill:#FFDC14;}
	.st332{fill:#FFF013;}
	.st333{fill:#FFDD26;}
	.st334{fill:#5A5858;}
	.st335{fill:#EDFF4D;}
	.st336{fill:#8D8B8B;}
	.st337{fill:#146194;}
	.st338{fill:#8D9DAF;}
	.st339{fill:#C3CDD9;}
	.st340{fill:#728599;}
	.st341{fill:#A7B4C4;}
	.st342{fill:#FDFFF8;}
	.st343{fill:#D1A202;}
	.st344{fill:#F1BD00;}
	.st345{fill:#FBC605;}
	.st346{fill:#FFDF17;}
	.st347{fill:#E7EBF0;}
	.st348{fill:#CCD8E3;}
	.st349{fill:#FAFDFF;}
	.st350{fill:#BCC6D1;}
	.st351{fill:#4D7185;}
	.st352{fill:#95B4C6;}
	.st353{fill:#FFD60D;}
	.st354{fill:#456475;}
	.st355{fill:#9DC2FF;}
	.st356{fill:#E0E8EF;}
	.st357{fill:#4BC7B6;}
	.st358{fill:#22A896;}
	.st359{fill:#FCC201;}
	.st360{fill:#B28A01;}
	.st361{fill:#BA7D01;}
	.st362{fill:#835B09;}
	.st363{fill:#C89A00;}
	.st364{fill:#AC7300;}
	.st365{fill:#C9011F;}
	.st366{fill:#7F0113;}
	.st367{fill:#720111;}
	.st368{fill:#50060E;}
	.st369{fill:#950016;}
	.st370{fill:#790012;}
	.st371{fill:#018ADF;}
	.st372{fill:#015B95;}
	.st373{fill:#015388;}
	.st374{fill:#073E66;}
	.st375{fill:#0069AB;}
	.st376{fill:#00588F;}
	.st377{fill:#8C8C8C;}
	.st378{fill:#E8E8E8;}
	.st379{fill:#001929;}
	.st380{fill:#612F00;}
	.st381{fill:#290100;}
	.st382{fill:#282828;}
	.st383{fill:#7A1400;}
	.st384{fill:#B10A0A;}
	.st385{fill:#C41A1A;}
	.st386{fill:#2C2C2C;}
	.st387{fill:#595959;}
	.st388{fill:url(#SVGID_00000090259600245728819080000008288152383525760182_);}
	.st389{fill:#A89A97;}
	.st390{fill:url(#SVGID_00000059999251916904558990000006446107295461742758_);}
	.st391{fill:#CB7C00;}
	.st392{fill:#802307;}
	.st393{fill:#BB5900;}
	.st394{fill:#CE7E00;}
	.st395{fill:#DC9200;}
	.st396{fill:#913108;}
	.st397{fill:#CD6F00;}
	.st398{fill:#DF9400;}
	.st399{fill:#FFBD2E;}
	.st400{fill:#FCA000;}
	.st401{fill:#FFA200;}
	.st402{fill:#FC8300;}
	.st403{fill:#ED7700;}
	.st404{fill:#B1350A;}
	.st405{fill:#D66F00;}
	.st406{fill:#D16B00;}
	.st407{fill:#7D7D7D;}
	.st408{fill:url(#SVGID_00000000219137654769774750000012576386873691555215_);}
	.st409{fill:url(#SVGID_00000114778249221534905710000014848542346185329540_);}
	.st410{fill:#3F3F3F;}
	.st411{fill:url(#SVGID_00000084489092367872956180000009555941491569611160_);}
	.st412{fill:url(#SVGID_00000104708116038887933450000013139755044787226274_);}
	.st413{fill:url(#SVGID_00000037655809753784791820000006144785935606136476_);}
	.st414{fill:url(#SVGID_00000121251835101854272880000011335277452108620163_);}
	.st415{fill:url(#SVGID_00000022557685987832528040000001062105646029177237_);}
	.st416{fill:#542700;}
	.st417{fill:#954A00;}
	.st418{fill:#FC9120;}
	.st419{fill:#F99801;}
	.st420{fill:#DCDCDC;}
	.st421{fill:#FEFEFE;}
	.st422{fill:#D61D00;}
	.st423{fill:#292929;}
	.st424{fill:#434343;}
	.st425{fill:#4B4B4B;}
	.st426{fill:#2E2A25;}
	.st427{fill:url(#SVGID_00000062194062999685281820000000936410228771925382_);}
	.st428{fill:url(#SVGID_00000042711835094216135290000012587974943074872973_);}
	.st429{fill:url(#SVGID_00000122693835858306394960000015688356790247083953_);}
	.st430{fill:#1A1815;}
	.st431{fill:url(#SVGID_00000070814006024775453740000006890234715333111482_);}
	.st432{fill:url(#SVGID_00000117634663032979868450000005975714252030499771_);}
	.st433{fill:url(#SVGID_00000119822187143607020830000011984892163909717432_);}
	.st434{clip-path:url(#SVGID_00000042006289738189002780000001274731035672608650_);}
	.st435{clip-path:url(#SVGID_00000042006289738189002780000001274731035672608650_);fill:#1F1F1F;}
	.st436{clip-path:url(#SVGID_00000042006289738189002780000001274731035672608650_);fill:#2A2A2A;}
	.st437{clip-path:url(#SVGID_00000042006289738189002780000001274731035672608650_);fill:#1D1D1D;}
	.st438{clip-path:url(#SVGID_00000042006289738189002780000001274731035672608650_);fill:#3B3B3B;}
	.st439{clip-path:url(#SVGID_00000042006289738189002780000001274731035672608650_);fill:#727272;}
	.st440{clip-path:url(#SVGID_00000042006289738189002780000001274731035672608650_);fill:#A9A9A9;}
	.st441{clip-path:url(#SVGID_00000042006289738189002780000001274731035672608650_);fill:#E9EAE7;}
	.st442{clip-path:url(#SVGID_00000042006289738189002780000001274731035672608650_);fill:#737373;}
	.st443{clip-path:url(#SVGID_00000042006289738189002780000001274731035672608650_);fill:#949494;}
	.st444{clip-path:url(#SVGID_00000042006289738189002780000001274731035672608650_);fill:#CDCDCD;}
	.st445{clip-path:url(#SVGID_00000042006289738189002780000001274731035672608650_);fill:#DCDED9;}
	.st446{clip-path:url(#SVGID_00000042006289738189002780000001274731035672608650_);fill:#E0E0E0;}
	.st447{fill:url(#SVGID_00000147194222004807110240000002871678170919545748_);}
	.st448{fill:url(#SVGID_00000109730651778655513910000017100503098468234898_);}
	.st449{fill:url(#SVGID_00000174577789993947521230000010281067373803128748_);}
	.st450{fill:#0EB0E6;}
	.st451{fill:#0085B3;}
	.st452{fill:#FF2727;}
	.st453{fill:#FF8A8A;}
	.st454{fill:#222222;}
	.st455{fill:#161616;}
	.st456{fill-rule:evenodd;clip-rule:evenodd;fill:#0D5CB8;}
	.st457{fill-rule:evenodd;clip-rule:evenodd;fill:#1155A6;}
	.st458{fill-rule:evenodd;clip-rule:evenodd;fill:#00499E;}
	.st459{fill-rule:evenodd;clip-rule:evenodd;fill:#2577D9;}
	.st460{fill-rule:evenodd;clip-rule:evenodd;fill:#2F2F2F;}
	.st461{fill:#2B2B2B;}
	.st462{fill-rule:evenodd;clip-rule:evenodd;fill:#1D1D1D;}
	.st463{fill-rule:evenodd;clip-rule:evenodd;fill:#808080;}
	.st464{fill-rule:evenodd;clip-rule:evenodd;fill:#A1A1A1;}
	.st465{fill-rule:evenodd;clip-rule:evenodd;fill:#666666;}
	.st466{fill-rule:evenodd;clip-rule:evenodd;fill:#525252;}
	.st467{fill:#6E6E6E;}
	.st468{fill-rule:evenodd;clip-rule:evenodd;fill:#B3B3B3;}
	.st469{fill:#703918;}
	.st470{fill:#A3632E;}
	.st471{fill:#CF9742;}
	.st472{fill:#BF926D;}
	.st473{fill:#E8AC51;}
	.st474{fill:#8F491E;}
	.st475{fill-rule:evenodd;clip-rule:evenodd;fill:#D4D4D4;}
	.st476{fill:#B66828;}
	.st477{fill:#824A1D;}
	.st478{fill:#808080;}
	.st479{fill:#A1A1A1;}
	.st480{fill:#27A427;}
	.st481{fill:#084D08;}
	.st482{fill:#0069A2;}
	.st483{fill-rule:evenodd;clip-rule:evenodd;fill:#CCCCCC;}
</style>

<g
   class="st11"
   id="g36">
	<path
   class="st483"
   d="M76.39,194.57c-0.85-2.99,1.65-5.71,2.62-8.6c1.01-3.01,2.19-5.92,3.27-8.75   c-11.67-3.65-22.16-8.15-30.61-14.96c-6.09-4.93-12.12-10.65-16.04-17.83c-1.33-2.42-3-4.69-4.09-7.16   c-1.42-3.14-2.46-6.89-3.77-10.49c-3.18-8.85-3.83-18.67-2.78-30.41c0.45-5.02,2.39-9.99,4.1-14.63c1.74-4.8,3.78-8.87,6.38-12.42   c2.74-3.74,5.16-7.55,8.02-10.82c2.9-3.32,6.2-6.35,9.33-9.4c3.44-3.33,6.9-5.79,10.8-8.12c3.93-2.33,8.33-3.79,12.94-6.04   c8.83-4.3,19.19-7.6,30.44-8.11c25-1.15,42.59,8.08,55,19.57c6.54,6.04,11.63,12.32,16.04,21c4.11,8.1,7.37,18.1,7.36,29.3   c0,25.1-8.76,40.26-20.78,52.83c-10.49,10.97-27.53,20.79-48.13,21.81c-1.48,0.07-3.17-0.32-4.58,0c-1.54,0.35-2.94,2.59-4.09,3.34   c-1.31,0.87-2.74,1.53-4.09,2.39c-3.86,2.45-7.86,4.9-11.63,7.78c-3.71,2.85-7.38,5.35-11.63,7.82   C79.27,193.36,78.1,194.99,76.39,194.57z M94.73,142.85c0.24,2.75-0.68,5.62,0,8.43c0.3,1.25,2.32,3.41,3.27,4.61   c2.57,3.28,3.93,6.02,6.71,9.07c1.09,1.21,3.16,3.56,4.25,3.84c2.18,0.52,6.11-0.18,8.84-0.49c14.39-1.65,25.17-5.94,34.21-12.09   c3.61-2.44,7.32-5.28,10.15-8.27c11.4-12.11,21.86-29,20.47-52.85c-0.6-10.17-3.73-19.54-7.69-27.21   c-7.95-15.33-20.42-26.7-37.16-33.25c-8.26-3.25-18.74-5.85-30.61-5.11c-20.8,1.3-37.06,10.38-48.29,22.14   c-11.1,11.62-20.55,28.73-18.65,49.65c0.64,7,3.47,13.42,6.38,18.61c2.96,5.3,5.59,11.12,9.49,15.61c1.84,2.13,4.47,4.03,6.71,5.89   c4.72,3.91,9.24,7.76,14.41,10.98c2.49,1.54,5.19,3.31,8.35,4.15c-0.24-3.43-1.35-7.32-1.64-11.15c-0.09-1.17-0.19-2.62,0-3.81   c0.13-0.82,0.69-1.61,0.81-2.56c0.2-1.55,0-3.62,0-5.26c0-1.81-0.57-3.99,0.65-4.44c1.24,3.14-0.53,6.98,0.33,10.01   c0.2,0.71,1.37,1.62,1.96,2.58c1.85,2.89,3.82,5.7,6.06,7.62c0.41-5.52-0.85-10.74-1.31-15.44c-0.16-1.61-0.74-3.6,0.49-4.93   C93.15,133.69,94.31,138.23,94.73,142.85z M57.41,143.48c-0.09-1.08-0.21-2.59-0.5-3.34c-0.5-1.28-2.18-2.1-3.11-3.18   c-3.08-3.62-5.42-8.76-8.34-13.68c-2.09-3.53-4.1-6.89-5.57-10.98c-0.5-1.42-1.34-2.74-1.63-3.99c-1.18-5.03-1.26-12.7-0.99-18.62   c0.05-1.04-0.07-2,0-2.87c0.12-1.46,0.83-2.08,1.15-3.01c0.6-1.77,0.79-3.58,1.3-5.26c3.78-12.31,9.58-21.08,17.52-29.59   c-0.16,0-0.33,0-0.48,0C41.92,63.5,28.32,77.7,27.12,104.33c-0.26,5.64,0.41,10.67,1.47,15.27c1.57,6.78,3.83,13.48,6.87,19.1   c1.52,2.79,2.96,5.78,4.75,8.27c4.3,6.03,10.38,11.24,16.54,15.45c4.85,3.32,9.71,6.3,15.54,8.43c3.85,1.4,7.68,3.68,12.61,3.35   c2.03,1.08,0.36,2.83-0.33,4.44c-1.39,3.32-2.85,7.22-3.6,10.36c4.92-2.13,8.67-5.83,12.93-8.76c2.15-1.45,4.38-2.82,6.54-4.29   c2.19-1.48,4.72-2.47,6.71-4.28c-1.46-1.1-2.91-2.16-3.43-4.15c-4.45-5.08-8.75-11.05-12.78-16.4c-1.37-1.83-2.29-4.1-4.25-5.24   c0.75,4.57,1.35,9.28,2.12,13.83c-1.41,2.1-2.91-0.38-4.9-0.48c-0.21,2.39,1.52,5.81,0.81,8.13c-2.15-2.1-0.61-7.78-3.27-9.39   c-0.34,0.75,0.19,1.73,0.33,2.69c0.29,2.06,0.83,5.26-0.33,6.7c-0.46-0.9-0.26-2.07-0.32-3.2c-0.16-2.66-0.31-6.8-2.3-7.47   c-0.11,2,0.62,4.4,0.82,6.38c0.17,1.57,0.33,3.31-0.16,3.82c-1.3-0.4-0.73-2.08-0.81-3.19c-0.31-3.72-0.54-9.64-3.93-9.38   c-0.51,1.48,0.46,3,0.82,4.6c0.45,1.98,1.21,4.53,0,6.05c-0.92-0.73-0.41-1.65-0.5-2.54c-0.28-3.11-1.75-5.59-1.47-9.22   c-0.74-0.57-1.11-1.48-2.45-1.44c0.21,1.83,0.65,4.09,0.99,6.21c0.32,2.03,1.08,4.99-0.17,5.88c-0.88-0.57-0.42-1.85-0.5-2.69   c-0.15-1.85-0.58-3.96-0.81-5.9c-0.22-1.9-0.26-4.41-1.8-5.1c-0.23,2.33,0.44,5.25,0.66,7.97c0.12,1.5,0.3,3.47-0.49,4.6   c-1.08-4.15-0.69-9.72-1.64-13.99c-0.59-0.33-1.09-1.44-1.8-1.13c0.68,2.9-0.03,7.95,0.49,11.47c0.17,1.15,1.63,2.9-0.16,3.34   c-1.32-1.99-0.64-5.28-0.81-8.29c-0.25-4.2-0.31-9.59-3.93-10.33c-0.17,3.28,0.6,7.57,0.82,11.45c0.07,1.21-0.15,2.42,0,3.52   c0.14,1.07,1.14,2.47-0.49,3.01c-1.04-1.39-0.37-3.42-0.48-5.41c-0.22-3.86-0.72-8.99-1.15-12.42c0.06-0.53,0.93-0.26,0.98-0.79   c-1-0.43-1.6-2.03-2.78-1.75c0.88,2.5,0.33,6,0.49,9.38c0.06,1.22,0.39,2.63,0.49,3.83c0.1,1.21,0.52,3.11-0.82,3.51   C57.27,153.74,57.79,148.32,57.41,143.48z"
   id="path2" />
	<path
   class="st483"
   d="M135.81,40.18c-1.04,0.47-2.04-0.16-2.62-0.64c-2.77-0.35-4.86-1.34-7.53-2.21   c-1.68-0.55-6.59-1.45-6.22-3.51c0.37-2.06,3.84-0.02,5.24,0.48c1.11,0.38,2.54,0.91,4.09,1.44   C131.72,36.73,137.72,37.26,135.81,40.18z"
   id="path3" />
	<path
   class="st483"
   d="M80.8,39.54c-0.66-1.9,1.62-2.99,3.61-3.8c1.16-0.49,5.67-2.14,5.73,0.16c0.03,1.48-2.09,1.34-3.44,1.73   C84.63,38.24,82.76,40.69,80.8,39.54z"
   id="path4" />
	<path
   class="st483"
   d="M142.35,40.97c0.14,0.41,0.22,0.87,0.16,1.43c-0.77,0.93-3.11,0.93-3.43-0.15   C138.61,40.71,140.83,40.2,142.35,40.97z"
   id="path5" />
	<path
   class="st483"
   d="M122.23,46.55c-0.12,1.67-1.81,2.05-2.79,3.01c-0.81,0.8-1.33,1.93-2.12,2.87   c-4.26,5.04-9.41,10.09-13.58,15.44c-0.63,0.81-1,2.22-2.3,2.22c0.41-1.99,2.34-3.85,3.77-5.55c2.89-3.45,5.94-6.89,9-10.35   c2.48-2.84,4.5-5.58,7.53-7.8C122,46.35,122.01,46.55,122.23,46.55z"
   id="path6" />
	<path
   class="st483"
   d="M142.03,52.6c0.13,0.07,0.27,0.18,0.49,0.16c0.4,3.08-2.05,5.74-3.43,7.95c-0.58,0.93-1.13,1.88-1.81,2.72   c-0.58,0.74-1.19,2.14-2.29,1.89c0.4-1.91,2.2-3.22,3.27-5.09C139.69,57.79,141.28,55.78,142.03,52.6z"
   id="path7" />
	<path
   class="st483"
   d="M150.38,53.07c1.06,0.66,0.37,2.19,0.49,3.84c0.04,0.57,0.36,0.92,0.33,1.26c-0.18,1.74-2,3.87-3.11,5.41   c-2.42,3.36-5.15,6.3-7.86,9.22c-1.23,1.33-2.7,3.36-4.58,3.67c0.71-1.77,2.38-2.81,3.59-4.13c1.24-1.35,2.44-2.74,3.44-4.31   c-1.36,0.35-2.97,1.44-3.93,0c-0.96,0.29-1.04,1.43-2.29,1.43c-0.04-1.44,1.47-2.37,2.29-3.33c2.61-3.08,4.93-6.9,7.54-10.17   c0.3-0.56,0-1.69,0.98-1.6c0.54,2.21-1.48,3.9-2.63,5.57c-1.21,1.75-2.63,3.47-3.59,5.24c1.4-0.66,2.9-0.5,2.95,1.28   c1.62-1.24,2.77-2.92,3.92-4.62c0.02-0.68-0.51-0.88-0.64-1.43c0.91-2.14,0.79-5.29,1.79-7.32   C149.51,53.07,149.94,53.07,150.38,53.07z"
   id="path8" />
	<path
   class="st483"
   d="M156.11,56.1c0.16,0,0.32,0,0.49,0c0.61,2.33-0.55,3.95-0.98,6.22c-0.35,1.84,0.16,4.32-1.48,5.08   C153.9,63.99,155.39,59.62,156.11,56.1z"
   id="path9" />
	<path
   class="st483"
   d="M74.27,57.7c0.24,1.15-1.12,1.68-1.8,2.23c-3.86,3.11-7.43,7.14-11.63,10.17c-0.83,0.62-1.8,1.11-2.61,1.75   c-0.69,0.57-1.3,1.79-2.46,1.43c0.8-1.85,2.73-2.82,4.26-3.97c4.66-3.52,8.89-8.02,13.59-11.62C73.83,57.7,74.05,57.7,74.27,57.7z"
   id="path10" />
	<path
   class="st483"
   d="M78.84,61.52c0.34,1.12-1.12,1.87-1.8,2.38c-4.95,3.8-10.53,7.51-15.38,11.62c-0.71,0.58-1.5,1.75-2.62,1.44   c0.94-1.73,2.67-3,4.25-4.31c1.52-1.27,3.29-2.47,4.92-3.66c3.3-2.43,6.65-5.01,9.82-7.17c0.15-0.09,0.27-0.27,0.49-0.3   C78.63,61.52,78.74,61.52,78.84,61.52z"
   id="path11" />
	<path
   class="st483"
   d="M160.04,61.52c0.63,1.53-0.95,2.23-0.66,3.97c-2.01,1.78-1.6,5.97-4.25,7.16c-0.55-1.02,1.25-2.19,1.3-3.66   c-1.24,0.42-2.12,1.64-2.95,2.55c-4.96,5.44-10.24,11.22-15.22,16.86c-0.75,0.86-1.32,2.43-2.79,2.57c1.02-2.66,3.31-4.69,5.24-6.7   c3.92-4.07,7.26-8.33,11.29-12.57c3.09-3.29,5.89-5.63,7.53-10.18C159.71,61.52,159.87,61.52,160.04,61.52z"
   id="path12" />
	<path
   class="st483"
   d="M153,63.58c-0.39,2.05-2.26,3.6-3.61,5.11c-2.77,3.11-5.62,6.07-8.34,9.37c-1.29,1.56-2.41,3.62-4.43,4.46   c0.42-1.95,2.18-3.27,3.44-4.78c3.94-4.67,8.16-9.47,12.28-14.17C152.56,63.58,152.78,63.58,153,63.58z"
   id="path13" />
	<path
   class="st483"
   d="M80.16,68.22c-4.74,4.33-10.35,8.1-15.38,12.38c-0.59,0.53-1.23,1.7-2.29,1.3c0.68-1.7,2.38-2.77,3.76-3.84   c4.27-3.31,8.57-6.94,13.09-10.18C79.86,67.76,79.85,68.13,80.16,68.22z"
   id="path14" />
	<path
   class="st483"
   d="M129.1,76.15c-0.53,0.28-0.77,0.7-1.47,0.49C125.33,75.89,129.29,72.69,129.1,76.15z"
   id="path15" />
	<path
   class="st483"
   d="M117.32,84.75c-2.08,0.15-4.87-2.87-4.59-4.62c0.14-0.83,0.95-1.3,1.8-1.11c0.67,0.15,1.54,2.01,2.12,2.72   C117.43,82.67,118.41,83.74,117.32,84.75z"
   id="path16" />
	<path
   class="st483"
   d="M50.69,89.68c1,1.35,0.23,4.58,0.49,7.01c0.11,1.08,1.05,3.08-0.32,3.48c-2.53,0.78-2.92-6.51-2.3-9.39   c0.09-0.34,0.44-0.87,0.66-0.94C49.5,89.33,50.14,89.63,50.69,89.68z"
   id="path17" />
	<path
   class="st483"
   d="M35.14,112.13c-0.02,3.07-0.14,7.38-1.32,9.86c-1.23-0.64-0.16-2.23,0-3.49c0.26-1.88,0.03-4.11,0.5-5.74   c-0.11-0.43,0.32-0.33,0.33-0.64C34.81,112.13,34.97,112.13,35.14,112.13z"
   id="path18" />
	<path
   class="st483"
   d="M36.94,112.13c0.17,0,0.32,0,0.49,0c0.56,4.9,0.51,11.95-0.98,15.9c-1.02-0.58-0.24-1.71-0.16-2.54   c0.33-3.8,0.54-8.46,0.49-12.89C36.86,112.49,36.95,112.35,36.94,112.13z"
   id="path19" />
	<path
   class="st483"
   d="M40.22,117.85c0.26-0.04,0.28,0.16,0.49,0.16c0.17,5.11,0.48,11.71-0.17,16.55   c-1.12-0.7-0.65-2.37-0.65-3.66c0-3.64-0.13-9.34,0.16-12.58C40.01,118.08,40.21,118.07,40.22,117.85z"
   id="path20" />
	<path
   class="st483"
   d="M60.19,119.46c1.91-0.58,2.69,3.39,1.14,3.82C59.76,123.69,58,120.08,60.19,119.46z"
   id="path21" />
	<path
   class="st483"
   d="M42.83,142.68c-0.91-0.41-0.49-1.65-0.49-2.39c-0.03-5.73-0.1-13.66,0.17-19.07   c0.04-0.19,0.32-0.14,0.32-0.33c0.27-0.05,0.28,0.14,0.48,0.15c0.1,5.91,0.45,13.14,0.17,19.57   C43.46,141.25,43.89,142.54,42.83,142.68z"
   id="path22" />
	<path
   class="st483"
   d="M44.8,128.34c1.18,1.1,0.66,3.24,0.66,4.94c0,4.47,0.09,9.24,0,13.86c-0.01,0.68,0.38,1.9-0.49,2.21   c-1.11-0.05-0.63-1.48-0.66-2.05c-0.21-5.73,0.17-12.63,0-18.47c-0.04-0.27,0.16-0.29,0.17-0.5   C44.58,128.34,44.69,128.34,44.8,128.34z"
   id="path23" />
	<path
   class="st483"
   d="M78.35,129.61c0.11,0,0.22,0,0.33,0c1.66,1.59,0.83,6.72,1.15,10.52c0.13,1.59,0.96,3-0.17,3.98   c-1.16-0.18-0.6-1.74-0.65-2.54c-0.18-3.18-0.22-8.49-0.81-11.45C78.15,129.85,78.34,129.83,78.35,129.61z"
   id="path24" />
	<path
   class="st483"
   d="M99.47,129.61c0.11,0,0.22,0,0.33,0c1.2,0.96,0.91,2.59,1.14,4c0.88,5.2,1.17,11.71,1.47,17.34   c1.4-5.89-0.78-12.72-0.16-18.31c1,0.88,0.79,2.58,0.98,3.98c0.34,2.56,0.66,5.45,0.66,8.44c0,4.57,0.33,9.7,0,13.37   c-0.05,0.48-0.12,1.01-0.49,1.43c-1.12-0.9-0.13-3.11-1.63-3.81C101.07,147.27,100.73,137.33,99.47,129.61z"
   id="path25" />
	<path
   class="st483"
   d="M105.04,129.61c0.17,0,0.33,0,0.49,0c1,1.08,0.76,2.62,0.98,4c1.42,8.93,2.06,20.16,1.63,29.76   c-1.38-0.48-0.82-2.34-0.82-3.35c0-10.07-0.91-21.33-2.46-29.89C104.83,129.85,105.03,129.83,105.04,129.61z"
   id="path26" />
	<path
   class="st483"
   d="M47.75,130.59c0.26-0.05,0.28,0.15,0.49,0.16c0,7.37,1.35,15.12,0.32,22.44c-1.16-1.02-0.65-3.43-0.65-5.43   c0-5.66-0.65-10.98-0.48-16.55c0.13,0.03,0.15-0.06,0.16-0.16C47.54,130.82,47.74,130.8,47.75,130.59z"
   id="path27" />
	<path
   class="st483"
   d="M65.58,131.05c0.22,0.07,0.26,0.29,0.49,0.33c0.11,1.42-0.15,2.88,0,4.31c0.13,1.15,1.21,2.83-0.16,3.32   C65.04,137.36,64.59,132.97,65.58,131.05z"
   id="path28" />
	<path
   class="st483"
   d="M75.58,131.69c1.26,1.1,0.52,3.56,0.66,5.57c0.1,1.66,0.29,3.87,0.32,6.05c0.01,1.04,0.46,2.48-0.49,2.88   c-0.89-0.52-0.49-1.93-0.49-2.71c0-3.89-0.66-7.03-0.5-11.29c-0.04-0.28,0.16-0.29,0.17-0.49   C75.36,131.69,75.47,131.69,75.58,131.69z"
   id="path29" />
	<path
   class="st483"
   d="M69.03,132.5c0.21,0.06,0.26,0.28,0.49,0.33c-0.48,2.04,1.03,3.71,0.16,5.08   C68.48,137.15,68.19,133.76,69.03,132.5z"
   id="path30" />
	<path
   class="st483"
   d="M96.36,132.64c1.05,1.97,0.85,4.75,1.15,7.64c0.37,3.63,1.69,9.47,0.32,13.69   c-1.06-2.79-0.28-5.83-0.49-8.76c-0.3-4.1-1.47-8.14-1.47-12.1c0.09-0.11,0.17-0.25,0.17-0.48   C96.14,132.64,96.26,132.64,96.36,132.64z"
   id="path31" />
	<path
   class="st483"
   d="M72.3,133.61c0.68,1.08,0.18,2.9,0.33,4.46c0.11,1.11,0.94,2.41,0,2.88c-1.5-1.09-1.39-5.29-0.82-7.33   C71.97,133.61,72.14,133.61,72.3,133.61z"
   id="path32" />
	<path
   class="st483"
   d="M50.86,136.16c1.21,0.68,0.53,1.85,0.49,2.86c-0.17,3.78,0.25,8.25,0.49,12.09c0.13,2.01,0.26,4-0.32,5.43   c-1.13-1.31-0.52-3.31-0.65-5.11c-0.36-4.58-0.74-9.84-0.49-14.8c0.08-0.12,0.17-0.26,0.16-0.47   C50.63,136.16,50.75,136.16,50.86,136.16z"
   id="path33" />
	<path
   class="st483"
   d="M53.31,137.9c0.22,0.06,0.26,0.27,0.49,0.33c0.04,6.85,1.34,14.17,0.33,20.99c-1.13-0.6-0.66-2.18-0.66-3.17   c0-5.69-0.74-11.89-0.32-17.66C53.1,138.13,53.3,138.11,53.31,137.9z"
   id="path34" />
	<path
   class="st483"
   d="M163.8,63.91c0.13,0.07,0.26,0.15,0.48,0.15c-0.53,3.32-2.58,5.92-3.59,8.93c-1.03,3.05-2.54,5.75-3.93,8.59   c2.21-1.35,3.62-4.86,6.55-6.05c1.04-1.7,1.44-4,2.61-5.57c1.16,1.11-0.16,2.63-0.64,3.65c-1.69,3.43-3.29,7.25-4.42,11.14   c1.76-0.36,1.77-2.41,3.76-2.54c-0.67,1.94-2.44,3.11-3.76,4.46c-1.35,1.35-2.79,2.72-3.28,4.93c2.44-0.82,3.86-4,6.55-5.1   c0.12,1.26-1.21,2.14-1.97,2.87c-5.7,5.53-12.77,10.8-18,17.02c4.06,1.44,6.18-1.68,8.51-3.65c1.7-1.44,3.47-2.63,4.59-3.98   c5.07-6.15,9.8-14.3,13.09-21.34c0.04-0.78-0.2-1.88,0.33-2.23c1.09,0.24,0.7,2.44,0.49,2.87c-2.42,4.9-5.53,11.22-8.68,15.29   c-0.11,0.64,0.69,0.38,0.65,0.95c-3.95,4.99-9.43,8.44-13.91,12.9c0.38,1.15,1.38,1.72,2.29,2.39c4.66-3.95,9.29-7.77,12.28-13.55   c2.15-4.14,4.35-8.53,6.38-12.89c0.62-1.31,0.92-3.09,2.3-3.82c0.32,1.66-0.96,3.16-1.64,4.61c-2.06,4.43-4.65,9.05-6.55,13.85   c2.91-1,4.68-3.98,6.55-6.69c0.71-1.02,1.63-2.53,2.95-2.54c-0.1,1.3-1.64,2.52-2.45,3.64c-1.32,3.87-3.9,6.52-5.58,10.05   c2.29-0.27,3.53-3.78,6.06-3.83c-0.09,0.9-1.02,1.54-1.64,2.06c-1.9,1.63-4.05,3.21-6.05,4.93c-1.54,2.11-3.41,3.92-4.75,6.22   c-0.75,0.13-0.79-0.41-1.47-0.33c-0.62,0.69-1.75,0.85-1.8,2.07c1.51,1.24,2.73-0.84,3.6-1.6c3.08-2.63,7.34-5.23,9.98-8.44   c1.64-1.97,2.16-4.79,4.43-6.03c0.04,1.55-1.19,2.87-1.97,4.13c-2.41,3.91-5.56,7.41-7.69,11.62c1.57,0.11,2.16-1.58,3.27-2.22   c0.38-0.23,0.74-0.16,1.15-0.33c0.82-0.35,1.22-1.43,2.29-1.43c-0.03,1.99-2.62,2.85-3.27,4.79c0.7,2.1,6.09-0.13,5.73,3.01   c-0.1,0.82-0.89,0.9-1.8,1.61c-1.93,1.45-3.07,4.44-5.24,6.19c-0.58,0.48-1.33,0.78-1.96,1.28c-1.56,1.22-2.8,2.98-3.93,3.8   c-1.7,1.26-4.42,1.29-5.89,2.72c-0.85,0.82-1.2,2.34-1.97,3.35c-0.88,1.11-2.03,1.48-2.46,2.54c-0.31,0.48-0.02,1.57-0.49,1.9   c-0.91,0.15-0.37-1.12-0.99-1.27c-0.82-0.16-1.36,0.75-2.29,1.27c-2.37,1.36-4.81,1.91-2.61,5.41c1.33-0.19,1.88-1.13,2.94-1.58   c0.05-0.8-1.15-1.03-0.49-1.92c0.52-0.48,0.68,0.27,1.31,0.16c5.7-4.48,13.39-8.39,18-13.85c1.11-1.31,0.9-4.18,3.44-4.61   c2.22,2.04-1.88,7-3.44,8.59c-0.78,0.78-2.43,1.71-3.11,2.86c-0.8,1.4-1.17,3.29-1.96,4.78c-0.78,1.46-1.34,3.05-2.63,4.13   c-0.53,0.47-1.75,0.88-2.45,1.43c-1.69,1.42-3.87,6.8-5.24,2.25c-0.94,0.5-1.74,1.16-2.46,1.91c3,1.73-0.57,3.08-2.77,4.13   c-1.54,0.73-3.26,1.3-4.58,1.91c-2.63,1.2-4.39,4.65-6.55,2.07c-1.08,0.36-2.42,0.84-3.77,1.73c-0.7,0.48-1.39,1.54-2.29,1.45   c-2.14-0.25-0.62-3.02,0.48-3.97c-0.46-0.26-1.99,0.3-2.45-0.31c-0.61,0.04-0.39,0.88-0.65,1.26c-1.02-0.31-1.53,0-1.8,0.79   c0.64,1.06,2.1,1.27,2.12,2.4c0.02,1.23-1.25,1.21-2.45,1.74c-1.81,0.77-5.26,3.27-6.72,1.41c-0.86-2.52,2.32-2.08,3.11-3.46   c-1.9,0.19-4.32,1.3-6.55,1.73c-0.84,0.13-0.42-0.97-0.98-1.11c-0.89,0-1.68,0.88-2.3,0.16c-0.11-1.22,1.4-0.88,1.31-2.08   c2.47-0.62,5.44-0.74,7.37-1.9c-0.18-6.19-0.87-13.02-1.8-18.61c-0.27-1.61,0.35-4.06-1.47-4.77c-0.99,5.32,1.31,12.51,0.82,19.56   c-0.06,0.83,0.09,2.33-1.15,2.39c0.45-3.31-0.13-9.2-0.49-14.01c-0.12-1.66-0.24-3.93-0.65-4.93c-0.46-1.11-1.88-1.52-2.29-2.4   c-0.16,1.84,0.26,4.01,0.49,6.55c0.33,3.79,0.84,8.29,1.15,12.4c0.1,1.35,1.11,3.84-0.65,4.15c-0.6-0.65,0-0.99,0-1.59   c0-0.95-0.37-1.92-0.49-3.03c-0.44-4.13-0.52-9.48-0.99-13.7c-0.42-3.74-2.12-6.81-0.16-9.53c-0.48-0.33-1.21-0.42-1.47-0.95   c-1.14-4.35,8.18-4.48,8.18-6.69c0.01-2-2.17-0.49-3.43-0.33c-0.4-0.95,1.34-1.09,1.47-2.06c-0.04-4.79-6.05-3.78-7.37-7.31   c-1.09-0.29-2.32-0.12-3.6-0.64c-0.91-0.4-1.45-1.29-2.13-1.6c-1.15-0.51-3.8-0.19-3.11-2.24c0.79-2.34,6.94,1.13,8.02,1.42   c1.09,0.3,2.43,0.16,3.28,0.65c0.48,0.33,0.42,1.2,0.65,1.76c1.81,2.42,6.64,1.92,6.71,6.03c2.95-1.5,4.89-4.11,7.21-6.36   c0.7-0.68,1.46-1.72,2.61-1.76c-0.58,1.76-2.57,3.32-4.08,4.8c-1.58,1.52-3.27,2.99-4.75,4.46c0.1,1.11,1.02,1.43,1.31,2.37   c3.78-2.47,6.2-6.28,9.33-9.39c0.35-0.35,0.47,0.07,0.99,0c1.04-0.92,2.21-1.52,3.27-2.39c1.14-0.93,1.87-2.74,3.77-2.85   c-0.9,2.17-3.04,3.34-4.75,4.77c-5.08,4.18-9.42,9.33-12.93,15.27c4.01-3.25,7.6-8.31,11.79-11.93c0.7-0.37,1.56,0.29,1.96-0.49   c0.39-0.64-0.17-0.88-0.17-1.57c1.69-1.92,3.28-3.93,4.91-5.9c-0.54-0.75-1.53-2.12-2.95-2.06c-1.97,0.11-1.64,2.74-3.93,3.02   c-1.46,0.19-3.35-0.14-5.24,0c-0.99,0.07-1.95,0.41-2.94,0.49c-3.69,0.28-7.26-0.08-9.82,0.15c-1.87,0.16-3.57,0.54-3.77-0.79   c-0.13-0.92,0.77-1.23,1.15-1.92c-0.26-0.75-0.94-0.93-0.65-1.9c0.84-2.74,5.11,1.04,5.9,1.9c3.13,0.22,6.35-0.11,8.67-0.48   c2.03-0.33,4.26,0.45,5.9-0.15c1.78-0.63,2.33-3.83,5.4-2.7c5.85-6.83,12.77-12.61,19-19.1c0.16-0.69-0.62-0.46-0.66-0.93   c1.69-2.93,4.15-5.97,4.74-9.43c-2.28,1.84-4.21,4.25-6.21,6.55c-2,2.27-4.29,4.29-6.39,6.52c-3.19,3.36-5.94,6.93-9,10.5   c-0.89,1.03-1.69,2.7-3.27,2.87c-0.14-1.43,1.89-2.08,2.28-3.51c-1.74-0.29-3.54-1.28-2.94-3.32c1.66-0.86,3.51,0.51,3.44,2.37   c4.01-3.42,6.79-8.15,10.79-11.76c4.57-4.13,7.92-9.11,12.61-13.05C161.56,68.29,162.63,66.06,163.8,63.91z M137.28,102.9   c1.16,0.58,1.76,1.7,3.28,1.91c1.57-2.23,3.73-3.56,5.73-5.41c2.94-2.7,5.47-5.41,8.18-8.27c1.35-1.44,3.11-2.67,4.09-4.15   c1.53-2.32,2.26-6.41,3.44-8.91c-0.01-0.1-0.02-0.18-0.16-0.15C154.25,86.81,145.34,94.43,137.28,102.9z M144.65,102.27   c-1.21,1.03-3.1,2-3.11,3.81c1.77,0.3,2.81-1.54,3.77-2.55c3.33-3.51,7.13-6.55,10.47-9.86c-0.89-0.98,0.63-1.89,0-2.39   C152.18,94.89,148.45,99.02,144.65,102.27z M159.22,105.28c-0.34-0.09-0.46-0.38-0.98-0.31c-1.83,1.97-4.29,3.36-5.73,5.73   c2.02,3,4.43,0.16,6.22-1.45c3.53-3.15,6.58-7.86,8.35-11.6C163.38,99.14,161.85,102.74,159.22,105.28z M139.25,108.15   c-0.9,1.24-2.27,2.04-2.78,3.65c1.5-0.71,2.22-2.19,3.6-3C140.04,108.35,139.78,108.09,139.25,108.15z M158.89,114.2   c4.31,0.82,5.22-2.98,6.72-5.4c-0.04-0.15-0.14-0.21-0.33-0.17C163.22,110.56,160.66,111.98,158.89,114.2z M139.57,111.33   c-2.42,2.8-6.5,5.37-7.69,8.28c4.21-1.85,6.63-5.72,10.15-8.28c0.87-0.62,2.04-0.81,2.29-2.08   C141.3,108.38,140.71,110.04,139.57,111.33z M146.45,109.41c-2.54,1.66-4.4,3.97-6.55,5.9c-1.2,1.08-2.64,2.06-3.11,3.51   c1.43-0.64,2.71-2.25,4.26-2.25c-0.2,1.63-2.03,1.86-3.12,2.56c-0.87,0.55-1.59,1.36-2.45,1.91c-0.86,0.58-2.19,0.89-2.29,2.07   c1.41-0.16,2.62-1.23,3.76-2.07c3.71-2.71,7.46-5.58,10.64-8.59c0.84,0.31,1.18-0.31,1.63-0.79   C148.67,110.54,148.01,109.56,146.45,109.41z M149.89,112.61c-2.28,2.39-5.13,4.24-7.04,7c0.74,0.42,1.28,0.99,2.12,1.29   c1.26-1.12,2.51-2.26,3.77-3.36c1.23-1.07,2.95-1.89,3.6-3.49C151.39,113.68,151.23,112.58,149.89,112.61z M152.83,115.47   c-0.98,0.82-1.88,2.34-3.27,3.49c-1.41,1.17-3.21,2.03-3.6,3.34c0.88,0.97,1.65-0.13,2.29-0.62c2.28-1.73,4.94-3.59,6.39-5.73   C154.24,115.03,153.3,115.05,152.83,115.47z M163.15,119.13c-2.13,2.84-4.87,5.64-6.71,7.82c2.3-1.84,4.73-4.04,7.04-6.22   c1.27-1.2,2.99-2.16,3.61-3.83C165.3,115.6,164.09,117.87,163.15,119.13z M160.21,118.82c-4.03,2.76-7.83,5.75-10.97,9.38   c3.89-2.53,6.9-5.92,10.97-8.28c0.57-0.13,0.62,0.24,1.15,0.16c0.6-1.32,1.81-2.05,2.29-3.51   C161.82,116.68,161.35,118.08,160.21,118.82z M157.42,117.23c-2.56,1.51-5.22,4.71-7.2,6.52c0.1,0.36,0.54,0.43,0.65,0.78   c3.14-2.19,6.2-4.47,8.68-7.31C158.8,117.08,157.88,116.95,157.42,117.23z M125.99,122.95c2.18-1.19,3.59-3.08,4.91-5.11   C128.9,119.2,127.48,121.1,125.99,122.95z M157.42,128.03c3.44-1.93,5.78-5,9-7.14c0.33-1.09,1.71-1.96,1.63-2.88   C164.6,121.45,160.58,124.32,157.42,128.03z M136.96,124.06c1.4-0.56,2.25-1.64,2.79-3.02   C138.53,121.68,136.62,122.43,136.96,124.06z M143.02,121.36c-1.39,1.63-4.59,2.32-4.59,4.77c1.83-1.5,4.31-2.38,5.25-4.77   C143.45,121.36,143.23,121.36,143.02,121.36z M158.4,122.31c-2.4,1.61-4.58,3.76-6.54,5.89c-0.92,1.01-2.79,1.46-2.79,3.02   c1.51-0.79,3.11-1.85,4.26-3.02c1.89-1.95,3.81-3.79,5.56-5.89C158.73,122.31,158.56,122.31,158.4,122.31z M120.26,123.75   c-1.13,1.28-2.53,2.43-4.09,3.34c0.02,0.29,0.19,1.83,0.82,2.06c1.52-1.92,2.85-4.02,4.26-6.05   C120.8,122.95,120.44,123.53,120.26,123.75z M143.83,123.27c-1.26,1.73-5,2.6-4.58,4.92c2.18-1.22,4.54-2.58,5.4-4.92   C144.38,123.27,144.11,123.27,143.83,123.27z M129.43,125.81c1.05,0.11,2.85-1.08,2.62-2.23   C130.81,123.97,129.68,124.48,129.43,125.81z M147.76,125.81c0.9-0.5,1.58-1.21,2.29-1.91   C149.12,124.28,147.77,125.08,147.76,125.81z M134.18,126.45c0.89,0.29,2.12-1,1.79-1.92   C135.02,124.21,133.73,125.43,134.18,126.45z M126.16,128.2c0.81,0.21,2.4-0.89,2.13-1.74   C127.18,126.65,126.74,127.47,126.16,128.2z M130.9,128.97c1-0.22,1.79-0.68,2.13-1.55c0.02-0.42-0.26-0.51-0.48-0.64   C131.97,127.42,130.4,127.84,130.9,128.97z M121.41,129.61c1.1-0.55,2.2-1.15,2.62-2.37c-0.04-0.16-0.19-0.24-0.32-0.29   C122.97,127.77,120.89,128.1,121.41,129.61z M135.81,128.34c0.55-0.31,1.07-0.65,1.31-1.25c-0.21-0.02-0.23-0.22-0.5-0.15   C136.53,127.58,135.75,127.57,135.81,128.34z M140.89,130.75c2.03-0.94,3.98-1.96,5.07-3.81   C143.89,127.82,142.43,129.32,140.89,130.75z M111.09,130.27c1.6-0.09,1.21,1.8,2.3,2.23c0.9-1.27,1.7-3.43,1.47-5.26   C112.98,127.64,111.98,128.92,111.09,130.27z M135.32,131.05c1.21-0.57,2.61-0.96,2.79-2.54   C136.62,128.83,135.67,129.66,135.32,131.05z M140.72,133.76c2.58-0.8,4.16-3.49,5.4-5.08   C144.61,130.56,140.68,130.9,140.72,133.76z M126.97,132.19c1.01-0.66,2.16-1.21,2.62-2.41c-0.23-0.02-0.27-0.26-0.49-0.29   C128.44,130.34,126.6,130.84,126.97,132.19z M131.23,131.05c0.84-0.16,1.28-0.77,1.47-1.57C131.85,129.58,131,130.42,131.23,131.05   z M118.95,131.55c0.63-0.05,1.3-0.65,0.98-1.12C119.22,130.4,118.69,131.13,118.95,131.55z M122.38,133.28   c1.01,0.15,3.13-1.41,2.46-2.38C124.09,131.75,122.51,131.81,122.38,133.28z M149.89,132.64c0.99-0.15,1.28-0.97,1.8-1.59   C150.89,131.41,150.31,131.95,149.89,132.64z M116.82,132.5c0.85,0.12,1.01-0.42,0.99-1.11   C117.11,131.39,116.77,131.75,116.82,132.5z M127.3,135.69c1.67-0.52,3.36-1.83,2.62-4.15C128.52,132.28,126.16,133.5,127.3,135.69   z M144.98,135.03c1.02-0.89,2.37-1.51,2.94-2.84c-0.04-0.18-0.17-0.27-0.32-0.31C147.09,133.17,145.05,133.83,144.98,135.03z    M124.03,134.09c0.79,0.07,0.94-0.48,1.15-0.97C124.72,133.37,124.33,133.69,124.03,134.09z M139.25,133.61   c-1.12,1.02-3.96,1.91-2.95,3.98C137.58,136.75,140.99,135.36,139.25,133.61z M117.47,135.52c-0.31,0.64,0.06,1.39,0.33,1.91   c0.68,0.13,1.31,0.32,2.13,0.32c0.06-1.56,1.48-2.58,1.48-3.66C119.7,133.5,119.63,136.51,117.47,135.52z M143.35,138.7   c2.18-0.1,2.83-2.54,3.43-3.67C145.65,136.28,143.91,136.94,143.35,138.7z M156.27,138.39c0.24,0.08,0.4,0.24,0.5,0.47   c1.51-0.26,3.36-1.77,2.45-3.33C158.25,136.48,156.73,136.91,156.27,138.39z M124.35,138.23c0.23-0.95,0.1-1.48-0.16-2.38   C123.05,135.86,123.13,138.29,124.35,138.23z M128.44,139.33c0.52,0.09,0.43-0.42,0.83-0.48c-0.77-1.13,0.1-1.81,0.65-2.54   C128.01,135.75,126.98,138.23,128.44,139.33z M122.56,137.9C122.38,134.96,119.97,138.6,122.56,137.9L122.56,137.9z M133.03,140.61   c1.23-0.27,3.07-2.29,1.48-3.34C134.35,138.62,132.83,139.42,133.03,140.61z M150.05,143.48c1.93-0.72,4.28-2.36,5.4-3.82   c0.09-0.11,0.72-1.11,0.32-1.11C153.85,140.17,151.71,141.59,150.05,143.48z M118.3,140.45c0.21,5.63,1.09,11.97,1.31,18.15   c-1.77,1.21-4.52,1.46-6.22,2.71c3.84-0.19,6.42-1.63,8.35-3.66c1.23-0.09,1.9-0.71,2.62-1.28c0.05-2.79,0.47-5.75-0.32-7.96   c-0.36-1-1.52-1.52-1.64-2.54c-0.17-1.5,0.83-2.81,0.66-4.29C122.14,140.63,119.6,140.48,118.3,140.45z M154.96,142.53   c1.52,0.09,1.95-0.88,2.3-1.92C156.42,140.55,155.23,141.51,154.96,142.53z M138.43,144.12c0.74,0.02,0.89-0.53,0.98-1.12   C138.79,143.06,138.12,143.64,138.43,144.12z M129.92,148.89c0.55-0.79,1.47-1.22,1.8-2.24   C130.32,145.05,128.41,147.73,129.92,148.89z M143.67,149.36c1.51-0.95,3.26-1.69,4.42-3.01   C145.94,146.58,143.76,147.64,143.67,149.36z M126.48,155.72c1.02-0.33,1.48-1.2,2.29-1.74c-0.33-0.68-0.69-1.35-0.65-2.37   c-2.49,0.1-1.56-3.16-2.45-4.64c-0.16,0-0.32,0-0.49,0C125.45,149.43,124.78,154.13,126.48,155.72z"
   id="path35" />
	<path
   class="st483"
   d="M110.43,34.14c0.33,0.87-0.75,1.08-0.98,1.75c-0.2,0.59,0.16,1.13-0.16,1.73c-1.2,2.28-4.64,2.91-7.04,4.16   c0.12,2.33-2.14,3.03-3.44,4.45c0.4,0.9,2.53,1.03,3.44,0.47c2.12,2.68,5.93-0.16,9.17-1.43c1.81-0.69,5.81-1.48,8.18-1.9   c2.47-0.44,6.55-0.97,9.32-0.31c0.74,0.16,1.64,0.8,2.46,0.94c2.3,0.36,5.02-0.4,7.03,1.12c0.99,0.72,1.42,3.53,2.79,3.82   c0.79,0.16,1.24-0.55,2.46-0.48c2.18,1.5-0.62,4.67-2.95,3.18c-1.28,0.62-2.17,1.61-3.44,2.23c-1,1.89-1.44,5.17-3.59,5.41   c0.32-1.71,2.11-3.33,2.45-5.57c-0.97-0.86-1.79,0.4-3.11,0.64c-2.82,0.49-6.62-0.73-8.84,0.48c1.82,2.48,8.84,1.54,7.53,6.22   c-0.56,1.95-5.02,4.33-7.37,4.93c-2.27,0.58-5.05-0.14-7.54,0.15c-1.8,0.23-3.79,0.89-5.39,1.27c-1.85,0.44-3.38,1.37-4.1,2.39   c0.23,6.01,1.89,10.58,3.93,14.81c3.55,1.97,9.53,1.92,13.42,3.8c1.11,0.55,2.81,1.44,2.13,3.2c-1.76,0.99-3.03-0.88-4.75-1.43   c-4.27-1.42-9.93-1.13-12.6-3.99c-5.49,0.05-5.86-4.9-6.22-9.86c-1.06-0.58-1.8-0.19-2.79-0.33c-2.42-0.32-4.3-2.31-6.05-2.56   c-0.81-0.08-1.63,0.34-2.62,0.5c-1.48,0.24-3.2,0.07-4.09,0.64c-0.87,0.53-1.12,1.9-1.96,2.23c0.47,2.82-1.43,9.38,1.14,11.45   c1.75,0.62,5.05,0.29,5.73,1.92c0.47,1.08-0.87,3.95-0.49,6.04c0.34,1.85,2.14,4.47,3.44,5.42c1.03,0.75,2.6,0.77,2.78,1.59   c0.63,2.83-5.97,1.73-7.7,0.93c-1.25-0.54-2.11-1.95-4.09-2.69c-2.79-1.04-7.27-0.32-8.35-2.06c-1.25-2.02,0.45-3.77,0.81-5.73   c-0.97-1.19-2.89-1.68-4.42-1.9c-4.18-0.65-11.02-0.04-14.4-1.92c-1.12-0.63-3.95-3.34-4.42-4.79c-0.29-0.86,0.21-2.1-0.16-3.16   c-0.53-1.55-3-1.7-3.6-3.51c-1.23,0.22-1.01,1.7-2.46,1.28c-1.66-0.51-0.35-4.06,1.48-4.15c0.06-1.55-1.55-2.17-2.13-3.51   c-1.14-2.6,0.42-5.28,0.99-7.8c1.41-1.55,2.65-3.27,4.09-4.79c2.53-1.13,4.66-2.68,8.02-3.01c2.06-2.79,1.11-7.73,4.43-9.53   c0.6-0.33,1.54-0.27,2.45-0.48c1.1-0.26,2.18-0.82,2.95-0.96c1.86-0.33,4.07-0.19,5.73-0.64c1.7-0.46,3.7-1.26,5.57-1.9   c1.98-0.67,4.02-1.11,5.56-1.74c2.17-0.9,4.12-1.95,6.22-2.73c2.19-0.79,4.4-1.44,6.22-2.69c-1.79-0.16-4.06,1.3-4.41-0.49   c-0.28-1.39,1.25-1.7,2.61-1.9C102.45,32.87,109.08,32.78,110.43,34.14z M95.38,41.3c0.69,0.21-0.08,1.01,0.33,1.27   c1.77-1.41,3.93-2.43,5.9-3.65C99.32,39.52,97.11,40.17,95.38,41.3z M93.08,41.93c-2.07,0.82-4.49,2-7.19,2.87   c-2.6,0.84-5.17,1.86-7.54,2.56c-2.14,0.63-4.56,0.38-6.54,0.79c-0.5,0.08-3.29,0.7-3.76,0.94c-2.62,1.37-2.3,7.36-3.6,9.4   c-1.25,1.95-2.92,2.84-3.77,5.09c5.86-4.46,11.59-10.05,17.19-14.63c0.67-0.56,1.6-2.06,2.78-1.28   c-8.24,6.97-16.42,15.52-25.21,21.65c-0.9,0.62-1.88,1.75-2.95,1.43c0.38-2.09,3.3-1.75,3.93-3.68c0.13-0.38-0.2-1-0.16-1.42   c0.24-2.33,2.78-3.5,3.27-5.89c-1.29,0.49-3.06,1.27-4.09,2.06c-1.74,1.36-4.78,5.45-4.26,8.44c0.21,1.21,1.93,2.39,2.62,4.15   c0.4,0.99,0.38,2.47,0.82,3.18c0.59,0.95,2.67,1.36,3.28,2.7c0.63,1.39,0.09,2.76,0.48,3.82c0.41,1.13,2.32,3.05,3.28,3.52   c2.33,1.11,5.44,0.85,8.35,0.77c0.43-0.26,0.28-1.08,0.65-1.43c3.61-2.65,6.4-6.08,9.17-9.55c-3.23,2.17-6.58,4.69-9.34,7.18   c-0.9,0.79-1.76,2.07-3.11,2.06c1.25-3.52,4.24-5.33,6.88-7.49c0.37-0.37,0.53,0.29,1.15,0.16c1.39-0.93,2.43-2.21,3.92-3.02   c0.62-0.07,0.43,0.66,1.15,0.48c0.73-0.84,1.53-1.61,2.13-2.58c0.33,0,0.66,0,0.99,0c1.12-1.66,3.33-2.26,5.72-2.69   c0.4-0.31,0.24-1.15,0.5-1.59c4.26-4.82,8.65-9.58,12.6-14.49c1.31-1.62,3.21-3.08,3.77-5.23c-3.58,0.06-4.98,2.52-6.88,4.6   c-3.48,3.83-6.29,7.71-9.49,11.3c-0.55,0.63-0.96,2-2.13,1.75c0.49-1.89,2.11-3.19,3.26-4.61c3.67-4.48,7.32-8.73,10.98-13.04   c-2.17-1.15-3.49,1.31-4.59,2.37c-3.87,3.77-7.21,8.31-10.48,12.28c-0.43,0.37,0.67,0.69,0.17,1.25c-0.8,1.15-2.21,1.69-2.62,3.19   c-6.17,4.56-12.12,9.82-18.01,14.49c-0.77,0.6-1.71,1.89-2.95,1.42c-0.23-0.82,0.96-1.21,1.47-1.58c2.05-1.51,3.95-3.39,5.89-4.78   c0-0.64,0.36-0.93,0.49-1.44c1.93-1.13,3.45-2.69,5.24-4.14c1.73-1.39,3.96-2.51,5.4-4.14c1.09-1.21,2.06-2.69,3.11-3.98   c1.07-1.31,2.16-2.56,3.27-3.82c2.24-2.56,4.17-5.3,6.38-7.78c1.24-1.42,2.94-2.24,3.76-4c-2.08-2.43-3.87,0.6-5.24,1.92   c-3.16,3.07-6.63,6.7-9,9.4c-0.18,0.45-0.15,1.13-0.32,1.6c-2.37,1.99-5.3,3.27-7.69,5.08c-3.26,2.45-6.31,5.19-9.34,7.8   c-1.91,0.44-2.45,3.01-4.26,3.03c0.43-1.88,2.21-3.03,3.6-4.16c1.46-1.17,3.01-2.3,4.42-3.48c2.91-2.42,6.11-4.48,9-6.84   c5.83-4.77,9.96-11.11,15.56-16.07c-1.27-1.28-1.47-3.69,0-4.93c-2.17,0.73-3.4,2.68-4.91,4.13c-3.77,3.66-7.88,7.47-11.13,11.46   c-0.67,0.8-1.26,1.95-1.96,2.56c-0.46,0.38-1.11,0.48-1.63,0.78c-1.67,1.06-3.16,2.6-4.75,3.83c-3.31,2.55-6.61,4.89-9.82,7.33   c-1.56,1.17-3,2.94-5.08,3.33c1.08-2.09,3.27-3.26,5.08-4.61c5.51-4.17,11.76-8.06,16.53-12.91c5.69-5.74,10.63-12.03,16.87-17.18   C93.66,41.44,93.33,41.84,93.08,41.93z M97.18,45.44c1.77,0.16,2.84-1.68,3.76-2.87C99.3,43.14,97.81,43.87,97.18,45.44z    M130.74,46.55c-1.01-0.14-1.95-0.82-2.78-0.95c-2.95-0.48-6.9-0.17-9,0.63c-1.51,0.58-3.48,3.31-4.75,4.77   c-1.59,1.85-2.76,3.77-4.1,5.42c-3.07,3.81-6.21,7.08-8.67,10.36c-0.48,0.27,0.37,0.57,0.16,1.1c-1.1,0.69-1.55,2-3.11,2.22   c-0.61-0.09-0.5-0.88-0.49-1.57c-0.63,0.2-1.69,1.4-2.45,0.47c2.1-4.28,5.85-7.21,8.84-10.66c3.05-3.52,6.11-6.98,9.01-10.67   c-3.45,0.71-5.36,2.41-7.2,4.77c-3.68,4.71-7.41,9.19-11.13,13.38c-1.52,1.7-3.6,3.18-4.1,5.42c3.96-1.3,6.08,1,8.19,1.75   c1.81,0.64,4.37,0.35,5.73,0.79c0.38-1.66-0.2-3.71-0.81-4.93c3.42-3.62,7.36-7.22,10.48-10.99c1-1.21,1.93-3.22,3.92-3.02   c-2.66,3.62-6.65,6.8-8.84,10.34c2.37-0.09,4.61-1.37,7.37-1.59c1.84-0.13,3.72,0.24,5.57,0c2.63-0.31,4.74-2.13,6.37-3.18   c-1.98-2.21-6.75-1.7-7.69-4.94c-5.6-2.05,4.91-5,7.04-5.4c0.79-0.15,1.61-0.05,2.12-0.16c1.23-0.24,2.14-0.97,2.95-1.11   c1.45-0.26,3.32,0.29,3.6-0.63C136.62,45.97,133.08,46.88,130.74,46.55z M115.19,47.67c-1.5,1.21-2.91,3.14-4.42,4.93   c-3.6,4.27-7.46,8.26-10.96,12.28c-0.56,0.62-2.15,1.48-1.31,2.69c1.93-1.11,3.17-2.98,4.58-4.61c4.34-5,8.7-9.96,12.6-15.28   c0.25-0.04,0.02-0.26-0.17-0.31C115.51,47.56,115.22,47.49,115.19,47.67z M80.65,78.7c1.02-0.33,2.96-1.3,1.96-2.55   C81.79,76.84,81.05,77.61,80.65,78.7z M73.61,88.88c2.25-0.18,3.5-2.43,4.91-3.96c1.47-1.57,3.37-3.14,4.25-5.11   c-0.04-0.11,0-0.29-0.16-0.29C79.54,82.56,75.97,85.13,73.61,88.88z M80.48,85.22c-1.18,1.61-3.19,2.43-3.92,4.46   c1.54,0.69,2.59-1.17,3.43-2.23c1.23-1.52,2.67-2.92,2.95-4.93c-0.03-0.16-0.18-0.26-0.33-0.31C81.73,83.1,80.32,83.76,80.48,85.22   z M82.94,86.18c-1.47,0.16-2.33,2.27-3.28,3.5C81,89.39,83.24,88.6,82.94,86.18z M70.83,88.59c0.61,0.62,1.51,0.46,1.64-0.48   C72,87.78,70.72,87.82,70.83,88.59z M84.42,90.32c0.08-0.79-0.32-1.7-1.15-1.59C82.76,88.8,81.8,91,81.3,91.27   c0.13,0.62,0.48,1.01,0.65,1.61C82.79,92.1,84.3,91.36,84.42,90.32z M85.39,94.14c1.04-0.69,1.87-1.59,2.47-2.7   c-0.36-0.22-0.7-0.48-1.31-0.47C86.23,92.07,85.44,92.75,85.39,94.14z M80.65,97.65c1.35,0.4,4.14,1.59,4.42-0.49   c-0.61-0.49-0.61,0.58-1.47,0.33c-0.06-0.58,0.02-1.03,0.16-1.43c-0.48-0.06-0.74-0.33-0.82-0.79c0.24-0.82,1.19-0.95,1.31-1.9   C82.04,93.79,81.09,95.47,80.65,97.65z M88.01,96.05c0.63-0.45,1.35-0.82,1.31-1.91C88.16,94.06,88.28,95.25,88.01,96.05z    M87.53,97.15c0.03-0.24,0.63-0.75,0.16-0.94C87.42,96.39,86.88,97.01,87.53,97.15z M88.66,97.15c-0.16,0.7,0.35,0.73,0.49,1.13   c-0.48,0.02-1,0.91-0.33,1.11c0.36-0.75,1-1.42,0.67-2.39C89.1,96.95,88.86,97.02,88.66,97.15z"
   id="path36" />
</g>
</svg>
