<?xml version="1.0" encoding="utf-8"?>
<!-- Generator: Adobe Illustrator 27.3.1, SVG Export Plug-In . SVG Version: 6.00 Build 0)  -->
<svg version="1.1" id="Layer_1" xmlns="http://www.w3.org/2000/svg" xmlns:xlink="http://www.w3.org/1999/xlink" x="0px" y="0px"
	 viewBox="0 0 70 70" style="enable-background:new 0 0 70 70;" xml:space="preserve">
<style type="text/css">
	.st0{fill:#021828;}
	.st1{fill:none;stroke:#FFFFFF;stroke-miterlimit:10;}
	.st2{fill:#FFFFFF;}
	.st3{opacity:0.7;fill:#021828;}
	.st4{fill:#FFFFFF;stroke:#021828;stroke-width:2;stroke-miterlimit:10;}
	.st5{fill-rule:evenodd;clip-rule:evenodd;fill:#FFFFFF;stroke:#021828;stroke-width:2;stroke-miterlimit:10;}
	.st6{fill:#EC00BA;}
	.st7{fill:#009520;}
	.st8{fill:#FAFCFB;}
	.st9{fill:#FF0000;}
	.st10{fill-rule:evenodd;clip-rule:evenodd;fill:#1779FF;}
	.st11{opacity:0.8;}
	.st12{fill-rule:evenodd;clip-rule:evenodd;fill:#FFFFFF;}
	.st13{fill:none;stroke:#6B7479;stroke-miterlimit:10;}
	.st14{fill:none;stroke:#6B7479;stroke-miterlimit:10;stroke-dasharray:11.9916,5.9958;}
	.st15{fill:none;stroke:#6B7479;stroke-miterlimit:10;stroke-dasharray:12.0398,6.0199;}
	.st16{fill:#BFC4CC;}
	.st17{fill:#837579;}
	.st18{fill:#CCCCCC;}
	.st19{fill:#E6E6E6;}
	.st20{fill:#B8B8B8;}
	.st21{fill:#5F5F5F;}
	.st22{fill:#9D9D9D;}
	.st23{fill:#518FE8;}
	.st24{fill:#65BBFF;}
	.st25{fill:#165F9F;}
	.st26{fill:#87D0E0;}
	.st27{fill:#C9974B;}
	.st28{fill:#EBC26C;}
	.st29{fill:#AB7835;}
	.st30{fill:#965A2C;}
	.st31{fill:#F2E5DA;}
	.st32{fill:#F1C33A;}
	.st33{fill:#FFE057;}
	.st34{fill:#F7900B;}
	.st35{fill:#1F4094;}
	.st36{fill:#1B47B6;}
	.st37{fill:#3F72E9;}
	.st38{fill:#6B9DED;}
	.st39{fill:#2750B8;}
	.st40{fill:#133BA1;}
	.st41{fill-rule:evenodd;clip-rule:evenodd;fill:#010007;}
	.st42{fill-rule:evenodd;clip-rule:evenodd;fill:#18171D;}
	.st43{fill-rule:evenodd;clip-rule:evenodd;}
	.st44{fill-rule:evenodd;clip-rule:evenodd;fill:#2E2D30;}
	.st45{fill-rule:evenodd;clip-rule:evenodd;fill:#1B1B1F;}
	.st46{fill-rule:evenodd;clip-rule:evenodd;fill:#3B3B3B;}
	.st47{fill-rule:evenodd;clip-rule:evenodd;fill:#F0982F;}
	.st48{fill-rule:evenodd;clip-rule:evenodd;fill:#C35719;}
	.st49{fill-rule:evenodd;clip-rule:evenodd;fill:#9E470F;}
	.st50{fill-rule:evenodd;clip-rule:evenodd;fill:#B35014;}
	.st51{fill-rule:evenodd;clip-rule:evenodd;fill:#BF5517;}
	.st52{fill:#B35014;}
	.st53{fill:#F7BB06;}
	.st54{fill:#1E1E1E;}
	.st55{fill:#393939;}
	.st56{fill:#0E0E0E;}
	.st57{fill:#151515;}
	.st58{fill:#838383;}
	.st59{fill:#51341F;}
	.st60{fill:#2B160D;}
	.st61{fill:#7E583C;}
	.st62{fill:#3F2614;}
	.st63{fill:#604029;}
	.st64{fill:#1B1B1B;}
	.st65{fill:#2A2A2A;}
	.st66{fill:#940000;}
	.st67{fill:#541D12;}
	.st68{fill:#7A0000;}
	.st69{fill:#F1BC95;}
	.st70{fill:#EC762D;}
	.st71{fill:#E6BDB3;}
	.st72{fill:#FF8537;}
	.st73{fill:#D16824;}
	.st74{fill:#D18D6D;}
	.st75{fill:#C77752;}
	.st76{fill:#DEB08A;}
	.st77{fill:#F0B88F;}
	.st78{fill:#DF9876;}
	.st79{fill:#4F2900;}
	.st80{fill:#422200;}
	.st81{fill:#703A00;}
	.st82{fill:#272727;}
	.st83{fill:#FFB700;}
	.st84{fill-rule:evenodd;clip-rule:evenodd;fill:#CECECE;}
	.st85{fill-rule:evenodd;clip-rule:evenodd;fill:#A19E9C;}
	.st86{fill-rule:evenodd;clip-rule:evenodd;fill:#7C7774;}
	.st87{fill:#DD9100;}
	.st88{fill:#F77211;}
	.st89{fill:#1D1D1D;}
	.st90{fill:#C97735;}
	.st91{fill:#BC5705;}
	.st92{fill:#BD4D00;}
	.st93{fill:#E07705;}
	.st94{fill:#E09C05;}
	.st95{fill:#EDA94D;}
	.st96{fill:#916C28;}
	.st97{fill:#636363;}
	.st98{fill:#888888;}
	.st99{fill:#4A4A4A;}
	.st100{fill:#BFBFBF;}
	.st101{fill:#0F0F0F;}
	.st102{fill:#D8E2EC;}
	.st103{fill:#ADC2D7;}
	.st104{fill:#6D6D6D;}
	.st105{fill:#D6B163;}
	.st106{fill:#91693A;}
	.st107{fill:#B78841;}
	.st108{fill:#7D5129;}
	.st109{fill:#613F1F;}
	.st110{fill:#996232;}
	.st111{fill:#AD7E45;}
	.st112{fill:#471D1D;}
	.st113{fill:#DAB697;}
	.st114{fill:#BF8937;}
	.st115{fill:#C2BFB4;}
	.st116{fill:#FFDC91;}
	.st117{fill:#D6AC54;}
	.st118{fill:#B39876;}
	.st119{fill:#C9C9C9;}
	.st120{fill:#EBEBEB;}
	.st121{fill:#ABABAB;}
	.st122{fill:#125200;}
	.st123{fill:#11FF00;}
	.st124{fill:#94000A;}
	.st125{fill:#F91F43;}
	.st126{fill:#868686;}
	.st127{fill:#BA6900;}
	.st128{fill:#DE9A23;}
	.st129{fill:#F87F12;}
	.st130{fill:#C7C7C7;}
	.st131{fill:#3D3D3D;}
	.st132{fill:#451803;}
	.st133{fill:#541D04;}
	.st134{fill:#690000;}
	.st135{fill:#F2F2F2;}
	.st136{fill:#C2C2C2;}
	.st137{fill:#A7A7A7;}
	.st138{fill:#A3A3A3;}
	.st139{fill:#373737;}
	.st140{fill:#4E4E4E;}
	.st141{fill:#C3C3C3;}
	.st142{fill:#0A0A0A;}
	.st143{fill:#2A8DDE;}
	.st144{fill:#0262C2;}
	.st145{fill:#2D2D2D;}
	.st146{fill:#414141;}
	.st147{fill:#B7B7B7;}
	.st148{fill:#8895C7;}
	.st149{fill:#98B3E6;}
	.st150{fill:#ABCEFF;}
	.st151{fill:#046DBA;}
	.st152{fill:#2A5275;}
	.st153{fill:#31618A;}
	.st154{fill:#998385;}
	.st155{fill:#D1C9CA;}
	.st156{fill:#7E898D;}
	.st157{fill:#545354;}
	.st158{fill:#CF1F30;}
	.st159{fill:#002D54;}
	.st160{fill:url(#SVGID_00000176761166993253823700000006124874355447654550_);}
	.st161{fill:#D3C9CA;}
	.st162{fill:#14375E;}
	.st163{fill:#BCAEAF;}
	.st164{fill:#A3B5C9;}
	.st165{fill:#8F8F8F;}
	.st166{fill:#6485AC;}
	.st167{fill:#7DA6D6;}
	.st168{fill:#746872;}
	.st169{fill:#EBE7E7;}
	.st170{fill:#73757D;}
	.st171{fill:#38363A;}
	.st172{fill:#696969;}
	.st173{fill:url(#SVGID_00000018237785644470057790000006794128217433524099_);}
	.st174{fill:url(#SVGID_00000075882496314153937020000004609817035461971357_);}
	.st175{fill:#B1B1B1;}
	.st176{fill:#41313E;}
	.st177{fill:#E64958;}
	.st178{fill:#BF3737;}
	.st179{fill:#FE8B95;}
	.st180{fill:#E06969;}
	.st181{fill:url(#SVGID_00000113337213323380073530000008927715347493160068_);}
	.st182{fill:#E0E0E0;}
	.st183{fill:url(#SVGID_00000043429989163393072450000015888538456555276946_);}
	.st184{fill:#3B4345;}
	.st185{fill:#C06262;}
	.st186{fill:#C16767;}
	.st187{fill:#C26D6D;}
	.st188{fill:#C27272;}
	.st189{fill:#C37878;}
	.st190{fill:#C47D7D;}
	.st191{fill:#C58383;}
	.st192{fill:#C68888;}
	.st193{fill:#C68E8E;}
	.st194{fill:#C79393;}
	.st195{fill:#C89999;}
	.st196{fill:#C99E9E;}
	.st197{fill:#C9A4A4;}
	.st198{fill:#CAA9A9;}
	.st199{fill:#CBAFAF;}
	.st200{fill:#CCB4B4;}
	.st201{fill:#CDBABA;}
	.st202{fill:#CDBFBF;}
	.st203{fill:#CEC5C5;}
	.st204{fill:#CFCACA;}
	.st205{fill:#313131;}
	.st206{fill:#1F1F1F;}
	.st207{fill:#3B3B3B;}
	.st208{fill:#727272;}
	.st209{fill:#A9A9A9;}
	.st210{fill:#E9EAE7;}
	.st211{fill:#737373;}
	.st212{fill:#949494;}
	.st213{fill:#575757;}
	.st214{fill:#CDCDCD;}
	.st215{fill:#DCDED9;}
	.st216{fill:#181818;}
	.st217{fill:#252525;}
	.st218{fill:#5C5C5C;}
	.st219{fill:#7E7E7E;}
	.st220{fill:#424242;}
	.st221{fill:#585858;}
	.st222{fill:#4F4F4F;}
	.st223{fill:#FFE72A;}
	.st224{fill:#FCAB2A;}
	.st225{fill:#EFA12A;}
	.st226{fill:#CD8732;}
	.st227{fill:#FFBD29;}
	.st228{fill:#F6A629;}
	.st229{fill:#0D0D0D;}
	.st230{fill:#1A1A1A;}
	.st231{fill:#6C6C6C;}
	.st232{fill:#404040;}
	.st233{fill:#676767;}
	.st234{fill:#92978D;}
	.st235{fill:#73796C;}
	.st236{fill:#C5CAD8;}
	.st237{fill:#CCD1DE;}
	.st238{fill:#2E2E2E;}
	.st239{fill:#ABB2B2;}
	.st240{fill:#616161;}
	.st241{fill:#131313;}
	.st242{fill:#C0FFFF;}
	.st243{fill:url(#SVGID_00000029724907015002388740000011176808654408381841_);}
	.st244{fill:#65818A;}
	.st245{fill:#A6DDFF;}
	.st246{fill:url(#SVGID_00000053521809785966734300000003497024811802924932_);}
	.st247{clip-path:url(#SVGID_00000170991780864808687360000017527914134172140706_);}
	.st248{clip-path:url(#SVGID_00000170991780864808687360000017527914134172140706_);fill:#1F1F1F;}
	.st249{clip-path:url(#SVGID_00000170991780864808687360000017527914134172140706_);fill:#2A2A2A;}
	.st250{clip-path:url(#SVGID_00000170991780864808687360000017527914134172140706_);fill:#1D1D1D;}
	.st251{clip-path:url(#SVGID_00000170991780864808687360000017527914134172140706_);fill:#3B3B3B;}
	.st252{clip-path:url(#SVGID_00000170991780864808687360000017527914134172140706_);fill:#727272;}
	.st253{clip-path:url(#SVGID_00000170991780864808687360000017527914134172140706_);fill:#A9A9A9;}
	.st254{clip-path:url(#SVGID_00000170991780864808687360000017527914134172140706_);fill:#E9EAE7;}
	.st255{clip-path:url(#SVGID_00000170991780864808687360000017527914134172140706_);fill:#737373;}
	.st256{clip-path:url(#SVGID_00000170991780864808687360000017527914134172140706_);fill:#949494;}
	.st257{clip-path:url(#SVGID_00000170991780864808687360000017527914134172140706_);fill:#CDCDCD;}
	.st258{clip-path:url(#SVGID_00000170991780864808687360000017527914134172140706_);fill:#DCDED9;}
	.st259{clip-path:url(#SVGID_00000170991780864808687360000017527914134172140706_);fill:#E0E0E0;}
	.st260{fill:#212121;}
	.st261{fill:#EA7C00;}
	.st262{fill:#666666;}
	.st263{fill:#E3EAF5;}
	.st264{fill:#BDC3D6;}
	.st265{fill:#D8DDE8;}
	.st266{fill:#6F94A3;}
	.st267{fill:#D5D5D5;}
	.st268{fill:url(#SVGID_00000001645724726658822250000005362328525028978588_);}
	.st269{fill:url(#SVGID_00000087381302790811326710000017926767994309771913_);}
	.st270{fill:#DA5400;}
	.st271{fill:#FFB345;}
	.st272{fill:#111111;}
	.st273{fill:#242424;}
	.st274{fill:#030303;}
	.st275{fill:#161714;}
	.st276{fill:#FF8D31;}
	.st277{fill:#454545;}
	.st278{fill:#606666;}
	.st279{fill:#FFF2D1;}
	.st280{fill:url(#SVGID_00000026848594151327452670000007792992141579172995_);}
	.st281{fill:#42413D;}
	.st282{fill:#949491;}
	.st283{fill:#6A6869;}
	.st284{fill:#EBEAE5;}
	.st285{fill:#9A998E;}
	.st286{fill:#7B7B6D;}
	.st287{fill:#727071;}
	.st288{fill:#AEAEAE;}
	.st289{fill:#D1EBEE;}
	.st290{fill:#829AA9;}
	.st291{fill:url(#SVGID_00000070839973394021333910000009229040530303735942_);}
	.st292{fill:url(#SVGID_00000155853263309896215700000000291284969695881898_);}
	.st293{fill:#1C1C1A;}
	.st294{fill:#555454;}
	.st295{fill:#767576;}
	.st296{fill:url(#SVGID_00000033348581862869220780000001423567664231273395_);}
	.st297{fill:#DB3400;}
	.st298{fill:#040404;}
	.st299{fill:#20211E;}
	.st300{clip-path:url(#SVGID_00000040556230555095943160000014928450320562108846_);}
	.st301{clip-path:url(#SVGID_00000040556230555095943160000014928450320562108846_);fill:#1F1F1F;}
	.st302{clip-path:url(#SVGID_00000040556230555095943160000014928450320562108846_);fill:#2A2A2A;}
	.st303{clip-path:url(#SVGID_00000040556230555095943160000014928450320562108846_);fill:#1D1D1D;}
	.st304{clip-path:url(#SVGID_00000040556230555095943160000014928450320562108846_);fill:#3B3B3B;}
	.st305{clip-path:url(#SVGID_00000040556230555095943160000014928450320562108846_);fill:#727272;}
	.st306{clip-path:url(#SVGID_00000040556230555095943160000014928450320562108846_);fill:#A9A9A9;}
	.st307{clip-path:url(#SVGID_00000040556230555095943160000014928450320562108846_);fill:#E9EAE7;}
	.st308{clip-path:url(#SVGID_00000040556230555095943160000014928450320562108846_);fill:#4D4D4D;}
	.st309{clip-path:url(#SVGID_00000040556230555095943160000014928450320562108846_);fill:#949494;}
	.st310{clip-path:url(#SVGID_00000040556230555095943160000014928450320562108846_);fill:#DCDED9;}
	.st311{clip-path:url(#SVGID_00000040556230555095943160000014928450320562108846_);fill:#C4C4C4;}
	.st312{fill:#8C4D00;}
	.st313{fill:#135E00;}
	.st314{fill:#C7C6C4;}
	.st315{clip-path:url(#SVGID_00000179623113583718534220000014266812765222493338_);fill:#1D1D1D;}
	.st316{clip-path:url(#SVGID_00000179623113583718534220000014266812765222493338_);}
	.st317{clip-path:url(#SVGID_00000179623113583718534220000014266812765222493338_);fill:#1F1F1F;}
	.st318{clip-path:url(#SVGID_00000179623113583718534220000014266812765222493338_);fill:#2A2A2A;}
	.st319{clip-path:url(#SVGID_00000179623113583718534220000014266812765222493338_);fill:#3B3B3B;}
	.st320{clip-path:url(#SVGID_00000179623113583718534220000014266812765222493338_);fill:#727272;}
	.st321{clip-path:url(#SVGID_00000179623113583718534220000014266812765222493338_);fill:#A9A9A9;}
	.st322{clip-path:url(#SVGID_00000179623113583718534220000014266812765222493338_);fill:#E9EAE7;}
	.st323{clip-path:url(#SVGID_00000179623113583718534220000014266812765222493338_);fill:#4D4D4D;}
	.st324{clip-path:url(#SVGID_00000179623113583718534220000014266812765222493338_);fill:#949494;}
	.st325{clip-path:url(#SVGID_00000179623113583718534220000014266812765222493338_);fill:#DCDED9;}
	.st326{clip-path:url(#SVGID_00000179623113583718534220000014266812765222493338_);fill:#C4C4C4;}
	.st327{fill:#4A4A45;}
	.st328{fill:#363631;}
	.st329{fill:url(#SVGID_00000078002853226639959910000005925322924087431573_);}
	.st330{fill:#C59A08;}
	.st331{fill:#FFDC14;}
	.st332{fill:#FFF013;}
	.st333{fill:#FFDD26;}
	.st334{fill:#5A5858;}
	.st335{fill:#EDFF4D;}
	.st336{fill:#8D8B8B;}
	.st337{fill:#146194;}
	.st338{fill:#8D9DAF;}
	.st339{fill:#C3CDD9;}
	.st340{fill:#728599;}
	.st341{fill:#A7B4C4;}
	.st342{fill:#FDFFF8;}
	.st343{fill:#D1A202;}
	.st344{fill:#F1BD00;}
	.st345{fill:#FBC605;}
	.st346{fill:#FFDF17;}
	.st347{fill:#E7EBF0;}
	.st348{fill:#CCD8E3;}
	.st349{fill:#FAFDFF;}
	.st350{fill:#BCC6D1;}
	.st351{fill:#4D7185;}
	.st352{fill:#95B4C6;}
	.st353{fill:#FFD60D;}
	.st354{fill:#456475;}
	.st355{fill:#9DC2FF;}
	.st356{fill:#E0E8EF;}
	.st357{fill:#4BC7B6;}
	.st358{fill:#22A896;}
	.st359{fill:#FCC201;}
	.st360{fill:#B28A01;}
	.st361{fill:#BA7D01;}
	.st362{fill:#835B09;}
	.st363{fill:#C89A00;}
	.st364{fill:#AC7300;}
	.st365{fill:#C9011F;}
	.st366{fill:#7F0113;}
	.st367{fill:#720111;}
	.st368{fill:#50060E;}
	.st369{fill:#950016;}
	.st370{fill:#790012;}
	.st371{fill:#018ADF;}
	.st372{fill:#015B95;}
	.st373{fill:#015388;}
	.st374{fill:#073E66;}
	.st375{fill:#0069AB;}
	.st376{fill:#00588F;}
	.st377{fill:#8C8C8C;}
	.st378{fill:#E8E8E8;}
	.st379{fill:#001929;}
	.st380{fill:#612F00;}
	.st381{fill:#290100;}
	.st382{fill:#282828;}
	.st383{fill:#7A1400;}
	.st384{fill:#B10A0A;}
	.st385{fill:#C41A1A;}
	.st386{fill:#2C2C2C;}
	.st387{fill:#595959;}
	.st388{fill:url(#SVGID_00000054957964384571633580000015131879656039643059_);}
	.st389{fill:#A89A97;}
	.st390{fill:url(#SVGID_00000130624354802889564730000001170126104600766341_);}
	.st391{fill:#CB7C00;}
	.st392{fill:#802307;}
	.st393{fill:#BB5900;}
	.st394{fill:#CE7E00;}
	.st395{fill:#DC9200;}
	.st396{fill:#913108;}
	.st397{fill:#CD6F00;}
	.st398{fill:#DF9400;}
	.st399{fill:#FFBD2E;}
	.st400{fill:#FCA000;}
	.st401{fill:#FFA200;}
	.st402{fill:#FC8300;}
	.st403{fill:#ED7700;}
	.st404{fill:#B1350A;}
	.st405{fill:#D66F00;}
	.st406{fill:#D16B00;}
	.st407{fill:#7D7D7D;}
	.st408{fill:url(#SVGID_00000103255268225595287170000017487735044422508450_);}
	.st409{fill:url(#SVGID_00000021115131488805313540000018430942605268505016_);}
	.st410{fill:#3F3F3F;}
	.st411{fill:url(#SVGID_00000168827671882077483940000001267143920086866362_);}
	.st412{fill:url(#SVGID_00000047755822801135835680000008038541883583473599_);}
	.st413{fill:url(#SVGID_00000020374561351131953100000006464224055821238930_);}
	.st414{fill:url(#SVGID_00000015335350859518531620000001349721535822419370_);}
	.st415{fill:url(#SVGID_00000025442850184734601190000000396910575107827106_);}
	.st416{fill:#542700;}
	.st417{fill:#954A00;}
	.st418{fill:#FC9120;}
	.st419{fill:#F99801;}
	.st420{fill:#DCDCDC;}
	.st421{fill:#FEFEFE;}
	.st422{fill:#D61D00;}
	.st423{fill:#292929;}
	.st424{fill:#434343;}
	.st425{fill:#4B4B4B;}
	.st426{fill:#2E2A25;}
	.st427{fill:url(#SVGID_00000032635762904280762980000012123412065332309915_);}
	.st428{fill:url(#SVGID_00000082346412149309387450000016715532241381418632_);}
	.st429{fill:url(#SVGID_00000175305786481234895770000017485058541100573860_);}
	.st430{fill:#1A1815;}
	.st431{fill:url(#SVGID_00000047781758280397370130000001027893657369019564_);}
	.st432{fill:url(#SVGID_00000155869098178501585370000000449022902583765927_);}
	.st433{fill:url(#SVGID_00000048487144040904111370000018156389709706164372_);}
	.st434{clip-path:url(#SVGID_00000124857288374067511750000013523661108236255400_);}
	.st435{clip-path:url(#SVGID_00000124857288374067511750000013523661108236255400_);fill:#1F1F1F;}
	.st436{clip-path:url(#SVGID_00000124857288374067511750000013523661108236255400_);fill:#2A2A2A;}
	.st437{clip-path:url(#SVGID_00000124857288374067511750000013523661108236255400_);fill:#1D1D1D;}
	.st438{clip-path:url(#SVGID_00000124857288374067511750000013523661108236255400_);fill:#3B3B3B;}
	.st439{clip-path:url(#SVGID_00000124857288374067511750000013523661108236255400_);fill:#727272;}
	.st440{clip-path:url(#SVGID_00000124857288374067511750000013523661108236255400_);fill:#A9A9A9;}
	.st441{clip-path:url(#SVGID_00000124857288374067511750000013523661108236255400_);fill:#E9EAE7;}
	.st442{clip-path:url(#SVGID_00000124857288374067511750000013523661108236255400_);fill:#737373;}
	.st443{clip-path:url(#SVGID_00000124857288374067511750000013523661108236255400_);fill:#949494;}
	.st444{clip-path:url(#SVGID_00000124857288374067511750000013523661108236255400_);fill:#CDCDCD;}
	.st445{clip-path:url(#SVGID_00000124857288374067511750000013523661108236255400_);fill:#DCDED9;}
	.st446{clip-path:url(#SVGID_00000124857288374067511750000013523661108236255400_);fill:#E0E0E0;}
	.st447{fill:url(#SVGID_00000103240987312873951210000005415703980890266303_);}
	.st448{fill:url(#SVGID_00000134218795320533453060000015719666602508433599_);}
	.st449{fill:url(#SVGID_00000008144519225872434760000010977231042155681970_);}
	.st450{fill:#0EB0E6;}
	.st451{fill:#0085B3;}
	.st452{fill:#FF2727;}
	.st453{fill:#FF8A8A;}
	.st454{fill:#222222;}
	.st455{fill:#161616;}
	.st456{fill-rule:evenodd;clip-rule:evenodd;fill:#0D5CB8;}
	.st457{fill-rule:evenodd;clip-rule:evenodd;fill:#1155A6;}
	.st458{fill-rule:evenodd;clip-rule:evenodd;fill:#00499E;}
	.st459{fill-rule:evenodd;clip-rule:evenodd;fill:#2577D9;}
	.st460{fill-rule:evenodd;clip-rule:evenodd;fill:#2F2F2F;}
	.st461{fill:#2B2B2B;}
	.st462{fill-rule:evenodd;clip-rule:evenodd;fill:#1D1D1D;}
	.st463{fill-rule:evenodd;clip-rule:evenodd;fill:#808080;}
	.st464{fill-rule:evenodd;clip-rule:evenodd;fill:#A1A1A1;}
	.st465{fill-rule:evenodd;clip-rule:evenodd;fill:#666666;}
	.st466{fill-rule:evenodd;clip-rule:evenodd;fill:#525252;}
	.st467{fill:#6E6E6E;}
	.st468{fill-rule:evenodd;clip-rule:evenodd;fill:#B3B3B3;}
	.st469{fill:#703918;}
	.st470{fill:#A3632E;}
	.st471{fill:#CF9742;}
	.st472{fill:#BF926D;}
	.st473{fill:#E8AC51;}
	.st474{fill:#8F491E;}
	.st475{fill-rule:evenodd;clip-rule:evenodd;fill:#D4D4D4;}
	.st476{fill:#B66828;}
	.st477{fill:#824A1D;}
	.st478{fill:#808080;}
	.st479{fill:#A1A1A1;}
	.st480{fill:#27A427;}
	.st481{fill:#084D08;}
	.st482{fill:#0069A2;}
</style>
<g>
	<path class="st10" d="M19.95,28.66c0.04,0,0.08,0,0.12,0c0.54,1.07,1.07,2.22,1.61,3.31c0.17,0.35,0.43,0.67,0.47,1.05
		c-0.39-0.13-0.53-0.6-0.71-0.93c-0.53-1.04-1.04-2.18-1.53-3.27C19.89,28.74,19.93,28.72,19.95,28.66z"/>
	<path class="st10" d="M22.82,28.66c0.04,0,0.08,0,0.12,0c0.59,0.91,0.93,2.05,1.42,3.11c0.15,0.33,0.41,0.64,0.39,1.01
		c-0.37-0.1-0.45-0.56-0.59-0.89c-0.3-0.69-0.56-1.33-0.91-2.06C23.07,29.44,22.75,28.99,22.82,28.66z"/>
	<path class="st10" d="M23.96,28.79c0.03,0,0.05,0,0.08,0c0.51,0.55,0.74,1.29,1.14,1.94c0.39,0.64,0.75,1.31,1.14,1.94
		c-0.39,0.03-0.58-0.46-0.75-0.73c-0.57-0.94-1.12-2.04-1.65-2.99C23.9,28.86,23.95,28.84,23.96,28.79z"/>
	<path class="st10" d="M18.81,28.91c0.02,0,0.05,0,0.08,0c0.41,0.65,0.71,1.4,1.06,2.1c0.18,0.36,0.37,0.7,0.55,1.05
		c0.17,0.33,0.43,0.67,0.43,1.05c-0.32-0.11-0.46-0.53-0.63-0.85c-0.17-0.32-0.34-0.67-0.51-1.01
		C19.42,30.48,18.91,29.69,18.81,28.91z"/>
	<path class="st10" d="M20.77,29.07c0.04,0,0.08,0,0.12,0c0.05,0.12,0.09,0.23,0.12,0.37c0.51,0.78,0.85,1.84,1.34,2.63
		c0.12,0.19,0.42,0.37,0.24,0.65c-0.54-0.38-0.73-1.1-1.02-1.7c-0.29-0.6-0.67-1.18-0.87-1.82C20.73,29.16,20.75,29.11,20.77,29.07z
		"/>
	<path class="st10" d="M53.95,34.2c-0.4,1.26-1.16,2.5-1.85,3.6c-0.02,0.4-0.22,0.83-0.51,0.81c-0.13-0.41,0.2-0.77,0.39-1.09
		c0.2-0.33,0.43-0.67,0.63-1.01c0.45-0.76,0.74-1.62,1.18-2.31C53.84,34.2,53.9,34.2,53.95,34.2z"/>
	<path class="st10" d="M27.86,40.95c-0.01,0.3-0.29,0.52-0.47,0.73c-1.15,1.29-2.36,2.66-3.5,4.04c-0.16,0.19-0.32,0.56-0.63,0.53
		c0.07-0.3,0.29-0.55,0.47-0.77c1.22-1.51,2.58-3.05,3.94-4.49c0.01-0.04,0.08-0.03,0.08-0.08C27.8,40.9,27.81,40.95,27.86,40.95z"
		/>
	<path class="st10" d="M36.08,41.08c-0.04,0.52-0.59,0.9-0.91,1.29c-0.67,0.82-1.36,1.65-2.01,2.51c-0.32,0.42-0.59,0.91-1.03,1.21
		c0.05-0.51,0.47-0.93,0.79-1.33c0.64-0.81,1.3-1.56,1.97-2.39C35.28,41.9,35.58,41.38,36.08,41.08z"/>
	<path class="st10" d="M28.21,41.28c0.04,0,0.08,0,0.12,0c0.08,0.31-0.27,0.47-0.43,0.64c-0.89,0.93-1.77,2.02-2.64,3.03
		c-0.34,0.4-0.56,0.96-1.07,1.17c0.11-0.45,0.5-0.9,0.83-1.29c0.33-0.39,0.73-0.74,0.98-1.17c0.74-0.77,1.42-1.62,2.16-2.39
		C28.19,41.28,28.2,41.28,28.21,41.28z"/>
	<path class="st10" d="M13.49,41.68c0.12,0.43-0.32,0.75-0.55,1.05c-0.5,0.66-0.94,1.38-1.46,2.06c-0.24,0.32-0.46,0.74-0.83,0.85
		c0.06-0.42,0.4-0.71,0.63-1.01c0.72-0.95,1.36-2,2.12-2.95C13.44,41.68,13.46,41.68,13.49,41.68z"/>
	<path class="st10" d="M36.4,41.68c0.02,0.52-0.46,0.87-0.75,1.21c-0.62,0.87-1.35,1.65-1.97,2.55c-0.18,0.27-0.34,0.68-0.71,0.77
		c-0.09-0.27,0.2-0.44,0.32-0.6c0.95-1.29,2-2.63,2.99-3.92C36.32,41.68,36.36,41.68,36.4,41.68z"/>
	<path class="st10" d="M30.3,41.92c-0.06,0.47-0.5,0.76-0.79,1.09c-0.6,0.69-1.19,1.39-1.81,2.1c-0.3,0.34-0.55,0.82-1.02,0.93
		c-0.07-0.26,0.23-0.4,0.36-0.52c1.07-1.1,2.06-2.49,3.15-3.64C30.24,41.87,30.25,41.92,30.3,41.92z"/>
	<path class="st10" d="M12.43,42.29c-0.01,0.37-0.27,0.69-0.47,0.97c-0.2,0.29-0.42,0.57-0.63,0.85c-0.42,0.56-0.81,1.19-1.34,1.62
		c-0.07-0.37,0.29-0.61,0.47-0.85c0.59-0.78,1.18-1.63,1.73-2.47c0.01-0.05,0.07-0.06,0.08-0.12
		C12.33,42.29,12.38,42.29,12.43,42.29z"/>
	<path class="st10" d="M28.37,42.45c-0.06,0.42-0.47,0.63-0.75,0.93c-0.55,0.59-1.06,1.28-1.57,1.94c-0.23,0.29-0.44,0.75-0.83,0.81
		c0.1-0.39,0.39-0.71,0.63-1.01c0.72-0.93,1.53-1.84,2.36-2.71C28.29,42.39,28.32,42.44,28.37,42.45z"/>
	<path class="st10" d="M33.88,42.57c0.04,0.4-0.3,0.69-0.51,0.97c-0.45,0.59-0.92,1.13-1.42,1.7c-0.24,0.27-0.44,0.63-0.79,0.77
		c-0.01-0.35,0.3-0.65,0.51-0.89c0.7-0.8,1.5-1.6,2.09-2.55C33.8,42.57,33.84,42.57,33.88,42.57z"/>
	<path class="st10" d="M13.61,42.65c-0.22,0.65-0.74,1.25-1.18,1.86c-0.21,0.29-0.47,0.59-0.67,0.89c-0.18,0.28-0.33,0.76-0.71,0.77
		c0.04-0.35,0.32-0.61,0.51-0.89c0.59-0.87,1.3-1.76,1.89-2.67C13.54,42.59,13.56,42.64,13.61,42.65z"/>
	<path class="st10" d="M23.77,42.65c-0.14,0.4-0.46,0.71-0.71,1.01c-0.24,0.29-0.5,0.64-0.86,0.81c-0.04-0.39,0.39-0.61,0.63-0.89
		c0.28-0.32,0.48-0.72,0.79-0.97C23.68,42.61,23.69,42.66,23.77,42.65z"/>
	<path class="st10" d="M30.33,42.65c0.01,0.4-0.37,0.62-0.59,0.89c-0.47,0.56-0.89,1.17-1.38,1.74c-0.23,0.27-0.38,0.67-0.75,0.77
		c-0.02-0.38,0.34-0.63,0.55-0.89c0.64-0.78,1.3-1.68,1.97-2.47c0.01-0.04,0.08-0.03,0.08-0.08C30.28,42.6,30.29,42.65,30.33,42.65z
		"/>
	<path class="st10" d="M36.52,42.65c-0.04,0.37-0.36,0.62-0.59,0.89c-0.48,0.55-0.88,1.17-1.34,1.78c-0.21,0.28-0.4,0.65-0.71,0.81
		c0.09-0.68,0.69-1.23,1.1-1.78c0.2-0.28,0.4-0.58,0.63-0.85c0.27-0.31,0.52-0.62,0.79-0.89C36.46,42.6,36.47,42.65,36.52,42.65z"/>
	<path class="st10" d="M31.36,42.69c0.03,0.35-0.34,0.58-0.55,0.81c-0.44,0.48-0.84,1.01-1.26,1.54c-0.19,0.24-0.39,0.61-0.71,0.61
		c0.22-0.6,0.7-1.02,1.1-1.5c0.42-0.5,0.84-1.01,1.3-1.46C31.28,42.69,31.32,42.69,31.36,42.69z"/>
	<path class="st10" d="M10.27,43.66c-0.4,0.26-0.64,1.25-1.18,1.37c0.02-0.33,0.28-0.65,0.47-0.93c0.2-0.3,0.43-0.59,0.63-0.85
		c0.17-0.05,0.12,0.11,0.2,0.16c0.33-0.14,0.37-0.56,0.71-0.69c0.16,0.29-0.2,0.54-0.35,0.77c-0.35,0.48-0.71,1-1.02,1.54
		c-0.14,0.23-0.25,0.7-0.59,0.61C9.39,44.87,9.91,44.35,10.27,43.66z"/>
	<path class="st10" d="M57.69,42.73c-0.04,0.38-0.36,0.97-0.79,1.13c0.01-0.43,0.45-0.75,0.63-1.13
		C57.58,42.73,57.63,42.73,57.69,42.73z"/>
	<path class="st10" d="M60.99,42.78c-0.02,0.44-0.37,0.81-0.59,1.17c-0.47,0.76-0.97,1.43-1.5,2.14c-0.25,0.34-0.53,0.7-0.86,0.93
		c-0.03-0.46,0.39-0.74,0.63-1.05c0.76-1.01,1.5-2.13,2.21-3.23C60.94,42.72,60.94,42.77,60.99,42.78z"/>
	<path class="st10" d="M22.59,42.78c0.18,0.22-0.16,0.49-0.32,0.68c-0.15,0.19-0.33,0.54-0.59,0.44c0.01-0.05-0.01-0.07-0.04-0.08
		C21.93,43.45,22.19,43.04,22.59,42.78z"/>
	<path class="st10" d="M47.42,42.85c-0.52,0.65-1.11,1.22-1.62,1.94c-0.15,0.22-0.25,0.54-0.55,0.6c0.01-0.46,0.4-0.82,0.67-1.17
		c0.4-0.52,0.83-0.99,1.3-1.45C47.34,42.74,47.34,42.84,47.42,42.85z"/>
	<path class="st10" d="M37.3,42.85c0.04,0.34-0.28,0.6-0.47,0.85c-0.4,0.53-0.79,1.05-1.22,1.58c-0.19,0.23-0.37,0.62-0.71,0.6
		c0.24-0.59,0.73-0.99,1.1-1.46c0.38-0.48,0.7-1.04,1.1-1.49c0.01-0.04,0.08-0.03,0.08-0.08C37.22,42.85,37.26,42.85,37.3,42.85z"/>
	<path class="st10" d="M31.56,43.22c-0.18,0.56-0.65,0.96-0.98,1.37c-0.17,0.21-0.34,0.44-0.51,0.65c-0.16,0.2-0.31,0.5-0.59,0.57
		c-0.09-0.29,0.2-0.5,0.36-0.69c0.49-0.62,1.04-1.26,1.53-1.9C31.43,43.22,31.49,43.22,31.56,43.22z"/>
	<path class="st10" d="M32.34,43.22c0.04,0.02,0.07,0.04,0.08,0.08c-0.33,0.74-0.98,1.32-1.46,1.98c-0.14,0.19-0.21,0.58-0.51,0.52
		c0.4-1.01,1.15-1.72,1.81-2.51C32.28,43.25,32.34,43.27,32.34,43.22z"/>
	<path class="st10" d="M39.82,43.26c-0.03,0.41-0.36,0.52-0.47,0.85c0.26,0.05,0.31-0.47,0.63-0.49c0.13,0.31-0.25,0.57-0.43,0.81
		c-0.22,0.28-0.4,0.57-0.59,0.81c0.06,0.28-0.24,0.42-0.39,0.25c0.16-0.51,0.53-0.81,0.75-1.26c-0.41,0.38-0.7,0.87-1.06,1.29
		c-0.17,0.04-0.18-0.08-0.28-0.12c-0.16,0.09-0.18,0.33-0.43,0.32c-0.07-0.36,0.29-0.54,0.47-0.81c0.22-0.33,0.48-0.8,0.63-1.17
		c0.08-0.19,0-0.43,0.27-0.48c0.13,0.51-0.36,1.04-0.51,1.54C38.91,44.51,39.21,43.44,39.82,43.26z"/>
	<path class="st10" d="M61.82,43.26c-0.08,0.46-0.49,0.72-0.75,1.05c-0.51,0.66-0.97,1.33-1.49,2.02c-0.24,0.31-0.48,0.72-0.87,0.89
		c0.01-0.42,0.39-0.71,0.63-1.01c0.74-0.95,1.51-2.05,2.32-2.95C61.71,43.26,61.77,43.26,61.82,43.26z"/>
	<path class="st10" d="M37.97,43.3c0.03,0.26-0.21,0.48-0.35,0.65c-0.32,0.38-0.65,0.78-0.94,1.21c-0.14,0.22-0.21,0.51-0.47,0.61
		c-0.03-0.56,0.42-0.99,0.71-1.38C37.2,43.99,37.54,43.51,37.97,43.3z"/>
	<path class="st10" d="M58.2,43.3c-0.09,0.47-0.57,1.27-1.1,1.34c0.25-0.51,0.69-0.83,0.95-1.34C58.09,43.3,58.14,43.3,58.2,43.3z"
		/>
	<path class="st10" d="M41.28,43.5c0.1,0.25-0.13,0.47-0.28,0.61c-0.25,0.49-0.45,1.04-0.98,1.25c-0.01-0.32,0.29-0.54,0.47-0.81
		c0.24-0.35,0.39-0.76,0.67-1.05C41.2,43.5,41.24,43.5,41.28,43.5z"/>
	<path class="st10" d="M47.53,43.7c-0.43,0.53-0.77,1.12-1.18,1.7c-0.12,0.16-0.29,0.4-0.51,0.4c0.01-0.3,0.27-0.58,0.47-0.85
		c0.34-0.46,0.63-0.95,1.02-1.33C47.46,43.59,47.46,43.69,47.53,43.7z"/>
	<path class="st10" d="M41.75,43.66c-0.21,0.56-0.55,0.97-0.83,1.46c-0.28-0.18-0.01-0.53,0.12-0.73c0.16-0.25,0.37-0.46,0.48-0.73
		C41.59,43.66,41.67,43.66,41.75,43.66z"/>
	<path class="st10" d="M62.29,43.99c-0.02,0.32-0.28,0.6-0.47,0.85c-0.39,0.52-0.78,1.03-1.18,1.58c-0.18,0.26-0.3,0.61-0.59,0.77
		c0.04-0.63,0.56-1.16,0.91-1.66c0.36-0.52,0.79-1,1.14-1.49c0.01-0.05,0.08-0.03,0.08-0.08C62.24,43.94,62.24,43.99,62.29,43.99z"
		/>
	<path class="st10" d="M42.03,44.11c0.05,0.26-0.18,0.5-0.36,0.65c-0.1,0.18-0.12,0.44-0.39,0.44
		C41.29,44.75,41.63,44.3,42.03,44.11z"/>
	<path class="st10" d="M47.61,44.19c-0.15,0.44-0.39,0.78-0.67,1.09c-0.22,0.37-0.36,0.81-0.83,0.93c0.05-0.36,0.37-0.65,0.59-0.97
		c0.24-0.36,0.48-0.72,0.71-1.09C47.53,44.11,47.52,44.2,47.61,44.19z"/>
	<path class="st10" d="M62.6,44.43c-0.3,0.82-0.99,1.34-1.46,2.03c-0.14,0.21-0.19,0.59-0.51,0.64c0.02-0.55,0.47-0.96,0.79-1.37
		c0.35-0.46,0.69-0.91,1.06-1.34C62.55,44.38,62.55,44.43,62.6,44.43z"/>
	<path class="st10" d="M17.58,44.51c1.14-0.12,2.25,1.03,2.36,2.23c0.16,1.66-1.22,2.6-2.64,2.14c-0.59-0.19-1.4-0.91-1.57-1.58
		C15.38,45.97,16.24,44.58,17.58,44.51z M17.63,45.36c0.04,0.98-0.19,2.03-0.04,2.87c1.92,0.66,2.21-2.37,0.79-2.79
		c-0.17,0.51-0.19,1.35-0.24,2.02c-0.02,0.24,0.09,0.65-0.2,0.73c-0.24-0.93,0.22-2.04,0.08-2.99C17.8,45.16,17.75,45.3,17.63,45.36
		z M16.84,47.06c-0.03-0.55,0.33-1.1,0.12-1.58C16.91,45.94,16.49,46.72,16.84,47.06z M17.19,47.95c0.12-0.55,0.26-1.48,0.08-2.06
		C17.26,46.53,16.82,47.53,17.19,47.95z M16.33,46.78c0.21-0.02,0.28-0.59,0.12-0.73C16.42,46.29,16.25,46.56,16.33,46.78z"/>
	<path class="st10" d="M63.43,44.67c-0.37,0.97-1.4,1.61-1.85,2.63c-0.39-0.2,0.02-0.54,0.12-0.68c0.45-0.63,1.09-1.23,1.46-1.9
		c0.03-0.04,0.11-0.03,0.12-0.08C63.36,44.62,63.38,44.66,63.43,44.67z"/>
	<path class="st10" d="M63.83,45.24c-0.58,0.51-0.82,1.37-1.49,1.78c-0.11-0.27,0.22-0.52,0.39-0.77c0.28-0.39,0.54-0.83,0.9-1.13
		C63.74,45.11,63.77,45.19,63.83,45.24z"/>
	<path class="st10" d="M45.29,29.15c1.3-0.25,3.49-0.43,5.43-0.28c0.75,0.05,1.54,0.27,2.28,0.32c1.19,0.09,2.11,0.22,2.83,0.72
		c1.1,0.78,1.64,2.06,2.17,3.48c0.16,0.45,0.24,0.95,0.47,1.37c0.47,0.86,1.92,1.46,2.87,1.98c0.47,0.26,1.06,0.49,1.61,0.81
		c0.52,0.3,1.23,0.55,1.42,1.01c0.21,0.51,0.07,1.69,0.12,2.22c0.13,1.48,0.18,2.71,0.35,4.25c0.06,0.56,0.26,1.58,0.08,2.14
		c-0.09,0.29-0.44,0.62-0.59,0.73c-1,0.67-2.81,0.55-4.33,0.36c-0.34-0.04-0.79-0.11-1.14-0.16c-0.33-0.04-0.93-0.2-1.11-0.16
		c-0.22,0.05-0.55,0.88-0.75,1.17c-0.27,0.4-0.56,0.84-0.83,1.09c-0.58,0.56-1.47,1.24-2.44,1.37c-0.75,0.11-1.56-0.03-2.2-0.2
		c-1.96-0.52-3.4-1.86-4.21-3.64c-1.48,0.36-2.96-0.18-3.27-1.41c-0.5,0.31-0.78,0.77-1.34,0.97c-0.31,0.11-0.72,0.15-1.1,0.2
		c-2.43,0.36-5.97,0.36-8.7,0.2c-3.5-0.2-6.95-0.1-10.07-0.16c-0.25,0.35-0.3,0.87-0.51,1.25c-0.58,1.08-2.09,2.57-3.5,2.79
		c-1.14,0.18-2.39-0.22-3.31-0.6c-1.62-0.68-2.6-2.01-3.26-3.64c-2.05,0.06-3.98-0.4-4.72-1.7c-0.79-1.36-0.95-3.86-1.22-5.9
		c-0.14-1.02-0.28-2.06-0.47-3.07c-0.19-0.99-0.45-2.05-0.47-3.07c-0.04-1.71,0.17-3.9,0.04-5.78c-0.05-0.74-0.33-1.41-0.39-2.02
		c-0.11-1.11,0.08-2.19,0.28-3.19c0.37-1.91,0.74-3.05,2.56-3.52c2.6-0.67,6.07-0.45,9.17-0.69c1.18-0.09,2.6,0.11,3.94,0.12
		c3.89,0.04,7.78-0.08,11.73-0.08c1.25,0,2.55,0.16,3.86,0.04c1.28-0.12,2.62-0.01,3.74,0.12c1.22,0.15,2.18,0.36,2.99,0.97
		c0.73,0.55,1.36,1.31,1.65,2.35c0.3,1.05,0.24,2.38,0.24,3.56C45.17,26.69,45.33,27.91,45.29,29.15z M36.4,47.06
		c1.82,0.01,3.74,0.05,5.43-0.32c0.28-0.06,0.56-0.05,0.79-0.12c0.78-0.26,1.14-1.13,1.22-2.11c0.26-3.34,0.36-7.17,0.55-10.19
		c0.05-0.86,0.01-1.7,0.08-2.51c0.13-1.62,0.2-3.26,0.12-4.97c-0.04-0.87,0.02-1.72-0.04-2.59c-0.05-0.69-0.03-1.48-0.2-2.1
		c-0.22-0.84-0.95-1.76-1.49-2.14c-0.57-0.4-1.63-0.7-2.6-0.77c-2.5-0.18-5.22-0.16-7.95-0.16c-2.74,0-5.49-0.05-8.11,0.12
		c-1.03,0.07-2.12,0.07-3.11,0c-2.22-0.16-4.28-0.15-6.38,0c-1.22,0.09-2.71-0.02-4.01,0.08c-0.75,0.06-1.53,0.21-2.24,0.36
		C7.7,19.81,6.97,20.1,6.65,20.5c-0.47,0.57-0.61,1.58-0.79,2.55c-0.31,1.65-0.22,3.19,0.23,4.57c2.08,0.24,4.24,0.35,6.41,0.49
		c0.98,0.06,2,0.06,3.03,0c2.53-0.16,5.13-0.33,7.75-0.33c1.35,0,2.71,0,4.06,0c1.31,0,2.64,0.11,3.9-0.16
		c0.01-1.04-0.38-2.5,0.2-3.19c0.83-0.17,0.97,0.41,1.46,0.81c0.22,0.18,0.5,0.3,0.71,0.48c0.23,0.21,0.41,0.45,0.59,0.61
		c0.48,0.41,0.96,0.74,1.42,1.13c0.81,0.69,1.62,0.9,2.24,1.7c0.23,0.3,0.58,0.57,0.59,0.85c0.02,0.56-1.01,1.36-1.38,1.82
		c-0.49,0.61-1.04,1.1-1.53,1.66c-0.76,0.86-1.44,1.7-2.32,2.47c-0.51,0.45-0.89,1.13-1.69,0.69c-0.23-0.87,0.04-2.07,0-2.87
		c-2.02-0.07-4.11-0.16-6.22,0.04c-2.09,0.2-4.23,0.12-6.37,0.12c-4.31,0-8.65-0.13-12.83,0c0.25,1.87,0.52,3.78,0.87,5.9
		c0.14,0.91,0.25,1.96,0.43,2.95c0.18,0.93,0.36,2.04,0.75,2.62c0.77,1.14,2.33,1.3,4.13,1.21c0.11-0.27,0.11-0.67,0.2-0.97
		c-0.32-0.05-0.36,0.76-0.79,0.61c0.19-0.42,0.47-0.79,0.75-1.17c0.27-0.38,0.47-0.8,0.75-1.17c0.73-0.99,2.39-1.88,3.9-1.98
		c1.39-0.1,2.23,0.48,3.11,1.01c0.92,0.56,1.48,1.32,2.04,2.14c0.73-0.51,1.32-1.33,1.85-2.02c0.16-0.21,0.34-0.61,0.67-0.56
		c-0.27,0.61-0.74,1.11-1.18,1.62c-0.2,0.23-0.42,0.54-0.63,0.77c-0.19,0.21-0.7,0.41-0.47,0.81c0.19,0.16,0.35-0.13,0.44-0.24
		c0.76-0.92,1.5-1.93,2.24-2.79c0.1-0.11,0.19-0.45,0.43-0.32c-0.08,0.37-0.41,0.66-0.67,0.97c-0.53,0.63-1,1.23-1.53,1.9
		c-0.2,0.25-0.69,0.75-0.71,1.05c-0.01,0.19,0.15,0.38,0.16,0.56C27.59,46.88,31.97,47.04,36.4,47.06z M32.42,26.4
		c-0.03-0.28,0.28-0.61-0.04-0.73C32.3,25.78,32.2,26.36,32.42,26.4z M32.7,26.81c0.13-0.17,0.45-0.67,0.12-0.81
		C32.74,26.19,32.44,26.65,32.7,26.81z M33.13,26.6c-0.01,0.18,0.19,0.12,0.2,0.36c-0.08,0.09-0.03,0.3-0.04,0.45
		c0.06,0.06,0.15,0.08,0.24,0.12c0-0.22-0.12-0.31-0.12-0.52c0.04-0.13,0.23-0.12,0.23-0.28C33.51,26.49,33.15,26.2,33.13,26.6z
		 M33.88,27.13c-0.02-0.08,0.06-0.28-0.08-0.24C33.8,26.99,33.78,27.12,33.88,27.13z M32.89,27.73c0.01-0.27,0.18-0.35,0.16-0.65
		C32.81,27.09,32.76,27.6,32.89,27.73z M33.96,27.77c0.1,0.02,0.2-0.3,0.04-0.28C33.98,27.59,33.93,27.64,33.96,27.77z M34.82,28.26
		c0.09-0.11,0.17-0.4,0.08-0.56c-0.04,0-0.08,0-0.12,0C34.81,27.88,34.64,28.17,34.82,28.26z M32.89,28.62
		c-0.05,0.42,0.23,0.76,0.32,1.17c0.25,1.16-0.03,2.58,0.2,3.8c0.33-0.32,0.12-0.91,0.08-1.37c-0.07-0.92,0.01-1.98-0.08-2.87
		c-0.1-0.11-0.3,0.17-0.36-0.08c0.06-0.55,0.39-0.81,0.39-1.41c-0.01-0.03-0.03-0.05-0.08-0.04C33.22,28.1,33.07,28.37,32.89,28.62z
		 M35.37,28.79c0.15-0.09,0.22-0.26,0.2-0.53c-0.08-0.03-0.12-0.12-0.24-0.12C35.29,28.27,35.23,28.71,35.37,28.79z M31.99,28.42
		c0.05,0.31,0.07,0.63,0.28,0.77c-0.01-0.23,0.09-0.75-0.12-0.89C32.11,28.35,32.04,28.38,31.99,28.42z M6.1,28.38
		c-0.05,0.21,0.27,0.04,0.27,0.2c0.13,0.65-0.16,1.59,0.16,2.18c0.42-0.27,0.26-1.26,0.04-1.66c0.17-0.19,0.04-0.45,0.12-0.73
		C6.49,28.39,6.26,28.27,6.1,28.38z M6.88,28.54C6.85,28.92,7,29.31,7.04,29.67c0.02,0.22-0.1,0.52,0.12,0.65
		c0.06-0.59,0.02-1.42-0.16-1.9c-0.04,0-0.08,0-0.12,0C6.88,28.46,6.88,28.5,6.88,28.54z M7.39,28.42
		c-0.08,0.85,0.05,1.84,0.16,2.63c0.55-0.54,0.13-1.89,0.04-2.63C7.53,28.42,7.46,28.42,7.39,28.42z M21.64,28.46
		c0,0.05-0.05,0.06-0.04,0.12c0.51,0.39,0.74,1.12,1.02,1.78c0.22,0.51,0.38,1.13,0.83,1.41c-0.22-0.77-0.66-1.55-0.95-2.26
		c-0.09-0.21-0.28-0.54-0.12-0.73c0.47,0.57,0.63,1.36,0.95,2.06c0.31,0.68,0.77,1.34,0.83,2.1c-0.33-0.09-0.29-0.56-0.51-0.77
		c-0.06,0.07-0.09,0.18-0.24,0.16c-0.09,0.16,0.16,0.41-0.12,0.48c-0.36-0.17-0.48-0.62-0.63-0.97c-0.17-0.37-0.34-0.75-0.51-1.13
		c-0.35-0.76-0.53-1.65-1.06-2.22c-0.39,0.02-1.23-0.09-1.61,0.08c0.51,1.43,1.24,2.76,1.93,3.96c0.08,0.14,0.3,0.35,0.16,0.53
		c-0.39-0.14-0.45-0.61-0.63-0.93c-0.62-1.1-1.34-2.25-1.69-3.56c-0.31-0.09-0.78-0.04-1.02,0.08c0.66,1.62,1.46,3.11,2.24,4.61
		c1.5,0.1,3.4,0.02,4.96-0.16c-0.84-1.45-1.43-3.17-2.2-4.69C22.7,28.44,22.09,28.37,21.64,28.46z M23.57,28.46
		c0.21,0.61,0.62,1.43,1.02,2.35c0.4,0.89,0.66,1.7,1.1,2.14c0.21,0.21,0.67,0.04,0.98,0.08c-0.15-0.79-0.67-1.49-1.06-2.22
		c-0.3-0.57-0.58-1.12-0.9-1.62c-0.09-0.14-0.32-0.34-0.2-0.53c0.41,0.14,0.55,0.63,0.75,0.97c0.64,1.12,1.25,2.28,1.85,3.4
		c0.75-0.07,1.64,0.01,2.2-0.04c-0.04-0.35-0.2-0.58-0.43-0.73c-0.12,0.2,0.22,0.26,0.08,0.48c-0.17,0.1-0.29,0-0.4-0.08
		c0.01,0.11-0.01,0.17-0.11,0.16c-0.29-0.12-0.3-0.7-0.59-0.73c-0.31-0.02-0.31,0.38-0.35,0.61c-0.35-0.12-0.45-0.57-0.63-0.89
		c-0.39-0.69-0.8-1.35-1.22-1.98c-0.21-0.31-0.48-0.65-0.51-1.01c0.65,0.31,0.71,1.21,1.3,1.58c0.13-0.04,0.14-0.21,0.2-0.32
		c-0.33-0.56-0.73-1.06-1.02-1.66C24.94,28.44,24.17,28.37,23.57,28.46z M26.28,29.07c0.13,0.02,0.06-0.18,0.23-0.12
		c0.25,0.14,0.34,0.46,0.63,0.57c0.19-0.38-0.3-0.7-0.4-1.05c-0.2-0.08-0.52-0.03-0.79-0.04C25.98,28.73,26.2,28.83,26.28,29.07z
		 M7.9,28.62c0,0.37,0.09,0.57,0.12,0.89c0.03,0.35-0.09,0.87,0.24,0.93c0.05-0.43,0.02-1.19-0.08-1.7
		c-0.01-0.09-0.01-0.24-0.16-0.24c-0.02,0-0.05,0-0.08,0C7.94,28.55,7.9,28.56,7.9,28.62z M8.42,28.54
		c0.01,0.61,0.12,1.47,0.19,2.14c0.59-0.25,0.41-1.58,0.2-2.14C8.71,28.51,8.51,28.46,8.42,28.54z M27.51,29.15
		c0.03-0.23,0.1-0.4,0.19-0.57c-0.16-0.04-0.34-0.05-0.55-0.04C27.19,28.83,27.29,29.04,27.51,29.15z M9.44,30.44
		c0.11-0.64-0.07-1.33-0.2-1.86C9.14,29.08,9.22,30.02,9.44,30.44z M9.99,28.74c0.02,0.23,0,0.42,0.04,0.61
		c0.08,0.41,0.1,0.98,0.35,1.13c0.04-0.42-0.11-1.3-0.2-1.86c-0.07,0-0.13,0-0.2,0C9.99,28.66,9.99,28.7,9.99,28.74z M10.54,28.7
		c-0.1,0.65,0.06,1.36,0.24,1.86c0.58-0.34-0.21-1.32,0.08-1.86C10.8,28.64,10.6,28.64,10.54,28.7z M10.98,28.7
		c0.18,0.37,0.17,1.38,0.43,1.9c0.19-0.62-0.04-1.42-0.2-1.94C11.11,28.66,11.02,28.66,10.98,28.7z M17.27,29.59
		c0.03,0.04,0.23-0.09,0.24-0.2c-0.18-0.24-0.15-0.7-0.55-0.73C16.91,28.97,17.07,29.4,17.27,29.59z M17.51,28.7
		c0.22,0.78,0.72,1.25,1.02,1.94c0.33-0.12,0.09-0.46,0-0.65c-0.18-0.36-0.4-0.69-0.51-1.05c0.02-0.13-0.03-0.19-0.04-0.28
		C17.82,28.68,17.6,28.63,17.51,28.7z M11.64,28.7c-0.08,0.4-0.09,1.41,0.39,1.5c0.12-0.43-0.09-1.12-0.28-1.5
		C11.72,28.7,11.68,28.7,11.64,28.7z M12.19,28.7c-0.08,0.57,0.13,1.18,0.35,1.58C12.68,29.93,12.79,28.69,12.19,28.7z M16.8,30.24
		c0.47-0.39-0.12-1.05-0.16-1.54c-0.17,0-0.34,0-0.51,0C16.29,29.28,16.47,29.83,16.8,30.24z M12.98,28.74
		c-0.35,0.02-0.19,0.89,0.12,1.09c0.03,0.2-0.19,0.43,0.04,0.48C13.72,30.34,13.32,28.73,12.98,28.74z M13.73,29.59
		c0.31-0.07,0.09-0.62,0.04-0.81c-0.09-0.01-0.15-0.06-0.28-0.04C13.45,29.02,13.57,29.41,13.73,29.59z M14.16,28.74
		c-0.17,0.53,0.21,1.21,0.4,1.7c0.11,0.27,0.12,0.67,0.39,0.69c0.08-0.76-0.49-1.55-0.59-2.39C14.3,28.74,14.23,28.74,14.16,28.74z
		 M14.75,29.43c0.11,0.47,0.47,1.19,0.67,1.42c0,0.13,0,0.27,0,0.41c0.12,0.1,0.15-0.12,0.32-0.08c-0.1-0.71-0.74-1.29-0.59-1.98
		c0.48,0.49,0.49,1.46,0.98,1.94c0.86-0.58-0.12-1.64-0.31-2.34C15.1,28.72,14.55,28.55,14.75,29.43z M9.95,31.09
		c0.16-0.72-0.14-1.62-0.27-2.3C9.68,29.65,9.72,30.47,9.95,31.09z M29.16,28.99c-0.03,0.12,0.04,0.15,0.04,0.24
		c0.19,0,0.26-0.14,0.27-0.32C29.35,28.85,29.26,28.92,29.16,28.99z M28.29,29.39c0.1-0.16-0.07-0.35-0.2-0.4
		C28.01,29.13,28.12,29.37,28.29,29.39z M36.79,29.63C37.61,29.44,36.41,28.8,36.79,29.63L36.79,29.63z M29.67,29.27
		c-0.2,0.02-0.27,0.45,0.04,0.49C29.98,29.66,29.89,29.25,29.67,29.27z M34.74,29.31c0,0.05-0.05,0.06-0.04,0.12
		c-0.13,0.37-0.08,0.97-0.08,1.54c0,0.44-0.09,0.96,0.12,1.21c0.28-0.53-0.1-1.54,0.04-2.27c0.04-0.21,0.24-0.31,0.2-0.52
		C34.91,29.35,34.88,29.28,34.74,29.31z M27.97,29.79c0.17-0.16-0.01-0.45-0.23-0.44C27.64,29.53,27.78,29.78,27.97,29.79z
		 M26.83,29.79c0.11-0.17-0.18-0.23-0.24-0.36C26.63,29.6,26.71,29.72,26.83,29.79z M57.92,35.13c-0.25-0.43-0.37-0.98-0.55-1.45
		c-0.54-1.44-1.13-3.18-2.56-3.6c-0.58-0.17-1.29-0.15-2.01-0.2c-0.6-0.04-1.21-0.27-1.77-0.32c-1.23-0.11-2.07-0.05-3.43-0.04
		c-0.84,0.01-2.07,0.02-2.36,0.73c-0.17,0.41-0.13,1.16-0.16,1.82c-0.1,2.55-0.24,4.89-0.35,7.64c-0.07,1.77-0.16,3.38-0.28,5.06
		c-0.01,0.19-0.09,0.42-0.08,0.56c0.03,0.43,0.37,1.17,0.67,1.46c0.47,0.44,1.4,0.5,2.12,0.28c0.08-0.87,0.22-1.35,0.47-2.02
		c0.12-0.32,0.24-0.71,0.39-0.97c0.66-1.14,2.41-2.04,3.97-2.14c1.22-0.08,2.04,0.4,2.79,0.81c1.09,0.59,1.95,1.56,2.44,2.71
		c0.64-0.47,0.96-1.33,1.34-2.02c0.12-0.23,0.22-0.62,0.55-0.61c-0.08,0.41-0.38,0.79-0.59,1.22c-0.31,0.63-0.63,1.27-1.14,1.62
		c0.01,0.27,0.14,0.42,0.2,0.65c0.71-0.77,1.31-1.82,1.89-2.71c0.19-0.28,0.31-0.75,0.67-0.8c0.01,0.33-0.26,0.61-0.43,0.89
		c-0.6,0.95-1.25,2.17-2.05,2.83c0.05,0.33,0.22,0.53,0.28,0.85c1.11,0.19,2.46,0.3,3.7,0.4c0.29,0.03,0.55,0.11,0.83,0.08
		c0.55-0.05,1.63-0.37,1.81-0.89c0.2-0.59-0.12-1.67-0.2-2.71c-0.09-1.14-0.07-2.01-0.24-2.95c-0.41-0.2-0.77-0.18-1.07-0.4
		c-0.67-0.53-0.41-1.91-0.87-2.67c-0.02-0.17,0.03-0.27,0.04-0.41C60.61,36.85,58.74,36.54,57.92,35.13z M17.43,30.2
		c0.39,0.07,0.37-0.5,0.15-0.61C17.56,29.82,17.31,29.95,17.43,30.2z M28.64,29.91c0.06-0.01,0.07-0.06,0.12-0.08
		C28.78,29.33,28.23,29.81,28.64,29.91z M35.45,30.16c0.13-0.08,0.18-0.24,0.24-0.4c-0.09-0.02-0.08-0.16-0.24-0.12
		C35.34,29.78,35.47,29.97,35.45,30.16z M27.66,30.12c0.01-0.24-0.07-0.39-0.28-0.4C27.3,29.89,27.43,30.14,27.66,30.12z
		 M29.39,30.08c0.1-0.12-0.03-0.27-0.16-0.28C29.15,29.91,29.21,30.12,29.39,30.08z M32.3,30.72c0.08-0.24,0.05-0.68,0-0.93
		c-0.04,0-0.08,0-0.12,0C32.12,30.06,32.09,30.62,32.3,30.72z M30.1,30.36c0.23-0.09,0.09-0.49-0.08-0.53
		C29.82,29.93,29.9,30.33,30.1,30.36z M28.33,30.32c0.06-0.06,0.06-0.27,0-0.33c-0.05,0-0.11,0-0.16,0
		C28.08,30.13,28.17,30.33,28.33,30.32z M36.16,30.6c0.2-0.07,0.35-0.18,0.39-0.4C36.37,29.78,35.94,30.25,36.16,30.6z M27.31,30.44
		c0.1-0.15-0.1-0.29-0.2-0.36C27.01,30.23,27.11,30.47,27.31,30.44z M28.88,30.44c0.12,0.03,0.07,0.03,0.2,0
		c0.01-0.18-0.03-0.32-0.2-0.32C28.86,30.21,28.8,30.36,28.88,30.44z M13.97,30.68c0.22,0,0.32-0.24,0.23-0.44
		C13.94,30.23,13.91,30.49,13.97,30.68z M17.7,30.64c0.12,0.09,0.41-0.29,0.2-0.4C17.83,30.37,17.67,30.41,17.7,30.64z M17.15,30.93
		c0.12-0.17,0.28-0.58-0.08-0.61C16.93,30.5,16.85,30.86,17.15,30.93z M29.59,30.32c-0.16,0.15-0.04,0.5,0.19,0.48
		C29.96,30.64,29.82,30.31,29.59,30.32z M28.01,30.64c0-0.15-0.02-0.28-0.16-0.28C27.77,30.48,27.84,30.68,28.01,30.64z M6.1,31.73
		c0.22-0.24,0.12-1.01,0-1.29C6.1,30.87,6.1,31.31,6.1,31.73z M26.44,30.52c0.16,0.37,0.34,0.73,0.59,1.01
		c0.15-0.07,0.29-0.16,0.31-0.37c-0.23-0.18-0.41-0.38-0.47-0.73C26.68,30.41,26.66,30.58,26.44,30.52z M28.64,30.89
		c0.01-0.03,0.03-0.05,0.08-0.04c0.02-0.19-0.02-0.34-0.16-0.36C28.41,30.58,28.42,30.86,28.64,30.89z M30.53,30.89
		c0.09-0.13-0.02-0.34-0.16-0.36C30.27,30.66,30.37,30.89,30.53,30.89z M11.92,31.01c0.2-0.03,0.27-0.18,0.27-0.4
		C12.05,30.52,11.87,30.75,11.92,31.01z M12.59,30.93c0.22,0.02,0.25-0.15,0.24-0.37C12.59,30.52,12.58,30.72,12.59,30.93z
		 M27.66,31.01C27.84,30.44,27.09,30.89,27.66,31.01L27.66,31.01z M17.94,31.33c0.07,0,0.12,0.01,0.16,0.04
		c0.16-0.12,0.34-0.42,0.16-0.65C17.9,30.69,17.8,31.1,17.94,31.33z M29.47,31.13c0-0.22-0.12-0.31-0.24-0.4
		C29.1,30.92,29.35,31.2,29.47,31.13z M13.41,31.41c0.2-0.1,0.44-0.34,0.32-0.65C13.48,30.8,13.21,31.18,13.41,31.41z M10.93,31.33
		c0.1-0.12,0.32-0.42,0.08-0.53C10.93,30.9,10.74,31.21,10.93,31.33z M18.73,31.09c0.15-0.01,0.27-0.05,0.24-0.24
		C18.85,30.75,18.67,30.88,18.73,31.09z M14.12,31.25c0.14-0.06,0.26-0.14,0.27-0.32c0-0.05-0.04-0.06-0.08-0.08
		C14.25,30.98,14.09,31.01,14.12,31.25z M28.21,31.21c0.19,0,0.19-0.28,0-0.28C28.16,30.98,28.16,31.15,28.21,31.21z M29.98,31.37
		C30.75,31.13,29.62,30.62,29.98,31.37L29.98,31.37z M16.48,31.86c0.16-0.2,0.51-0.55,0.27-0.89
		C16.42,31.02,16.08,31.65,16.48,31.86z M29.04,31.57c0.09,0.01,0.04-0.12,0.12-0.12c-0.03-0.2-0.1-0.36-0.28-0.4
		C28.74,31.18,28.79,31.59,29.04,31.57z M12,31.66c0.19-0.07,0.3-0.24,0.36-0.45C12.12,31.09,12.02,31.42,12,31.66z M19.35,32.5
		c0.16,0.36,0.34,0.82,0.67,0.77c-0.12-0.65-0.58-1.29-0.83-1.94c-0.06-0.01-0.07-0.07-0.12-0.08
		C18.83,31.55,19.18,32.11,19.35,32.5z M27.97,31.53c0.08-0.09,0.03-0.27-0.08-0.28C27.76,31.3,27.82,31.54,27.97,31.53z
		 M7.12,31.73c0.21,0.01,0.15-0.25,0.16-0.44c-0.04,0-0.08,0-0.12,0C7.14,31.43,7.1,31.55,7.12,31.73z M15.62,31.73
		c0.22,0.07,0.34-0.35,0.16-0.44C15.77,31.48,15.6,31.51,15.62,31.73z M14.32,31.9c0.22-0.05,0.42-0.31,0.31-0.57
		C14.35,31.33,14.25,31.66,14.32,31.9z M18.3,31.77c0.1-0.1,0.24-0.15,0.24-0.36c-0.05,0-0.05-0.05-0.12-0.04
		C18.39,31.5,18.15,31.61,18.3,31.77z M13.61,31.98c0.2-0.06,0.28-0.25,0.32-0.48c-0.06-0.01-0.07-0.07-0.12-0.08
		C13.7,31.56,13.41,31.77,13.61,31.98z M15.11,31.66c0.14,0,0.14-0.21,0.04-0.24C15.1,31.46,15.1,31.55,15.11,31.66z M17.82,31.57
		c-0.11-0.4-0.6,0.11-0.24,0.4C17.78,31.93,17.87,31.74,17.82,31.57z M10.58,31.82c0.08-0.07,0.11-0.3-0.04-0.32
		C10.51,31.53,10.43,31.84,10.58,31.82z M29.59,31.66c0.05,0,0.11,0,0.16,0c0.02-0.13-0.03-0.18-0.16-0.16
		C29.59,31.55,29.59,31.6,29.59,31.66z M28.68,31.82c0.08-0.07-0.04-0.16-0.04-0.28c-0.05,0-0.11,0-0.16,0
		C28.49,31.7,28.51,31.84,28.68,31.82z M30.26,31.94c0.25,0.01,0.37-0.11,0.35-0.36C30.44,31.5,30.21,31.66,30.26,31.94z
		 M12.83,32.02c0.23,0.01,0.38-0.24,0.27-0.44C12.88,31.59,12.83,31.78,12.83,32.02z M27.11,31.7c0.03,0.17,0.13,0.27,0.24,0.36
		c0.18-0.05,0.33-0.12,0.35-0.32c-0.07,0-0.02-0.14-0.08-0.16C27.38,31.54,27.27,31.64,27.11,31.7z M16.68,32.22
		c0.15-0.13,0.26-0.31,0.32-0.52C16.87,31.82,16.65,32.07,16.68,32.22z M11.05,32.14c0.15-0.02,0.21-0.14,0.24-0.28
		c-0.06,0-0.03-0.1-0.12-0.08C11.13,31.88,10.96,32.01,11.05,32.14z M12.12,32.14c0.13-0.01,0.36-0.3,0.19-0.36
		C12.3,31.95,12.11,31.95,12.12,32.14z M18.73,31.77c-0.67,0.27,0.08,0.78,0,1.21c-0.32-0.03-0.27-0.42-0.51-0.53
		c-0.45,0.07-0.15,0.68,0.04,0.81c0.31,0.06,0.83,0.06,1.14,0C19.23,32.71,19.02,32.21,18.73,31.77z M29.23,32.14
		c0.13-0.02,0.21-0.1,0.19-0.28C29.26,31.61,29.04,32.01,29.23,32.14z M23.1,32.06c0-0.12-0.04-0.2-0.12-0.24
		C22.98,31.94,22.98,32.06,23.1,32.06z M15.82,32.18c-0.01,0.13,0.08,0.15,0.12,0.32C16.66,32.35,15.83,31.42,15.82,32.18z
		 M28.33,32.14c0.08-0.1,0.05-0.34-0.16-0.28C28.17,32.01,28.19,32.14,28.33,32.14z M14.56,32.46c0.21-0.02,0.4-0.42,0.24-0.56
		C14.66,32.01,14.46,32.24,14.56,32.46z M15.34,32.22c0.02-0.08,0.11-0.07,0.08-0.2c-0.05,0-0.05-0.05-0.12-0.04
		C15.25,32.03,15.24,32.22,15.34,32.22z M6.84,32.58c0.06-0.16,0.17-0.53-0.08-0.57C6.73,32.21,6.6,32.53,6.84,32.58z M13.85,32.5
		c0.03,0.01,0.08,0,0.08,0.04c0.24-0.05,0.25-0.33,0.16-0.53C13.86,32.02,13.75,32.3,13.85,32.5z M17.39,32.26
		c-0.05-0.53-0.59,0.16-0.59,0.44c0,0.44,0.46,0.75,1.03,0.57c0.01-0.29-0.1-0.47-0.28-0.57c-0.21,0.04-0.2,0.48-0.52,0.28
		C17.09,32.55,17.43,32.67,17.39,32.26z M17.86,32.3c0.11,0.03,0.19-0.23,0.04-0.21C17.92,32.2,17.83,32.19,17.86,32.3z
		 M13.02,32.58c-0.32,0.05-0.52,0.4-0.55,0.61c0.59,0.03,1.39,0.12,1.97-0.04c-0.05-0.13-0.01-0.36-0.2-0.37
		c-0.08-0.07-0.22,0.15-0.39,0.12c-0.15-0.02-0.16-0.18-0.32-0.2c-0.18,0.06-0.15,0.32-0.35,0.37c-0.06-0.02-0.1-0.06-0.12-0.12
		c0.06-0.3,0.36-0.36,0.31-0.77C13.12,32.03,12.98,32.31,13.02,32.58z M12.16,32.91c0.16-0.19,0.4-0.32,0.43-0.65
		c-0.01-0.05-0.04-0.06-0.08-0.08C12.37,32.4,12.13,32.52,12.16,32.91z M30.61,32.42c-0.01,0.44,0.45,0.74,0.83,0.53
		c-0.02-0.21-0.09-0.36-0.24-0.44c-0.08,0.08-0.18,0.14-0.35,0.12c-0.03-0.12-0.01-0.29-0.12-0.32
		C30.69,32.34,30.65,32.38,30.61,32.42z M10.74,32.58c0.03-0.03,0.1-0.24-0.04-0.2C10.69,32.48,10.62,32.56,10.74,32.58z
		 M29.55,32.7c0.08-0.01,0.09,0.05,0.16,0.04c0.13-0.1,0.1-0.44-0.16-0.36C29.49,32.44,29.49,32.65,29.55,32.7z M14.95,32.83
		c0.17,0.01,0.19-0.28,0.12-0.4C14.82,32.39,14.85,32.72,14.95,32.83z M15.5,33.07c-0.15-0.02-0.15-0.19-0.31-0.08
		c-0.05,0.05-0.05,0.14-0.04,0.24c0.21,0.06,0.48,0.09,0.67,0.04c-0.12-0.2-0.01-0.64-0.2-0.77C15.42,32.61,15.71,32.98,15.5,33.07z
		 M9.4,33.03c-0.06-0.06-0.07-0.17-0.16-0.2c-0.05,0.14-0.2,0.17-0.2,0.37c0.21,0.06,0.64,0.08,0.79-0.04
		c-0.09-0.32,0.18-0.44,0.12-0.61C9.66,32.6,9.68,32.96,9.4,33.03z M16.29,33.03c0.06-0.1,0.15-0.17,0.12-0.36
		c-0.05,0-0.06-0.05-0.12-0.04C16.23,32.75,16.09,32.97,16.29,33.03z M30.49,32.99c-0.04-0.13-0.04-0.28-0.2-0.28
		C30.2,32.83,30.33,33,30.49,32.99z M7.32,33.15c0.3,0.04,0.75,0.11,0.86-0.08c-0.23,0.01-0.43-0.05-0.51-0.28
		C7.4,32.75,7.35,32.94,7.32,33.15z M6.37,33.11c0.11,0.1,0.29,0.1,0.39,0c-0.01-0.19-0.16-0.24-0.32-0.28
		C6.42,32.92,6.37,32.99,6.37,33.11z M9.99,33.19c0.23,0.08,0.44-0.05,0.47-0.28c-0.06-0.01-0.07-0.07-0.12-0.08
		C10.22,32.94,10.03,32.99,9.99,33.19z M10.74,33.19c0.18,0.04,0.49,0.07,0.67,0c0.01-0.1,0.06-0.15,0.04-0.28
		C11.09,33.03,10.76,32.71,10.74,33.19z M12.08,33.15c0.05,0.05,0.19,0.05,0.24,0C12.32,32.95,12.07,32.95,12.08,33.15z
		 M32.54,34.73c0.06-0.1,0.14-0.17,0.12-0.36c-0.08-0.02-0.07-0.12-0.2-0.08C32.38,34.4,32.41,34.7,32.54,34.73z M63.19,40.31
		c0.17,0.09,0.35,0.18,0.63,0.16c-0.08-0.62,0.12-1.16-0.04-1.58c-0.17-0.43-0.72-0.47-1.1-0.69C62.78,38.82,62.96,39.7,63.19,40.31
		z M14.28,43.7c-0.49,0.42-0.68,0.92-0.94,1.62c-0.23,0.6-0.5,1.14-0.35,1.98c0.08,0.48,0.55,1.23,0.86,1.62
		c0.87,1.07,2.77,2.19,4.68,2.02c1.29-0.11,2.88-1.53,3.38-2.71c0.17-0.39,0.27-1.05,0.2-1.58c-0.08-0.6-0.71-1.7-1.1-2.18
		c-0.45-0.56-1.21-1-1.89-1.38c-0.29-0.16-0.6-0.37-0.79-0.4c-0.37-0.07-1.09-0.07-1.38-0.04C15.94,42.75,14.92,43.15,14.28,43.7z
		 M49.27,43.66c-0.61,0.5-1.18,1.67-1.34,2.59c-0.19,1.06,0.31,1.96,0.75,2.55c0.9,1.2,3.03,2.29,4.76,2.14
		c0.58-0.05,1.25-0.39,1.69-0.69c0.65-0.43,1.5-1.36,1.77-2.18c0.44-1.33-0.23-2.6-0.79-3.35c-0.69-0.94-1.74-1.45-2.79-2.02
		C51.69,42.46,50.16,42.93,49.27,43.66z"/>
	<path class="st10" d="M57.84,39.86c-0.53,0.29-1.27,0.06-1.77,0c-0.68-0.08-1.38-0.02-2.09-0.04c-1.57-0.05-3.4-0.39-5.16-0.16
		c-0.14-0.15-0.5-0.07-0.63-0.24c-0.12-0.34,0.09-0.78,0.12-1.13c0.06-0.73,0-1.66,0.04-2.59c0.04-1.05,0.1-2.79,0.79-2.87
		c0.81-0.1,1.64,0,2.48,0c0.71,0,1.84-0.14,2.36,0.12c0.15,0.08,0.34,0.43,0.51,0.69c0.82,1.22,1.65,2.34,2.4,3.6
		C57.37,38.02,58.01,38.75,57.84,39.86z M49.27,33.56c-0.08,0.31-0.18,0.82-0.12,1.13c0.2-0.35,0.44-0.65,0.51-1.13
		C49.57,33.48,49.36,33.52,49.27,33.56z M49.97,33.51c-0.2,0.73-0.73,1.33-0.75,2.1c0.37-0.64,0.83-1.39,1.03-2.06
		C50.23,33.46,50.05,33.54,49.97,33.51z M52.18,33.6c-0.35,0.46-0.58,1.03-0.87,1.58c-0.27,0.52-0.67,1.09-0.86,1.58
		c-0.3,0.76-0.49,1.46-1.02,1.98c-0.18-0.07-0.36-0.14-0.44-0.32c-0.04-0.23,0.14-0.24,0.16-0.4c0.11-0.32,0.28-0.64,0.43-0.97
		c0.15-0.32,0.4-0.66,0.31-0.97c-0.43,0.81-1.06,1.64-0.98,2.83c0.25,0.06,0.79,0.09,0.98-0.04c0.91-1.83,2.04-3.43,2.91-5.29
		C52.65,33.48,52.29,33.49,52.18,33.6z M50.68,33.56c0,0.05-0.07,0.04-0.08,0.08c-0.27,0.41-0.54,0.96-0.79,1.46
		c-0.24,0.49-0.58,1-0.59,1.54c0.61-0.94,1.37-1.93,1.66-3.07C50.81,33.56,50.75,33.56,50.68,33.56z M51.15,33.84
		c0.14-0.02,0.19-0.13,0.2-0.28C51.15,33.51,51.15,33.67,51.15,33.84z M53.12,33.68c-1.05,1.52-1.97,3.54-2.83,5.21
		c0.16,0.04,0.23,0.04,0.39,0c0.75-1.95,2.22-3.38,2.83-5.34C53.28,33.53,53.21,33.56,53.12,33.68z M49.85,37.15
		c0.79-1.02,1.3-2.33,1.93-3.52c-0.01-0.03-0.03-0.05-0.08-0.04C51.06,34.75,50.33,35.82,49.85,37.15z M52.49,37.56
		c0.37-0.69,0.78-1.33,1.14-2.06c0.28-0.58,0.82-1.28,0.16-1.62c-0.03,0-0.05,0-0.08,0c-0.76,1.79-1.94,3.15-2.67,4.97
		c0.63,0.11,1.32,0.15,2.01,0.2c0.41-1,1.08-1.9,1.61-2.79c0.15-0.26,0.54-0.64,0.2-0.97c-0.63,0.74-1.05,1.7-1.57,2.55
		c0.03,0.37-0.04,0.63-0.32,0.69c-0.07-0.04-0.12-0.09-0.16-0.16c0.36-0.97,0.99-1.92,1.5-2.79c0.15-0.26,0.48-0.67,0.04-0.93
		c-0.36,0.66-0.69,1.35-1.07,2.02c-0.27,0.49-0.62,1.01-0.82,1.5c-0.06,0.15-0.05,0.53-0.36,0.45
		C52.01,38.26,52.3,37.91,52.49,37.56z M55.13,35.98c-0.4,0.8-0.99,1.41-1.34,2.27c0.55-0.69,1.11-1.37,1.53-2.18
		C55.25,36.04,55.25,35.95,55.13,35.98z M55.44,36.59c0.07,0,0.13,0,0.2,0c-0.01-0.1-0.06-0.16-0.16-0.16
		C55.47,36.48,55.42,36.5,55.44,36.59z M53.83,38.81c-0.22,0.08-0.24-0.18-0.36-0.08c0,0.13-0.05,0.19-0.08,0.28
		c0.12,0.16,0.53,0.15,0.75,0.08c0.01-0.13-0.07-0.17-0.04-0.32c0.43-0.69,0.93-1.31,1.3-2.06c-0.01-0.05-0.01-0.1-0.08-0.08
		C54.81,37.34,54.27,38.03,53.83,38.81z M54.26,39.09c0.32,0.07,0.27-0.23,0.36-0.4c0.46-0.59,0.92-1.18,1.26-1.9
		c-0.07-0.04-0.1-0.11-0.23-0.08C55.33,37.65,54.64,38.22,54.26,39.09z M54.85,39.09c0.26,0.05,0.5,0,0.75,0.12
		c0.06-0.08-0.07-0.2-0.08-0.32c-0.15,0.01-0.15,0.17-0.31,0.16c-0.05-0.09-0.13-0.13-0.16-0.24c0.05-0.09,0.12-0.15,0.2-0.2
		c0.15-0.5,0.8-0.89,0.71-1.38C55.57,37.83,55.13,38.38,54.85,39.09z M55.72,38.49c0.33-0.17,0.56-0.44,0.63-0.89
		C55.99,37.74,55.82,38.08,55.72,38.49z M56.43,38.69c0.15-0.02,0.21-0.13,0.35-0.16c0.02-0.23-0.08-0.32-0.16-0.45
		c-0.06,0-0.13,0-0.2,0C56.32,38.3,56.52,38.48,56.43,38.69z"/>
	<path class="st10" d="M52.53,44.51c1.26-0.2,2.32,1.26,2.36,2.39c0.05,1.43-1.2,2.48-2.67,1.98c-0.61-0.21-1.4-0.97-1.57-1.62
		C50.27,45.85,51.24,44.72,52.53,44.51z M52.77,45.28c0.04,0.03,0.11,0.05,0.19,0.04C53,45.17,52.77,45.16,52.77,45.28z
		 M52.41,45.56c0.13,0.01,0.19-0.05,0.2-0.16C52.52,45.31,52.39,45.41,52.41,45.56z M51.47,45.97c0.17-0.13,0.3-0.29,0.39-0.48
		C51.64,45.55,51.54,45.74,51.47,45.97z M52.37,47.42c0.47-0.38,0.64-1.23,0.9-1.78c-0.01-0.03-0.03-0.05-0.08-0.04
		C52.99,46.25,52.44,46.77,52.37,47.42z M53.6,45.73c-0.37,0.82-0.93,1.55-0.91,2.55c1.22,0.34,1.98-1.21,1.26-2.1
		c-0.38,0.35-0.25,1.22-0.83,1.37c0.07-0.56,0.58-1.21,0.59-1.82C53.67,45.73,53.63,45.73,53.6,45.73z M52.22,46.94
		c0.2-0.36,0.41-0.71,0.55-1.13c-0.01-0.03-0.03-0.05-0.08-0.04C52.59,46.16,51.94,46.54,52.22,46.94z M51.94,47.79
		c0-0.11,0-0.21,0-0.32c-0.14-0.03-0.15,0.06-0.28,0.04c-0.08-0.08,0-0.32-0.16-0.32C51.41,47.48,51.64,47.77,51.94,47.79z"/>
</g>
</svg>
