<svg xmlns="http://www.w3.org/2000/svg" xml:space="preserve" id="Layer_1" x="0" y="0" style="enable-background:new 0 0 70 70" version="1.1" viewBox="0 0 70 70">
    
    <style>
        .st10 {
            fill-rule:evenodd;
            clip-rule:evenodd;
            fill:#1779ff
        }
    </style>    
    <path d="M19.95 28.66h.12c.54 1.07 1.07 2.22 1.61 3.31.17.35.43.67.47 1.05-.39-.13-.53-.6-.71-.93-.53-1.04-1.04-2.18-1.53-3.27-.02-.08.02-.1.04-.16zM22.82 28.66h.12c.59.91.93 2.05 1.42 3.11.15.33.41.64.39 1.01-.37-.1-.45-.56-.59-.89-.3-.69-.56-1.33-.91-2.06-.18-.39-.5-.84-.43-1.17zM23.96 28.79h.08c.51.55.74 1.29 1.14 1.94.39.64.75 1.31 1.14 1.94-.39.03-.58-.46-.75-.73-.57-.94-1.12-2.04-1.65-2.99-.02-.09.03-.11.04-.16zM18.81 28.91h.08c.41.65.71 1.4 1.06 2.1.18.36.37.7.55 1.05.17.33.43.67.43 1.05-.32-.11-.46-.53-.63-.85-.17-.32-.34-.67-.51-1.01-.37-.77-.88-1.56-.98-2.34zM20.77 29.07h.12c.05.12.09.23.12.37.51.78.85 1.84 1.34 2.63.12.19.42.37.24.65-.54-.38-.73-1.1-1.02-1.7-.29-.6-.67-1.18-.87-1.82.03-.04.05-.09.07-.13zM53.95 34.2c-.4 1.26-1.16 2.5-1.85 3.6-.02.4-.22.83-.51.81-.13-.41.2-.77.39-1.09.2-.33.43-.67.63-1.01.45-.76.74-1.62 1.18-2.31h.16zM27.86 40.95c-.01.3-.29.52-.47.73-1.15 1.29-2.36 2.66-3.5 4.04-.16.19-.32.56-.63.53.07-.3.29-.55.47-.77a78.59 78.59 0 0 1 3.94-4.49c.01-.04.08-.03.08-.08.05-.01.06.04.11.04zM36.08 41.08c-.04.52-.59.9-.91 1.29-.67.82-1.36 1.65-2.01 2.51-.32.42-.59.91-1.03 1.21.05-.51.47-.93.79-1.33.64-.81 1.3-1.56 1.97-2.39.39-.47.69-.99 1.19-1.29zM28.21 41.28h.12c.08.31-.27.47-.43.64-.89.93-1.77 2.02-2.64 3.03-.34.4-.56.96-1.07 1.17.11-.45.5-.9.83-1.29.33-.39.73-.74.98-1.17.74-.77 1.42-1.62 2.16-2.39.03.01.04.01.05.01zM13.49 41.68c.12.43-.32.75-.55 1.05-.5.66-.94 1.38-1.46 2.06-.24.32-.46.74-.83.85.06-.42.4-.71.63-1.01.72-.95 1.36-2 2.12-2.95h.09zM36.4 41.68c.02.52-.46.87-.75 1.21-.62.87-1.35 1.65-1.97 2.55-.18.27-.34.68-.71.77-.09-.27.2-.44.32-.6.95-1.29 2-2.63 2.99-3.92.04-.01.08-.01.12-.01zM30.3 41.92c-.06.47-.5.76-.79 1.09-.6.69-1.19 1.39-1.81 2.1-.3.34-.55.82-1.02.93-.07-.26.23-.4.36-.52 1.07-1.1 2.06-2.49 3.15-3.64.05-.01.06.04.11.04zM12.43 42.29c-.01.37-.27.69-.47.97-.2.29-.42.57-.63.85-.42.56-.81 1.19-1.34 1.62-.07-.37.29-.61.47-.85.59-.78 1.18-1.63 1.73-2.47.01-.05.07-.06.08-.12h.16zM28.37 42.45c-.06.42-.47.63-.75.93-.55.59-1.06 1.28-1.57 1.94-.23.29-.44.75-.83.81.1-.39.39-.71.63-1.01.72-.93 1.53-1.84 2.36-2.71.08-.02.11.03.16.04zM33.88 42.57c.04.4-.3.69-.51.97-.45.59-.92 1.13-1.42 1.7-.24.27-.44.63-.79.77-.01-.35.3-.65.51-.89.7-.8 1.5-1.6 2.09-2.55h.12zM13.61 42.65c-.22.65-.74 1.25-1.18 1.86-.21.29-.47.59-.67.89-.18.28-.33.76-.71.77.04-.35.32-.61.51-.89.59-.87 1.3-1.76 1.89-2.67.09-.02.11.03.16.04zM23.77 42.65c-.14.4-.46.71-.71 1.01-.24.29-.5.64-.86.81-.04-.39.39-.61.63-.89.28-.32.48-.72.79-.97.06 0 .07.05.15.04zM30.33 42.65c.01.4-.37.62-.59.89-.47.56-.89 1.17-1.38 1.74-.23.27-.38.67-.75.77-.02-.38.34-.63.55-.89.64-.78 1.3-1.68 1.97-2.47.01-.04.08-.03.08-.08.07-.01.08.04.12.04zM36.52 42.65c-.04.37-.36.62-.59.89-.48.55-.88 1.17-1.34 1.78-.21.28-.4.65-.71.81.09-.68.69-1.23 1.1-1.78.2-.28.4-.58.63-.85.27-.31.52-.62.79-.89.06-.01.07.04.12.04zM31.36 42.69c.03.35-.34.58-.55.81-.44.48-.84 1.01-1.26 1.54-.19.24-.39.61-.71.61.22-.6.7-1.02 1.1-1.5.42-.5.84-1.01 1.3-1.46h.12zM10.27 43.66c-.4.26-.64 1.25-1.18 1.37.02-.33.28-.65.47-.93.2-.3.43-.59.63-.85.17-.05.12.11.2.16.33-.14.37-.56.71-.69.16.29-.2.54-.35.77-.35.48-.71 1-1.02 1.54-.14.23-.25.7-.59.61.25-.77.77-1.29 1.13-1.98zM57.69 42.73c-.04.38-.36.97-.79 1.13.01-.43.45-.75.63-1.13h.16zM60.99 42.78c-.02.44-.37.81-.59 1.17-.47.76-.97 1.43-1.5 2.14-.25.34-.53.7-.86.93-.03-.46.39-.74.63-1.05.76-1.01 1.5-2.13 2.21-3.23.06-.02.06.03.11.04zM22.59 42.78c.18.22-.16.49-.32.68-.15.19-.33.54-.59.44.01-.05-.01-.07-.04-.08.29-.37.55-.78.95-1.04zM47.42 42.85c-.52.65-1.11 1.22-1.62 1.94-.15.22-.25.54-.55.6.01-.46.4-.82.67-1.17.4-.52.83-.99 1.3-1.45.12-.03.12.07.2.08zM37.3 42.85c.04.34-.28.6-.47.85-.4.53-.79 1.05-1.22 1.58-.19.23-.37.62-.71.6.24-.59.73-.99 1.1-1.46.38-.48.7-1.04 1.1-1.49.01-.04.08-.03.08-.08h.12zM31.56 43.22c-.18.56-.65.96-.98 1.37-.17.21-.34.44-.51.65-.16.2-.31.5-.59.57-.09-.29.2-.5.36-.69.49-.62 1.04-1.26 1.53-1.9h.19zM32.34 43.22c.04.02.07.04.08.08-.33.74-.98 1.32-1.46 1.98-.14.19-.21.58-.51.52.4-1.01 1.15-1.72 1.81-2.51.02-.04.08-.02.08-.07zM39.82 43.26c-.03.41-.36.52-.47.85.26.05.31-.47.63-.49.13.31-.25.57-.43.81-.22.28-.4.57-.59.81.06.28-.24.42-.39.25.16-.51.53-.81.75-1.26-.41.38-.7.87-1.06 1.29-.17.04-.18-.08-.28-.12-.16.09-.18.33-.43.32-.07-.36.29-.54.47-.81.22-.33.48-.8.63-1.17.08-.19 0-.43.27-.48.13.51-.36 1.04-.51 1.54.5-.29.8-1.36 1.41-1.54zM61.82 43.26c-.08.46-.49.72-.75 1.05-.51.66-.97 1.33-1.49 2.02-.24.31-.48.72-.87.89.01-.42.39-.71.63-1.01.74-.95 1.51-2.05 2.32-2.95h.16zM37.97 43.3c.03.26-.21.48-.35.65-.32.38-.65.78-.94 1.21-.14.22-.21.51-.47.61-.03-.56.42-.99.71-1.38.28-.4.62-.88 1.05-1.09zM58.2 43.3c-.09.47-.57 1.27-1.1 1.34.25-.51.69-.83.95-1.34h.15zM41.28 43.5c.1.25-.13.47-.28.61-.25.49-.45 1.04-.98 1.25-.01-.32.29-.54.47-.81.24-.35.39-.76.67-1.05h.12zM47.53 43.7c-.43.53-.77 1.12-1.18 1.7-.12.16-.29.4-.51.4.01-.3.27-.58.47-.85.34-.46.63-.95 1.02-1.33.13-.03.13.07.2.08zM41.75 43.66c-.21.56-.55.97-.83 1.46-.28-.18-.01-.53.12-.73.16-.25.37-.46.48-.73h.23zM62.29 43.99c-.02.32-.28.6-.47.85-.39.52-.78 1.03-1.18 1.58-.18.26-.3.61-.59.77.04-.63.56-1.16.91-1.66.36-.52.79-1 1.14-1.49.01-.05.08-.03.08-.08.06-.02.06.03.11.03zM42.03 44.11c.05.26-.18.5-.36.65-.1.18-.12.44-.39.44.01-.45.35-.9.75-1.09zM47.61 44.19c-.15.44-.39.78-.67 1.09-.22.37-.36.81-.83.93.05-.36.37-.65.59-.97.24-.36.48-.72.71-1.09.12-.04.11.05.2.04zM62.6 44.43c-.3.82-.99 1.34-1.46 2.03-.14.21-.19.59-.51.64.02-.55.47-.96.79-1.37.35-.46.69-.91 1.06-1.34.07-.01.07.04.12.04zM17.58 44.51c1.14-.12 2.25 1.03 2.36 2.23.16 1.66-1.22 2.6-2.64 2.14-.59-.19-1.4-.91-1.57-1.58-.35-1.33.51-2.72 1.85-2.79zm.05.85c.04.98-.19 2.03-.04 2.87 1.92.66 2.21-2.37.79-2.79-.17.51-.19 1.35-.24 2.02-.02.24.09.65-.2.73-.24-.93.22-2.04.08-2.99-.22-.04-.27.1-.39.16zm-.79 1.7c-.03-.55.33-1.1.12-1.58-.05.46-.47 1.24-.12 1.58zm.35.89c.12-.55.26-1.48.08-2.06-.01.64-.45 1.64-.08 2.06zm-.86-1.17c.21-.02.28-.59.12-.73-.03.24-.2.51-.12.73zM63.43 44.67c-.37.97-1.4 1.61-1.85 2.63-.39-.2.02-.54.12-.68.45-.63 1.09-1.23 1.46-1.9.03-.04.11-.03.12-.08.08-.02.1.02.15.03zM63.83 45.24c-.58.51-.82 1.37-1.49 1.78-.11-.27.22-.52.39-.77.28-.39.54-.83.9-1.13.11-.01.14.07.2.12z" class="st10"/>
    <path d="M45.29 29.15c1.3-.25 3.49-.43 5.43-.28.75.05 1.54.27 2.28.32 1.19.09 2.11.22 2.83.72 1.1.78 1.64 2.06 2.17 3.48.16.45.24.95.47 1.37.47.86 1.92 1.46 2.87 1.98.47.26 1.06.49 1.61.81.52.3 1.23.55 1.42 1.01.21.51.07 1.69.12 2.22.13 1.48.18 2.71.35 4.25.06.56.26 1.58.08 2.14-.09.29-.44.62-.59.73-1 .67-2.81.55-4.33.36-.34-.04-.79-.11-1.14-.16-.33-.04-.93-.2-1.11-.16-.22.05-.55.88-.75 1.17-.27.4-.56.84-.83 1.09-.58.56-1.47 1.24-2.44 1.37-.75.11-1.56-.03-2.2-.2-1.96-.52-3.4-1.86-4.21-3.64-1.48.36-2.96-.18-3.27-1.41-.5.31-.78.77-1.34.97-.31.11-.72.15-1.1.2-2.43.36-5.97.36-8.7.2-3.5-.2-6.95-.1-10.07-.16-.25.35-.3.87-.51 1.25-.58 1.08-2.09 2.57-3.5 2.79-1.14.18-2.39-.22-3.31-.6-1.62-.68-2.6-2.01-3.26-3.64-2.05.06-3.98-.4-4.72-1.7-.79-1.36-.95-3.86-1.22-5.9-.14-1.02-.28-2.06-.47-3.07-.19-.99-.45-2.05-.47-3.07-.04-1.71.17-3.9.04-5.78-.05-.74-.33-1.41-.39-2.02-.11-1.11.08-2.19.28-3.19.37-1.91.74-3.05 2.56-3.52 2.6-.67 6.07-.45 9.17-.69 1.18-.09 2.6.11 3.94.12 3.89.04 7.78-.08 11.73-.08 1.25 0 2.55.16 3.86.04 1.28-.12 2.62-.01 3.74.12 1.22.15 2.18.36 2.99.97.73.55 1.36 1.31 1.65 2.35.3 1.05.24 2.38.24 3.56-.02 1.22.14 2.44.1 3.68zM36.4 47.06c1.82.01 3.74.05 5.43-.32.28-.06.56-.05.79-.12.78-.26 1.14-1.13 1.22-2.11.26-3.34.36-7.17.55-10.19.05-.86.01-1.7.08-2.51.13-1.62.2-3.26.12-4.97-.04-.87.02-1.72-.04-2.59-.05-.69-.03-1.48-.2-2.1-.22-.84-.95-1.76-1.49-2.14-.57-.4-1.63-.7-2.6-.77-2.5-.18-5.22-.16-7.95-.16-2.74 0-5.49-.05-8.11.12-1.03.07-2.12.07-3.11 0-2.22-.16-4.28-.15-6.38 0-1.22.09-2.71-.02-4.01.08-.75.06-1.53.21-2.24.36-.76.17-1.49.46-1.81.86-.47.57-.61 1.58-.79 2.55-.31 1.65-.22 3.19.23 4.57 2.08.24 4.24.35 6.41.49.98.06 2 .06 3.03 0 2.53-.16 5.13-.33 7.75-.33h4.06c1.31 0 2.64.11 3.9-.16.01-1.04-.38-2.5.2-3.19.83-.17.97.41 1.46.81.22.18.5.3.71.48.23.21.41.45.59.61.48.41.96.74 1.42 1.13.81.69 1.62.9 2.24 1.7.23.3.58.57.59.85.02.56-1.01 1.36-1.38 1.82-.49.61-1.04 1.1-1.53 1.66-.76.86-1.44 1.7-2.32 2.47-.51.45-.89 1.13-1.69.69-.23-.87.04-2.07 0-2.87-2.02-.07-4.11-.16-6.22.04-2.09.2-4.23.12-6.37.12-4.31 0-8.65-.13-12.83 0 .25 1.87.52 3.78.87 5.9.14.91.25 1.96.43 2.95.18.93.36 2.04.75 2.62.77 1.14 2.33 1.3 4.13 1.21.11-.27.11-.67.2-.97-.32-.05-.36.76-.79.61.19-.42.47-.79.75-1.17.27-.38.47-.8.75-1.17.73-.99 2.39-1.88 3.9-1.98 1.39-.1 2.23.48 3.11 1.01.92.56 1.48 1.32 2.04 2.14.73-.51 1.32-1.33 1.85-2.02.16-.21.34-.61.67-.56-.27.61-.74 1.11-1.18 1.62-.2.23-.42.54-.63.77-.19.21-.7.41-.47.81.19.16.35-.13.44-.24.76-.92 1.5-1.93 2.24-2.79.1-.11.19-.45.43-.32-.08.37-.41.66-.67.97-.53.63-1 1.23-1.53 1.9-.2.25-.69.75-.71 1.05-.01.19.15.38.16.56 4.74.04 9.12.2 13.55.22zM32.42 26.4c-.03-.28.28-.61-.04-.73-.08.11-.18.69.04.73zm.28.41c.13-.17.45-.67.12-.81-.08.19-.38.65-.12.81zm.43-.21c-.01.18.19.12.2.36-.08.09-.03.3-.04.45.06.06.15.08.24.12 0-.22-.12-.31-.12-.52.04-.13.23-.12.23-.28-.13-.24-.49-.53-.51-.13zm.75.53c-.02-.08.06-.28-.08-.24 0 .1-.02.23.08.24zm-.99.6c.01-.27.18-.35.16-.65-.24.01-.29.52-.16.65zm1.07.04c.1.02.2-.3.04-.28-.02.1-.07.15-.04.28zm.86.49c.09-.11.17-.4.08-.56h-.12c.03.18-.14.47.04.56zm-1.93.36c-.05.42.23.76.32 1.17.25 1.16-.03 2.58.2 3.8.33-.32.12-.91.08-1.37-.07-.92.01-1.98-.08-2.87-.1-.11-.3.17-.36-.08.06-.55.39-.81.39-1.41-.01-.03-.03-.05-.08-.04-.14.28-.29.55-.47.8zm2.48.17c.15-.09.22-.26.2-.53-.08-.03-.12-.12-.24-.12-.04.13-.1.57.04.65zm-3.38-.37c.05.31.07.63.28.77-.01-.23.09-.75-.12-.89-.04.05-.11.08-.16.12zM6.1 28.38c-.05.21.27.04.27.2.13.65-.16 1.59.16 2.18.42-.27.26-1.26.04-1.66.17-.19.04-.45.12-.73-.2.02-.43-.1-.59.01zm.78.16c-.03.38.12.77.16 1.13.02.22-.1.52.12.65.06-.59.02-1.42-.16-1.9h-.12v.12zm.51-.12c-.08.85.05 1.84.16 2.63.55-.54.13-1.89.04-2.63h-.2zm14.25.04c0 .05-.05.06-.04.12.51.39.74 1.12 1.02 1.78.22.51.38 1.13.83 1.41-.22-.77-.66-1.55-.95-2.26-.09-.21-.28-.54-.12-.73.47.57.63 1.36.95 2.06.31.68.77 1.34.83 2.1-.33-.09-.29-.56-.51-.77-.06.07-.09.18-.24.16-.09.16.16.41-.12.48-.36-.17-.48-.62-.63-.97-.17-.37-.34-.75-.51-1.13-.35-.76-.53-1.65-1.06-2.22-.39.02-1.23-.09-1.61.08.51 1.43 1.24 2.76 1.93 3.96.08.14.3.35.16.53-.39-.14-.45-.61-.63-.93-.62-1.1-1.34-2.25-1.69-3.56-.31-.09-.78-.04-1.02.08.66 1.62 1.46 3.11 2.24 4.61 1.5.1 3.4.02 4.96-.16-.84-1.45-1.43-3.17-2.2-4.69-.53.03-1.14-.04-1.59.05zm1.93 0c.21.61.62 1.43 1.02 2.35.4.89.66 1.7 1.1 2.14.21.21.67.04.98.08-.15-.79-.67-1.49-1.06-2.22-.3-.57-.58-1.12-.9-1.62-.09-.14-.32-.34-.2-.53.41.14.55.63.75.97.64 1.12 1.25 2.28 1.85 3.4.75-.07 1.64.01 2.2-.04-.04-.35-.2-.58-.43-.73-.12.2.22.26.08.48-.17.1-.29 0-.4-.08.01.11-.01.17-.11.16-.29-.12-.3-.7-.59-.73-.31-.02-.31.38-.35.61-.35-.12-.45-.57-.63-.89-.39-.69-.8-1.35-1.22-1.98-.21-.31-.48-.65-.51-1.01.65.31.71 1.21 1.3 1.58.13-.04.14-.21.2-.32-.33-.56-.73-1.06-1.02-1.66-.69.02-1.46-.05-2.06.04zm2.71.61c.13.02.06-.18.23-.12.25.14.34.46.63.57.19-.38-.3-.7-.4-1.05-.2-.08-.52-.03-.79-.04.03.3.25.4.33.64zM7.9 28.62c0 .37.09.57.12.89.03.35-.09.87.24.93.05-.43.02-1.19-.08-1.7-.01-.09-.01-.24-.16-.24h-.08c0 .05-.04.06-.04.12zm.52-.08c.01.61.12 1.47.19 2.14.59-.25.41-1.58.2-2.14-.1-.03-.3-.08-.39 0zm19.09.61c.03-.23.1-.4.19-.57-.16-.04-.34-.05-.55-.04.04.29.14.5.36.61zM9.44 30.44c.11-.64-.07-1.33-.2-1.86-.1.5-.02 1.44.2 1.86zm.55-1.7c.02.23 0 .42.04.61.08.41.1.98.35 1.13.04-.42-.11-1.3-.2-1.86h-.2c.01.04.01.08.01.12zm.55-.04c-.1.65.06 1.36.24 1.86.58-.34-.21-1.32.08-1.86-.06-.06-.26-.06-.32 0zm.44 0c.18.37.17 1.38.43 1.9.19-.62-.04-1.42-.2-1.94-.1 0-.19 0-.23.04zm6.29.89c.03.04.23-.09.24-.2-.18-.24-.15-.7-.55-.73-.05.31.11.74.31.93zm.24-.89c.22.78.72 1.25 1.02 1.94.33-.12.09-.46 0-.65-.18-.36-.4-.69-.51-1.05.02-.13-.03-.19-.04-.28-.16.02-.38-.03-.47.04zm-5.87 0c-.08.4-.09 1.41.39 1.5.12-.43-.09-1.12-.28-1.5h-.11zm.55 0c-.08.57.13 1.18.35 1.58.14-.35.25-1.59-.35-1.58zm4.61 1.54c.47-.39-.12-1.05-.16-1.54h-.51c.16.58.34 1.13.67 1.54zm-3.82-1.5c-.35.02-.19.89.12 1.09.03.2-.19.43.04.48.58.03.18-1.58-.16-1.57zm.75.85c.31-.07.09-.62.04-.81-.09-.01-.15-.06-.28-.04-.04.28.08.67.24.85zm.43-.85c-.17.53.21 1.21.4 1.7.11.27.12.67.39.69.08-.76-.49-1.55-.59-2.39h-.2zm.59.69c.11.47.47 1.19.67 1.42v.41c.12.1.15-.12.32-.08-.1-.71-.74-1.29-.59-1.98.48.49.49 1.46.98 1.94.86-.58-.12-1.64-.31-2.34-.72-.08-1.27-.25-1.07.63zm-4.8 1.66c.16-.72-.14-1.62-.27-2.3 0 .86.04 1.68.27 2.3zm19.21-2.1c-.03.12.04.15.04.24.19 0 .26-.14.27-.32-.12-.06-.21.01-.31.08zm-.87.4c.1-.16-.07-.35-.2-.4-.08.14.03.38.2.4zm8.5.24c.82-.19-.38-.83 0 0zm-7.12-.36c-.2.02-.27.45.04.49.27-.1.18-.51-.04-.49zm5.07.04c0 .05-.05.06-.04.12-.13.37-.08.97-.08 1.54 0 .44-.09.96.12 1.21.28-.53-.1-1.54.04-2.27.04-.21.24-.31.2-.52-.07-.04-.1-.11-.24-.08zm-6.77.48c.17-.16-.01-.45-.23-.44-.1.18.04.43.23.44zm-1.14 0c.11-.17-.18-.23-.24-.36.04.17.12.29.24.36zm31.09 5.34c-.25-.43-.37-.98-.55-1.45-.54-1.44-1.13-3.18-2.56-3.6-.58-.17-1.29-.15-2.01-.2-.6-.04-1.21-.27-1.77-.32-1.23-.11-2.07-.05-3.43-.04-.84.01-2.07.02-2.36.73-.17.41-.13 1.16-.16 1.82-.1 2.55-.24 4.89-.35 7.64-.07 1.77-.16 3.38-.28 5.06-.01.19-.09.42-.08.56.03.43.37 1.17.67 1.46.47.44 1.4.5 2.12.28.08-.87.22-1.35.47-2.02.12-.32.24-.71.39-.97.66-1.14 2.41-2.04 3.97-2.14 1.22-.08 2.04.4 2.79.81 1.09.59 1.95 1.56 2.44 2.71.64-.47.96-1.33 1.34-2.02.12-.23.22-.62.55-.61-.08.41-.38.79-.59 1.22-.31.63-.63 1.27-1.14 1.62.01.27.14.42.2.65.71-.77 1.31-1.82 1.89-2.71.19-.28.31-.75.67-.8.01.33-.26.61-.43.89-.6.95-1.25 2.17-2.05 2.83.05.33.22.53.28.85 1.11.19 2.46.3 3.7.4.29.03.55.11.83.08.55-.05 1.63-.37 1.81-.89.2-.59-.12-1.67-.2-2.71-.09-1.14-.07-2.01-.24-2.95-.41-.2-.77-.18-1.07-.4-.67-.53-.41-1.91-.87-2.67-.02-.17.03-.27.04-.41-1.33-.98-3.2-1.29-4.02-2.7zM17.43 30.2c.39.07.37-.5.15-.61-.02.23-.27.36-.15.61zm11.21-.29c.06-.01.07-.06.12-.08.02-.5-.53-.02-.12.08zm6.81.25c.13-.08.18-.24.24-.4-.09-.02-.08-.16-.24-.12-.11.14.02.33 0 .52zm-7.79-.04c.01-.24-.07-.39-.28-.4-.08.17.05.42.28.4zm1.73-.04c.1-.12-.03-.27-.16-.28-.08.11-.02.32.16.28zm2.91.64c.08-.24.05-.68 0-.93h-.12c-.06.27-.09.83.12.93zm-2.2-.36c.23-.09.09-.49-.08-.53-.2.1-.12.5.08.53zm-1.77-.04c.06-.06.06-.27 0-.33h-.16c-.09.14 0 .34.16.33zm7.83.28c.2-.07.35-.18.39-.4-.18-.42-.61.05-.39.4zm-8.85-.16c.1-.15-.1-.29-.2-.36-.1.15 0 .39.2.36zm1.57 0c.12.03.07.03.2 0 .01-.18-.03-.32-.2-.32-.02.09-.08.24 0 .32zm-14.91.24c.22 0 .32-.24.23-.44-.26-.01-.29.25-.23.44zm3.73-.04c.12.09.41-.29.2-.4-.07.13-.23.17-.2.4zm-.55.29c.12-.17.28-.58-.08-.61-.14.18-.22.54.08.61zm12.44-.61c-.16.15-.04.5.19.48.18-.16.04-.49-.19-.48zm-1.58.32c0-.15-.02-.28-.16-.28-.08.12-.01.32.16.28zM6.1 31.73c.22-.24.12-1.01 0-1.29v1.29zm20.34-1.21c.16.37.34.73.59 1.01.15-.07.29-.16.31-.37-.23-.18-.41-.38-.47-.73-.19-.02-.21.15-.43.09zm2.2.37c.01-.03.03-.05.08-.04.02-.19-.02-.34-.16-.36-.15.09-.14.37.08.4zm1.89 0c.09-.13-.02-.34-.16-.36-.1.13 0 .36.16.36zm-18.61.12c.2-.03.27-.18.27-.4-.14-.09-.32.14-.27.4zm.67-.08c.22.02.25-.15.24-.37-.24-.04-.25.16-.24.37zm15.07.08c.18-.57-.57-.12 0 0zm-9.72.32c.07 0 .12.01.16.04.16-.12.34-.42.16-.65-.36-.03-.46.38-.32.61zm11.53-.2c0-.22-.12-.31-.24-.4-.13.19.12.47.24.4zm-16.06.28c.2-.1.44-.34.32-.65-.25.04-.52.42-.32.65zm-2.48-.08c.1-.12.32-.42.08-.53-.08.1-.27.41-.08.53zm7.8-.24c.15-.01.27-.05.24-.24-.12-.1-.3.03-.24.24zm-4.61.16c.14-.06.26-.14.27-.32 0-.05-.04-.06-.08-.08-.06.13-.22.16-.19.4zm14.09-.04c.19 0 .19-.28 0-.28-.05.05-.05.22 0 .28zm1.77.16c.77-.24-.36-.75 0 0zm-13.5.49c.16-.2.51-.55.27-.89-.33.05-.67.68-.27.89zm12.56-.29c.09.01.04-.12.12-.12-.03-.2-.1-.36-.28-.4-.14.13-.09.54.16.52zM12 31.66c.19-.07.3-.24.36-.45-.24-.12-.34.21-.36.45zm7.35.84c.16.36.34.82.67.77-.12-.65-.58-1.29-.83-1.94-.06-.01-.07-.07-.12-.08-.24.3.11.86.28 1.25zm8.62-.97c.08-.09.03-.27-.08-.28-.13.05-.07.29.08.28zm-20.85.2c.21.01.15-.25.16-.44h-.12c-.02.14-.06.26-.04.44zm8.5 0c.22.07.34-.35.16-.44-.01.19-.18.22-.16.44zm-1.3.17c.22-.05.42-.31.31-.57-.28 0-.38.33-.31.57zm3.98-.13c.1-.1.24-.15.24-.36-.05 0-.05-.05-.12-.04-.03.13-.27.24-.12.4zm-4.69.21c.2-.06.28-.25.32-.48-.06-.01-.07-.07-.12-.08-.11.14-.4.35-.2.56zm1.5-.32c.14 0 .14-.21.04-.24-.05.04-.05.13-.04.24zm2.71-.09c-.11-.4-.6.11-.24.4.2-.04.29-.23.24-.4zm-7.24.25c.08-.07.11-.3-.04-.32-.03.03-.11.34.04.32zm19.01-.16h.16c.02-.13-.03-.18-.16-.16v.16zm-.91.16c.08-.07-.04-.16-.04-.28h-.16c.01.16.03.3.2.28zm1.58.12c.25.01.37-.11.35-.36-.17-.08-.4.08-.35.36zm-17.43.08c.23.01.38-.24.27-.44-.22.01-.27.2-.27.44zm14.28-.32c.03.17.13.27.24.36.18-.05.33-.12.35-.32-.07 0-.02-.14-.08-.16-.24-.04-.35.06-.51.12zm-10.43.52c.15-.13.26-.31.32-.52-.13.12-.35.37-.32.52zm-5.63-.08c.15-.02.21-.14.24-.28-.06 0-.03-.1-.12-.08-.04.1-.21.23-.12.36zm1.07 0c.13-.01.36-.3.19-.36-.01.17-.2.17-.19.36zm6.61-.37c-.67.27.08.78 0 1.21-.32-.03-.27-.42-.51-.53-.45.07-.15.68.04.81.31.06.83.06 1.14 0-.17-.55-.38-1.05-.67-1.49zm10.5.37c.13-.02.21-.1.19-.28-.16-.25-.38.15-.19.28zm-6.13-.08c0-.12-.04-.2-.12-.24 0 .12 0 .24.12.24zm-7.28.12c-.01.13.08.15.12.32.72-.15-.11-1.08-.12-.32zm12.51-.04c.08-.1.05-.34-.16-.28 0 .15.02.28.16.28zm-13.77.32c.21-.02.4-.42.24-.56-.14.11-.34.34-.24.56zm.78-.24c.02-.08.11-.07.08-.2-.05 0-.05-.05-.12-.04-.05.05-.06.24.04.24zm-8.5.36c.06-.16.17-.53-.08-.57-.03.2-.16.52.08.57zm7.01-.08c.03.01.08 0 .08.04.24-.05.25-.33.16-.53-.23.01-.34.29-.24.49zm3.54-.24c-.05-.53-.59.16-.59.44 0 .44.46.75 1.03.57.01-.29-.1-.47-.28-.57-.21.04-.2.48-.52.28.06-.43.4-.31.36-.72zm.47.04c.11.03.19-.23.04-.21.02.11-.07.1-.04.21zm-4.84.28c-.32.05-.52.4-.55.61.59.03 1.39.12 1.97-.04-.05-.13-.01-.36-.2-.37-.08-.07-.22.15-.39.12-.15-.02-.16-.18-.32-.2-.18.06-.15.32-.35.37a.18.18 0 0 1-.12-.12c.06-.3.36-.36.31-.77-.25-.15-.39.13-.35.4zm-.86.33c.16-.19.4-.32.43-.65-.01-.05-.04-.06-.08-.08-.14.22-.38.34-.35.73zm18.45-.49c-.01.44.45.74.83.53-.02-.21-.09-.36-.24-.44-.08.08-.18.14-.35.12-.03-.12-.01-.29-.12-.32-.04.03-.08.07-.12.11zm-19.87.16c.03-.03.1-.24-.04-.2-.01.1-.08.18.04.2zm18.81.12c.08-.01.09.05.16.04.13-.1.1-.44-.16-.36-.06.06-.06.27 0 .32zm-14.6.13c.17.01.19-.28.12-.4-.25-.04-.22.29-.12.4zm.55.24c-.15-.02-.15-.19-.31-.08-.05.05-.05.14-.04.24.21.06.48.09.67.04-.12-.2-.01-.64-.2-.77-.2.11.09.48-.12.57zm-6.1-.04c-.06-.06-.07-.17-.16-.2-.05.14-.2.17-.2.37.21.06.64.08.79-.04-.09-.32.18-.44.12-.61-.29.05-.27.41-.55.48zm6.89 0c.06-.1.15-.17.12-.36-.05 0-.06-.05-.12-.04-.06.12-.2.34 0 .4zm14.2-.04c-.04-.13-.04-.28-.2-.28-.09.12.04.29.2.28zm-23.17.16c.3.04.75.11.86-.08-.23.01-.43-.05-.51-.28-.27-.04-.32.15-.35.36zm-.95-.04c.11.1.29.1.39 0-.01-.19-.16-.24-.32-.28-.02.09-.07.16-.07.28zm3.62.08c.23.08.44-.05.47-.28-.06-.01-.07-.07-.12-.08-.12.11-.31.16-.35.36zm.75 0c.18.04.49.07.67 0 .01-.1.06-.15.04-.28-.36.12-.69-.2-.71.28zm1.34-.04c.05.05.19.05.24 0 0-.2-.25-.2-.24 0zm20.46 1.58c.06-.1.14-.17.12-.36-.08-.02-.07-.12-.2-.08-.08.11-.05.41.08.44zm30.65 5.58c.17.09.35.18.63.16-.08-.62.12-1.16-.04-1.58-.17-.43-.72-.47-1.1-.69.1.62.28 1.5.51 2.11zM14.28 43.7c-.49.42-.68.92-.94 1.62-.23.6-.5 1.14-.35 1.98.08.48.55 1.23.86 1.62.87 1.07 2.77 2.19 4.68 2.02 1.29-.11 2.88-1.53 3.38-2.71.17-.39.27-1.05.2-1.58-.08-.6-.71-1.7-1.1-2.18-.45-.56-1.21-1-1.89-1.38-.29-.16-.6-.37-.79-.4-.37-.07-1.09-.07-1.38-.04-1.01.1-2.03.5-2.67 1.05zm34.99-.04c-.61.5-1.18 1.67-1.34 2.59-.19 1.06.31 1.96.75 2.55.9 1.2 3.03 2.29 4.76 2.14.58-.05 1.25-.39 1.69-.69.65-.43 1.5-1.36 1.77-2.18.44-1.33-.23-2.6-.79-3.35-.69-.94-1.74-1.45-2.79-2.02-1.63-.24-3.16.23-4.05.96z" class="st10"/>
    <path d="M57.84 39.86c-.53.29-1.27.06-1.77 0-.68-.08-1.38-.02-2.09-.04-1.57-.05-3.4-.39-5.16-.16-.14-.15-.5-.07-.63-.24-.12-.34.09-.78.12-1.13.06-.73 0-1.66.04-2.59.04-1.05.1-2.79.79-2.87.81-.1 1.64 0 2.48 0 .71 0 1.84-.14 2.36.12.15.08.34.43.51.69.82 1.22 1.65 2.34 2.4 3.6.48.78 1.12 1.51.95 2.62zm-8.57-6.3c-.08.31-.18.82-.12 1.13.2-.35.44-.65.51-1.13-.09-.08-.3-.04-.39 0zm.7-.05c-.2.73-.73 1.33-.75 2.1.37-.64.83-1.39 1.03-2.06-.02-.09-.2-.01-.28-.04zm2.21.09c-.35.46-.58 1.03-.87 1.58-.27.52-.67 1.09-.86 1.58-.3.76-.49 1.46-1.02 1.98-.18-.07-.36-.14-.44-.32-.04-.23.14-.24.16-.4.11-.32.28-.64.43-.97.15-.32.4-.66.31-.97-.43.81-1.06 1.64-.98 2.83.25.06.79.09.98-.04.91-1.83 2.04-3.43 2.91-5.29-.15-.1-.51-.09-.62.02zm-1.5-.04c0 .05-.07.04-.08.08-.27.41-.54.96-.79 1.46-.24.49-.58 1-.59 1.54.61-.94 1.37-1.93 1.66-3.07-.07-.01-.13-.01-.2-.01zm.47.28c.14-.02.19-.13.2-.28-.2-.05-.2.11-.2.28zm1.97-.16c-1.05 1.52-1.97 3.54-2.83 5.21.16.04.23.04.39 0 .75-1.95 2.22-3.38 2.83-5.34-.23-.02-.3.01-.39.13zm-3.27 3.47c.79-1.02 1.3-2.33 1.93-3.52-.01-.03-.03-.05-.08-.04-.64 1.16-1.37 2.23-1.85 3.56zm2.64.41c.37-.69.78-1.33 1.14-2.06.28-.58.82-1.28.16-1.62h-.08c-.76 1.79-1.94 3.15-2.67 4.97.63.11 1.32.15 2.01.2.41-1 1.08-1.9 1.61-2.79.15-.26.54-.64.2-.97-.63.74-1.05 1.7-1.57 2.55.03.37-.04.63-.32.69a.41.41 0 0 1-.16-.16c.36-.97.99-1.92 1.5-2.79.15-.26.48-.67.04-.93-.36.66-.69 1.35-1.07 2.02-.27.49-.62 1.01-.82 1.5-.06.15-.05.53-.36.45-.09-.36.2-.71.39-1.06zm2.64-1.58c-.4.8-.99 1.41-1.34 2.27.55-.69 1.11-1.37 1.53-2.18-.07-.03-.07-.12-.19-.09zm.31.61h.2c-.01-.1-.06-.16-.16-.16-.01.05-.06.07-.04.16zm-1.61 2.22c-.22.08-.24-.18-.36-.08 0 .13-.05.19-.08.28.12.16.53.15.75.08.01-.13-.07-.17-.04-.32.43-.69.93-1.31 1.3-2.06-.01-.05-.01-.1-.08-.08-.51.71-1.05 1.4-1.49 2.18zm.43.28c.32.07.27-.23.36-.4.46-.59.92-1.18 1.26-1.9-.07-.04-.1-.11-.23-.08-.32.94-1.01 1.51-1.39 2.38zm.59 0c.26.05.5 0 .75.12.06-.08-.07-.2-.08-.32-.15.01-.15.17-.31.16-.05-.09-.13-.13-.16-.24.05-.09.12-.15.2-.2.15-.5.8-.89.71-1.38-.39.6-.83 1.15-1.11 1.86zm.87-.6c.33-.17.56-.44.63-.89-.36.14-.53.48-.63.89zm.71.2c.15-.02.21-.13.35-.16.02-.23-.08-.32-.16-.45h-.2c-.1.22.1.4.01.61zM52.53 44.51c1.26-.2 2.32 1.26 2.36 2.39.05 1.43-1.2 2.48-2.67 1.98-.61-.21-1.4-.97-1.57-1.62-.38-1.41.59-2.54 1.88-2.75zm.24.77c.04.03.11.05.19.04.04-.15-.19-.16-.19-.04zm-.36.28c.13.01.19-.05.2-.16-.09-.09-.22.01-.2.16zm-.94.41c.17-.13.3-.29.39-.48-.22.06-.32.25-.39.48zm.9 1.45c.47-.38.64-1.23.9-1.78-.01-.03-.03-.05-.08-.04-.2.65-.75 1.17-.82 1.82zm1.23-1.69c-.37.82-.93 1.55-.91 2.55 1.22.34 1.98-1.21 1.26-2.1-.38.35-.25 1.22-.83 1.37.07-.56.58-1.21.59-1.82h-.11zm-1.38 1.21c.2-.36.41-.71.55-1.13-.01-.03-.03-.05-.08-.04-.1.39-.75.77-.47 1.17zm-.28.85v-.32c-.14-.03-.15.06-.28.04-.08-.08 0-.32-.16-.32-.09.29.14.58.44.6z" class="st10"/>
    
</svg>