<?xml version="1.0" encoding="utf-8"?>
<!-- Generator: Adobe Illustrator 27.3.1, SVG Export Plug-In . SVG Version: 6.00 Build 0)  -->
<svg version="1.1" id="Layer_1" xmlns="http://www.w3.org/2000/svg" xmlns:xlink="http://www.w3.org/1999/xlink" x="0px" y="0px"
	 viewBox="0 0 70 70" style="enable-background:new 0 0 70 70;" xml:space="preserve">
<style type="text/css">
	.st0{fill:#021828;}
	.st1{fill:none;stroke:#FFFFFF;stroke-miterlimit:10;}
	.st2{fill:#FFFFFF;}
	.st3{opacity:0.7;fill:#021828;}
	.st4{fill:#FFFFFF;stroke:#021828;stroke-width:2;stroke-miterlimit:10;}
	.st5{fill-rule:evenodd;clip-rule:evenodd;fill:#FFFFFF;stroke:#021828;stroke-width:2;stroke-miterlimit:10;}
	.st6{fill:#EC00BA;}
	.st7{fill:#009520;}
	.st8{fill:#FAFCFB;}
	.st9{fill:#FF0000;}
	.st10{fill-rule:evenodd;clip-rule:evenodd;fill:#1779FF;}
	.st11{opacity:0.8;}
	.st12{fill-rule:evenodd;clip-rule:evenodd;fill:#FFFFFF;}
	.st13{fill:none;stroke:#6B7479;stroke-miterlimit:10;}
	.st14{fill:none;stroke:#6B7479;stroke-miterlimit:10;stroke-dasharray:11.9916,5.9958;}
	.st15{fill:none;stroke:#6B7479;stroke-miterlimit:10;stroke-dasharray:12.0398,6.0199;}
	.st16{fill:#BFC4CC;}
	.st17{fill:#837579;}
	.st18{fill:#CCCCCC;}
	.st19{fill:#E6E6E6;}
	.st20{fill:#B8B8B8;}
	.st21{fill:#5F5F5F;}
	.st22{fill:#9D9D9D;}
	.st23{fill:#518FE8;}
	.st24{fill:#65BBFF;}
	.st25{fill:#165F9F;}
	.st26{fill:#87D0E0;}
	.st27{fill:#C9974B;}
	.st28{fill:#EBC26C;}
	.st29{fill:#AB7835;}
	.st30{fill:#965A2C;}
	.st31{fill:#F2E5DA;}
	.st32{fill:#F1C33A;}
	.st33{fill:#FFE057;}
	.st34{fill:#F7900B;}
	.st35{fill:#1F4094;}
	.st36{fill:#1B47B6;}
	.st37{fill:#3F72E9;}
	.st38{fill:#6B9DED;}
	.st39{fill:#2750B8;}
	.st40{fill:#133BA1;}
	.st41{fill-rule:evenodd;clip-rule:evenodd;fill:#010007;}
	.st42{fill-rule:evenodd;clip-rule:evenodd;fill:#18171D;}
	.st43{fill-rule:evenodd;clip-rule:evenodd;}
	.st44{fill-rule:evenodd;clip-rule:evenodd;fill:#2E2D30;}
	.st45{fill-rule:evenodd;clip-rule:evenodd;fill:#1B1B1F;}
	.st46{fill-rule:evenodd;clip-rule:evenodd;fill:#3B3B3B;}
	.st47{fill-rule:evenodd;clip-rule:evenodd;fill:#F0982F;}
	.st48{fill-rule:evenodd;clip-rule:evenodd;fill:#C35719;}
	.st49{fill-rule:evenodd;clip-rule:evenodd;fill:#9E470F;}
	.st50{fill-rule:evenodd;clip-rule:evenodd;fill:#B35014;}
	.st51{fill-rule:evenodd;clip-rule:evenodd;fill:#BF5517;}
	.st52{fill:#B35014;}
	.st53{fill:#F7BB06;}
	.st54{fill:#1E1E1E;}
	.st55{fill:#393939;}
	.st56{fill:#0E0E0E;}
	.st57{fill:#151515;}
	.st58{fill:#838383;}
	.st59{fill:#51341F;}
	.st60{fill:#2B160D;}
	.st61{fill:#7E583C;}
	.st62{fill:#3F2614;}
	.st63{fill:#604029;}
	.st64{fill:#1B1B1B;}
	.st65{fill:#2A2A2A;}
	.st66{fill:#940000;}
	.st67{fill:#541D12;}
	.st68{fill:#7A0000;}
	.st69{fill:#F1BC95;}
	.st70{fill:#EC762D;}
	.st71{fill:#E6BDB3;}
	.st72{fill:#FF8537;}
	.st73{fill:#D16824;}
	.st74{fill:#D18D6D;}
	.st75{fill:#C77752;}
	.st76{fill:#DEB08A;}
	.st77{fill:#F0B88F;}
	.st78{fill:#DF9876;}
	.st79{fill:#4F2900;}
	.st80{fill:#422200;}
	.st81{fill:#703A00;}
	.st82{fill:#272727;}
	.st83{fill:#FFB700;}
	.st84{fill-rule:evenodd;clip-rule:evenodd;fill:#CECECE;}
	.st85{fill-rule:evenodd;clip-rule:evenodd;fill:#A19E9C;}
	.st86{fill-rule:evenodd;clip-rule:evenodd;fill:#7C7774;}
	.st87{fill:#DD9100;}
	.st88{fill:#F77211;}
	.st89{fill:#1D1D1D;}
	.st90{fill:#C97735;}
	.st91{fill:#BC5705;}
	.st92{fill:#BD4D00;}
	.st93{fill:#E07705;}
	.st94{fill:#E09C05;}
	.st95{fill:#EDA94D;}
	.st96{fill:#916C28;}
	.st97{fill:#636363;}
	.st98{fill:#888888;}
	.st99{fill:#4A4A4A;}
	.st100{fill:#BFBFBF;}
	.st101{fill:#0F0F0F;}
	.st102{fill:#D8E2EC;}
	.st103{fill:#ADC2D7;}
	.st104{fill:#6D6D6D;}
	.st105{fill:#D6B163;}
	.st106{fill:#91693A;}
	.st107{fill:#B78841;}
	.st108{fill:#7D5129;}
	.st109{fill:#613F1F;}
	.st110{fill:#996232;}
	.st111{fill:#AD7E45;}
	.st112{fill:#471D1D;}
	.st113{fill:#DAB697;}
	.st114{fill:#BF8937;}
	.st115{fill:#C2BFB4;}
	.st116{fill:#FFDC91;}
	.st117{fill:#D6AC54;}
	.st118{fill:#B39876;}
	.st119{fill:#C9C9C9;}
	.st120{fill:#EBEBEB;}
	.st121{fill:#ABABAB;}
	.st122{fill:#125200;}
	.st123{fill:#11FF00;}
	.st124{fill:#94000A;}
	.st125{fill:#F91F43;}
	.st126{fill:#868686;}
	.st127{fill:#BA6900;}
	.st128{fill:#DE9A23;}
	.st129{fill:#F87F12;}
	.st130{fill:#C7C7C7;}
	.st131{fill:#3D3D3D;}
	.st132{fill:#451803;}
	.st133{fill:#541D04;}
	.st134{fill:#690000;}
	.st135{fill:#F2F2F2;}
	.st136{fill:#C2C2C2;}
	.st137{fill:#A7A7A7;}
	.st138{fill:#A3A3A3;}
	.st139{fill:#373737;}
	.st140{fill:#4E4E4E;}
	.st141{fill:#C3C3C3;}
	.st142{fill:#0A0A0A;}
	.st143{fill:#2A8DDE;}
	.st144{fill:#0262C2;}
	.st145{fill:#2D2D2D;}
	.st146{fill:#414141;}
	.st147{fill:#B7B7B7;}
	.st148{fill:#8895C7;}
	.st149{fill:#98B3E6;}
	.st150{fill:#ABCEFF;}
	.st151{fill:#046DBA;}
	.st152{fill:#2A5275;}
	.st153{fill:#31618A;}
	.st154{fill:#998385;}
	.st155{fill:#D1C9CA;}
	.st156{fill:#7E898D;}
	.st157{fill:#545354;}
	.st158{fill:#CF1F30;}
	.st159{fill:#002D54;}
	.st160{fill:url(#SVGID_00000150782180570613101140000011642675360240947875_);}
	.st161{fill:#D3C9CA;}
	.st162{fill:#14375E;}
	.st163{fill:#BCAEAF;}
	.st164{fill:#A3B5C9;}
	.st165{fill:#8F8F8F;}
	.st166{fill:#6485AC;}
	.st167{fill:#7DA6D6;}
	.st168{fill:#746872;}
	.st169{fill:#EBE7E7;}
	.st170{fill:#73757D;}
	.st171{fill:#38363A;}
	.st172{fill:#696969;}
	.st173{fill:url(#SVGID_00000129169540549703395230000000921944470306043266_);}
	.st174{fill:url(#SVGID_00000119834346710022248500000015289626011139649677_);}
	.st175{fill:#B1B1B1;}
	.st176{fill:#41313E;}
	.st177{fill:#E64958;}
	.st178{fill:#BF3737;}
	.st179{fill:#FE8B95;}
	.st180{fill:#E06969;}
	.st181{fill:url(#SVGID_00000178898591203630758070000014844487409404577169_);}
	.st182{fill:#E0E0E0;}
	.st183{fill:url(#SVGID_00000162350272270580449960000006248348231227264672_);}
	.st184{fill:#3B4345;}
	.st185{fill:#C06262;}
	.st186{fill:#C16767;}
	.st187{fill:#C26D6D;}
	.st188{fill:#C27272;}
	.st189{fill:#C37878;}
	.st190{fill:#C47D7D;}
	.st191{fill:#C58383;}
	.st192{fill:#C68888;}
	.st193{fill:#C68E8E;}
	.st194{fill:#C79393;}
	.st195{fill:#C89999;}
	.st196{fill:#C99E9E;}
	.st197{fill:#C9A4A4;}
	.st198{fill:#CAA9A9;}
	.st199{fill:#CBAFAF;}
	.st200{fill:#CCB4B4;}
	.st201{fill:#CDBABA;}
	.st202{fill:#CDBFBF;}
	.st203{fill:#CEC5C5;}
	.st204{fill:#CFCACA;}
	.st205{fill:#313131;}
	.st206{fill:#1F1F1F;}
	.st207{fill:#3B3B3B;}
	.st208{fill:#727272;}
	.st209{fill:#A9A9A9;}
	.st210{fill:#E9EAE7;}
	.st211{fill:#737373;}
	.st212{fill:#949494;}
	.st213{fill:#575757;}
	.st214{fill:#CDCDCD;}
	.st215{fill:#DCDED9;}
	.st216{fill:#181818;}
	.st217{fill:#252525;}
	.st218{fill:#5C5C5C;}
	.st219{fill:#7E7E7E;}
	.st220{fill:#424242;}
	.st221{fill:#585858;}
	.st222{fill:#4F4F4F;}
	.st223{fill:#FFE72A;}
	.st224{fill:#FCAB2A;}
	.st225{fill:#EFA12A;}
	.st226{fill:#CD8732;}
	.st227{fill:#FFBD29;}
	.st228{fill:#F6A629;}
	.st229{fill:#0D0D0D;}
	.st230{fill:#1A1A1A;}
	.st231{fill:#6C6C6C;}
	.st232{fill:#404040;}
	.st233{fill:#676767;}
	.st234{fill:#92978D;}
	.st235{fill:#73796C;}
	.st236{fill:#C5CAD8;}
	.st237{fill:#CCD1DE;}
	.st238{fill:#2E2E2E;}
	.st239{fill:#ABB2B2;}
	.st240{fill:#616161;}
	.st241{fill:#131313;}
	.st242{fill:#C0FFFF;}
	.st243{fill:url(#SVGID_00000090982652255271411940000010993913844535983295_);}
	.st244{fill:#65818A;}
	.st245{fill:#A6DDFF;}
	.st246{fill:url(#SVGID_00000173139833406713950820000001095758775237731518_);}
	.st247{clip-path:url(#SVGID_00000058590559100955764410000004861513109607166135_);}
	.st248{clip-path:url(#SVGID_00000058590559100955764410000004861513109607166135_);fill:#1F1F1F;}
	.st249{clip-path:url(#SVGID_00000058590559100955764410000004861513109607166135_);fill:#2A2A2A;}
	.st250{clip-path:url(#SVGID_00000058590559100955764410000004861513109607166135_);fill:#1D1D1D;}
	.st251{clip-path:url(#SVGID_00000058590559100955764410000004861513109607166135_);fill:#3B3B3B;}
	.st252{clip-path:url(#SVGID_00000058590559100955764410000004861513109607166135_);fill:#727272;}
	.st253{clip-path:url(#SVGID_00000058590559100955764410000004861513109607166135_);fill:#A9A9A9;}
	.st254{clip-path:url(#SVGID_00000058590559100955764410000004861513109607166135_);fill:#E9EAE7;}
	.st255{clip-path:url(#SVGID_00000058590559100955764410000004861513109607166135_);fill:#737373;}
	.st256{clip-path:url(#SVGID_00000058590559100955764410000004861513109607166135_);fill:#949494;}
	.st257{clip-path:url(#SVGID_00000058590559100955764410000004861513109607166135_);fill:#CDCDCD;}
	.st258{clip-path:url(#SVGID_00000058590559100955764410000004861513109607166135_);fill:#DCDED9;}
	.st259{clip-path:url(#SVGID_00000058590559100955764410000004861513109607166135_);fill:#E0E0E0;}
	.st260{fill:#212121;}
	.st261{fill:#EA7C00;}
	.st262{fill:#666666;}
	.st263{fill:#E3EAF5;}
	.st264{fill:#BDC3D6;}
	.st265{fill:#D8DDE8;}
	.st266{fill:#6F94A3;}
	.st267{fill:#D5D5D5;}
	.st268{fill:url(#SVGID_00000062907543421989487660000000368592776989785220_);}
	.st269{fill:url(#SVGID_00000096746642497556959560000013013359985185857697_);}
	.st270{fill:#DA5400;}
	.st271{fill:#FFB345;}
	.st272{fill:#111111;}
	.st273{fill:#242424;}
	.st274{fill:#030303;}
	.st275{fill:#161714;}
	.st276{fill:#FF8D31;}
	.st277{fill:#454545;}
	.st278{fill:#606666;}
	.st279{fill:#FFF2D1;}
	.st280{fill:url(#SVGID_00000134208560642164639450000011320044884040343187_);}
	.st281{fill:#42413D;}
	.st282{fill:#949491;}
	.st283{fill:#6A6869;}
	.st284{fill:#EBEAE5;}
	.st285{fill:#9A998E;}
	.st286{fill:#7B7B6D;}
	.st287{fill:#727071;}
	.st288{fill:#AEAEAE;}
	.st289{fill:#D1EBEE;}
	.st290{fill:#829AA9;}
	.st291{fill:url(#SVGID_00000008842262783774299710000015020826000375741362_);}
	.st292{fill:url(#SVGID_00000049218983092425641430000003571586713863571357_);}
	.st293{fill:#1C1C1A;}
	.st294{fill:#555454;}
	.st295{fill:#767576;}
	.st296{fill:url(#SVGID_00000127730900841431170820000009343954677394780326_);}
	.st297{fill:#DB3400;}
	.st298{fill:#040404;}
	.st299{fill:#20211E;}
	.st300{clip-path:url(#SVGID_00000157988683969652901680000009983721685539172225_);}
	.st301{clip-path:url(#SVGID_00000157988683969652901680000009983721685539172225_);fill:#1F1F1F;}
	.st302{clip-path:url(#SVGID_00000157988683969652901680000009983721685539172225_);fill:#2A2A2A;}
	.st303{clip-path:url(#SVGID_00000157988683969652901680000009983721685539172225_);fill:#1D1D1D;}
	.st304{clip-path:url(#SVGID_00000157988683969652901680000009983721685539172225_);fill:#3B3B3B;}
	.st305{clip-path:url(#SVGID_00000157988683969652901680000009983721685539172225_);fill:#727272;}
	.st306{clip-path:url(#SVGID_00000157988683969652901680000009983721685539172225_);fill:#A9A9A9;}
	.st307{clip-path:url(#SVGID_00000157988683969652901680000009983721685539172225_);fill:#E9EAE7;}
	.st308{clip-path:url(#SVGID_00000157988683969652901680000009983721685539172225_);fill:#4D4D4D;}
	.st309{clip-path:url(#SVGID_00000157988683969652901680000009983721685539172225_);fill:#949494;}
	.st310{clip-path:url(#SVGID_00000157988683969652901680000009983721685539172225_);fill:#DCDED9;}
	.st311{clip-path:url(#SVGID_00000157988683969652901680000009983721685539172225_);fill:#C4C4C4;}
	.st312{fill:#8C4D00;}
	.st313{fill:#135E00;}
	.st314{fill:#C7C6C4;}
	.st315{clip-path:url(#SVGID_00000174579063187915428500000005464556511468041131_);fill:#1D1D1D;}
	.st316{clip-path:url(#SVGID_00000174579063187915428500000005464556511468041131_);}
	.st317{clip-path:url(#SVGID_00000174579063187915428500000005464556511468041131_);fill:#1F1F1F;}
	.st318{clip-path:url(#SVGID_00000174579063187915428500000005464556511468041131_);fill:#2A2A2A;}
	.st319{clip-path:url(#SVGID_00000174579063187915428500000005464556511468041131_);fill:#3B3B3B;}
	.st320{clip-path:url(#SVGID_00000174579063187915428500000005464556511468041131_);fill:#727272;}
	.st321{clip-path:url(#SVGID_00000174579063187915428500000005464556511468041131_);fill:#A9A9A9;}
	.st322{clip-path:url(#SVGID_00000174579063187915428500000005464556511468041131_);fill:#E9EAE7;}
	.st323{clip-path:url(#SVGID_00000174579063187915428500000005464556511468041131_);fill:#4D4D4D;}
	.st324{clip-path:url(#SVGID_00000174579063187915428500000005464556511468041131_);fill:#949494;}
	.st325{clip-path:url(#SVGID_00000174579063187915428500000005464556511468041131_);fill:#DCDED9;}
	.st326{clip-path:url(#SVGID_00000174579063187915428500000005464556511468041131_);fill:#C4C4C4;}
	.st327{fill:#4A4A45;}
	.st328{fill:#363631;}
	.st329{fill:url(#SVGID_00000084492507418148753800000008393833284778846901_);}
	.st330{fill:#C59A08;}
	.st331{fill:#FFDC14;}
	.st332{fill:#FFF013;}
	.st333{fill:#FFDD26;}
	.st334{fill:#5A5858;}
	.st335{fill:#EDFF4D;}
	.st336{fill:#8D8B8B;}
	.st337{fill:#146194;}
	.st338{fill:#8D9DAF;}
	.st339{fill:#C3CDD9;}
	.st340{fill:#728599;}
	.st341{fill:#A7B4C4;}
	.st342{fill:#FDFFF8;}
	.st343{fill:#D1A202;}
	.st344{fill:#F1BD00;}
	.st345{fill:#FBC605;}
	.st346{fill:#FFDF17;}
	.st347{fill:#E7EBF0;}
	.st348{fill:#CCD8E3;}
	.st349{fill:#FAFDFF;}
	.st350{fill:#BCC6D1;}
	.st351{fill:#4D7185;}
	.st352{fill:#95B4C6;}
	.st353{fill:#FFD60D;}
	.st354{fill:#456475;}
	.st355{fill:#9DC2FF;}
	.st356{fill:#E0E8EF;}
	.st357{fill:#4BC7B6;}
	.st358{fill:#22A896;}
	.st359{fill:#FCC201;}
	.st360{fill:#B28A01;}
	.st361{fill:#BA7D01;}
	.st362{fill:#835B09;}
	.st363{fill:#C89A00;}
	.st364{fill:#AC7300;}
	.st365{fill:#C9011F;}
	.st366{fill:#7F0113;}
	.st367{fill:#720111;}
	.st368{fill:#50060E;}
	.st369{fill:#950016;}
	.st370{fill:#790012;}
	.st371{fill:#018ADF;}
	.st372{fill:#015B95;}
	.st373{fill:#015388;}
	.st374{fill:#073E66;}
	.st375{fill:#0069AB;}
	.st376{fill:#00588F;}
	.st377{fill:#8C8C8C;}
	.st378{fill:#E8E8E8;}
	.st379{fill:#001929;}
	.st380{fill:#612F00;}
	.st381{fill:#290100;}
	.st382{fill:#282828;}
	.st383{fill:#7A1400;}
	.st384{fill:#B10A0A;}
	.st385{fill:#C41A1A;}
	.st386{fill:#2C2C2C;}
	.st387{fill:#595959;}
	.st388{fill:url(#SVGID_00000016761611326966762480000013660398464324372613_);}
	.st389{fill:#A89A97;}
	.st390{fill:url(#SVGID_00000041283335742330863940000008121564622858545042_);}
	.st391{fill:#CB7C00;}
	.st392{fill:#802307;}
	.st393{fill:#BB5900;}
	.st394{fill:#CE7E00;}
	.st395{fill:#DC9200;}
	.st396{fill:#913108;}
	.st397{fill:#CD6F00;}
	.st398{fill:#DF9400;}
	.st399{fill:#FFBD2E;}
	.st400{fill:#FCA000;}
	.st401{fill:#FFA200;}
	.st402{fill:#FC8300;}
	.st403{fill:#ED7700;}
	.st404{fill:#B1350A;}
	.st405{fill:#D66F00;}
	.st406{fill:#D16B00;}
	.st407{fill:#7D7D7D;}
	.st408{fill:url(#SVGID_00000145024248741283466110000006392871416845218495_);}
	.st409{fill:url(#SVGID_00000047053037852943002510000016295500282543046028_);}
	.st410{fill:#3F3F3F;}
	.st411{fill:url(#SVGID_00000159459714736831866510000003684058435753951620_);}
	.st412{fill:url(#SVGID_00000074442359855956318940000011608630949747587519_);}
	.st413{fill:url(#SVGID_00000112591030302471913210000012103695430819326848_);}
	.st414{fill:url(#SVGID_00000018202998152884459640000000855422862875234448_);}
	.st415{fill:url(#SVGID_00000166656801027030099910000013430162999773490306_);}
	.st416{fill:#542700;}
	.st417{fill:#954A00;}
	.st418{fill:#FC9120;}
	.st419{fill:#F99801;}
	.st420{fill:#DCDCDC;}
	.st421{fill:#FEFEFE;}
	.st422{fill:#D61D00;}
	.st423{fill:#292929;}
	.st424{fill:#434343;}
	.st425{fill:#4B4B4B;}
	.st426{fill:#2E2A25;}
	.st427{fill:url(#SVGID_00000000903817639732553590000011425803195686818439_);}
	.st428{fill:url(#SVGID_00000041995343377790527050000017864440357796403616_);}
	.st429{fill:url(#SVGID_00000094604960211677374260000011521066014713694904_);}
	.st430{fill:#1A1815;}
	.st431{fill:url(#SVGID_00000183229286715147432640000003798854648735454848_);}
	.st432{fill:url(#SVGID_00000056393516156340786100000015058268815678976179_);}
	.st433{fill:url(#SVGID_00000099637604831948681220000002202478351027747466_);}
	.st434{clip-path:url(#SVGID_00000121252077727533080190000006878750547064286135_);}
	.st435{clip-path:url(#SVGID_00000121252077727533080190000006878750547064286135_);fill:#1F1F1F;}
	.st436{clip-path:url(#SVGID_00000121252077727533080190000006878750547064286135_);fill:#2A2A2A;}
	.st437{clip-path:url(#SVGID_00000121252077727533080190000006878750547064286135_);fill:#1D1D1D;}
	.st438{clip-path:url(#SVGID_00000121252077727533080190000006878750547064286135_);fill:#3B3B3B;}
	.st439{clip-path:url(#SVGID_00000121252077727533080190000006878750547064286135_);fill:#727272;}
	.st440{clip-path:url(#SVGID_00000121252077727533080190000006878750547064286135_);fill:#A9A9A9;}
	.st441{clip-path:url(#SVGID_00000121252077727533080190000006878750547064286135_);fill:#E9EAE7;}
	.st442{clip-path:url(#SVGID_00000121252077727533080190000006878750547064286135_);fill:#737373;}
	.st443{clip-path:url(#SVGID_00000121252077727533080190000006878750547064286135_);fill:#949494;}
	.st444{clip-path:url(#SVGID_00000121252077727533080190000006878750547064286135_);fill:#CDCDCD;}
	.st445{clip-path:url(#SVGID_00000121252077727533080190000006878750547064286135_);fill:#DCDED9;}
	.st446{clip-path:url(#SVGID_00000121252077727533080190000006878750547064286135_);fill:#E0E0E0;}
	.st447{fill:url(#SVGID_00000095297115806608867670000009353612373511786636_);}
	.st448{fill:url(#SVGID_00000056428246351806840050000009458759226231689387_);}
	.st449{fill:url(#SVGID_00000057831518917097470720000017398398235124963469_);}
	.st450{fill:#0EB0E6;}
	.st451{fill:#0085B3;}
	.st452{fill:#FF2727;}
	.st453{fill:#FF8A8A;}
	.st454{fill:#222222;}
	.st455{fill:#161616;}
	.st456{fill-rule:evenodd;clip-rule:evenodd;fill:#0D5CB8;}
	.st457{fill-rule:evenodd;clip-rule:evenodd;fill:#1155A6;}
	.st458{fill-rule:evenodd;clip-rule:evenodd;fill:#00499E;}
	.st459{fill-rule:evenodd;clip-rule:evenodd;fill:#2577D9;}
	.st460{fill-rule:evenodd;clip-rule:evenodd;fill:#2F2F2F;}
	.st461{fill:#2B2B2B;}
	.st462{fill-rule:evenodd;clip-rule:evenodd;fill:#1D1D1D;}
	.st463{fill-rule:evenodd;clip-rule:evenodd;fill:#808080;}
	.st464{fill-rule:evenodd;clip-rule:evenodd;fill:#A1A1A1;}
	.st465{fill-rule:evenodd;clip-rule:evenodd;fill:#666666;}
	.st466{fill-rule:evenodd;clip-rule:evenodd;fill:#525252;}
	.st467{fill:#6E6E6E;}
	.st468{fill-rule:evenodd;clip-rule:evenodd;fill:#B3B3B3;}
	.st469{fill:#703918;}
	.st470{fill:#A3632E;}
	.st471{fill:#CF9742;}
	.st472{fill:#BF926D;}
	.st473{fill:#E8AC51;}
	.st474{fill:#8F491E;}
	.st475{fill-rule:evenodd;clip-rule:evenodd;fill:#D4D4D4;}
	.st476{fill:#B66828;}
	.st477{fill:#824A1D;}
	.st478{fill:#808080;}
	.st479{fill:#A1A1A1;}
	.st480{fill:#27A427;}
	.st481{fill:#084D08;}
	.st482{fill:#0069A2;}
</style>
<g>
	<path class="st10" d="M47.64,34.01c-0.15,2.65-0.55,6.32-1.46,8.78c-0.34,0.91-0.82,1.78-1.19,2.64c-0.41,0.95-0.76,1.83-1.15,2.68
		c-0.4,0.88-0.98,1.55-1.48,2.28c-0.18,0.27-0.31,0.73-0.53,0.87c-0.24,0.15-0.74,0.26-1.12,0.42c-1.05,0.43-2.33,0.63-3.44,1.03
		c-0.4,0.15-1.25,0.76-1.7,0.51c-0.31-0.17-0.2-1.27-0.21-1.89c-0.01-0.72,0.02-1.46,0.02-2.09c0.01-1.45-0.16-2.68-0.19-3.94
		c-0.08-2.79-0.33-5.24-0.53-7.8c-1.52,0.4-2.98,0.87-4.47,1.41c-1.43,0.52-3.01,0.85-4.64,1.23c-2.29,0.54-4.52,1.22-7.11,1.66
		c-0.38,0.07-0.8,0.12-1.24,0.24c-0.38,0.1-0.97,0.28-1.2,0.24c-0.47-0.09-0.8-0.81-1.21-1.26c-1.21-1.31-2.63-2.26-3.77-3.6
		c-1.2-1.4-2.55-2.29-3.77-3.6c-0.39-0.42-0.67-0.93-1.07-1.33c-0.17-0.17-0.67-0.3-0.72-0.55c-0.08-0.37,0.25-0.46,0.3-0.8
		c1.14-0.44,2.34-0.88,3.58-1.37c0.38-0.15,0.86-0.42,1.21-0.41c0.65,0.02,1.81,0.83,2.32,1.14c0.54,0.33,1.02,0.7,1.61,1.15
		c0.43,0.33,1.17,1.03,1.66,1.06c0.19,0.01,0.64-0.22,0.98-0.34c2.22-0.77,4.68-1.61,6.93-2.23c0.73-0.2,1.42-0.34,2.09-0.54
		c1.94-0.59,3.86-1.32,5.86-1.98c-0.41-0.44-0.97-0.73-1.49-1.01c-2.13-1.17-3.97-2.6-5.81-4.12c-0.92-0.76-1.76-1.36-2.84-2.15
		c-0.41-0.3-1.15-0.81-1.08-1.33c0.06-0.35,0.86-0.54,1.36-0.7c0.62-0.2,1.12-0.27,1.61-0.43c1.16-0.39,2.02-1.03,3.09-1.13
		c0.18-0.02,0.44,0.01,0.61,0.03c1.57,0.21,3.15,0.87,4.68,1.34c4.5,1.37,8.54,3.64,12.39,5.42c2.56-0.78,5.59-1.39,8.41-2.03
		c1.63-0.37,3.16-0.88,5.3-0.56c1.88,0.29,3.4,1.15,5,1.87c0.86,0.38,1.59,0.8,1.21,2.11c-0.26,0.91-1.27,1.48-2.04,2.12
		c-0.4,0.33-0.72,0.69-1.1,0.97c-0.46,0.34-0.79,0.74-1.24,1.01c-0.54,0.33-1.17,0.52-1.76,0.81c-0.42,0.21-0.8,0.47-1.22,0.67
		C54.21,31.85,50.6,32.71,47.64,34.01z M35.77,20.15c-1.33-0.55-2.74-0.98-4.23-1.49c-1.28-0.44-3.05-1.17-4.51-1.24
		c-0.39-0.02-0.94,0.3-1.34,0.45c-0.92,0.35-1.76,0.64-2.68,0.9c-0.43,0.12-0.92,0.25-1.26,0.54c2.24,1.54,4.49,3.71,6.89,5.29
		c0.31,0.2,0.82,0.68,1.11,0.65c0.35-0.03,0.58-0.79,1-0.55c-0.14,0.37-0.56,0.44-0.7,0.82c0.29,0.24,0.62,0.34,1.03,0.56
		c0.28,0.15,0.71,0.62,1.02,0.61c0.13-0.01,0.52-0.38,0.68-0.52c1.4-1.23,2.71-2.36,4.09-3.44c0.22-0.17,0.45-0.49,0.77-0.39
		c-0.3,0.49-0.84,0.79-1.29,1.13c-0.92,0.72-1.79,1.44-2.62,2.22c-0.42,0.39-0.97,0.7-1.25,1.22c0.17,0.15,0.4,0.43,0.73,0.29
		c0.22-0.07-0.12-0.13-0.03-0.34c0.95-0.62,1.85-1.4,2.7-2.09c0.26-0.21,0.53-0.64,0.95-0.55c-0.13,0.35-0.51,0.51-0.78,0.73
		c-0.87,0.7-1.67,1.46-2.57,2.1c2.82-0.97,5.83-1.85,8.71-2.74c0.41-0.12,0.86-0.2,1.21-0.45C41.11,22.69,38.58,21.3,35.77,20.15z
		 M63.15,23.73c-0.68-0.54-1.67-1.09-2.69-1.46c-1.37-0.49-3.23-1-4.89-0.7c-1.66,0.3-3.34,0.85-5.03,1.21
		c-1.73,0.37-3.45,0.7-5.07,1.21c-1.6,0.5-3.19,1.07-4.78,1.52c-4.92,1.39-9.49,3.24-14.17,4.75c-0.82,0.26-1.67,0.39-2.5,0.65
		c-2,0.62-4.09,1.23-5.99,1.89c-0.36,0.12-0.84,0.16-1.08,0.51c0.2,0.25,0.68,0.23,0.62,0.67c-0.03,0.24-0.19,0.32-0.37,0.32
		c-0.35,0.01-1.25-0.81-1.66-1.06c-0.64-0.4-1.12-0.73-1.61-1.1c-0.52-0.4-0.95-0.79-1.57-1.14c-0.33-0.19-1.48-0.9-1.84-0.9
		c-0.24-0.01-0.77,0.28-1.03,0.38c-0.78,0.29-1.39,0.55-2.06,0.8c-0.31,0.12-0.69,0.18-0.99,0.47c1.2,1.83,3.25,3.13,4.89,4.89
		c1.15,1.22,2.42,2.44,3.68,3.64c0.58,0.55,0.99,1.64,1.92,1.12c0.57-0.71,1.1-1.53,1.61-2.28c0.17-0.24,0.29-0.62,0.65-0.65
		c-0.31,1-1.23,1.73-1.68,2.74c0.38,0.02,0.61-0.13,0.97-0.13c0.08-0.07,0.05-0.24,0.07-0.38c0.37-0.46,0.75-0.94,1.08-1.44
		c0.34-0.5,0.6-1.09,1.09-1.44c0.09,0.33-0.2,0.61-0.35,0.84c-0.53,0.81-1.1,1.51-1.57,2.32c0.75-0.03,1.32-0.26,2.04-0.33
		c0.6-0.75,1.04-1.69,1.49-2.58c0.14-0.27,0.24-0.73,0.61-0.78c-0.3,1.12-1.03,2.16-1.57,3.17c1.46-0.23,2.68-0.72,4.1-1
		c0.09-0.06-0.17-0.14-0.07-0.34c0.41-0.79,0.84-1.67,1.18-2.46c0.11-0.27,0.16-0.63,0.44-0.79c0.11,0.65-0.32,1.22-0.57,1.77
		c-0.27,0.58-0.59,1.15-0.79,1.76c0.45,0,0.73-0.18,1.11-0.25c0.01-0.17-0.13-0.21-0.06-0.43c0.41-0.69,0.7-1.62,1.04-2.34
		c0.1-0.22,0.19-0.63,0.51-0.61c0.06,0.25-0.13,0.54-0.26,0.8c-0.4,0.81-0.79,1.8-1.1,2.51c1.12-0.25,2.31-0.43,3.26-0.87
		c0.05-0.19-0.1-0.21-0.07-0.39c0.23-0.52,0.45-1.15,0.7-1.72c0.25-0.56,0.44-1.25,0.87-1.49c-0.08,0.61-0.4,1.19-0.66,1.76
		c-0.27,0.58-0.48,1.18-0.75,1.76c1.52-0.46,3.05-0.92,4.51-1.45c0.21-0.98,0.16-2.54,0.49-3.56c0.05-0.16,0.24-0.57,0.34-0.67
		c0.27-0.25,1.42-0.4,2.01-0.54c0.76-0.19,1.48-0.35,2.13-0.46c2.26-0.36,4.41-0.88,6.53-1.35c0.42-0.09,0.93-0.32,1.24-0.24
		c0.87,0.23-0.02,2.59,0.27,3.26c1.28-0.32,2.39-0.82,3.58-1.24c0.05-0.2-0.18-0.16-0.11-0.39c0.27-0.66,0.48-1.51,0.65-2.32
		c0.06-0.29-0.03-0.72,0.22-0.93c0.19,1.28-0.38,2.53-0.67,3.6c0.41-0.09,0.77-0.21,1.16-0.33c0.01-0.18-0.13-0.22-0.12-0.39
		c0.23-0.74,0.52-1.52,0.74-2.31c0.07-0.28-0.04-0.69,0.22-0.89c0.38,0.38-0.03,1-0.16,1.49c-0.21,0.75-0.38,1.46-0.54,1.98
		c0.73-0.09,1.49-0.36,2.23-0.7c0.71-0.33,1.47-0.57,2.16-0.93c0.28-0.15,0.54-0.37,0.82-0.51c0.62-0.31,1.31-0.48,1.85-0.85
		c0.52-0.36,1.11-0.94,1.7-1.46c0.96-0.84,2.18-1.32,2.34-2.79C63.69,23.91,63.53,23.72,63.15,23.73z M36.04,32.98
		c-0.76,2.77-0.6,5.89-0.35,8.53c0.34,3.54,0.34,7.17,0.46,10.83c0.82-0.23,1.63-0.58,2.55-0.82c0.45-0.11,0.88-0.23,1.34-0.41
		c0.43-0.16,0.94-0.26,1.26-0.49c0.3-0.22,0.49-0.72,0.81-1.12c0.34-0.42,0.56-0.76,0.76-1.16c0.94-1.81,1.61-3.5,2.42-5.31
		c0.91-1.99,1.19-4.35,1.5-6.94c0.16-1.36,0.19-2.82,0.26-4.18c0.02-0.48,0.16-1.03-0.07-1.33C43.44,31.51,39.52,32.01,36.04,32.98z
		"/>
	<path class="st10" d="M36.18,22.44c-0.52,0.51-1.12,0.97-1.7,1.41c-0.29,0.22-0.58,0.45-0.87,0.68c-0.27,0.21-0.52,0.55-0.91,0.6
		c0.21-0.56,0.89-0.92,1.43-1.34c0.63-0.48,1.18-1.02,1.79-1.41C36.03,22.38,36.13,22.38,36.18,22.44z"/>
	<path class="st10" d="M54.17,23.9c0.42-0.07,0.77,0.2,0.76,0.64c-0.02,0.93-1.36,0.73-1.22-0.19C53.74,24.19,53.8,23.96,54.17,23.9
		z"/>
	<path class="st10" d="M33.76,23.39c-0.35,0.54-0.98,0.93-1.47,1.34c-0.21,0.17-0.35,0.51-0.68,0.44c0.45-0.82,1.33-1.18,1.94-1.83
		C33.64,23.32,33.71,23.35,33.76,23.39z"/>
	<path class="st10" d="M50.73,25.14c0.34,0.23,0.42,0.6,0.31,0.87c-0.29,0.66-1.61,0.43-1.34-0.45
		C49.79,25.25,50.2,25.1,50.73,25.14z"/>
	<path class="st10" d="M60.97,25.98c0.09-0.02,0.13,0.2,0.03,0.21C60.84,26.23,60.94,26.01,60.97,25.98z"/>
	<path class="st10" d="M60.51,26.3c-0.13,0.31-0.16,0.72-0.52,0.78C59.97,26.82,60.1,26.1,60.51,26.3z"/>
	<path class="st10" d="M58.36,26.24c0.05,0,0.09,0,0.13,0.01c0.1,0.37-0.12,0.83-0.2,1.27c-0.07,0.38,0,0.92-0.4,1
		C57.97,27.86,58.1,26.85,58.36,26.24z"/>
	<path class="st10" d="M59.46,26.29c0.07-0.01,0.07,0.05,0.13,0.05c-0.11,0.52-0.14,1.14-0.38,1.52
		C58.89,27.55,59.25,26.62,59.46,26.29z"/>
	<path class="st10" d="M57.37,26.74c0.04,0,0.09,0.01,0.13,0.01c0.18,0.32-0.06,0.75-0.14,1.15c-0.07,0.34,0,0.79-0.31,0.92
		C56.87,28.33,57.25,27.37,57.37,26.74z"/>
	<path class="st10" d="M46.22,26.42c0.53,0.46,0.26,1.36-0.42,1.26C45.08,27.58,45.07,26.15,46.22,26.42z"/>
	<path class="st10" d="M56.61,27.01c0.07-0.01,0.08,0.04,0.13,0.05c-0.04,0.51-0.14,1.04-0.26,1.53c-0.1,0.45-0.16,0.98-0.5,1.22
		c-0.04-0.77,0.4-1.78,0.53-2.67C56.5,27.03,56.6,27.07,56.61,27.01z"/>
	<path class="st10" d="M55.23,27.33c0.04,0,0.09,0,0.13,0c0.13,0.48-0.14,1.14-0.27,1.78c-0.08,0.37,0,0.88-0.36,1.01
		C54.68,29.31,55.06,28.2,55.23,27.33z"/>
	<path class="st10" d="M54.25,27.62c0.04,0,0.09,0,0.13,0.01c0.1,0.86-0.07,1.75-0.3,2.38c-0.08,0.22-0.12,0.58-0.38,0.58
		C53.84,29.72,54.24,28.76,54.25,27.62z"/>
	<path class="st10" d="M41.55,27.57c0.4-0.07,0.7,0.11,0.78,0.29c0.47,1.13-1.24,1.3-1.35,0.49C40.92,27.9,41.09,27.65,41.55,27.57z
		"/>
	<path class="st10" d="M51.39,28.51c-0.31,0.92-0.65,2.03-0.98,2.9c-0.09,0.22-0.04,0.59-0.38,0.58c0.01-0.55,0.35-1.06,0.52-1.64
		c0.17-0.59,0.29-1.2,0.49-1.77c0.06-0.02,0.11-0.06,0.14-0.12C51.3,28.43,51.28,28.52,51.39,28.51z"/>
	<path class="st10" d="M50.22,28.97c-0.11,0.67-0.39,1.51-0.59,2.24c-0.12,0.42-0.25,1.05-0.72,1.08c0.38-0.86,0.73-2.16,1.05-3.24
		c0.01-0.05,0.09-0.03,0.09-0.08C50.11,28.96,50.16,28.97,50.22,28.97z"/>
	<path class="st10" d="M48.99,29.12c-0.08,0.81-0.37,1.58-0.56,2.28c-0.1,0.37-0.08,0.83-0.45,1c0-0.97,0.55-2.09,0.74-3.17
		c-0.01-0.07,0.04-0.07,0.05-0.12C48.84,29.11,48.91,29.12,48.99,29.12z"/>
	<path class="st10" d="M37.44,28.91c1.05-0.23,0.88,1.36-0.02,1.24C36.78,30.06,36.76,29.05,37.44,28.91z"/>
	<path class="st10" d="M33.23,30.41c0.31-0.06,0.53,0,0.65,0.16c0.74,0.92-1.09,1.51-1.17,0.54C32.67,30.67,32.79,30.5,33.23,30.41z
		"/>
	<path class="st10" d="M28.93,31.92c1.16-0.1,0.82,1.65-0.29,1.31C28.02,33.03,28.15,31.98,28.93,31.92z"/>
	<path class="st10" d="M45.8,32.86c-0.21,0.33-0.56,0.51-0.87,0.73c-1.78,1.26-3.55,2.74-5.31,4.1c-0.27,0.21-0.59,0.49-0.95,0.51
		c0.07-0.36,0.48-0.53,0.74-0.73c0.84-0.64,1.67-1.3,2.56-1.97c1.2-0.91,2.37-1.91,3.6-2.69C45.69,32.79,45.76,32.82,45.8,32.86z"/>
	<path class="st10" d="M45.89,33.76c-0.03,0.36-0.43,0.56-0.7,0.74c-1.42,0.94-2.92,1.95-4.33,3c-0.57,0.42-1.02,0.99-1.69,1.25
		c-0.03-0.37,0.42-0.55,0.65-0.74c1.81-1.44,3.91-2.85,5.84-4.21c0.01-0.05,0.09-0.03,0.09-0.08C45.8,33.73,45.83,33.76,45.89,33.76
		z"/>
	<path class="st10" d="M24.56,33.12c0.24-0.03,0.38-0.04,0.52,0.07c0.3,0.21,0.36,1.08-0.11,1.32c-0.43,0.22-1.43,0.05-1.19-0.87
		C23.86,33.38,24.15,33.17,24.56,33.12z"/>
	<path class="st10" d="M34.64,33.68c0.18,0.18-0.05,0.33-0.12,0.55c-0.21,0.7-0.18,1.91-0.85,2.14c0.35-0.82,0.42-1.95,0.84-2.7
		C34.56,33.68,34.6,33.68,34.64,33.68z"/>
	<path class="st10" d="M33.98,33.74c0.04,0.02,0.08,0.04,0.08,0.09c-0.24,0.73-0.48,1.46-0.77,2.14c-0.16,0.38-0.32,0.81-0.58,1.13
		c-0.13-0.17-0.06-0.39-0.02-0.56c0.24-0.93,0.87-1.84,1.15-2.72C33.88,33.79,33.97,33.8,33.98,33.74z"/>
	<path class="st10" d="M32.74,33.94c0.06,0.02,0.07,0.08,0.13,0.09c-0.07,0.63-0.36,1.17-0.57,1.73c-0.21,0.55-0.29,1.19-0.7,1.59
		c-0.08-0.53,0.22-1.11,0.43-1.65c0.23-0.57,0.4-1.13,0.62-1.68C32.66,33.97,32.74,33.99,32.74,33.94z"/>
	<path class="st10" d="M45.88,34.83c0.08,0,0.15,0.01,0.22,0.01c-0.13,0.44-0.62,0.61-0.97,0.85c-2.09,1.44-4.13,3.11-6.05,4.79
		c-0.29,0.26-0.55,0.7-1,0.68c0.48-0.67,1.17-1.19,1.8-1.71c1.25-1.03,2.49-2.11,3.85-3.06C44.46,35.88,45.17,35.34,45.88,34.83z"/>
	<path class="st10" d="M30.82,34.62c-0.09,0.88-0.63,1.71-0.97,2.56c-0.1,0.25-0.12,0.65-0.43,0.75c-0.09-0.47,0.23-0.93,0.42-1.39
		c0.19-0.46,0.43-0.94,0.56-1.42c0.1-0.09,0.18-0.2,0.19-0.38c0.02-0.05,0.08-0.06,0.09-0.12C30.73,34.61,30.77,34.61,30.82,34.62z"
		/>
	<path class="st10" d="M29.36,35.48c0.28,0.43-0.18,0.98-0.38,1.39c-0.21,0.44-0.38,1.05-0.81,1.2
		C28.45,37.08,28.97,36.35,29.36,35.48z"/>
	<path class="st10" d="M26.09,35.88c0.04,0.02,0.07,0.05,0.13,0.05c-0.27,0.95-0.73,1.8-1.19,2.64c-0.13,0.23-0.25,0.66-0.61,0.66
		C24.86,38.16,25.54,36.96,26.09,35.88z"/>
	<path class="st10" d="M24.83,36.51c0.03,0.02,0.07,0.05,0.13,0.05c-0.16,0.77-0.55,1.4-0.9,2.01c-0.16,0.29-0.29,0.79-0.7,0.82
		c0.39-0.99,0.96-1.78,1.37-2.75C24.72,36.54,24.82,36.57,24.83,36.51z"/>
	<path class="st10" d="M24.07,36.73c-0.38,0.88-0.92,1.69-1.4,2.54c-0.13,0.23-0.25,0.64-0.61,0.66c0.12-0.55,0.52-1.04,0.83-1.59
		c0.33-0.58,0.63-1.2,1.05-1.66C24.01,36.67,24.01,36.72,24.07,36.73z"/>
	<path class="st10" d="M21.88,37.52c-0.08,0.54-0.44,1.05-0.74,1.5c-0.14,0.21-0.32,0.46-0.47,0.66c-0.15,0.21-0.32,0.51-0.6,0.53
		c0.08-0.48,0.49-0.86,0.77-1.29c0.3-0.46,0.59-0.92,0.87-1.41C21.76,37.51,21.82,37.52,21.88,37.52z"/>
	<path class="st10" d="M43.13,38.8c-0.18,0.49-0.69,0.77-1.07,1.15c-0.77,0.75-1.61,1.4-2.44,2.15c-0.37,0.33-0.72,0.86-1.28,0.88
		c0.25-0.46,0.73-0.73,1.11-1.06c1.14-1,2.33-2.04,3.46-3.12C42.98,38.79,43.05,38.79,43.13,38.8z"/>
</g>
</svg>
