<svg xmlns="http://www.w3.org/2000/svg" xml:space="preserve" id="Layer_1" x="0" y="0" style="enable-background:new 0 0 70 70" version="1.1" viewBox="0 0 70 70"><style>.st10{fill-rule:evenodd;clip-rule:evenodd;fill:#1779ff}</style><path d="M47.64 34.01c-.15 2.65-.55 6.32-1.46 8.78-.34.91-.82 1.78-1.19 2.64-.41.95-.76 1.83-1.15 2.68-.4.88-.98 1.55-1.48 2.28-.18.27-.31.73-.53.87-.24.15-.74.26-1.12.42-1.05.43-2.33.63-3.44 1.03-.4.15-1.25.76-1.7.51-.31-.17-.2-1.27-.21-1.89-.01-.72.02-1.46.02-2.09.01-1.45-.16-2.68-.19-3.94-.08-2.79-.33-5.24-.53-7.8-1.52.4-2.98.87-4.47 1.41-1.43.52-3.01.85-4.64 1.23-2.29.54-4.52 1.22-7.11 1.66-.38.07-.8.12-1.24.24-.38.1-.97.28-1.2.24-.47-.09-.8-.81-1.21-1.26-1.21-1.31-2.63-2.26-3.77-3.6-1.2-1.4-2.55-2.29-3.77-3.6-.39-.42-.67-.93-1.07-1.33-.17-.17-.67-.3-.72-.55-.08-.37.25-.46.3-.8 1.14-.44 2.34-.88 3.58-1.37.38-.15.86-.42 1.21-.41.65.02 1.81.83 2.32 1.14.54.33 1.02.7 1.61 1.15.43.33 1.17 1.03 1.66 1.06.19.01.64-.22.98-.34 2.22-.77 4.68-1.61 6.93-2.23.73-.2 1.42-.34 2.09-.54 1.94-.59 3.86-1.32 5.86-1.98-.41-.44-.97-.73-1.49-1.01-2.13-1.17-3.97-2.6-5.81-4.12-.92-.76-1.76-1.36-2.84-2.15-.41-.3-1.15-.81-1.08-1.33.06-.35.86-.54 1.36-.7.62-.2 1.12-.27 1.61-.43 1.16-.39 2.02-1.03 3.09-1.13.18-.02.44.01.61.03 1.57.21 3.15.87 4.68 1.34 4.5 1.37 8.54 3.64 12.39 5.42 2.56-.78 5.59-1.39 8.41-2.03 1.63-.37 3.16-.88 5.3-.56 1.88.29 3.4 1.15 5 1.87.86.38 1.59.8 1.21 2.11-.26.91-1.27 1.48-2.04 2.12-.4.33-.72.69-1.1.97-.46.34-.79.74-1.24 1.01-.54.33-1.17.52-1.76.81-.42.21-.8.47-1.22.67-2.87 1.34-6.48 2.2-9.44 3.5zM35.77 20.15c-1.33-.55-2.74-.98-4.23-1.49-1.28-.44-3.05-1.17-4.51-1.24-.39-.02-.94.3-1.34.45-.92.35-1.76.64-2.68.9-.43.12-.92.25-1.26.54 2.24 1.54 4.49 3.71 6.89 5.29.31.2.82.68 1.11.65.35-.03.58-.79 1-.55-.14.37-.56.44-.7.82.29.24.62.34 1.03.56.28.15.71.62 1.02.61.13-.01.52-.38.68-.52 1.4-1.23 2.71-2.36 4.09-3.44.22-.17.45-.49.77-.39-.3.49-.84.79-1.29 1.13-.92.72-1.79 1.44-2.62 2.22-.42.39-.97.7-1.25 1.22.17.15.4.43.73.29.22-.07-.12-.13-.03-.34.95-.62 1.85-1.4 2.7-2.09.26-.21.53-.64.95-.55-.13.35-.51.51-.78.73-.87.7-1.67 1.46-2.57 2.1 2.82-.97 5.83-1.85 8.71-2.74.41-.12.86-.2 1.21-.45-2.29-1.17-4.82-2.56-7.63-3.71zm27.38 3.58c-.68-.54-1.67-1.09-2.69-1.46-1.37-.49-3.23-1-4.89-.7-1.66.3-3.34.85-5.03 1.21-1.73.37-3.45.7-5.07 1.21-1.6.5-3.19 1.07-4.78 1.52-4.92 1.39-9.49 3.24-14.17 4.75-.82.26-1.67.39-2.5.65-2 .62-4.09 1.23-5.99 1.89-.36.12-.84.16-1.08.51.2.25.68.23.62.67-.03.24-.19.32-.37.32-.35.01-1.25-.81-1.66-1.06-.64-.4-1.12-.73-1.61-1.1-.52-.4-.95-.79-1.57-1.14-.33-.19-1.48-.9-1.84-.9-.24-.01-.77.28-1.03.38-.78.29-1.39.55-2.06.8-.31.12-.69.18-.99.47 1.2 1.83 3.25 3.13 4.89 4.89 1.15 1.22 2.42 2.44 3.68 3.64.58.55.99 1.64 1.92 1.12.57-.71 1.1-1.53 1.61-2.28.17-.24.29-.62.65-.65-.31 1-1.23 1.73-1.68 2.74.38.02.61-.13.97-.13.08-.07.05-.24.07-.38.37-.46.75-.94 1.08-1.44.34-.5.6-1.09 1.09-1.44.09.33-.2.61-.35.84-.53.81-1.1 1.51-1.57 2.32.75-.03 1.32-.26 2.04-.33.6-.75 1.04-1.69 1.49-2.58.14-.27.24-.73.61-.78-.3 1.12-1.03 2.16-1.57 3.17 1.46-.23 2.68-.72 4.1-1 .09-.06-.17-.14-.07-.34.41-.79.84-1.67 1.18-2.46.11-.27.16-.63.44-.79.11.65-.32 1.22-.57 1.77-.27.58-.59 1.15-.79 1.76.45 0 .73-.18 1.11-.25.01-.17-.13-.21-.06-.43.41-.69.7-1.62 1.04-2.34.1-.22.19-.63.51-.61.06.25-.13.54-.26.8-.4.81-.79 1.8-1.1 2.51 1.12-.25 2.31-.43 3.26-.87.05-.19-.1-.21-.07-.39.23-.52.45-1.15.7-1.72.25-.56.44-1.25.87-1.49-.08.61-.4 1.19-.66 1.76-.27.58-.48 1.18-.75 1.76 1.52-.46 3.05-.92 4.51-1.45.21-.98.16-2.54.49-3.56.05-.16.24-.57.34-.67.27-.25 1.42-.4 2.01-.54.76-.19 1.48-.35 2.13-.46 2.26-.36 4.41-.88 6.53-1.35.42-.09.93-.32 1.24-.24.87.23-.02 2.59.27 3.26 1.28-.32 2.39-.82 3.58-1.24.05-.2-.18-.16-.11-.39.27-.66.48-1.51.65-2.32.06-.29-.03-.72.22-.93.19 1.28-.38 2.53-.67 3.6.41-.09.77-.21 1.16-.33.01-.18-.13-.22-.12-.39.23-.74.52-1.52.74-2.31.07-.28-.04-.69.22-.89.38.38-.03 1-.16 1.49-.21.75-.38 1.46-.54 1.98.73-.09 1.49-.36 2.23-.7.71-.33 1.47-.57 2.16-.93.28-.15.54-.37.82-.51.62-.31 1.31-.48 1.85-.85.52-.36 1.11-.94 1.7-1.46.96-.84 2.18-1.32 2.34-2.79-.15-.24-.31-.43-.69-.42zm-27.11 9.25c-.76 2.77-.6 5.89-.35 8.53.34 3.54.34 7.17.46 10.83.82-.23 1.63-.58 2.55-.82.45-.11.88-.23 1.34-.41.43-.16.94-.26 1.26-.49.3-.22.49-.72.81-1.12.34-.42.56-.76.76-1.16.94-1.81 1.61-3.5 2.42-5.31.91-1.99 1.19-4.35 1.5-6.94.16-1.36.19-2.82.26-4.18.02-.48.16-1.03-.07-1.33-3.54.93-7.46 1.43-10.94 2.4z" class="st10"/><path d="M36.18 22.44c-.52.51-1.12.97-1.7 1.41-.29.22-.58.45-.87.68-.27.21-.52.55-.91.6.21-.56.89-.92 1.43-1.34.63-.48 1.18-1.02 1.79-1.41.11 0 .21 0 .26.06zM54.17 23.9c.42-.07.77.2.76.64-.02.93-1.36.73-1.22-.19.03-.16.09-.39.46-.45zM33.76 23.39c-.35.54-.98.93-1.47 1.34-.21.17-.35.51-.68.44.45-.82 1.33-1.18 1.94-1.83.09-.02.16.01.21.05zM50.73 25.14c.34.23.42.6.31.87-.29.66-1.61.43-1.34-.45.09-.31.5-.46 1.03-.42zM60.97 25.98c.09-.02.13.2.03.21-.16.04-.06-.18-.03-.21zM60.51 26.3c-.13.31-.16.72-.52.78-.02-.26.11-.98.52-.78zM58.36 26.24c.05 0 .09 0 .13.01.1.37-.12.83-.2 1.27-.07.38 0 .92-.4 1 .08-.66.21-1.67.47-2.28zM59.46 26.29c.07-.01.07.05.13.05-.11.52-.14 1.14-.38 1.52-.32-.31.04-1.24.25-1.57zM57.37 26.74c.04 0 .09.01.13.01.18.32-.06.75-.14 1.15-.07.34 0 .79-.31.92-.18-.49.2-1.45.32-2.08zM46.22 26.42c.53.46.26 1.36-.42 1.26-.72-.1-.73-1.53.42-1.26zM56.61 27.01c.07-.01.08.04.13.05a9.78 9.78 0 0 1-.26 1.53c-.1.45-.16.98-.5 1.22-.04-.77.4-1.78.53-2.67-.01-.11.09-.07.1-.13zM55.23 27.33h.13c.13.48-.14 1.14-.27 1.78-.08.37 0 .88-.36 1.01-.05-.81.33-1.92.5-2.79zM54.25 27.62c.04 0 .09 0 .13.01.1.86-.07 1.75-.3 2.38-.08.22-.12.58-.38.58.14-.87.54-1.83.55-2.97zM41.55 27.57c.4-.07.7.11.78.29.47 1.13-1.24 1.3-1.35.49-.06-.45.11-.7.57-.78zM51.39 28.51c-.31.92-.65 2.03-.98 2.9-.09.22-.04.59-.38.58.01-.55.35-1.06.52-1.64.17-.59.29-1.2.49-1.77.06-.02.11-.06.14-.12.12-.03.1.06.21.05zM50.22 28.97c-.11.67-.39 1.51-.59 2.24-.12.42-.25 1.05-.72 1.08.38-.86.73-2.16 1.05-3.24.01-.05.09-.03.09-.08.06-.01.11 0 .17 0zM48.99 29.12c-.08.81-.37 1.58-.56 2.28-.1.37-.08.83-.45 1 0-.97.55-2.09.74-3.17-.01-.07.04-.07.05-.12.07 0 .14.01.22.01zM37.44 28.91c1.05-.23.88 1.36-.02 1.24-.64-.09-.66-1.1.02-1.24zM33.23 30.41c.31-.06.53 0 .65.16.74.92-1.09 1.51-1.17.54-.04-.44.08-.61.52-.7zM28.93 31.92c1.16-.1.82 1.65-.29 1.31-.62-.2-.49-1.25.29-1.31zM45.8 32.86c-.21.33-.56.51-.87.73-1.78 1.26-3.55 2.74-5.31 4.1-.27.21-.59.49-.95.51.07-.36.48-.53.74-.73.84-.64 1.67-1.3 2.56-1.97 1.2-.91 2.37-1.91 3.6-2.69.12-.02.19.01.23.05zM45.89 33.76c-.03.36-.43.56-.7.74-1.42.94-2.92 1.95-4.33 3-.57.42-1.02.99-1.69 1.25-.03-.37.42-.55.65-.74 1.81-1.44 3.91-2.85 5.84-4.21.01-.05.09-.03.09-.08.05.01.08.04.14.04zM24.56 33.12c.24-.03.38-.04.52.07.3.21.36 1.08-.11 1.32-.43.22-1.43.05-1.19-.87.08-.26.37-.47.78-.52zM34.64 33.68c.18.18-.05.33-.12.55-.21.7-.18 1.91-.85 2.14.35-.82.42-1.95.84-2.7.05.01.09.01.13.01zM33.98 33.74c.04.02.08.04.08.09-.24.73-.48 1.46-.77 2.14-.16.38-.32.81-.58 1.13-.13-.17-.06-.39-.02-.56.24-.93.87-1.84 1.15-2.72.04-.03.13-.02.14-.08zM32.74 33.94c.06.02.07.08.13.09-.07.63-.36 1.17-.57 1.73-.21.55-.29 1.19-.7 1.59-.08-.53.22-1.11.43-1.65.23-.57.4-1.13.62-1.68.01-.05.09-.03.09-.08zM45.88 34.83c.08 0 .15.01.22.01-.13.44-.62.61-.97.85-2.09 1.44-4.13 3.11-6.05 4.79-.29.26-.55.7-1 .68.48-.67 1.17-1.19 1.8-1.71 1.25-1.03 2.49-2.11 3.85-3.06.73-.51 1.44-1.05 2.15-1.56zM30.82 34.62c-.09.88-.63 1.71-.97 2.56-.1.25-.12.65-.43.75-.09-.47.23-.93.42-1.39.19-.46.43-.94.56-1.42.1-.09.18-.2.19-.38.02-.05.08-.06.09-.12a.33.33 0 0 1 .14 0zM29.36 35.48c.28.43-.18.98-.38 1.39-.21.44-.38 1.05-.81 1.2.28-.99.8-1.72 1.19-2.59zM26.09 35.88c.04.02.07.05.13.05-.27.95-.73 1.8-1.19 2.64-.13.23-.25.66-.61.66.44-1.07 1.12-2.27 1.67-3.35zM24.83 36.51c.03.02.07.05.13.05-.16.77-.55 1.4-.9 2.01-.16.29-.29.79-.7.82.39-.99.96-1.78 1.37-2.75-.01-.1.09-.07.1-.13zM24.07 36.73c-.38.88-.92 1.69-1.4 2.54-.13.23-.25.64-.61.66.12-.55.52-1.04.83-1.59.33-.58.63-1.2 1.05-1.66.07-.01.07.04.13.05zM21.88 37.52c-.08.54-.44 1.05-.74 1.5-.14.21-.32.46-.47.66-.15.21-.32.51-.6.53.08-.48.49-.86.77-1.29.3-.46.59-.92.87-1.41.05 0 .11.01.17.01zM43.13 38.8c-.18.49-.69.77-1.07 1.15-.77.75-1.61 1.4-2.44 2.15-.37.33-.72.86-1.28.88.25-.46.73-.73 1.11-1.06 1.14-1 2.33-2.04 3.46-3.12a.81.81 0 0 1 .22 0z" class="st10"/></svg>