<svg xmlns="http://www.w3.org/2000/svg" xml:space="preserve" id="Layer_1" x="0" y="0" style="enable-background:new 0 0 80 80" version="1.1" viewBox="0 0 80 80"><style>.st10{fill-rule:evenodd;clip-rule:evenodd;fill:#1779ff}</style><g style="opacity:.8"><path d="M18.59 25.05c.11 1.12.02 2.42.04 3.61 2.75.13 6.31.21 9.03-.04.03-.53-.54-.82-.28-1.32.22-.43 1.34-.23 2.11-.28.48-.03 1.55-.26 1.97 0 .54.32.2 1.07.61 1.46.47.12 1.18-.17 1.51-.09.32.08.83.86 1.13 1.23 1.06 1.34 1.94 2.8 3.01 4.02 1.51 1.71 2.26 3.95 4.04 5.34h7.71c.01-2.34-.4-5.15-.09-7.63.41-.22 1.42-.32 1.79-.04.31.25.46 1.82.52 2.33.08.67-.06 1.4 0 2.1.04.58.17 1.14.24 1.64.07.61.02 1.2.32 1.55.47.07 1.23.08 1.7 0-.08-1.25-.15-3.94-.28-5.53-.05-.62-.16-1.75.05-2.06.31-.46 1.52-.23 2.02-.09.25 2.31.28 5.23.66 7.68 1.78.05 3.79.09 5.83.04.48-.01 1.38-.14 1.5.32.09.35-.6 1.22-.8 1.51-.35.51-.69.94-.98 1.32-.71.94-1.43 1.64-2.12 2.51-.26.34-.44.76-.7 1.1-.49.63-1.06 1.3-1.65 1.87-.29.29-.76.47-.79.87 1.61.65 3.68 1.39 6.2 1.19 1.33-.11 2.54-1.13 3.53-1.83.49-.34.87-.83 1.36-1.05 1.98-.89 4.29-.01 5.13 1.19.25.35.72 1.65.33 2.56-.21.48-1.5 1.2-2.26.73-.26-.16-.49-.89 0-1.05.39-.13.42.34.85.36.35.02.47-.15.75-.46.03-.67-.02-1.22-.28-1.65-.41-.67-1.55-1.38-2.86-1.28-.2.99-.72 2.05-1.13 2.97-.13.3-.12.78-.52.87.01-.68.42-1.25.66-1.87.25-.62.52-1.25.71-1.92-.92.03-1.48.54-2.07 1.01-.38.3-.81.57-1.12.82-.71.53-1.61 1.18-2.64 1.33-.67.1-1.66.07-2.4 0-.76-.07-1.6-.16-2.3-.36-.83-.23-1.38-.7-2.16-.78-.64-.06-1.8-.11-2.49.05-2.19.5-4.12 1.99-6.16 2.42-2.15.46-4.5.39-6.34.05-1.7-.32-3.1-1.23-4.7-1.87-1.14-.46-2.31-.99-3.67-1.28-.83-.18-1.99-.45-3.01-.46-.6 0-1.26.11-1.83.18-.77.1-1.53.29-2.3.41 2.69.2 4.88 1.23 5.22 3.61.17 1.23-.19 1.63-.99 2.1-.3.18-1.09.51-1.17 0-.11-.63 1.29-.58 1.41-1.14-.01-1.9-.86-2.89-2.17-3.38-1.27-.47-2.61-.43-4.04-.27-.82.09-1.54.44-2.31.64-1.42.36-2.84.78-4.04 1.28-.24.1-.46.29-.71.36-.44.14-.99.21-1.55.37-2.33.66-6.14.58-7.99-.5-.43-.25-1.14-.69-.89-1.28.65-.2.85.4 1.36.69.54.31 1.38.61 2.21.68 2.19.19 4.43.11 6.01-.59-.31-.57-.76-1.12-1.17-1.74-1.15-1.7-2.57-3.37-3.81-5.07-.29-.41-.67-.77-.98-1.23-.57-.84-1.16-1.72-1.79-2.65-.2-.3-.92-1.02-.84-1.37.1-.5 1.61-.28 2.35-.28h2.72c.62-1.6.48-3.57.71-5.48.1-.8.24-1.62.33-2.42.09-.81 0-1.66.37-2.33.53-.1 1.15.06 1.79 0 .26-.4.24-1.13.24-2.01 0-.65-.14-1.88.14-2.06.58-.1 1.76.01 2.21.37zm-1.55.55c-.03 1.01-.14 2.18-.09 3.1.24.08.65.05.89 0 .08-.94.08-2.2 0-3.15-.14-.07-.75-.22-.8.05zm11.23 2.24c-.12.37.56.78.38 1.28-.09.26-.86.33-1.31.37-2.44.2-5.87-.19-8.65 0-1.09.07-3-.13-3.94.09-.07.85-.25 1.59-.24 2.51.26.13.7.05 1.03 0 .44-.5.98-1.14 1.65-1.28-.13.62-1.06.7-1.08 1.28 1.17.28 1.7-.49 2.35-1.05.41-.36.95-.85 1.46-.78-.19.39-.67.49-.99.73-.43.33-.84.73-1.18 1.14.76-.13 1.23-.77 1.78-1.19.28-.21.62-.4.89-.6.25-.18.53-.57.89-.41-.72.86-2.06 1.35-2.63 2.19.21.06.49.06.7 0 .81-.57 1.64-1.33 2.45-1.87.25-.17.57-.48.89-.36-.74.87-1.92 1.33-2.67 2.19.97.12 1.35-.57 1.92-1 .38-.28.71-.74 1.18-.64-.43.69-1.36.91-1.74 1.64 1.47.3 1.72-1.43 2.73-1.28-.29.56-1.02.69-1.32 1.23 2.33.22 4.44-.16 6.68-.18.14-.1.01-.22.04-.46.44-.27.74-1.12 1.31-.96-.25.5-.94.82-1.07 1.28.2.02.76.02 1.03-.05.11-.02 0-.24.1-.27.31-.26.62-.58.94-.87.31-.28.64-.66 1.03-.73.03.43-.52.65-.84.96-.15.14-.32.32-.47.46-.16.14-.41.29-.33.46.76-.08 1.13-.55 1.6-.96.35-.31.68-.66.89-1.01-.09-.23-.24-.41-.42-.55-.85-.1-1.72.51-2.02-.23-.16-.4 0-.9-.37-1.23-.93.03-1.77.11-2.65.15zm5.64 2.15c-.38.68-1.21.93-1.55 1.65h.47c.23-.71 1.04-.84 1.31-1.51-.07-.06-.1-.15-.23-.14zm-.66 1.6c.49-.06.94-.54 1.18-1-.45.1-.92.56-1.18 1zm.85-.09c.23.06.71.08.94 0-.1-.71-.73-.44-.94 0zm20.39.41c-.15.4-.01 1.5.04 2.19.1 1.27-.03 2.97.1 3.98.05.43.22 1.16.84.87-.07-2.24-.35-4.68-.42-7.08-.16-.04-.46-.12-.56.04zm-4.42.13c-.13.99-.02 2.24.05 3.43.08 1.38-.08 2.65.42 3.52h.66c.1-1.04-.19-2.07-.28-3.11-.11-1.33.06-2.66-.33-3.88-.13-.05-.45-.1-.52.04zm-13.29 1.65c-.42-.49-.82-.99-1.22-1.51h-.1a.42.42 0 0 0-.14.09c-1.8.01-3.5.16-5.22.23-1.78.08-3.63.29-5.59.28-3.18-.03-6.48.21-10.1.18-.16.77-.27 1.59-.28 2.51 2.13.08 4.5.05 6.72.05.68 0 1.72.15 2.3 0 .33-.09.95-.85 1.22-1.1.45-.4.75-.88 1.32-.96-.1.41-.59.68-.94 1-.36.33-.87.61-.94 1.05.93-.06 1.42-.76 1.98-1.24.28-.24.56-.49.84-.73.27-.23.56-.57.94-.59.03.37-.39.5-.61.69-.23.2-.43.45-.65.64-.5.4-1.09.71-1.32 1.24.58.06.76-.25 1.12-.55.52-.42.91-.76 1.36-1.14.2-.17.42-.54.71-.41-.1.45-.61.73-.98 1.05-.4.34-.89.6-1.18 1.01 1.62.37 1.96-.53 2.73-1.19.43-.36.95-.91 1.5-.82-.29.41-.79.6-1.18.91-.38.31-.77.67-1.04 1.1.26.09.77.05 1.04 0 .12-.04-.09-.2.05-.27.45-.28.87-.65 1.31-.96.43-.3.9-.71 1.46-.73-.65.82-1.97 1.22-2.49 2.01.71-.05 1.09-.62 1.6-.96.26-.18.51-.37.75-.55.21-.16.5-.45.8-.32-.54.78-1.6 1.03-2.16 1.78 2.28-.25 5.17.07 7.47-.18-.19-.67-.69-1.14-1.08-1.61zm3.24 4.57c-.2-.23-.39-.49-.61-.78-.19-.26-1-1.62-1.22-1.55-1.11.31-2.97.18-4.42.18-6.13 0-13.71.15-19.69.14-.1.87-.3 1.87-.28 2.7.29.1.76.02 1.13.04.25-.26.55-.47.7-.82.35-.11.45-.69.89-.55-.2.6-.86.75-1.04 1.37.61.06.82-.45 1.13-.73.31-.28.62-.69 1.08-.69-.22.63-1.1.84-1.22 1.42 1.02 0 1.16-.88 1.83-1.23.38-.34.92-1.14 1.45-1-.67.79-1.6 1.33-2.21 2.19.19.1.56.04.76 0 .08-.12-.05-.22.1-.32.35-.36.79-.66 1.22-1 .39-.32.71-.86 1.27-.87-.16.47-.72.72-1.13 1.05-.43.35-.84.74-1.18 1.14.13.09.41.03.61.04.64-.65 1.43-1.21 2.12-1.78.16-.14.41-.5.65-.28-.64.78-1.51 1.33-2.3 1.97.33.19 1.02.04 1.5.09.54-.46 1.24-.96 1.79-1.42.16-.13.35-.5.61-.27-.46.69-1.29 1-1.78 1.64.49.01 1.01.14 1.4.04.65-.16.86-1.14 1.46-.96-.06.46-.78.52-.7.96.36-.2.68-.51 1.03-.78.34-.26.65-.66 1.08-.68-.23.73-1.11.81-1.46 1.42.9.13 1.31-.62 1.83-1.1.22-.2.46-.38.66-.55.19-.17.41-.46.7-.41-.13.5-.69.74-1.04 1.05-.18.16-.34.34-.52.5-.16.15-.47.3-.42.55 1.06-.04 1.53-.67 2.11-1.19.39-.35.75-.91 1.37-.92-.62.8-1.55 1.29-2.2 2.06.64.03 1.12-.53 1.6-.91.22-.18.47-.41.7-.59.2-.16.46-.52.75-.37.06.26-.28.34-.43.46-.57.45-1.17.94-1.64 1.42.18.06.35.08.51.04.89-.16 1.58-1.45 2.4-1.51-.31.71-1.15.89-1.6 1.46 3.46.1 7.45.02 11.14.04.01-.31-.29-.49-.49-.71zM17.65 50.69c.07.1-.12.17 0 .18.01-.03.01-.05.05-.05.68-.21 1.31-.4 1.93-.68 1.36-.62 2.78-1.36 3.95-2.1.19-.13.45-.43.75-.27-.4.64-1.27.8-1.83 1.28.92-.28 1.63-.76 2.44-1.14.15.03.07.26.24.28 2.19-.37 4.18-.95 6.58-.64.34.04.78.23 1.22.32.45.1.94.15 1.31.27.56.18 1.52.8 2.11.78.54-.02.92-.63 1.36-.55-.02.55-.76.39-.89.82 1.15.26 1.88-.91 3.01-.82-.45.61-1.58.53-2.02 1.14.99-.09 1.88-.61 2.77-1.01.45-.2.89-.39 1.31-.6.41-.2.85-.54 1.32-.45-.23.37-.7.49-1.08.68-1.22.61-2.49 1.12-3.75 1.6.33.66 1.09-.04 1.64-.27.92-.4 1.73-.72 2.5-1.14.39-.22.78-.58 1.18-.46-.18.36-.64.5-.99.69-.37.2-.75.42-1.13.59-.77.35-1.68.56-2.3 1.1.55.49.93.04 1.45-.23.65-.33 1.27-.56 1.88-.82.28-.12.66-.46.94-.18-.94.68-2.36.9-3.19 1.69.66.22 1.34.43 2.21.46.63-.45 1.39-.79 2.25-1.14.77-.31 1.61-.63 2.44-.77 1.96-.86 4.17-1.55 6.2-2.33.68-.26 1.34-.73 2.02-.69-.12.38-.58.38-.89.51-2.36.94-4.95 1.89-7.28 2.79h-.42c-.9.42-1.95.79-2.82 1.19-.28.13-.72.17-.85.5.34.19.86.08 1.41.14.83-.5 2.01-.66 2.68-1.33 2.27-.89 4.83-1.7 7.09-2.6.29-.12.69-.41.99-.14-3 1.46-6.72 2.21-9.49 3.89 1.2.19 1.77-.87 2.73-.91-.03.31-.39.28-.47.55.71-.06 1.1-.45 1.65-.68-.36-.08-.57.3-.75 0 .33-.38.91-.36 1.36-.5.48-.16.95-.33 1.41-.5.92-.34 1.81-.87 2.77-.96.11.29-.32.2-.19.37h1.22c.56-.92 1.37-1.58 2.07-2.33.28-.3.5-.6.75-.92.24-.31.41-.67.66-1 .26-.35.66-.63.94-1 .85-1.16 1.83-2.15 2.48-3.43-17.76-.08-35.85-.08-53.62 0 1.95 3.37 4.5 6.17 6.77 9.23 1.06-.63 2.28-1.23 3.34-1.83.33-.19.7-.59 1.13-.41-.22.29-.64.47-1.04.68-.76.43-1.41.77-2.21 1.23-.39.22-1.45.56-.85 1.01.86-.63 1.83-1.14 2.77-1.69.74-.42 1.46-.96 2.26-1.14.1.27-.28.37-.43.46-1.5.85-3.11 1.66-4.42 2.6.49.49 1.07-.23 1.51-.46 1.34-.7 2.66-1.47 3.9-2.15.22-.12.55-.35.8-.23-.03.32-.44.38-.66.5-.25.13-.52.28-.76.41-1.2.68-2.57 1.41-3.71 2.1-.21.13-.65.24-.52.59.41.16.61-.28.84-.46 1.78-1.08 3.98-2.01 5.74-3.06.19-.12.55-.47.79-.18-1.97 1.37-4.53 2.24-6.56 3.62z" class="st10"/><path d="M24.23 31.4c.02.3-.31.48-.52.41 0-.28.28-.5.52-.41zM24.19 33.92c-.06.21-.24.42-.43.59-.32.29-.73.76-1.13.64.35-.52.92-.82 1.32-1.28.13-.04.12.07.24.05zM32.64 34.28c.02.34-.23.42-.52.46v-.27c.18-.06.27-.2.52-.19zM22.63 34.42c-.1.35-.37.55-.7.69-.02-.04-.04-.08-.09-.09.15-.29.38-.72.79-.6zM15.81 36.98c-.04.45-.45.71-.7 1-.24.28-.43.7-.85.82-.11-.31.24-.52.42-.73.31-.36.58-.76.94-1.1.07.01.13.01.19.01zM22.72 37.3c-.09.35-.49.59-.79.82-.26.2-.59.66-.94.45.38-.56 1.08-.78 1.46-1.32.11-.01.22-.01.27.05zM32.12 37.48c-.06.36-.51.6-.79.82-.27.22-.62.64-.98.46.41-.54 1.12-.8 1.55-1.32.1-.02.17 0 .22.04zM32.83 37.85c-.18.51-.67.72-1.13.96.02-.47.68-.91 1.13-.96zM54.02 42.23c-.17.29-.58.38-.89.5-.93.36-2.02.7-3.01 1.05-.49.17-.89.49-1.41.46.19-.46.86-.52 1.32-.69.5-.18 1.01-.36 1.41-.59.91-.2 1.66-.54 2.44-.87.13-.03.09.1.14.14zM54.45 42.78c-.33.43-.96.44-1.46.6-.95.3-2.01.66-3.01 1.05-.48.19-.94.49-1.45.46-.03-.33.4-.33.62-.41 1.15-.42 2.51-.92 3.8-1.32.48-.17.99-.5 1.5-.38zM24.28 43.65c1.12-.21 1.76 1.44.89 2.15-.72.59-1.98.12-1.93-.96.03-.62.46-1.08 1.04-1.19zm0 1.6c.56.24.69-.78.19-.87-.33.01-.26.62-.19.87zM46.74 44.52c.38 1.75-1.95 1.95-2.35.87-.32-.85.13-1.98 1.26-1.78.51.08.83.49 1.09.91zm-1.64.45c.23.08.38.23.65.27.77-.54-.82-1.42-.65-.27zM54.16 43.6c.09.44-.53.46-.79.55-1.68.59-3.43 1.27-5.13 1.92-.32.12-.68.27-.98.41-.29.13-.6.44-.94.27.36-.45 1.11-.67 1.74-.91 1.9-.73 4.04-1.57 5.96-2.24h.14zM31 43.74c.86-.19 1.55.07 1.69.73.54 2.43-3.23 1.92-2.58-.05.09-.27.38-.57.89-.68zm.75 1.55c.17-.1.14-.41.14-.68-.95-.75-1.57.89-.14.68zM38.85 43.74c.17-.03.32-.06.52 0 .54.17 1.22 1.45.66 2.15-.32.41-1.48.4-1.93.09-.92-.64-.14-2.11.75-2.24zm.32.78c-.49-.21-.86.54-.51.87.23-.05.54-.02.7-.14.07-.24-.03-.57-.19-.73zM55.2 44.83c-.25.36-.88.42-1.32.55-2.68.79-5.5 1.85-7.98 2.92-.42.18-.87.4-1.32.41.15-.44.69-.48 1.13-.64 2.66-1.26 6.2-2.4 9.12-3.25.05 0 .28-.21.37.01zM61.16 48.77c.16-.47.3-.23.57-.32.62-.22 1.55-.76 2.11-1.32.56-.56.67-1.42 1.27-1.97.34-.31 1.09-.41 1.17.18.09.7-.64 1.69-1.03 2.06-.67.62-2.17 1.34-3.24 1.51-.37.05-.64.07-.85-.14zm4.65-3.57c-.19-.01-.3.03-.37.09-.54.44-.7 1.23-1.18 1.83-.47.59-1.08.68-1.41 1.19 1.59-.46 2.8-1.27 3.1-2.97a.315.315 0 0 1-.14-.14zM55.81 45.34c-.34.32-.84.35-1.27.5-1.2.42-2.53.94-3.8 1.41-.85.32-1.67.66-2.49 1.01-.8.34-1.58.81-2.44.91.1-.47.78-.37 1.08-.64 2.49-1.18 5.84-2.24 8.45-3.29.14-.05.38-.07.47.1zM19.86 45.7c-.92.67-2.06 1.22-3.1 1.83-.31.18-.63.57-1.04.41.18-.3.56-.47.85-.64.92-.53 1.99-1.17 2.95-1.69.16 0 .29 0 .34.09zM69.85 47.58c-.13.86-.65 1.73-1.03 2.51-.37-.14-.02-.47.05-.64.21-.51.49-1.23.71-1.74-.03-.1.09-.06.09-.13h.18zM68.17 47.85c.06.5-.2 1.11-.43 1.6-.23.51-.53 1-.75 1.46-.02.26-.06.49-.38.46.2-1.13 1-2.13 1.31-3.38.07-.03.12-.07.14-.14h.11zM69.95 48.35c.06.02.08.08.14.09-.04.47-.25.77-.47 1.05-.4-.23.22-.82.33-1.14zM30.39 48.67c.59-.17 1.81.2 2.35.41 2.21.89 3.84 2.29 5.64 3.66 1.3.99 2.71 1.44 5.13 1.65 1.69.14 3.73.08 5.02-.23 1.04-.25 1.96-.87 2.78-1.33 1.41-.78 2.69-1.49 5.07-1.23 1.56.17 2.83 1.25 4.65 1.19a7.64 7.64 0 0 0 2.02-.36c.38-.13 1.49-.86 1.7-.27.15.48-1.13.96-1.7 1.1-.87.22-1.95.35-2.72.27-.75-.08-1.41-.4-2.07-.59-.34-.1-.7-.18-1.03-.27-.7-.21-1.59-.46-2.77-.32-.29.03-.63.14-.9.23-1.98.67-3.5 2.33-6.29 2.56-1.15.1-2.54.08-3.76 0-2.29-.16-4.13-.62-5.54-1.69-.36-.28-.74-.59-1.08-.87-.36-.29-.73-.54-1.12-.82-.78-.54-1.52-1.21-2.45-1.64-.76-.35-1.51-.56-2.54-.73-.2-.04-.71-.06-.75-.32-.06-.35.12-.33.36-.4zM67.13 48.67c.08.62-.45 1.12-.71 1.6-.1.19-.07.49-.37.5-.1-.73.73-1.32.89-2.1h.19z" class="st10"/><path d="M45.33 48.99c-.08.39-.56.55-.89.69-.68.27-1.44.51-2.12.82-.23.11-.46.34-.75.23.23-.45.82-.59 1.27-.78.8-.34 1.64-.68 2.49-.96zM66.01 49.63c.08.25-.21.48-.33.69-.32-.15-.05-.77.33-.69zM47.21 50c-1 .23-1.91 1.04-2.91.96.14-.36.76-.27.98-.55.52.02 1.09-.53 1.51-.59.13-.02.41-.13.42.18zM30.25 50v-.14c.33-.23.33.38 0 .14zM30.95 49.86c.21.14.46.98 0 .96-.04-.25-.21-.75 0-.96zM31.32 49.95h.1c.26.19.67 1.39.42 1.65-.32-.39-.49-1.11-.52-1.65zM32.26 50.23h.1c.43.52.69 1.79.66 2.47-.25-.05-.33-.38-.38-.59-.15-.64-.25-1.18-.38-1.88zM33.3 50.73c.08-.01.08.04.14.04.14 1 .5 2.24.43 3.15-.31-.17-.37-.86-.43-1.24-.1-.63-.19-1.33-.23-1.83-.03-.08.08-.05.09-.12zM33.87 51.14H34c.21 1.28.63 2.59.75 3.79-.38-.06-.3-.49-.38-.78-.2-.78-.57-1.84-.56-2.88-.01-.07.05-.07.06-.13zM34.71 51.96h.23c.19 1.16.85 2.1.85 3.29-.35-.18-.37-.73-.52-1.19-.21-.64-.46-1.23-.61-1.97-.01-.06.05-.07.05-.13zM35.84 52.56c.08-.01.08.04.14.05.09 1.04.67 1.84.75 2.74-.33.07-.33-.33-.42-.59-.16-.45-.42-1-.51-1.42-.07-.29-.1-.61.04-.78zM36.63 53.06c.28.66.67 1.45.71 2.19-.6-.41-.55-1.44-.94-2.06-.01-.05.01-.08.04-.09.05-.03.11-.04.19-.04zM37.43 53.93h.1c.31.16.35.59.52.91.11.11.31.42.04.5-.35-.33-.57-.81-.66-1.41z" class="st10"/></g></svg>