<?xml version="1.0" encoding="utf-8"?>
<!-- Generator: Adobe Illustrator 27.3.1, SVG Export Plug-In . SVG Version: 6.00 Build 0)  -->
<svg version="1.1" id="Layer_1" xmlns="http://www.w3.org/2000/svg" xmlns:xlink="http://www.w3.org/1999/xlink" x="0px" y="0px"
	 viewBox="0 0 80 80" style="enable-background:new 0 0 80 80;" xml:space="preserve">
<style type="text/css">
	.st0{fill:#021828;}
	.st1{fill:none;stroke:#FFFFFF;stroke-miterlimit:10;}
	.st2{fill:#FFFFFF;}
	.st3{opacity:0.7;fill:#021828;}
	.st4{fill:#FFFFFF;stroke:#021828;stroke-width:2;stroke-miterlimit:10;}
	.st5{fill-rule:evenodd;clip-rule:evenodd;fill:#FFFFFF;stroke:#021828;stroke-width:2;stroke-miterlimit:10;}
	.st6{fill:#EC00BA;}
	.st7{fill:#009520;}
	.st8{fill:#FAFCFB;}
	.st9{fill:#FF0000;}
	.st10{fill-rule:evenodd;clip-rule:evenodd;fill:#1779FF;}
	.st11{opacity:0.8;}
	.st12{fill-rule:evenodd;clip-rule:evenodd;fill:#FFFFFF;}
	.st13{fill:none;stroke:#6B7479;stroke-miterlimit:10;}
	.st14{fill:none;stroke:#6B7479;stroke-miterlimit:10;stroke-dasharray:11.9916,5.9958;}
	.st15{fill:none;stroke:#6B7479;stroke-miterlimit:10;stroke-dasharray:12.0398,6.0199;}
	.st16{fill:#BFC4CC;}
	.st17{fill:#837579;}
	.st18{fill:#CCCCCC;}
	.st19{fill:#E6E6E6;}
	.st20{fill:#B8B8B8;}
	.st21{fill:#5F5F5F;}
	.st22{fill:#9D9D9D;}
	.st23{fill:#518FE8;}
	.st24{fill:#65BBFF;}
	.st25{fill:#165F9F;}
	.st26{fill:#87D0E0;}
	.st27{fill:#C9974B;}
	.st28{fill:#EBC26C;}
	.st29{fill:#AB7835;}
	.st30{fill:#965A2C;}
	.st31{fill:#F2E5DA;}
	.st32{fill:#F1C33A;}
	.st33{fill:#FFE057;}
	.st34{fill:#F7900B;}
	.st35{fill:#1F4094;}
	.st36{fill:#1B47B6;}
	.st37{fill:#3F72E9;}
	.st38{fill:#6B9DED;}
	.st39{fill:#2750B8;}
	.st40{fill:#133BA1;}
	.st41{fill-rule:evenodd;clip-rule:evenodd;fill:#010007;}
	.st42{fill-rule:evenodd;clip-rule:evenodd;fill:#18171D;}
	.st43{fill-rule:evenodd;clip-rule:evenodd;}
	.st44{fill-rule:evenodd;clip-rule:evenodd;fill:#2E2D30;}
	.st45{fill-rule:evenodd;clip-rule:evenodd;fill:#1B1B1F;}
	.st46{fill-rule:evenodd;clip-rule:evenodd;fill:#3B3B3B;}
	.st47{fill-rule:evenodd;clip-rule:evenodd;fill:#F0982F;}
	.st48{fill-rule:evenodd;clip-rule:evenodd;fill:#C35719;}
	.st49{fill-rule:evenodd;clip-rule:evenodd;fill:#9E470F;}
	.st50{fill-rule:evenodd;clip-rule:evenodd;fill:#B35014;}
	.st51{fill-rule:evenodd;clip-rule:evenodd;fill:#BF5517;}
	.st52{fill:#B35014;}
	.st53{fill:#F7BB06;}
	.st54{fill:#1E1E1E;}
	.st55{fill:#393939;}
	.st56{fill:#0E0E0E;}
	.st57{fill:#151515;}
	.st58{fill:#838383;}
	.st59{fill:#51341F;}
	.st60{fill:#2B160D;}
	.st61{fill:#7E583C;}
	.st62{fill:#3F2614;}
	.st63{fill:#604029;}
	.st64{fill:#1B1B1B;}
	.st65{fill:#2A2A2A;}
	.st66{fill:#940000;}
	.st67{fill:#541D12;}
	.st68{fill:#7A0000;}
	.st69{fill:#F1BC95;}
	.st70{fill:#EC762D;}
	.st71{fill:#E6BDB3;}
	.st72{fill:#FF8537;}
	.st73{fill:#D16824;}
	.st74{fill:#D18D6D;}
	.st75{fill:#C77752;}
	.st76{fill:#DEB08A;}
	.st77{fill:#F0B88F;}
	.st78{fill:#DF9876;}
	.st79{fill:#4F2900;}
	.st80{fill:#422200;}
	.st81{fill:#703A00;}
	.st82{fill:#272727;}
	.st83{fill:#FFB700;}
	.st84{fill-rule:evenodd;clip-rule:evenodd;fill:#CECECE;}
	.st85{fill-rule:evenodd;clip-rule:evenodd;fill:#A19E9C;}
	.st86{fill-rule:evenodd;clip-rule:evenodd;fill:#7C7774;}
	.st87{fill:#DD9100;}
	.st88{fill:#F77211;}
	.st89{fill:#1D1D1D;}
	.st90{fill:#C97735;}
	.st91{fill:#BC5705;}
	.st92{fill:#BD4D00;}
	.st93{fill:#E07705;}
	.st94{fill:#E09C05;}
	.st95{fill:#EDA94D;}
	.st96{fill:#916C28;}
	.st97{fill:#636363;}
	.st98{fill:#888888;}
	.st99{fill:#4A4A4A;}
	.st100{fill:#BFBFBF;}
	.st101{fill:#0F0F0F;}
	.st102{fill:#D8E2EC;}
	.st103{fill:#ADC2D7;}
	.st104{fill:#6D6D6D;}
	.st105{fill:#D6B163;}
	.st106{fill:#91693A;}
	.st107{fill:#B78841;}
	.st108{fill:#7D5129;}
	.st109{fill:#613F1F;}
	.st110{fill:#996232;}
	.st111{fill:#AD7E45;}
	.st112{fill:#471D1D;}
	.st113{fill:#DAB697;}
	.st114{fill:#BF8937;}
	.st115{fill:#C2BFB4;}
	.st116{fill:#FFDC91;}
	.st117{fill:#D6AC54;}
	.st118{fill:#B39876;}
	.st119{fill:#C9C9C9;}
	.st120{fill:#EBEBEB;}
	.st121{fill:#ABABAB;}
	.st122{fill:#125200;}
	.st123{fill:#11FF00;}
	.st124{fill:#94000A;}
	.st125{fill:#F91F43;}
	.st126{fill:#868686;}
	.st127{fill:#BA6900;}
	.st128{fill:#DE9A23;}
	.st129{fill:#F87F12;}
	.st130{fill:#C7C7C7;}
	.st131{fill:#3D3D3D;}
	.st132{fill:#451803;}
	.st133{fill:#541D04;}
	.st134{fill:#690000;}
	.st135{fill:#F2F2F2;}
	.st136{fill:#C2C2C2;}
	.st137{fill:#A7A7A7;}
	.st138{fill:#A3A3A3;}
	.st139{fill:#373737;}
	.st140{fill:#4E4E4E;}
	.st141{fill:#C3C3C3;}
	.st142{fill:#0A0A0A;}
	.st143{fill:#2A8DDE;}
	.st144{fill:#0262C2;}
	.st145{fill:#2D2D2D;}
	.st146{fill:#414141;}
	.st147{fill:#B7B7B7;}
	.st148{fill:#8895C7;}
	.st149{fill:#98B3E6;}
	.st150{fill:#ABCEFF;}
	.st151{fill:#046DBA;}
	.st152{fill:#2A5275;}
	.st153{fill:#31618A;}
	.st154{fill:#998385;}
	.st155{fill:#D1C9CA;}
	.st156{fill:#7E898D;}
	.st157{fill:#545354;}
	.st158{fill:#CF1F30;}
	.st159{fill:#002D54;}
	.st160{fill:url(#SVGID_00000155148249029666428250000008787009320927783603_);}
	.st161{fill:#D3C9CA;}
	.st162{fill:#14375E;}
	.st163{fill:#BCAEAF;}
	.st164{fill:#A3B5C9;}
	.st165{fill:#8F8F8F;}
	.st166{fill:#6485AC;}
	.st167{fill:#7DA6D6;}
	.st168{fill:#746872;}
	.st169{fill:#EBE7E7;}
	.st170{fill:#73757D;}
	.st171{fill:#38363A;}
	.st172{fill:#696969;}
	.st173{fill:url(#SVGID_00000105393248595027578630000002126280685849098114_);}
	.st174{fill:url(#SVGID_00000029004096418259502550000002435565653923805873_);}
	.st175{fill:#B1B1B1;}
	.st176{fill:#41313E;}
	.st177{fill:#E64958;}
	.st178{fill:#BF3737;}
	.st179{fill:#FE8B95;}
	.st180{fill:#E06969;}
	.st181{fill:url(#SVGID_00000097472809731078117490000003644251001903713157_);}
	.st182{fill:#E0E0E0;}
	.st183{fill:url(#SVGID_00000115502752570635617090000002892947353363873664_);}
	.st184{fill:#3B4345;}
	.st185{fill:#C06262;}
	.st186{fill:#C16767;}
	.st187{fill:#C26D6D;}
	.st188{fill:#C27272;}
	.st189{fill:#C37878;}
	.st190{fill:#C47D7D;}
	.st191{fill:#C58383;}
	.st192{fill:#C68888;}
	.st193{fill:#C68E8E;}
	.st194{fill:#C79393;}
	.st195{fill:#C89999;}
	.st196{fill:#C99E9E;}
	.st197{fill:#C9A4A4;}
	.st198{fill:#CAA9A9;}
	.st199{fill:#CBAFAF;}
	.st200{fill:#CCB4B4;}
	.st201{fill:#CDBABA;}
	.st202{fill:#CDBFBF;}
	.st203{fill:#CEC5C5;}
	.st204{fill:#CFCACA;}
	.st205{fill:#313131;}
	.st206{fill:#1F1F1F;}
	.st207{fill:#3B3B3B;}
	.st208{fill:#727272;}
	.st209{fill:#A9A9A9;}
	.st210{fill:#E9EAE7;}
	.st211{fill:#737373;}
	.st212{fill:#949494;}
	.st213{fill:#575757;}
	.st214{fill:#CDCDCD;}
	.st215{fill:#DCDED9;}
	.st216{fill:#181818;}
	.st217{fill:#252525;}
	.st218{fill:#5C5C5C;}
	.st219{fill:#7E7E7E;}
	.st220{fill:#424242;}
	.st221{fill:#585858;}
	.st222{fill:#4F4F4F;}
	.st223{fill:#FFE72A;}
	.st224{fill:#FCAB2A;}
	.st225{fill:#EFA12A;}
	.st226{fill:#CD8732;}
	.st227{fill:#FFBD29;}
	.st228{fill:#F6A629;}
	.st229{fill:#0D0D0D;}
	.st230{fill:#1A1A1A;}
	.st231{fill:#6C6C6C;}
	.st232{fill:#404040;}
	.st233{fill:#676767;}
	.st234{fill:#92978D;}
	.st235{fill:#73796C;}
	.st236{fill:#C5CAD8;}
	.st237{fill:#CCD1DE;}
	.st238{fill:#2E2E2E;}
	.st239{fill:#ABB2B2;}
	.st240{fill:#616161;}
	.st241{fill:#131313;}
	.st242{fill:#C0FFFF;}
	.st243{fill:url(#SVGID_00000036244232011910820890000010077384096635074968_);}
	.st244{fill:#65818A;}
	.st245{fill:#A6DDFF;}
	.st246{fill:url(#SVGID_00000173852319685648779220000002994344929571729829_);}
	.st247{clip-path:url(#SVGID_00000153677576413597503350000015781466130632278689_);}
	.st248{clip-path:url(#SVGID_00000153677576413597503350000015781466130632278689_);fill:#1F1F1F;}
	.st249{clip-path:url(#SVGID_00000153677576413597503350000015781466130632278689_);fill:#2A2A2A;}
	.st250{clip-path:url(#SVGID_00000153677576413597503350000015781466130632278689_);fill:#1D1D1D;}
	.st251{clip-path:url(#SVGID_00000153677576413597503350000015781466130632278689_);fill:#3B3B3B;}
	.st252{clip-path:url(#SVGID_00000153677576413597503350000015781466130632278689_);fill:#727272;}
	.st253{clip-path:url(#SVGID_00000153677576413597503350000015781466130632278689_);fill:#A9A9A9;}
	.st254{clip-path:url(#SVGID_00000153677576413597503350000015781466130632278689_);fill:#E9EAE7;}
	.st255{clip-path:url(#SVGID_00000153677576413597503350000015781466130632278689_);fill:#737373;}
	.st256{clip-path:url(#SVGID_00000153677576413597503350000015781466130632278689_);fill:#949494;}
	.st257{clip-path:url(#SVGID_00000153677576413597503350000015781466130632278689_);fill:#CDCDCD;}
	.st258{clip-path:url(#SVGID_00000153677576413597503350000015781466130632278689_);fill:#DCDED9;}
	.st259{clip-path:url(#SVGID_00000153677576413597503350000015781466130632278689_);fill:#E0E0E0;}
	.st260{fill:#212121;}
	.st261{fill:#EA7C00;}
	.st262{fill:#666666;}
	.st263{fill:#E3EAF5;}
	.st264{fill:#BDC3D6;}
	.st265{fill:#D8DDE8;}
	.st266{fill:#6F94A3;}
	.st267{fill:#D5D5D5;}
	.st268{fill:url(#SVGID_00000165931351533702171850000013695052793104662944_);}
	.st269{fill:url(#SVGID_00000101822043780169996970000005270677746660456086_);}
	.st270{fill:#DA5400;}
	.st271{fill:#FFB345;}
	.st272{fill:#111111;}
	.st273{fill:#242424;}
	.st274{fill:#030303;}
	.st275{fill:#161714;}
	.st276{fill:#FF8D31;}
	.st277{fill:#454545;}
	.st278{fill:#606666;}
	.st279{fill:#FFF2D1;}
	.st280{fill:url(#SVGID_00000145034314181044226860000004414444291039489156_);}
	.st281{fill:#42413D;}
	.st282{fill:#949491;}
	.st283{fill:#6A6869;}
	.st284{fill:#EBEAE5;}
	.st285{fill:#9A998E;}
	.st286{fill:#7B7B6D;}
	.st287{fill:#727071;}
	.st288{fill:#AEAEAE;}
	.st289{fill:#D1EBEE;}
	.st290{fill:#829AA9;}
	.st291{fill:url(#SVGID_00000160882687840002777410000014946106101739571082_);}
	.st292{fill:url(#SVGID_00000156576016616048311480000005710786460346607010_);}
	.st293{fill:#1C1C1A;}
	.st294{fill:#555454;}
	.st295{fill:#767576;}
	.st296{fill:url(#SVGID_00000063620791258853289790000015870112922461755570_);}
	.st297{fill:#DB3400;}
	.st298{fill:#040404;}
	.st299{fill:#20211E;}
	.st300{clip-path:url(#SVGID_00000035491012083362985650000009337896234562682296_);}
	.st301{clip-path:url(#SVGID_00000035491012083362985650000009337896234562682296_);fill:#1F1F1F;}
	.st302{clip-path:url(#SVGID_00000035491012083362985650000009337896234562682296_);fill:#2A2A2A;}
	.st303{clip-path:url(#SVGID_00000035491012083362985650000009337896234562682296_);fill:#1D1D1D;}
	.st304{clip-path:url(#SVGID_00000035491012083362985650000009337896234562682296_);fill:#3B3B3B;}
	.st305{clip-path:url(#SVGID_00000035491012083362985650000009337896234562682296_);fill:#727272;}
	.st306{clip-path:url(#SVGID_00000035491012083362985650000009337896234562682296_);fill:#A9A9A9;}
	.st307{clip-path:url(#SVGID_00000035491012083362985650000009337896234562682296_);fill:#E9EAE7;}
	.st308{clip-path:url(#SVGID_00000035491012083362985650000009337896234562682296_);fill:#4D4D4D;}
	.st309{clip-path:url(#SVGID_00000035491012083362985650000009337896234562682296_);fill:#949494;}
	.st310{clip-path:url(#SVGID_00000035491012083362985650000009337896234562682296_);fill:#DCDED9;}
	.st311{clip-path:url(#SVGID_00000035491012083362985650000009337896234562682296_);fill:#C4C4C4;}
	.st312{fill:#8C4D00;}
	.st313{fill:#135E00;}
	.st314{fill:#C7C6C4;}
	.st315{clip-path:url(#SVGID_00000132790132067774877250000004756274649331358359_);fill:#1D1D1D;}
	.st316{clip-path:url(#SVGID_00000132790132067774877250000004756274649331358359_);}
	.st317{clip-path:url(#SVGID_00000132790132067774877250000004756274649331358359_);fill:#1F1F1F;}
	.st318{clip-path:url(#SVGID_00000132790132067774877250000004756274649331358359_);fill:#2A2A2A;}
	.st319{clip-path:url(#SVGID_00000132790132067774877250000004756274649331358359_);fill:#3B3B3B;}
	.st320{clip-path:url(#SVGID_00000132790132067774877250000004756274649331358359_);fill:#727272;}
	.st321{clip-path:url(#SVGID_00000132790132067774877250000004756274649331358359_);fill:#A9A9A9;}
	.st322{clip-path:url(#SVGID_00000132790132067774877250000004756274649331358359_);fill:#E9EAE7;}
	.st323{clip-path:url(#SVGID_00000132790132067774877250000004756274649331358359_);fill:#4D4D4D;}
	.st324{clip-path:url(#SVGID_00000132790132067774877250000004756274649331358359_);fill:#949494;}
	.st325{clip-path:url(#SVGID_00000132790132067774877250000004756274649331358359_);fill:#DCDED9;}
	.st326{clip-path:url(#SVGID_00000132790132067774877250000004756274649331358359_);fill:#C4C4C4;}
	.st327{fill:#4A4A45;}
	.st328{fill:#363631;}
	.st329{fill:url(#SVGID_00000059304706871703931260000005849941529219731077_);}
	.st330{fill:#C59A08;}
	.st331{fill:#FFDC14;}
	.st332{fill:#FFF013;}
	.st333{fill:#FFDD26;}
	.st334{fill:#5A5858;}
	.st335{fill:#EDFF4D;}
	.st336{fill:#8D8B8B;}
	.st337{fill:#146194;}
	.st338{fill:#8D9DAF;}
	.st339{fill:#C3CDD9;}
	.st340{fill:#728599;}
	.st341{fill:#A7B4C4;}
	.st342{fill:#FDFFF8;}
	.st343{fill:#D1A202;}
	.st344{fill:#F1BD00;}
	.st345{fill:#FBC605;}
	.st346{fill:#FFDF17;}
	.st347{fill:#E7EBF0;}
	.st348{fill:#CCD8E3;}
	.st349{fill:#FAFDFF;}
	.st350{fill:#BCC6D1;}
	.st351{fill:#4D7185;}
	.st352{fill:#95B4C6;}
	.st353{fill:#FFD60D;}
	.st354{fill:#456475;}
	.st355{fill:#9DC2FF;}
	.st356{fill:#E0E8EF;}
	.st357{fill:#4BC7B6;}
	.st358{fill:#22A896;}
	.st359{fill:#FCC201;}
	.st360{fill:#B28A01;}
	.st361{fill:#BA7D01;}
	.st362{fill:#835B09;}
	.st363{fill:#C89A00;}
	.st364{fill:#AC7300;}
	.st365{fill:#C9011F;}
	.st366{fill:#7F0113;}
	.st367{fill:#720111;}
	.st368{fill:#50060E;}
	.st369{fill:#950016;}
	.st370{fill:#790012;}
	.st371{fill:#018ADF;}
	.st372{fill:#015B95;}
	.st373{fill:#015388;}
	.st374{fill:#073E66;}
	.st375{fill:#0069AB;}
	.st376{fill:#00588F;}
	.st377{fill:#8C8C8C;}
	.st378{fill:#E8E8E8;}
	.st379{fill:#001929;}
	.st380{fill:#612F00;}
	.st381{fill:#290100;}
	.st382{fill:#282828;}
	.st383{fill:#7A1400;}
	.st384{fill:#B10A0A;}
	.st385{fill:#C41A1A;}
	.st386{fill:#2C2C2C;}
	.st387{fill:#595959;}
	.st388{fill:url(#SVGID_00000016790351638579275410000012856267966942284206_);}
	.st389{fill:#A89A97;}
	.st390{fill:url(#SVGID_00000085247156039944609140000010748511789622721430_);}
	.st391{fill:#CB7C00;}
	.st392{fill:#802307;}
	.st393{fill:#BB5900;}
	.st394{fill:#CE7E00;}
	.st395{fill:#DC9200;}
	.st396{fill:#913108;}
	.st397{fill:#CD6F00;}
	.st398{fill:#DF9400;}
	.st399{fill:#FFBD2E;}
	.st400{fill:#FCA000;}
	.st401{fill:#FFA200;}
	.st402{fill:#FC8300;}
	.st403{fill:#ED7700;}
	.st404{fill:#B1350A;}
	.st405{fill:#D66F00;}
	.st406{fill:#D16B00;}
	.st407{fill:#7D7D7D;}
	.st408{fill:url(#SVGID_00000065775652924319812570000008724449058661992069_);}
	.st409{fill:url(#SVGID_00000015332201726960068680000006073574113016864412_);}
	.st410{fill:#3F3F3F;}
	.st411{fill:url(#SVGID_00000124878045308446295310000017624457766366109357_);}
	.st412{fill:url(#SVGID_00000183935516710040587900000009596206548136997779_);}
	.st413{fill:url(#SVGID_00000035489631955368957840000004686327675718589835_);}
	.st414{fill:url(#SVGID_00000073697777018475303940000014825084500716482716_);}
	.st415{fill:url(#SVGID_00000125585366309782003580000006589699359161115535_);}
	.st416{fill:#542700;}
	.st417{fill:#954A00;}
	.st418{fill:#FC9120;}
	.st419{fill:#F99801;}
	.st420{fill:#DCDCDC;}
	.st421{fill:#FEFEFE;}
	.st422{fill:#D61D00;}
	.st423{fill:#292929;}
	.st424{fill:#434343;}
	.st425{fill:#4B4B4B;}
	.st426{fill:#2E2A25;}
	.st427{fill:url(#SVGID_00000146480578459681362220000001007261249177392785_);}
	.st428{fill:url(#SVGID_00000014605801609168666860000000078167596987791781_);}
	.st429{fill:url(#SVGID_00000142870463881266247140000015891879876936797582_);}
	.st430{fill:#1A1815;}
	.st431{fill:url(#SVGID_00000016052747092802398200000010734663890259605655_);}
	.st432{fill:url(#SVGID_00000123404438657191424190000007242776938392535483_);}
	.st433{fill:url(#SVGID_00000059270643135527660880000014924786122259456183_);}
	.st434{clip-path:url(#SVGID_00000167370123796587022860000013240021020522746529_);}
	.st435{clip-path:url(#SVGID_00000167370123796587022860000013240021020522746529_);fill:#1F1F1F;}
	.st436{clip-path:url(#SVGID_00000167370123796587022860000013240021020522746529_);fill:#2A2A2A;}
	.st437{clip-path:url(#SVGID_00000167370123796587022860000013240021020522746529_);fill:#1D1D1D;}
	.st438{clip-path:url(#SVGID_00000167370123796587022860000013240021020522746529_);fill:#3B3B3B;}
	.st439{clip-path:url(#SVGID_00000167370123796587022860000013240021020522746529_);fill:#727272;}
	.st440{clip-path:url(#SVGID_00000167370123796587022860000013240021020522746529_);fill:#A9A9A9;}
	.st441{clip-path:url(#SVGID_00000167370123796587022860000013240021020522746529_);fill:#E9EAE7;}
	.st442{clip-path:url(#SVGID_00000167370123796587022860000013240021020522746529_);fill:#737373;}
	.st443{clip-path:url(#SVGID_00000167370123796587022860000013240021020522746529_);fill:#949494;}
	.st444{clip-path:url(#SVGID_00000167370123796587022860000013240021020522746529_);fill:#CDCDCD;}
	.st445{clip-path:url(#SVGID_00000167370123796587022860000013240021020522746529_);fill:#DCDED9;}
	.st446{clip-path:url(#SVGID_00000167370123796587022860000013240021020522746529_);fill:#E0E0E0;}
	.st447{fill:url(#SVGID_00000062898182633950536000000013743530434675310493_);}
	.st448{fill:url(#SVGID_00000011740789077099969190000011151907075483645090_);}
	.st449{fill:url(#SVGID_00000075865379920645413630000002025341393387032450_);}
	.st450{fill:#0EB0E6;}
	.st451{fill:#0085B3;}
	.st452{fill:#FF2727;}
	.st453{fill:#FF8A8A;}
	.st454{fill:#222222;}
	.st455{fill:#161616;}
	.st456{fill-rule:evenodd;clip-rule:evenodd;fill:#0D5CB8;}
	.st457{fill-rule:evenodd;clip-rule:evenodd;fill:#1155A6;}
	.st458{fill-rule:evenodd;clip-rule:evenodd;fill:#00499E;}
	.st459{fill-rule:evenodd;clip-rule:evenodd;fill:#2577D9;}
	.st460{fill-rule:evenodd;clip-rule:evenodd;fill:#2F2F2F;}
	.st461{fill:#2B2B2B;}
	.st462{fill-rule:evenodd;clip-rule:evenodd;fill:#1D1D1D;}
	.st463{fill-rule:evenodd;clip-rule:evenodd;fill:#808080;}
	.st464{fill-rule:evenodd;clip-rule:evenodd;fill:#A1A1A1;}
	.st465{fill-rule:evenodd;clip-rule:evenodd;fill:#666666;}
	.st466{fill-rule:evenodd;clip-rule:evenodd;fill:#525252;}
	.st467{fill:#6E6E6E;}
	.st468{fill-rule:evenodd;clip-rule:evenodd;fill:#B3B3B3;}
	.st469{fill:#703918;}
	.st470{fill:#A3632E;}
	.st471{fill:#CF9742;}
	.st472{fill:#BF926D;}
	.st473{fill:#E8AC51;}
	.st474{fill:#8F491E;}
	.st475{fill-rule:evenodd;clip-rule:evenodd;fill:#D4D4D4;}
	.st476{fill:#B66828;}
	.st477{fill:#824A1D;}
	.st478{fill:#808080;}
	.st479{fill:#A1A1A1;}
	.st480{fill:#27A427;}
	.st481{fill:#084D08;}
	.st482{fill:#0069A2;}
</style>
<g class="st11">
	<path class="st10" d="M18.59,25.05c0.11,1.12,0.02,2.42,0.04,3.61c2.75,0.13,6.31,0.21,9.03-0.04c0.03-0.53-0.54-0.82-0.28-1.32
		c0.22-0.43,1.34-0.23,2.11-0.28c0.48-0.03,1.55-0.26,1.97,0c0.54,0.32,0.2,1.07,0.61,1.46c0.47,0.12,1.18-0.17,1.51-0.09
		c0.32,0.08,0.83,0.86,1.13,1.23c1.06,1.34,1.94,2.8,3.01,4.02c1.51,1.71,2.26,3.95,4.04,5.34c2.57,0,5.14,0,7.71,0
		c0.01-2.34-0.4-5.15-0.09-7.63c0.41-0.22,1.42-0.32,1.79-0.04c0.31,0.25,0.46,1.82,0.52,2.33c0.08,0.67-0.06,1.4,0,2.1
		c0.04,0.58,0.17,1.14,0.24,1.64c0.07,0.61,0.02,1.2,0.32,1.55c0.47,0.07,1.23,0.08,1.7,0c-0.08-1.25-0.15-3.94-0.28-5.53
		c-0.05-0.62-0.16-1.75,0.05-2.06c0.31-0.46,1.52-0.23,2.02-0.09c0.25,2.31,0.28,5.23,0.66,7.68c1.78,0.05,3.79,0.09,5.83,0.04
		c0.48-0.01,1.38-0.14,1.5,0.32c0.09,0.35-0.6,1.22-0.8,1.51c-0.35,0.51-0.69,0.94-0.98,1.32c-0.71,0.94-1.43,1.64-2.12,2.51
		c-0.26,0.34-0.44,0.76-0.7,1.1c-0.49,0.63-1.06,1.3-1.65,1.87c-0.29,0.29-0.76,0.47-0.79,0.87c1.61,0.65,3.68,1.39,6.2,1.19
		c1.33-0.11,2.54-1.13,3.53-1.83c0.49-0.34,0.87-0.83,1.36-1.05c1.98-0.89,4.29-0.01,5.13,1.19c0.25,0.35,0.72,1.65,0.33,2.56
		c-0.21,0.48-1.5,1.2-2.26,0.73c-0.26-0.16-0.49-0.89,0-1.05c0.39-0.13,0.42,0.34,0.85,0.36c0.35,0.02,0.47-0.15,0.75-0.46
		c0.03-0.67-0.02-1.22-0.28-1.65c-0.41-0.67-1.55-1.38-2.86-1.28c-0.2,0.99-0.72,2.05-1.13,2.97c-0.13,0.3-0.12,0.78-0.52,0.87
		c0.01-0.68,0.42-1.25,0.66-1.87c0.25-0.62,0.52-1.25,0.71-1.92c-0.92,0.03-1.48,0.54-2.07,1.01c-0.38,0.3-0.81,0.57-1.12,0.82
		c-0.71,0.53-1.61,1.18-2.64,1.33c-0.67,0.1-1.66,0.07-2.4,0c-0.76-0.07-1.6-0.16-2.3-0.36c-0.83-0.23-1.38-0.7-2.16-0.78
		c-0.64-0.06-1.8-0.11-2.49,0.05c-2.19,0.5-4.12,1.99-6.16,2.42c-2.15,0.46-4.5,0.39-6.34,0.05c-1.7-0.32-3.1-1.23-4.7-1.87
		c-1.14-0.46-2.31-0.99-3.67-1.28c-0.83-0.18-1.99-0.45-3.01-0.46c-0.6,0-1.26,0.11-1.83,0.18c-0.77,0.1-1.53,0.29-2.3,0.41
		c2.69,0.2,4.88,1.23,5.22,3.61c0.17,1.23-0.19,1.63-0.99,2.1c-0.3,0.18-1.09,0.51-1.17,0c-0.11-0.63,1.29-0.58,1.41-1.14
		c-0.01-1.9-0.86-2.89-2.17-3.38c-1.27-0.47-2.61-0.43-4.04-0.27c-0.82,0.09-1.54,0.44-2.31,0.64c-1.42,0.36-2.84,0.78-4.04,1.28
		c-0.24,0.1-0.46,0.29-0.71,0.36c-0.44,0.14-0.99,0.21-1.55,0.37c-2.33,0.66-6.14,0.58-7.99-0.5c-0.43-0.25-1.14-0.69-0.89-1.28
		c0.65-0.2,0.85,0.4,1.36,0.69c0.54,0.31,1.38,0.61,2.21,0.68c2.19,0.19,4.43,0.11,6.01-0.59c-0.31-0.57-0.76-1.12-1.17-1.74
		c-1.15-1.7-2.57-3.37-3.81-5.07c-0.29-0.41-0.67-0.77-0.98-1.23c-0.57-0.84-1.16-1.72-1.79-2.65c-0.2-0.3-0.92-1.02-0.84-1.37
		c0.1-0.5,1.61-0.28,2.35-0.28c0.89,0,1.83,0,2.72,0c0.62-1.6,0.48-3.57,0.71-5.48c0.1-0.8,0.24-1.62,0.33-2.42
		c0.09-0.81,0-1.66,0.37-2.33c0.53-0.1,1.15,0.06,1.79,0c0.26-0.4,0.24-1.13,0.24-2.01c0-0.65-0.14-1.88,0.14-2.06
		C16.96,24.58,18.14,24.69,18.59,25.05z M17.04,25.6c-0.03,1.01-0.14,2.18-0.09,3.1c0.24,0.08,0.65,0.05,0.89,0
		c0.08-0.94,0.08-2.2,0-3.15C17.7,25.48,17.09,25.33,17.04,25.6z M28.27,27.84c-0.12,0.37,0.56,0.78,0.38,1.28
		c-0.09,0.26-0.86,0.33-1.31,0.37c-2.44,0.2-5.87-0.19-8.65,0c-1.09,0.07-3-0.13-3.94,0.09c-0.07,0.85-0.25,1.59-0.24,2.51
		c0.26,0.13,0.7,0.05,1.03,0c0.44-0.5,0.98-1.14,1.65-1.28c-0.13,0.62-1.06,0.7-1.08,1.28c1.17,0.28,1.7-0.49,2.35-1.05
		c0.41-0.36,0.95-0.85,1.46-0.78c-0.19,0.39-0.67,0.49-0.99,0.73c-0.43,0.33-0.84,0.73-1.18,1.14c0.76-0.13,1.23-0.77,1.78-1.19
		c0.28-0.21,0.62-0.4,0.89-0.6c0.25-0.18,0.53-0.57,0.89-0.41c-0.72,0.86-2.06,1.35-2.63,2.19c0.21,0.06,0.49,0.06,0.7,0
		c0.81-0.57,1.64-1.33,2.45-1.87c0.25-0.17,0.57-0.48,0.89-0.36c-0.74,0.87-1.92,1.33-2.67,2.19c0.97,0.12,1.35-0.57,1.92-1
		c0.38-0.28,0.71-0.74,1.18-0.64c-0.43,0.69-1.36,0.91-1.74,1.64c1.47,0.3,1.72-1.43,2.73-1.28c-0.29,0.56-1.02,0.69-1.32,1.23
		c2.33,0.22,4.44-0.16,6.68-0.18c0.14-0.1,0.01-0.22,0.04-0.46c0.44-0.27,0.74-1.12,1.31-0.96c-0.25,0.5-0.94,0.82-1.07,1.28
		c0.2,0.02,0.76,0.02,1.03-0.05c0.11-0.02,0-0.24,0.1-0.27c0.31-0.26,0.62-0.58,0.94-0.87c0.31-0.28,0.64-0.66,1.03-0.73
		c0.03,0.43-0.52,0.65-0.84,0.96c-0.15,0.14-0.32,0.32-0.47,0.46c-0.16,0.14-0.41,0.29-0.33,0.46c0.76-0.08,1.13-0.55,1.6-0.96
		c0.35-0.31,0.68-0.66,0.89-1.01c-0.09-0.23-0.24-0.41-0.42-0.55c-0.85-0.1-1.72,0.51-2.02-0.23c-0.16-0.4,0-0.9-0.37-1.23
		C29.99,27.72,29.15,27.8,28.27,27.84z M33.91,29.99c-0.38,0.68-1.21,0.93-1.55,1.65c0.16,0,0.31,0,0.47,0
		c0.23-0.71,1.04-0.84,1.31-1.51C34.07,30.07,34.04,29.98,33.91,29.99z M33.25,31.59c0.49-0.06,0.94-0.54,1.18-1
		C33.98,30.69,33.51,31.15,33.25,31.59z M34.1,31.5c0.23,0.06,0.71,0.08,0.94,0C34.94,30.79,34.31,31.06,34.1,31.5z M54.49,31.91
		c-0.15,0.4-0.01,1.5,0.04,2.19c0.1,1.27-0.03,2.97,0.1,3.98c0.05,0.43,0.22,1.16,0.84,0.87c-0.07-2.24-0.35-4.68-0.42-7.08
		C54.89,31.83,54.59,31.75,54.49,31.91z M50.07,32.04c-0.13,0.99-0.02,2.24,0.05,3.43c0.08,1.38-0.08,2.65,0.42,3.52
		c0.22,0,0.44,0,0.66,0c0.1-1.04-0.19-2.07-0.28-3.11c-0.11-1.33,0.06-2.66-0.33-3.88C50.46,31.95,50.14,31.9,50.07,32.04z
		 M36.78,33.69c-0.42-0.49-0.82-0.99-1.22-1.51c-0.04,0-0.07,0-0.1,0c-0.05,0.02-0.1,0.05-0.14,0.09c-1.8,0.01-3.5,0.16-5.22,0.23
		c-1.78,0.08-3.63,0.29-5.59,0.28c-3.18-0.03-6.48,0.21-10.1,0.18c-0.16,0.77-0.27,1.59-0.28,2.51c2.13,0.08,4.5,0.05,6.72,0.05
		c0.68,0,1.72,0.15,2.3,0c0.33-0.09,0.95-0.85,1.22-1.1c0.45-0.4,0.75-0.88,1.32-0.96c-0.1,0.41-0.59,0.68-0.94,1
		c-0.36,0.33-0.87,0.61-0.94,1.05c0.93-0.06,1.42-0.76,1.98-1.24c0.28-0.24,0.56-0.49,0.84-0.73c0.27-0.23,0.56-0.57,0.94-0.59
		c0.03,0.37-0.39,0.5-0.61,0.69c-0.23,0.2-0.43,0.45-0.65,0.64c-0.5,0.4-1.09,0.71-1.32,1.24c0.58,0.06,0.76-0.25,1.12-0.55
		c0.52-0.42,0.91-0.76,1.36-1.14c0.2-0.17,0.42-0.54,0.71-0.41c-0.1,0.45-0.61,0.73-0.98,1.05c-0.4,0.34-0.89,0.6-1.18,1.01
		c1.62,0.37,1.96-0.53,2.73-1.19c0.43-0.36,0.95-0.91,1.5-0.82c-0.29,0.41-0.79,0.6-1.18,0.91c-0.38,0.31-0.77,0.67-1.04,1.1
		c0.26,0.09,0.77,0.05,1.04,0c0.12-0.04-0.09-0.2,0.05-0.27c0.45-0.28,0.87-0.65,1.31-0.96c0.43-0.3,0.9-0.71,1.46-0.73
		c-0.65,0.82-1.97,1.22-2.49,2.01c0.71-0.05,1.09-0.62,1.6-0.96c0.26-0.18,0.51-0.37,0.75-0.55c0.21-0.16,0.5-0.45,0.8-0.32
		c-0.54,0.78-1.6,1.03-2.16,1.78c2.28-0.25,5.17,0.07,7.47-0.18C37.67,34.63,37.17,34.16,36.78,33.69z M40.02,38.26
		c-0.2-0.23-0.39-0.49-0.61-0.78c-0.19-0.26-1-1.62-1.22-1.55c-1.11,0.31-2.97,0.18-4.42,0.18c-6.13,0-13.71,0.15-19.69,0.14
		c-0.1,0.87-0.3,1.87-0.28,2.7c0.29,0.1,0.76,0.02,1.13,0.04c0.25-0.26,0.55-0.47,0.7-0.82c0.35-0.11,0.45-0.69,0.89-0.55
		c-0.2,0.6-0.86,0.75-1.04,1.37c0.61,0.06,0.82-0.45,1.13-0.73c0.31-0.28,0.62-0.69,1.08-0.69c-0.22,0.63-1.1,0.84-1.22,1.42
		c1.02,0,1.16-0.88,1.83-1.23c0.38-0.34,0.92-1.14,1.45-1c-0.67,0.79-1.6,1.33-2.21,2.19c0.19,0.1,0.56,0.04,0.76,0
		c0.08-0.12-0.05-0.22,0.1-0.32c0.35-0.36,0.79-0.66,1.22-1c0.39-0.32,0.71-0.86,1.27-0.87c-0.16,0.47-0.72,0.72-1.13,1.05
		c-0.43,0.35-0.84,0.74-1.18,1.14c0.13,0.09,0.41,0.03,0.61,0.04c0.64-0.65,1.43-1.21,2.12-1.78c0.16-0.14,0.41-0.5,0.65-0.28
		c-0.64,0.78-1.51,1.33-2.3,1.97c0.33,0.19,1.02,0.04,1.5,0.09c0.54-0.46,1.24-0.96,1.79-1.42c0.16-0.13,0.35-0.5,0.61-0.27
		c-0.46,0.69-1.29,1-1.78,1.64c0.49,0.01,1.01,0.14,1.4,0.04c0.65-0.16,0.86-1.14,1.46-0.96c-0.06,0.46-0.78,0.52-0.7,0.96
		c0.36-0.2,0.68-0.51,1.03-0.78c0.34-0.26,0.65-0.66,1.08-0.68c-0.23,0.73-1.11,0.81-1.46,1.42c0.9,0.13,1.31-0.62,1.83-1.1
		c0.22-0.2,0.46-0.38,0.66-0.55c0.19-0.17,0.41-0.46,0.7-0.41c-0.13,0.5-0.69,0.74-1.04,1.05c-0.18,0.16-0.34,0.34-0.52,0.5
		c-0.16,0.15-0.47,0.3-0.42,0.55c1.06-0.04,1.53-0.67,2.11-1.19c0.39-0.35,0.75-0.91,1.37-0.92c-0.62,0.8-1.55,1.29-2.2,2.06
		c0.64,0.03,1.12-0.53,1.6-0.91c0.22-0.18,0.47-0.41,0.7-0.59c0.2-0.16,0.46-0.52,0.75-0.37c0.06,0.26-0.28,0.34-0.43,0.46
		c-0.57,0.45-1.17,0.94-1.64,1.42c0.18,0.06,0.35,0.08,0.51,0.04c0.89-0.16,1.58-1.45,2.4-1.51c-0.31,0.71-1.15,0.89-1.6,1.46
		c3.46,0.1,7.45,0.02,11.14,0.04C40.52,38.66,40.22,38.48,40.02,38.26z M17.65,50.69c0.07,0.1-0.12,0.17,0,0.18
		c0.01-0.03,0.01-0.05,0.05-0.05c0.68-0.21,1.31-0.4,1.93-0.68c1.36-0.62,2.78-1.36,3.95-2.1c0.19-0.13,0.45-0.43,0.75-0.27
		c-0.4,0.64-1.27,0.8-1.83,1.28c0.92-0.28,1.63-0.76,2.44-1.14c0.15,0.03,0.07,0.26,0.24,0.28c2.19-0.37,4.18-0.95,6.58-0.64
		c0.34,0.04,0.78,0.23,1.22,0.32c0.45,0.1,0.94,0.15,1.31,0.27c0.56,0.18,1.52,0.8,2.11,0.78c0.54-0.02,0.92-0.63,1.36-0.55
		c-0.02,0.55-0.76,0.39-0.89,0.82c1.15,0.26,1.88-0.91,3.01-0.82c-0.45,0.61-1.58,0.53-2.02,1.14c0.99-0.09,1.88-0.61,2.77-1.01
		c0.45-0.2,0.89-0.39,1.31-0.6c0.41-0.2,0.85-0.54,1.32-0.45c-0.23,0.37-0.7,0.49-1.08,0.68c-1.22,0.61-2.49,1.12-3.75,1.6
		c0.33,0.66,1.09-0.04,1.64-0.27c0.92-0.4,1.73-0.72,2.5-1.14c0.39-0.22,0.78-0.58,1.18-0.46c-0.18,0.36-0.64,0.5-0.99,0.69
		c-0.37,0.2-0.75,0.42-1.13,0.59c-0.77,0.35-1.68,0.56-2.3,1.1c0.55,0.49,0.93,0.04,1.45-0.23c0.65-0.33,1.27-0.56,1.88-0.82
		c0.28-0.12,0.66-0.46,0.94-0.18c-0.94,0.68-2.36,0.9-3.19,1.69c0.66,0.22,1.34,0.43,2.21,0.46c0.63-0.45,1.39-0.79,2.25-1.14
		c0.77-0.31,1.61-0.63,2.44-0.77c1.96-0.86,4.17-1.55,6.2-2.33c0.68-0.26,1.34-0.73,2.02-0.69c-0.12,0.38-0.58,0.38-0.89,0.51
		c-2.36,0.94-4.95,1.89-7.28,2.79c-0.14,0-0.29,0-0.42,0c-0.9,0.42-1.95,0.79-2.82,1.19c-0.28,0.13-0.72,0.17-0.85,0.5
		c0.34,0.19,0.86,0.08,1.41,0.14c0.83-0.5,2.01-0.66,2.68-1.33c2.27-0.89,4.83-1.7,7.09-2.6c0.29-0.12,0.69-0.41,0.99-0.14
		c-3,1.46-6.72,2.21-9.49,3.89c1.2,0.19,1.77-0.87,2.73-0.91c-0.03,0.31-0.39,0.28-0.47,0.55c0.71-0.06,1.1-0.45,1.65-0.68
		c-0.36-0.08-0.57,0.3-0.75,0c0.33-0.38,0.91-0.36,1.36-0.5c0.48-0.16,0.95-0.33,1.41-0.5c0.92-0.34,1.81-0.87,2.77-0.96
		c0.11,0.29-0.32,0.2-0.19,0.37c0.41,0,0.82,0,1.22,0c0.56-0.92,1.37-1.58,2.07-2.33c0.28-0.3,0.5-0.6,0.75-0.92
		c0.24-0.31,0.41-0.67,0.66-1c0.26-0.35,0.66-0.63,0.94-1c0.85-1.16,1.83-2.15,2.48-3.43c-17.76-0.08-35.85-0.08-53.62,0
		c1.95,3.37,4.5,6.17,6.77,9.23c1.06-0.63,2.28-1.23,3.34-1.83c0.33-0.19,0.7-0.59,1.13-0.41c-0.22,0.29-0.64,0.47-1.04,0.68
		c-0.76,0.43-1.41,0.77-2.21,1.23c-0.39,0.22-1.45,0.56-0.85,1.01c0.86-0.63,1.83-1.14,2.77-1.69c0.74-0.42,1.46-0.96,2.26-1.14
		c0.1,0.27-0.28,0.37-0.43,0.46c-1.5,0.85-3.11,1.66-4.42,2.6c0.49,0.49,1.07-0.23,1.51-0.46c1.34-0.7,2.66-1.47,3.9-2.15
		c0.22-0.12,0.55-0.35,0.8-0.23c-0.03,0.32-0.44,0.38-0.66,0.5c-0.25,0.13-0.52,0.28-0.76,0.41c-1.2,0.68-2.57,1.41-3.71,2.1
		c-0.21,0.13-0.65,0.24-0.52,0.59c0.41,0.16,0.61-0.28,0.84-0.46c1.78-1.08,3.98-2.01,5.74-3.06c0.19-0.12,0.55-0.47,0.79-0.18
		C22.24,48.44,19.68,49.31,17.65,50.69z"/>
	<path class="st10" d="M24.23,31.4c0.02,0.3-0.31,0.48-0.52,0.41C23.71,31.53,23.99,31.31,24.23,31.4z"/>
	<path class="st10" d="M24.19,33.92c-0.06,0.21-0.24,0.42-0.43,0.59c-0.32,0.29-0.73,0.76-1.13,0.64c0.35-0.52,0.92-0.82,1.32-1.28
		C24.08,33.83,24.07,33.94,24.19,33.92z"/>
	<path class="st10" d="M32.64,34.28c0.02,0.34-0.23,0.42-0.52,0.46c0-0.09,0-0.18,0-0.27C32.3,34.41,32.39,34.27,32.64,34.28z"/>
	<path class="st10" d="M22.63,34.42c-0.1,0.35-0.37,0.55-0.7,0.69c-0.02-0.04-0.04-0.08-0.09-0.09
		C21.99,34.73,22.22,34.3,22.63,34.42z"/>
	<path class="st10" d="M15.81,36.98c-0.04,0.45-0.45,0.71-0.7,1c-0.24,0.28-0.43,0.7-0.85,0.82c-0.11-0.31,0.24-0.52,0.42-0.73
		c0.31-0.36,0.58-0.76,0.94-1.1C15.69,36.98,15.75,36.98,15.81,36.98z"/>
	<path class="st10" d="M22.72,37.3c-0.09,0.35-0.49,0.59-0.79,0.82c-0.26,0.2-0.59,0.66-0.94,0.45c0.38-0.56,1.08-0.78,1.46-1.32
		C22.56,37.24,22.67,37.24,22.72,37.3z"/>
	<path class="st10" d="M32.12,37.48c-0.06,0.36-0.51,0.6-0.79,0.82c-0.27,0.22-0.62,0.64-0.98,0.46c0.41-0.54,1.12-0.8,1.55-1.32
		C32,37.42,32.07,37.44,32.12,37.48z"/>
	<path class="st10" d="M32.83,37.85c-0.18,0.51-0.67,0.72-1.13,0.96C31.72,38.34,32.38,37.9,32.83,37.85z"/>
	<path class="st10" d="M54.02,42.23c-0.17,0.29-0.58,0.38-0.89,0.5c-0.93,0.36-2.02,0.7-3.01,1.05c-0.49,0.17-0.89,0.49-1.41,0.46
		c0.19-0.46,0.86-0.52,1.32-0.69c0.5-0.18,1.01-0.36,1.41-0.59c0.91-0.2,1.66-0.54,2.44-0.87C54.01,42.06,53.97,42.19,54.02,42.23z"
		/>
	<path class="st10" d="M54.45,42.78c-0.33,0.43-0.96,0.44-1.46,0.6c-0.95,0.3-2.01,0.66-3.01,1.05c-0.48,0.19-0.94,0.49-1.45,0.46
		c-0.03-0.33,0.4-0.33,0.62-0.41c1.15-0.42,2.51-0.92,3.8-1.32C53.43,42.99,53.94,42.66,54.45,42.78z"/>
	<path class="st10" d="M24.28,43.65c1.12-0.21,1.76,1.44,0.89,2.15c-0.72,0.59-1.98,0.12-1.93-0.96
		C23.27,44.22,23.7,43.76,24.28,43.65z M24.28,45.25c0.56,0.24,0.69-0.78,0.19-0.87C24.14,44.39,24.21,45,24.28,45.25z"/>
	<path class="st10" d="M46.74,44.52c0.38,1.75-1.95,1.95-2.35,0.87c-0.32-0.85,0.13-1.98,1.26-1.78
		C46.16,43.69,46.48,44.1,46.74,44.52z M45.1,44.97c0.23,0.08,0.38,0.23,0.65,0.27C46.52,44.7,44.93,43.82,45.1,44.97z"/>
	<path class="st10" d="M54.16,43.6c0.09,0.44-0.53,0.46-0.79,0.55c-1.68,0.59-3.43,1.27-5.13,1.92c-0.32,0.12-0.68,0.27-0.98,0.41
		c-0.29,0.13-0.6,0.44-0.94,0.27c0.36-0.45,1.11-0.67,1.74-0.91c1.9-0.73,4.04-1.57,5.96-2.24C54.07,43.6,54.12,43.6,54.16,43.6z"/>
	<path class="st10" d="M31,43.74c0.86-0.19,1.55,0.07,1.69,0.73c0.54,2.43-3.23,1.92-2.58-0.05C30.2,44.15,30.49,43.85,31,43.74z
		 M31.75,45.29c0.17-0.1,0.14-0.41,0.14-0.68C30.94,43.86,30.32,45.5,31.75,45.29z"/>
	<path class="st10" d="M38.85,43.74c0.17-0.03,0.32-0.06,0.52,0c0.54,0.17,1.22,1.45,0.66,2.15c-0.32,0.41-1.48,0.4-1.93,0.09
		C37.18,45.34,37.96,43.87,38.85,43.74z M39.17,44.52c-0.49-0.21-0.86,0.54-0.51,0.87c0.23-0.05,0.54-0.02,0.7-0.14
		C39.43,45.01,39.33,44.68,39.17,44.52z"/>
	<path class="st10" d="M55.2,44.83c-0.25,0.36-0.88,0.42-1.32,0.55c-2.68,0.79-5.5,1.85-7.98,2.92c-0.42,0.18-0.87,0.4-1.32,0.41
		c0.15-0.44,0.69-0.48,1.13-0.64c2.66-1.26,6.2-2.4,9.12-3.25C54.88,44.82,55.11,44.61,55.2,44.83z"/>
	<path class="st10" d="M61.16,48.77c0.16-0.47,0.3-0.23,0.57-0.32c0.62-0.22,1.55-0.76,2.11-1.32c0.56-0.56,0.67-1.42,1.27-1.97
		c0.34-0.31,1.09-0.41,1.17,0.18c0.09,0.7-0.64,1.69-1.03,2.06c-0.67,0.62-2.17,1.34-3.24,1.51C61.64,48.96,61.37,48.98,61.16,48.77
		z M65.81,45.2c-0.19-0.01-0.3,0.03-0.37,0.09c-0.54,0.44-0.7,1.23-1.18,1.83c-0.47,0.59-1.08,0.68-1.41,1.19
		c1.59-0.46,2.8-1.27,3.1-2.97C65.89,45.31,65.85,45.27,65.81,45.2z"/>
	<path class="st10" d="M55.81,45.34c-0.34,0.32-0.84,0.35-1.27,0.5c-1.2,0.42-2.53,0.94-3.8,1.41c-0.85,0.32-1.67,0.66-2.49,1.01
		c-0.8,0.34-1.58,0.81-2.44,0.91c0.1-0.47,0.78-0.37,1.08-0.64c2.49-1.18,5.84-2.24,8.45-3.29C55.48,45.19,55.72,45.17,55.81,45.34z
		"/>
	<path class="st10" d="M19.86,45.7c-0.92,0.67-2.06,1.22-3.1,1.83c-0.31,0.18-0.63,0.57-1.04,0.41c0.18-0.3,0.56-0.47,0.85-0.64
		c0.92-0.53,1.99-1.17,2.95-1.69C19.68,45.61,19.81,45.61,19.86,45.7z"/>
	<path class="st10" d="M69.85,47.58c-0.13,0.86-0.65,1.73-1.03,2.51c-0.37-0.14-0.02-0.47,0.05-0.64c0.21-0.51,0.49-1.23,0.71-1.74
		c-0.03-0.1,0.09-0.06,0.09-0.13C69.74,47.58,69.8,47.58,69.85,47.58z"/>
	<path class="st10" d="M68.17,47.85c0.06,0.5-0.2,1.11-0.43,1.6c-0.23,0.51-0.53,1-0.75,1.46c-0.02,0.26-0.06,0.49-0.38,0.46
		c0.2-1.13,1-2.13,1.31-3.38c0.07-0.03,0.12-0.07,0.14-0.14C68.1,47.85,68.14,47.85,68.17,47.85z"/>
	<path class="st10" d="M69.95,48.35c0.06,0.02,0.08,0.08,0.14,0.09c-0.04,0.47-0.25,0.77-0.47,1.05
		C69.22,49.26,69.84,48.67,69.95,48.35z"/>
	<path class="st10" d="M30.39,48.67c0.59-0.17,1.81,0.2,2.35,0.41c2.21,0.89,3.84,2.29,5.64,3.66c1.3,0.99,2.71,1.44,5.13,1.65
		c1.69,0.14,3.73,0.08,5.02-0.23c1.04-0.25,1.96-0.87,2.78-1.33c1.41-0.78,2.69-1.49,5.07-1.23c1.56,0.17,2.83,1.25,4.65,1.19
		c0.56-0.02,1.27-0.12,2.02-0.36c0.38-0.13,1.49-0.86,1.7-0.27c0.15,0.48-1.13,0.96-1.7,1.1c-0.87,0.22-1.95,0.35-2.72,0.27
		c-0.75-0.08-1.41-0.4-2.07-0.59c-0.34-0.1-0.7-0.18-1.03-0.27c-0.7-0.21-1.59-0.46-2.77-0.32c-0.29,0.03-0.63,0.14-0.9,0.23
		c-1.98,0.67-3.5,2.33-6.29,2.56c-1.15,0.1-2.54,0.08-3.76,0c-2.29-0.16-4.13-0.62-5.54-1.69c-0.36-0.28-0.74-0.59-1.08-0.87
		c-0.36-0.29-0.73-0.54-1.12-0.82c-0.78-0.54-1.52-1.21-2.45-1.64c-0.76-0.35-1.51-0.56-2.54-0.73c-0.2-0.04-0.71-0.06-0.75-0.32
		C29.97,48.72,30.15,48.74,30.39,48.67z"/>
	<path class="st10" d="M67.13,48.67c0.08,0.62-0.45,1.12-0.71,1.6c-0.1,0.19-0.07,0.49-0.37,0.5c-0.1-0.73,0.73-1.32,0.89-2.1
		C67.01,48.67,67.07,48.67,67.13,48.67z"/>
	<path class="st10" d="M45.33,48.99c-0.08,0.39-0.56,0.55-0.89,0.69c-0.68,0.27-1.44,0.51-2.12,0.82c-0.23,0.11-0.46,0.34-0.75,0.23
		c0.23-0.45,0.82-0.59,1.27-0.78C43.64,49.61,44.48,49.27,45.33,48.99z"/>
	<path class="st10" d="M66.01,49.63c0.08,0.25-0.21,0.48-0.33,0.69C65.36,50.17,65.63,49.55,66.01,49.63z"/>
	<path class="st10" d="M47.21,50c-1,0.23-1.91,1.04-2.91,0.96c0.14-0.36,0.76-0.27,0.98-0.55c0.52,0.02,1.09-0.53,1.51-0.59
		C46.92,49.8,47.2,49.69,47.21,50z"/>
	<path class="st10" d="M30.25,50c0-0.04,0-0.09,0-0.14C30.58,49.63,30.58,50.24,30.25,50z"/>
	<path class="st10" d="M30.95,49.86c0.21,0.14,0.46,0.98,0,0.96C30.91,50.57,30.74,50.07,30.95,49.86z"/>
	<path class="st10" d="M31.32,49.95c0.03,0,0.06,0,0.1,0c0.26,0.19,0.67,1.39,0.42,1.65C31.52,51.21,31.35,50.49,31.32,49.95z"/>
	<path class="st10" d="M32.26,50.23c0.03,0,0.06,0,0.1,0c0.43,0.52,0.69,1.79,0.66,2.47c-0.25-0.05-0.33-0.38-0.38-0.59
		C32.49,51.47,32.39,50.93,32.26,50.23z"/>
	<path class="st10" d="M33.3,50.73c0.08-0.01,0.08,0.04,0.14,0.04c0.14,1,0.5,2.24,0.43,3.15c-0.31-0.17-0.37-0.86-0.43-1.24
		c-0.1-0.63-0.19-1.33-0.23-1.83C33.18,50.77,33.29,50.8,33.3,50.73z"/>
	<path class="st10" d="M33.87,51.14c0.04,0,0.09,0,0.13,0c0.21,1.28,0.63,2.59,0.75,3.79c-0.38-0.06-0.3-0.49-0.38-0.78
		c-0.2-0.78-0.57-1.84-0.56-2.88C33.8,51.2,33.86,51.2,33.87,51.14z"/>
	<path class="st10" d="M34.71,51.96c0.08,0,0.15,0,0.23,0c0.19,1.16,0.85,2.1,0.85,3.29c-0.35-0.18-0.37-0.73-0.52-1.19
		c-0.21-0.64-0.46-1.23-0.61-1.97C34.65,52.03,34.71,52.02,34.71,51.96z"/>
	<path class="st10" d="M35.84,52.56c0.08-0.01,0.08,0.04,0.14,0.05c0.09,1.04,0.67,1.84,0.75,2.74c-0.33,0.07-0.33-0.33-0.42-0.59
		c-0.16-0.45-0.42-1-0.51-1.42C35.73,53.05,35.7,52.73,35.84,52.56z"/>
	<path class="st10" d="M36.63,53.06c0.28,0.66,0.67,1.45,0.71,2.19c-0.6-0.41-0.55-1.44-0.94-2.06c-0.01-0.05,0.01-0.08,0.04-0.09
		C36.49,53.07,36.55,53.06,36.63,53.06z"/>
	<path class="st10" d="M37.43,53.93c0.03,0,0.07,0,0.1,0c0.31,0.16,0.35,0.59,0.52,0.91c0.11,0.11,0.31,0.42,0.04,0.5
		C37.74,55.01,37.52,54.53,37.43,53.93z"/>
</g>
</svg>
