<?xml version="1.0" encoding="utf-8"?>
<!-- Generator: Adobe Illustrator 27.3.1, SVG Export Plug-In . SVG Version: 6.00 Build 0)  -->
<svg version="1.1" id="Layer_1" xmlns="http://www.w3.org/2000/svg" xmlns:xlink="http://www.w3.org/1999/xlink" x="0px" y="0px"
	 viewBox="0 0 70 70" style="enable-background:new 0 0 70 70;" xml:space="preserve">
<style type="text/css">
	.st0{fill:#021828;}
	.st1{fill:none;stroke:#FFFFFF;stroke-miterlimit:10;}
	.st2{fill:#FFFFFF;}
	.st3{opacity:0.7;fill:#021828;}
	.st4{fill:#FFFFFF;stroke:#021828;stroke-width:2;stroke-miterlimit:10;}
	.st5{fill-rule:evenodd;clip-rule:evenodd;fill:#FFFFFF;stroke:#021828;stroke-width:2;stroke-miterlimit:10;}
	.st6{fill:#EC00BA;}
	.st7{fill:#009520;}
	.st8{fill:#FAFCFB;}
	.st9{fill:#FF0000;}
	.st10{fill-rule:evenodd;clip-rule:evenodd;fill:#1779FF;}
	.st11{opacity:0.8;}
	.st12{fill-rule:evenodd;clip-rule:evenodd;fill:#FFFFFF;}
	.st13{fill:none;stroke:#6B7479;stroke-miterlimit:10;}
	.st14{fill:none;stroke:#6B7479;stroke-miterlimit:10;stroke-dasharray:11.9916,5.9958;}
	.st15{fill:none;stroke:#6B7479;stroke-miterlimit:10;stroke-dasharray:12.0398,6.0199;}
	.st16{fill:#BFC4CC;}
	.st17{fill:#837579;}
	.st18{fill:#CCCCCC;}
	.st19{fill:#E6E6E6;}
	.st20{fill:#B8B8B8;}
	.st21{fill:#5F5F5F;}
	.st22{fill:#9D9D9D;}
	.st23{fill:#518FE8;}
	.st24{fill:#65BBFF;}
	.st25{fill:#165F9F;}
	.st26{fill:#87D0E0;}
	.st27{fill:#C9974B;}
	.st28{fill:#EBC26C;}
	.st29{fill:#AB7835;}
	.st30{fill:#965A2C;}
	.st31{fill:#F2E5DA;}
	.st32{fill:#F1C33A;}
	.st33{fill:#FFE057;}
	.st34{fill:#F7900B;}
	.st35{fill:#1F4094;}
	.st36{fill:#1B47B6;}
	.st37{fill:#3F72E9;}
	.st38{fill:#6B9DED;}
	.st39{fill:#2750B8;}
	.st40{fill:#133BA1;}
	.st41{fill-rule:evenodd;clip-rule:evenodd;fill:#010007;}
	.st42{fill-rule:evenodd;clip-rule:evenodd;fill:#18171D;}
	.st43{fill-rule:evenodd;clip-rule:evenodd;}
	.st44{fill-rule:evenodd;clip-rule:evenodd;fill:#2E2D30;}
	.st45{fill-rule:evenodd;clip-rule:evenodd;fill:#1B1B1F;}
	.st46{fill-rule:evenodd;clip-rule:evenodd;fill:#3B3B3B;}
	.st47{fill-rule:evenodd;clip-rule:evenodd;fill:#F0982F;}
	.st48{fill-rule:evenodd;clip-rule:evenodd;fill:#C35719;}
	.st49{fill-rule:evenodd;clip-rule:evenodd;fill:#9E470F;}
	.st50{fill-rule:evenodd;clip-rule:evenodd;fill:#B35014;}
	.st51{fill-rule:evenodd;clip-rule:evenodd;fill:#BF5517;}
	.st52{fill:#B35014;}
	.st53{fill:#F7BB06;}
	.st54{fill:#1E1E1E;}
	.st55{fill:#393939;}
	.st56{fill:#0E0E0E;}
	.st57{fill:#151515;}
	.st58{fill:#838383;}
	.st59{fill:#51341F;}
	.st60{fill:#2B160D;}
	.st61{fill:#7E583C;}
	.st62{fill:#3F2614;}
	.st63{fill:#604029;}
	.st64{fill:#1B1B1B;}
	.st65{fill:#2A2A2A;}
	.st66{fill:#940000;}
	.st67{fill:#541D12;}
	.st68{fill:#7A0000;}
	.st69{fill:#F1BC95;}
	.st70{fill:#EC762D;}
	.st71{fill:#E6BDB3;}
	.st72{fill:#FF8537;}
	.st73{fill:#D16824;}
	.st74{fill:#D18D6D;}
	.st75{fill:#C77752;}
	.st76{fill:#DEB08A;}
	.st77{fill:#F0B88F;}
	.st78{fill:#DF9876;}
	.st79{fill:#4F2900;}
	.st80{fill:#422200;}
	.st81{fill:#703A00;}
	.st82{fill:#272727;}
	.st83{fill:#FFB700;}
	.st84{fill-rule:evenodd;clip-rule:evenodd;fill:#CECECE;}
	.st85{fill-rule:evenodd;clip-rule:evenodd;fill:#A19E9C;}
	.st86{fill-rule:evenodd;clip-rule:evenodd;fill:#7C7774;}
	.st87{fill:#DD9100;}
	.st88{fill:#F77211;}
	.st89{fill:#1D1D1D;}
	.st90{fill:#C97735;}
	.st91{fill:#BC5705;}
	.st92{fill:#BD4D00;}
	.st93{fill:#E07705;}
	.st94{fill:#E09C05;}
	.st95{fill:#EDA94D;}
	.st96{fill:#916C28;}
	.st97{fill:#636363;}
	.st98{fill:#888888;}
	.st99{fill:#4A4A4A;}
	.st100{fill:#BFBFBF;}
	.st101{fill:#0F0F0F;}
	.st102{fill:#D8E2EC;}
	.st103{fill:#ADC2D7;}
	.st104{fill:#6D6D6D;}
	.st105{fill:#D6B163;}
	.st106{fill:#91693A;}
	.st107{fill:#B78841;}
	.st108{fill:#7D5129;}
	.st109{fill:#613F1F;}
	.st110{fill:#996232;}
	.st111{fill:#AD7E45;}
	.st112{fill:#471D1D;}
	.st113{fill:#DAB697;}
	.st114{fill:#BF8937;}
	.st115{fill:#C2BFB4;}
	.st116{fill:#FFDC91;}
	.st117{fill:#D6AC54;}
	.st118{fill:#B39876;}
	.st119{fill:#C9C9C9;}
	.st120{fill:#EBEBEB;}
	.st121{fill:#ABABAB;}
	.st122{fill:#125200;}
	.st123{fill:#11FF00;}
	.st124{fill:#94000A;}
	.st125{fill:#F91F43;}
	.st126{fill:#868686;}
	.st127{fill:#BA6900;}
	.st128{fill:#DE9A23;}
	.st129{fill:#F87F12;}
	.st130{fill:#C7C7C7;}
	.st131{fill:#3D3D3D;}
	.st132{fill:#451803;}
	.st133{fill:#541D04;}
	.st134{fill:#690000;}
	.st135{fill:#F2F2F2;}
	.st136{fill:#C2C2C2;}
	.st137{fill:#A7A7A7;}
	.st138{fill:#A3A3A3;}
	.st139{fill:#373737;}
	.st140{fill:#4E4E4E;}
	.st141{fill:#C3C3C3;}
	.st142{fill:#0A0A0A;}
	.st143{fill:#2A8DDE;}
	.st144{fill:#0262C2;}
	.st145{fill:#2D2D2D;}
	.st146{fill:#414141;}
	.st147{fill:#B7B7B7;}
	.st148{fill:#8895C7;}
	.st149{fill:#98B3E6;}
	.st150{fill:#ABCEFF;}
	.st151{fill:#046DBA;}
	.st152{fill:#2A5275;}
	.st153{fill:#31618A;}
	.st154{fill:#998385;}
	.st155{fill:#D1C9CA;}
	.st156{fill:#7E898D;}
	.st157{fill:#545354;}
	.st158{fill:#CF1F30;}
	.st159{fill:#002D54;}
	.st160{fill:url(#SVGID_00000017509144663364456880000016808154093829695662_);}
	.st161{fill:#D3C9CA;}
	.st162{fill:#14375E;}
	.st163{fill:#BCAEAF;}
	.st164{fill:#A3B5C9;}
	.st165{fill:#8F8F8F;}
	.st166{fill:#6485AC;}
	.st167{fill:#7DA6D6;}
	.st168{fill:#746872;}
	.st169{fill:#EBE7E7;}
	.st170{fill:#73757D;}
	.st171{fill:#38363A;}
	.st172{fill:#696969;}
	.st173{fill:url(#SVGID_00000080920042527094474420000002304495606341258646_);}
	.st174{fill:url(#SVGID_00000124855737964672806210000002941542271805005731_);}
	.st175{fill:#B1B1B1;}
	.st176{fill:#41313E;}
	.st177{fill:#E64958;}
	.st178{fill:#BF3737;}
	.st179{fill:#FE8B95;}
	.st180{fill:#E06969;}
	.st181{fill:url(#SVGID_00000059272908415028285700000000848333185740651682_);}
	.st182{fill:#E0E0E0;}
	.st183{fill:url(#SVGID_00000176727916764336862930000012981305434408428942_);}
	.st184{fill:#3B4345;}
	.st185{fill:#C06262;}
	.st186{fill:#C16767;}
	.st187{fill:#C26D6D;}
	.st188{fill:#C27272;}
	.st189{fill:#C37878;}
	.st190{fill:#C47D7D;}
	.st191{fill:#C58383;}
	.st192{fill:#C68888;}
	.st193{fill:#C68E8E;}
	.st194{fill:#C79393;}
	.st195{fill:#C89999;}
	.st196{fill:#C99E9E;}
	.st197{fill:#C9A4A4;}
	.st198{fill:#CAA9A9;}
	.st199{fill:#CBAFAF;}
	.st200{fill:#CCB4B4;}
	.st201{fill:#CDBABA;}
	.st202{fill:#CDBFBF;}
	.st203{fill:#CEC5C5;}
	.st204{fill:#CFCACA;}
	.st205{fill:#313131;}
	.st206{fill:#1F1F1F;}
	.st207{fill:#3B3B3B;}
	.st208{fill:#727272;}
	.st209{fill:#A9A9A9;}
	.st210{fill:#E9EAE7;}
	.st211{fill:#737373;}
	.st212{fill:#949494;}
	.st213{fill:#575757;}
	.st214{fill:#CDCDCD;}
	.st215{fill:#DCDED9;}
	.st216{fill:#181818;}
	.st217{fill:#252525;}
	.st218{fill:#5C5C5C;}
	.st219{fill:#7E7E7E;}
	.st220{fill:#424242;}
	.st221{fill:#585858;}
	.st222{fill:#4F4F4F;}
	.st223{fill:#FFE72A;}
	.st224{fill:#FCAB2A;}
	.st225{fill:#EFA12A;}
	.st226{fill:#CD8732;}
	.st227{fill:#FFBD29;}
	.st228{fill:#F6A629;}
	.st229{fill:#0D0D0D;}
	.st230{fill:#1A1A1A;}
	.st231{fill:#6C6C6C;}
	.st232{fill:#404040;}
	.st233{fill:#676767;}
	.st234{fill:#92978D;}
	.st235{fill:#73796C;}
	.st236{fill:#C5CAD8;}
	.st237{fill:#CCD1DE;}
	.st238{fill:#2E2E2E;}
	.st239{fill:#ABB2B2;}
	.st240{fill:#616161;}
	.st241{fill:#131313;}
	.st242{fill:#C0FFFF;}
	.st243{fill:url(#SVGID_00000122680680064686604890000004028511247661323452_);}
	.st244{fill:#65818A;}
	.st245{fill:#A6DDFF;}
	.st246{fill:url(#SVGID_00000148651701605113608510000002221388631171408819_);}
	.st247{clip-path:url(#SVGID_00000010285468778721380540000007515643103475581624_);}
	.st248{clip-path:url(#SVGID_00000010285468778721380540000007515643103475581624_);fill:#1F1F1F;}
	.st249{clip-path:url(#SVGID_00000010285468778721380540000007515643103475581624_);fill:#2A2A2A;}
	.st250{clip-path:url(#SVGID_00000010285468778721380540000007515643103475581624_);fill:#1D1D1D;}
	.st251{clip-path:url(#SVGID_00000010285468778721380540000007515643103475581624_);fill:#3B3B3B;}
	.st252{clip-path:url(#SVGID_00000010285468778721380540000007515643103475581624_);fill:#727272;}
	.st253{clip-path:url(#SVGID_00000010285468778721380540000007515643103475581624_);fill:#A9A9A9;}
	.st254{clip-path:url(#SVGID_00000010285468778721380540000007515643103475581624_);fill:#E9EAE7;}
	.st255{clip-path:url(#SVGID_00000010285468778721380540000007515643103475581624_);fill:#737373;}
	.st256{clip-path:url(#SVGID_00000010285468778721380540000007515643103475581624_);fill:#949494;}
	.st257{clip-path:url(#SVGID_00000010285468778721380540000007515643103475581624_);fill:#CDCDCD;}
	.st258{clip-path:url(#SVGID_00000010285468778721380540000007515643103475581624_);fill:#DCDED9;}
	.st259{clip-path:url(#SVGID_00000010285468778721380540000007515643103475581624_);fill:#E0E0E0;}
	.st260{fill:#212121;}
	.st261{fill:#EA7C00;}
	.st262{fill:#666666;}
	.st263{fill:#E3EAF5;}
	.st264{fill:#BDC3D6;}
	.st265{fill:#D8DDE8;}
	.st266{fill:#6F94A3;}
	.st267{fill:#D5D5D5;}
	.st268{fill:url(#SVGID_00000176041072919873783070000016625901714740628900_);}
	.st269{fill:url(#SVGID_00000152256849011221750930000015708679899654755252_);}
	.st270{fill:#DA5400;}
	.st271{fill:#FFB345;}
	.st272{fill:#111111;}
	.st273{fill:#242424;}
	.st274{fill:#030303;}
	.st275{fill:#161714;}
	.st276{fill:#FF8D31;}
	.st277{fill:#454545;}
	.st278{fill:#606666;}
	.st279{fill:#FFF2D1;}
	.st280{fill:url(#SVGID_00000147192604780939057660000010861808319869864890_);}
	.st281{fill:#42413D;}
	.st282{fill:#949491;}
	.st283{fill:#6A6869;}
	.st284{fill:#EBEAE5;}
	.st285{fill:#9A998E;}
	.st286{fill:#7B7B6D;}
	.st287{fill:#727071;}
	.st288{fill:#AEAEAE;}
	.st289{fill:#D1EBEE;}
	.st290{fill:#829AA9;}
	.st291{fill:url(#SVGID_00000080169319918867088210000018426611479053128113_);}
	.st292{fill:url(#SVGID_00000167372467446547897610000012496453349366754178_);}
	.st293{fill:#1C1C1A;}
	.st294{fill:#555454;}
	.st295{fill:#767576;}
	.st296{fill:url(#SVGID_00000095298921327989777980000003753222405497225397_);}
	.st297{fill:#DB3400;}
	.st298{fill:#040404;}
	.st299{fill:#20211E;}
	.st300{clip-path:url(#SVGID_00000150806807897688101770000005430420202093511559_);}
	.st301{clip-path:url(#SVGID_00000150806807897688101770000005430420202093511559_);fill:#1F1F1F;}
	.st302{clip-path:url(#SVGID_00000150806807897688101770000005430420202093511559_);fill:#2A2A2A;}
	.st303{clip-path:url(#SVGID_00000150806807897688101770000005430420202093511559_);fill:#1D1D1D;}
	.st304{clip-path:url(#SVGID_00000150806807897688101770000005430420202093511559_);fill:#3B3B3B;}
	.st305{clip-path:url(#SVGID_00000150806807897688101770000005430420202093511559_);fill:#727272;}
	.st306{clip-path:url(#SVGID_00000150806807897688101770000005430420202093511559_);fill:#A9A9A9;}
	.st307{clip-path:url(#SVGID_00000150806807897688101770000005430420202093511559_);fill:#E9EAE7;}
	.st308{clip-path:url(#SVGID_00000150806807897688101770000005430420202093511559_);fill:#4D4D4D;}
	.st309{clip-path:url(#SVGID_00000150806807897688101770000005430420202093511559_);fill:#949494;}
	.st310{clip-path:url(#SVGID_00000150806807897688101770000005430420202093511559_);fill:#DCDED9;}
	.st311{clip-path:url(#SVGID_00000150806807897688101770000005430420202093511559_);fill:#C4C4C4;}
	.st312{fill:#8C4D00;}
	.st313{fill:#135E00;}
	.st314{fill:#C7C6C4;}
	.st315{clip-path:url(#SVGID_00000085217518891246218220000013286303573938674090_);fill:#1D1D1D;}
	.st316{clip-path:url(#SVGID_00000085217518891246218220000013286303573938674090_);}
	.st317{clip-path:url(#SVGID_00000085217518891246218220000013286303573938674090_);fill:#1F1F1F;}
	.st318{clip-path:url(#SVGID_00000085217518891246218220000013286303573938674090_);fill:#2A2A2A;}
	.st319{clip-path:url(#SVGID_00000085217518891246218220000013286303573938674090_);fill:#3B3B3B;}
	.st320{clip-path:url(#SVGID_00000085217518891246218220000013286303573938674090_);fill:#727272;}
	.st321{clip-path:url(#SVGID_00000085217518891246218220000013286303573938674090_);fill:#A9A9A9;}
	.st322{clip-path:url(#SVGID_00000085217518891246218220000013286303573938674090_);fill:#E9EAE7;}
	.st323{clip-path:url(#SVGID_00000085217518891246218220000013286303573938674090_);fill:#4D4D4D;}
	.st324{clip-path:url(#SVGID_00000085217518891246218220000013286303573938674090_);fill:#949494;}
	.st325{clip-path:url(#SVGID_00000085217518891246218220000013286303573938674090_);fill:#DCDED9;}
	.st326{clip-path:url(#SVGID_00000085217518891246218220000013286303573938674090_);fill:#C4C4C4;}
	.st327{fill:#4A4A45;}
	.st328{fill:#363631;}
	.st329{fill:url(#SVGID_00000148640699291300807270000003693103428562167451_);}
	.st330{fill:#C59A08;}
	.st331{fill:#FFDC14;}
	.st332{fill:#FFF013;}
	.st333{fill:#FFDD26;}
	.st334{fill:#5A5858;}
	.st335{fill:#EDFF4D;}
	.st336{fill:#8D8B8B;}
	.st337{fill:#146194;}
	.st338{fill:#8D9DAF;}
	.st339{fill:#C3CDD9;}
	.st340{fill:#728599;}
	.st341{fill:#A7B4C4;}
	.st342{fill:#FDFFF8;}
	.st343{fill:#D1A202;}
	.st344{fill:#F1BD00;}
	.st345{fill:#FBC605;}
	.st346{fill:#FFDF17;}
	.st347{fill:#E7EBF0;}
	.st348{fill:#CCD8E3;}
	.st349{fill:#FAFDFF;}
	.st350{fill:#BCC6D1;}
	.st351{fill:#4D7185;}
	.st352{fill:#95B4C6;}
	.st353{fill:#FFD60D;}
	.st354{fill:#456475;}
	.st355{fill:#9DC2FF;}
	.st356{fill:#E0E8EF;}
	.st357{fill:#4BC7B6;}
	.st358{fill:#22A896;}
	.st359{fill:#FCC201;}
	.st360{fill:#B28A01;}
	.st361{fill:#BA7D01;}
	.st362{fill:#835B09;}
	.st363{fill:#C89A00;}
	.st364{fill:#AC7300;}
	.st365{fill:#C9011F;}
	.st366{fill:#7F0113;}
	.st367{fill:#720111;}
	.st368{fill:#50060E;}
	.st369{fill:#950016;}
	.st370{fill:#790012;}
	.st371{fill:#018ADF;}
	.st372{fill:#015B95;}
	.st373{fill:#015388;}
	.st374{fill:#073E66;}
	.st375{fill:#0069AB;}
	.st376{fill:#00588F;}
	.st377{fill:#8C8C8C;}
	.st378{fill:#E8E8E8;}
	.st379{fill:#001929;}
	.st380{fill:#612F00;}
	.st381{fill:#290100;}
	.st382{fill:#282828;}
	.st383{fill:#7A1400;}
	.st384{fill:#B10A0A;}
	.st385{fill:#C41A1A;}
	.st386{fill:#2C2C2C;}
	.st387{fill:#595959;}
	.st388{fill:url(#SVGID_00000144298178629145221110000003281779337609830312_);}
	.st389{fill:#A89A97;}
	.st390{fill:url(#SVGID_00000111179153547405728350000008358486941340725678_);}
	.st391{fill:#CB7C00;}
	.st392{fill:#802307;}
	.st393{fill:#BB5900;}
	.st394{fill:#CE7E00;}
	.st395{fill:#DC9200;}
	.st396{fill:#913108;}
	.st397{fill:#CD6F00;}
	.st398{fill:#DF9400;}
	.st399{fill:#FFBD2E;}
	.st400{fill:#FCA000;}
	.st401{fill:#FFA200;}
	.st402{fill:#FC8300;}
	.st403{fill:#ED7700;}
	.st404{fill:#B1350A;}
	.st405{fill:#D66F00;}
	.st406{fill:#D16B00;}
	.st407{fill:#7D7D7D;}
	.st408{fill:url(#SVGID_00000005955009855832123200000004031213355543987633_);}
	.st409{fill:url(#SVGID_00000130626089433900332320000001913109989907666365_);}
	.st410{fill:#3F3F3F;}
	.st411{fill:url(#SVGID_00000178923000795805307800000013417534406520699558_);}
	.st412{fill:url(#SVGID_00000048500058341042166610000008304894735678795404_);}
	.st413{fill:url(#SVGID_00000043442427137727794680000017796553828048540349_);}
	.st414{fill:url(#SVGID_00000094585010168979384450000007693847085378271369_);}
	.st415{fill:url(#SVGID_00000169515865765622195170000000301695608404860570_);}
	.st416{fill:#542700;}
	.st417{fill:#954A00;}
	.st418{fill:#FC9120;}
	.st419{fill:#F99801;}
	.st420{fill:#DCDCDC;}
	.st421{fill:#FEFEFE;}
	.st422{fill:#D61D00;}
	.st423{fill:#292929;}
	.st424{fill:#434343;}
	.st425{fill:#4B4B4B;}
	.st426{fill:#2E2A25;}
	.st427{fill:url(#SVGID_00000155859747223409009200000009168819848414624440_);}
	.st428{fill:url(#SVGID_00000142889048470212167320000015103775958022501264_);}
	.st429{fill:url(#SVGID_00000006684803992702672810000009666058807933105087_);}
	.st430{fill:#1A1815;}
	.st431{fill:url(#SVGID_00000121249407598030904360000010126237936854133893_);}
	.st432{fill:url(#SVGID_00000158028983840978877340000001708688281583501203_);}
	.st433{fill:url(#SVGID_00000009591455207826057410000011466266654117431956_);}
	.st434{clip-path:url(#SVGID_00000152263805519610004250000006021262029595688624_);}
	.st435{clip-path:url(#SVGID_00000152263805519610004250000006021262029595688624_);fill:#1F1F1F;}
	.st436{clip-path:url(#SVGID_00000152263805519610004250000006021262029595688624_);fill:#2A2A2A;}
	.st437{clip-path:url(#SVGID_00000152263805519610004250000006021262029595688624_);fill:#1D1D1D;}
	.st438{clip-path:url(#SVGID_00000152263805519610004250000006021262029595688624_);fill:#3B3B3B;}
	.st439{clip-path:url(#SVGID_00000152263805519610004250000006021262029595688624_);fill:#727272;}
	.st440{clip-path:url(#SVGID_00000152263805519610004250000006021262029595688624_);fill:#A9A9A9;}
	.st441{clip-path:url(#SVGID_00000152263805519610004250000006021262029595688624_);fill:#E9EAE7;}
	.st442{clip-path:url(#SVGID_00000152263805519610004250000006021262029595688624_);fill:#737373;}
	.st443{clip-path:url(#SVGID_00000152263805519610004250000006021262029595688624_);fill:#949494;}
	.st444{clip-path:url(#SVGID_00000152263805519610004250000006021262029595688624_);fill:#CDCDCD;}
	.st445{clip-path:url(#SVGID_00000152263805519610004250000006021262029595688624_);fill:#DCDED9;}
	.st446{clip-path:url(#SVGID_00000152263805519610004250000006021262029595688624_);fill:#E0E0E0;}
	.st447{fill:url(#SVGID_00000070803235686401491620000012930406451899197611_);}
	.st448{fill:url(#SVGID_00000060735959440282442470000010743822368439655347_);}
	.st449{fill:url(#SVGID_00000183216673214925777650000005924027825828426401_);}
	.st450{fill:#0EB0E6;}
	.st451{fill:#0085B3;}
	.st452{fill:#FF2727;}
	.st453{fill:#FF8A8A;}
	.st454{fill:#222222;}
	.st455{fill:#161616;}
	.st456{fill-rule:evenodd;clip-rule:evenodd;fill:#0D5CB8;}
	.st457{fill-rule:evenodd;clip-rule:evenodd;fill:#1155A6;}
	.st458{fill-rule:evenodd;clip-rule:evenodd;fill:#00499E;}
	.st459{fill-rule:evenodd;clip-rule:evenodd;fill:#2577D9;}
	.st460{fill-rule:evenodd;clip-rule:evenodd;fill:#2F2F2F;}
	.st461{fill:#2B2B2B;}
	.st462{fill-rule:evenodd;clip-rule:evenodd;fill:#1D1D1D;}
	.st463{fill-rule:evenodd;clip-rule:evenodd;fill:#808080;}
	.st464{fill-rule:evenodd;clip-rule:evenodd;fill:#A1A1A1;}
	.st465{fill-rule:evenodd;clip-rule:evenodd;fill:#666666;}
	.st466{fill-rule:evenodd;clip-rule:evenodd;fill:#525252;}
	.st467{fill:#6E6E6E;}
	.st468{fill-rule:evenodd;clip-rule:evenodd;fill:#B3B3B3;}
	.st469{fill:#703918;}
	.st470{fill:#A3632E;}
	.st471{fill:#CF9742;}
	.st472{fill:#BF926D;}
	.st473{fill:#E8AC51;}
	.st474{fill:#8F491E;}
	.st475{fill-rule:evenodd;clip-rule:evenodd;fill:#D4D4D4;}
	.st476{fill:#B66828;}
	.st477{fill:#824A1D;}
	.st478{fill:#808080;}
	.st479{fill:#A1A1A1;}
	.st480{fill:#27A427;}
	.st481{fill:#084D08;}
	.st482{fill:#0069A2;}
</style>
<g class="st11">
	<path class="st10" d="M29.98,20.49c-0.48-0.16-0.91-0.52-1.39-0.8c-0.24-0.14-0.49-0.27-0.75-0.38c-0.23-0.1-0.58-0.15-0.67-0.42
		c0-0.04,0.01-0.06,0.03-0.07c0.03-0.02,0.06-0.04,0.07,0c0.73,0.28,1.45,0.67,2.07,1.07C29.58,20.05,29.99,20.16,29.98,20.49z"/>
	<path class="st10" d="M28.91,20.52c-0.53,0.07-1.15-0.35-1.46-0.72c0.03-0.02,0.05-0.04,0.11-0.04
		C28.03,19.99,28.52,20.21,28.91,20.52z"/>
	<path class="st10" d="M35.01,21.32c-0.48,0.39-1.13,0.46-1.71,0.66c-1.12,0.38-2.25,0.92-3.31,1.42c-0.52,0.25-0.99,0.64-1.57,0.69
		c0.31-0.36,0.81-0.55,1.25-0.76c1.29-0.62,2.76-1.37,4.24-1.8c0.33-0.1,0.62-0.12,0.93-0.28C34.94,21.22,34.94,21.3,35.01,21.32z"
		/>
	<path class="st10" d="M36.29,21.91c-0.16,0.27-0.52,0.26-0.78,0.35c-1.25,0.42-2.67,0.93-3.81,1.52c-0.43,0.21-0.84,0.54-1.32,0.49
		c0.36-0.35,0.87-0.49,1.32-0.69c0.89-0.42,1.8-0.83,2.81-1.18c0.52-0.18,1.08-0.4,1.6-0.56C36.23,21.81,36.22,21.89,36.29,21.91z"
		/>
	<path class="st10" d="M37.18,22.36c-0.26,0.26-0.63,0.26-0.96,0.38c-1.1,0.38-2.16,0.92-3.21,1.35c-0.34,0.14-0.7,0.37-1.06,0.31
		c0.26-0.35,0.75-0.4,1.17-0.59c0.79-0.35,1.58-0.69,2.49-1.04C36.15,22.57,36.66,22.23,37.18,22.36z"/>
	<path class="st10" d="M49.62,24.06c-0.17,0.24-0.45,0.37-0.75,0.48C48.8,24.25,49.44,23.88,49.62,24.06z"/>
	<path class="st10" d="M29.52,24.33c-0.06,0.33-0.47,0.35-0.71,0.45c-1.36,0.54-2.64,1.19-3.92,1.91c-0.65,0.36-1.38,0.6-1.75,1.18
		c-0.33,0.13-0.62,0.3-0.92,0.45c-0.43,0.21-0.75,0.39-1.21,0.59c-0.48,0.21-0.86,0.62-1.39,0.73c0.02-0.3,0.38-0.39,0.6-0.52
		c0.23-0.13,0.47-0.34,0.71-0.45c0.49-0.24,1.08-0.42,1.53-0.73c0.11-0.08,0.18-0.22,0.29-0.31c0.19-0.15,0.52-0.3,0.79-0.45
		c1.76-1,3.78-2.11,5.81-2.81c0.03-0.01,0.06-0.07,0.1-0.07C29.48,24.31,29.48,24.33,29.52,24.33z"/>
	<path class="st10" d="M41.07,25.27c-1.99,0.57-3.94,1.18-5.81,1.87c-0.17,0.04-0.15-0.1-0.29-0.07c-0.69,0.21-1.32,0.65-1.99,0.76
		c-0.06-0.23,0.25-0.29,0.39-0.34c0.47-0.21,1.03-0.43,1.53-0.63c0.16-0.04,0.12,0.12,0.25,0.1c1.41-0.55,3.16-1.15,4.85-1.59
		C40.36,25.28,40.85,24.99,41.07,25.27z"/>
	<path class="st10" d="M23.74,25.93c0.04,0.31-0.37,0.35-0.57,0.45c-1.23,0.63-2.52,1.42-3.71,2.11c-0.09,0.02-0.16,0.05-0.29,0.03
		c-0.28,0.12-0.42,0.38-0.78,0.42c-0.04-0.28,0.32-0.36,0.5-0.48c0.59-0.4,1.28-0.71,2-1.07c0.94-0.47,1.87-1.1,2.75-1.45
		C23.67,25.93,23.71,25.93,23.74,25.93z"/>
	<path class="st10" d="M18.97,27.94c-0.17,0.26-0.49,0.38-0.75,0.55c-0.1,0.13-0.24,0.38-0.46,0.28c0.2-0.45,0.65-0.65,1.07-0.9
		C18.89,27.87,18.94,27.89,18.97,27.94z"/>
	<path class="st10" d="M56.32,31.96c-0.27-0.01-0.29-0.26-0.39-0.41c-0.4-0.57-0.92-1.03-1.39-1.56c-0.46-0.52-0.86-1.08-1.31-1.59
		c0-0.04,0-0.07,0-0.1c0.03-0.02,0.05-0.04,0.1-0.04c0.35,0.22,0.56,0.59,0.82,0.9c0.51,0.61,1.04,1.18,1.57,1.8
		C55.96,31.24,56.34,31.53,56.32,31.96z"/>
	<path class="st10" d="M52.33,28.7c0.02,0,0.04,0,0.07,0c0.39,0.29,0.69,0.7,0.99,1.07c0.3,0.38,0.59,0.76,0.89,1.15
		c0.59,0.75,1.3,1.44,1.75,2.32c-0.27,0.02-0.41-0.29-0.54-0.45c-1.01-1.29-2.14-2.65-3.17-3.95C52.33,28.79,52.33,28.75,52.33,28.7
		z"/>
	<path class="st10" d="M51.73,29.32c0.05-0.01,0.06,0.03,0.1,0.04c0.45,0.68,1.04,1.26,1.6,1.87c0.55,0.6,1.15,1.21,1.36,2.05
		c-0.38-0.17-0.51-0.67-0.75-1.01c-0.7-0.98-1.75-1.73-2.39-2.81C51.63,29.37,51.73,29.39,51.73,29.32z"/>
	<path class="st10" d="M51.08,29.95c0.02,0,0.05,0,0.07,0c0.41,0.35,0.66,0.86,1,1.28c0.34,0.41,0.83,0.77,0.93,1.28
		c-0.29,0.01-0.39-0.34-0.54-0.52c-0.47-0.58-1.09-1.2-1.46-1.91C51.08,30.04,51.08,29.99,51.08,29.95z"/>
	<path class="st10" d="M50.37,30.26c0.04,0,0.07,0,0.11,0c0.32,0.39,0.66,0.78,1,1.18c0.32,0.38,0.73,0.79,0.78,1.32
		c-0.38-0.29-0.6-0.75-0.96-1.18C50.99,31.21,50.46,30.76,50.37,30.26z"/>
	<path class="st10" d="M26.45,35.6c-0.1,0.32-0.41,0.51-0.64,0.73c-0.46,0.43-0.93,0.89-1.39,1.35c-0.21,0.22-0.37,0.54-0.71,0.62
		c0-0.3,0.3-0.53,0.49-0.73c0.66-0.66,1.38-1.35,2.07-2.01C26.36,35.55,26.41,35.57,26.45,35.6z"/>
	<path class="st10" d="M28.06,36.12c0.02,0.29-0.32,0.43-0.5,0.59c-0.21,0.19-0.41,0.37-0.6,0.55c-0.4,0.37-0.72,0.87-1.21,1.11
		c-0.07-0.29,0.26-0.46,0.42-0.63c0.53-0.51,1.12-1.11,1.72-1.59c0-0.04,0.07-0.02,0.07-0.07C28.01,36.07,28.01,36.12,28.06,36.12z"
		/>
	<path class="st10" d="M30.52,36.29c-0.16,0.41-0.59,0.62-0.9,0.9c-0.6,0.55-1.17,1.16-1.74,1.77c-0.28,0.29-0.49,0.7-0.89,0.87
		c0.05-0.4,0.42-0.69,0.68-0.97c0.53-0.58,1.11-1.15,1.71-1.7c0.33-0.3,0.66-0.6,0.96-0.9C30.44,36.23,30.43,36.3,30.52,36.29z"/>
	<path class="st10" d="M28.48,37.02c-0.22,0.46-0.66,0.75-1,1.11c-0.34,0.36-0.58,0.82-1.03,1.08c-0.08-0.27,0.2-0.45,0.36-0.62
		c0.46-0.52,0.95-1.09,1.5-1.56C28.37,37.02,28.43,37.02,28.48,37.02z"/>
	<path class="st10" d="M23.39,37.16c0.01,0.18-0.14,0.13-0.22,0.07C23.18,37.14,23.29,37.16,23.39,37.16z"/>
	<path class="st10" d="M25.56,37.5c0,0.28-0.21,0.35-0.42,0.42C25.02,37.67,25.32,37.53,25.56,37.5z"/>
	<path class="st10" d="M48.52,39.51c0.35,0.01,0.62,0.11,0.82,0.28c-0.15,0.29-0.6-0.09-0.85-0.14
		C48.48,39.59,48.53,39.58,48.52,39.51z"/>
	<path class="st10" d="M49.91,40.59c-0.61-0.1-1.49-0.21-1.86-0.66c0.03-0.03,0.1-0.02,0.12-0.07c0.26,0.1,0.72,0.33,1.1,0.42
		C49.52,40.33,49.91,40.25,49.91,40.59z"/>
	<path class="st10" d="M49.94,43.12c-0.12,0.24-0.39,0.04-0.53,0c-1.26-0.38-2.56-0.91-3.86-1.28c0.02-0.03,0.04-0.06,0.04-0.1
		C47.15,41.96,48.53,42.64,49.94,43.12z"/>
	<path class="st10" d="M45.92,42.53c1.14,0.22,2.48,0.73,3.63,1.11c0.4,0.13,0.81,0.21,1.14,0.42c-0.14,0.19-0.45,0.05-0.61,0
		c-0.95-0.27-1.99-0.69-2.95-1.01c-0.42-0.13-0.85-0.17-1.21-0.38C45.92,42.62,45.92,42.57,45.92,42.53z"/>
	<path class="st10" d="M46.49,43.74c-0.17,0.24-0.47-0.01-0.64-0.07c-0.65-0.23-1.36-0.52-1.97-0.8c0-0.04,0-0.07,0-0.1
		c0.03-0.02,0.06-0.04,0.11-0.04C44.86,43.04,45.68,43.38,46.49,43.74z"/>
	<path class="st10" d="M23.71,44.43c-0.18,0.25-0.45,0.12-0.75,0.07c-0.15,0.48,0.4,2.66-0.07,2.91c-0.24,0.13-0.7-0.16-0.78-0.28
		c-0.41-0.57-0.04-1.99-0.18-2.8c-0.23-0.04-0.59,0.18-0.68-0.11c-0.08-0.24,0.2-0.32,0.36-0.48c0.25-0.27,0.44-0.69,0.64-0.76
		c0.43-0.27,0.75,0.32,1,0.59C23.5,43.86,23.77,44.08,23.71,44.43z"/>
	<path class="st10" d="M47.48,45.51c-0.79-0.04-1.46-0.53-2.17-0.8c-0.72-0.28-1.46-0.52-2.06-0.93c-0.48,0.03-0.74-0.14-0.9-0.42
		c0.24-0.11,0.37,0.15,0.68,0.07c1.2,0.67,2.61,1.22,3.95,1.77C47.15,45.27,47.43,45.3,47.48,45.51z"/>
	<path class="st10" d="M26.74,45.65c-0.01,0.99,0,1.96,0.04,2.91c-0.19,0.2-0.42,0.46-0.75,0.35c-0.37-0.13-0.32-1.25-0.35-2.01
		c-0.03-0.55,0.02-1.1-0.04-1.46c-0.24-0.17-0.58-0.1-0.61-0.42c-0.02-0.25,0.28-0.32,0.43-0.48c0.16-0.18,0.15-0.57,0.5-0.59
		c0.31-0.02,0.62,0.48,0.75,0.62c0.22,0.24,0.66,0.46,0.54,0.83C27.18,45.57,26.97,45.59,26.74,45.65z"/>
	<path class="st10" d="M50.48,45.99c-0.22,0.21-0.69,0.04-1-0.03c-0.59-0.15-1.28-0.39-1.75-0.59c-0.02-0.03-0.04-0.06-0.03-0.1
		c0.43-0.02,1.02,0.21,1.5,0.35C49.65,45.74,50.09,45.82,50.48,45.99z"/>
	<path class="st10" d="M43.81,47.24c-0.6,0.01-1.13-0.33-1.68-0.52c-0.54-0.19-1.09-0.39-1.57-0.66c-0.01-0.06,0.03-0.06,0.04-0.1
		c0.03-0.01,0.03-0.04,0.07-0.04c0.75,0.28,1.63,0.65,2.43,0.94C43.34,46.95,43.7,46.99,43.81,47.24z"/>
	<path class="st10" d="M42.45,48.66c-0.7-0.15-1.42-0.58-2.06-0.9c-0.15-0.02-0.15,0.11-0.29,0.11c-1-0.62-2.33-0.92-3.24-1.63
		c0.32-0.11,0.62,0.16,0.96,0.31c0.74,0.33,1.52,0.69,2.21,1.01c0.49-0.08,0.97,0.28,1.42,0.48C41.85,48.22,42.32,48.33,42.45,48.66
		z"/>
	<path class="st10" d="M46.98,48.21c-0.48,0.09-1.06-0.3-1.5-0.48c-0.52-0.18-1.06-0.36-1.53-0.59c-0.03-0.11,0.06-0.11,0.07-0.17
		c0.01,0,0.03,0,0.03,0C45.05,47.4,46.14,47.66,46.98,48.21z"/>
	<path class="st10" d="M39.64,48.28c-0.41,0.04-0.76-0.28-1.14-0.42c-0.58-0.2-1.19-0.33-1.64-0.66c0.02-0.03,0.03-0.06,0.07-0.07
		c0.37-0.02,0.96,0.34,1.46,0.52c0.24,0.09,0.49,0.15,0.71,0.24C39.31,47.98,39.62,48.04,39.64,48.28z"/>
	<path class="st10" d="M41.03,47.41c0.48,0.13,1.14,0.48,1.67,0.66c0.28,0.1,0.67,0.05,0.75,0.35c-0.1,0.11-0.33,0.03-0.43,0
		c-0.67-0.2-1.37-0.59-2.03-0.8C40.99,47.54,40.99,47.46,41.03,47.41z"/>
	<path class="st10" d="M40.21,49.15c-0.27,0.09-0.55-0.11-0.82-0.21c-0.79-0.29-1.74-0.61-2.42-1.04c0-0.04,0-0.07,0-0.1
		c0.03-0.01,0.04-0.04,0.07-0.04c0.03,0,0.05,0,0.08,0c0.86,0.4,1.74,0.78,2.71,1.08C39.87,49,40.35,48.92,40.21,49.15z"/>
	<path class="st10" d="M46.88,48.98c-0.89-0.11-1.54-0.44-2.25-0.73c-0.02-0.03-0.04-0.06-0.03-0.11c0.59,0,1.15,0.33,1.67,0.52
		C46.53,48.71,46.83,48.72,46.88,48.98z"/>
	<path class="st10" d="M40.14,48.31c0.24,0.05,0.49,0.1,0.53,0.35C40.47,48.72,40.03,48.57,40.14,48.31z"/>
	<path class="st10" d="M46.34,49.25c-0.38,0.09-0.93-0.14-1.39-0.31c-0.33-0.13-0.78-0.27-0.85-0.55c0.37,0,0.71,0.28,1.1,0.42
		C45.6,48.94,46.08,48.95,46.34,49.25z"/>
	<path class="st10" d="M42.92,49.67c-0.71-0.09-1.44-0.47-2.06-0.76c0-0.03,0-0.07,0-0.1c0.03-0.01,0.04-0.04,0.07-0.03
		c0.41,0.06,0.75,0.3,1.14,0.45C42.38,49.34,42.83,49.33,42.92,49.67z"/>
	<path class="st10" d="M45.42,49.53c-0.61-0.03-1.23-0.35-1.72-0.62c0-0.04,0.01-0.06,0.04-0.07c0.03-0.02,0.06-0.04,0.11-0.04
		C44.35,49.05,45.1,49.13,45.42,49.53z"/>
	<path class="st10" d="M44.1,49.46c0.05,0.05,0.05,0.13,0,0.17c0.1,0.18,0.46,0.1,0.46,0.38c-0.44,0.06-0.77-0.27-0.96-0.55
		c-0.25-0.02-0.46-0.09-0.57-0.24c-0.02-0.09,0.07-0.07,0.07-0.14C43.42,49.21,43.79,49.31,44.1,49.46z"/>
	<path class="st10" d="M42.49,50.15c-0.64-0.07-1.42-0.49-2.06-0.76c0-0.03,0-0.07,0-0.1c0.02-0.02,0.06-0.04,0.1-0.04
		c0.27,0.05,0.49,0.14,0.68,0.28C41.66,49.71,42.25,49.76,42.49,50.15z"/>
	<path class="st10" d="M42.32,50.67c-0.16,0.29-0.54,0-0.82-0.07c-0.29-0.07-0.59-0.07-0.79-0.21c0-0.03,0-0.07,0-0.11
		C41.25,50.27,41.87,50.48,42.32,50.67z"/>
	<path class="st10" d="M40.61,50.88c0.41,0.02,0.7,0.17,0.99,0.31c-0.21,0.32-0.71-0.12-0.99-0.17
		C40.61,50.97,40.61,50.93,40.61,50.88z"/>
	<path class="st10" d="M41.32,51.68c-0.2,0.09-0.39-0.1-0.54-0.17c0-0.04,0-0.07,0-0.11C40.99,51.33,41.3,51.45,41.32,51.68z"/>
	<path class="st10" d="M53.44,26.76c1.06,1.13,2.38,2.04,3.39,3.26c0.99,1.2,2.14,2.32,2.67,3.88c-0.44,0.39-1.05,0.53-1.6,0.76
		c-1.59,0.68-3.2,1.55-4.78,2.29c-0.05,1.62-0.1,3.3,0.04,5.02c0.08,1.03-0.04,2.32-0.04,3.33c0,0.33,0.13,0.77,0.04,1.01
		c-0.07,0.2-0.58,0.42-0.89,0.59c-2.16,1.21-4.41,2.38-6.62,3.5c-1.93,0.97-3.75,1.94-5.81,2.91c-0.67,0.31-1.46,0.82-2.03,0.87
		c-0.73,0.06-1.75-0.35-2.53-0.59c-1.71-0.53-3.02-1.02-4.6-1.56c-3.07-1.05-6.27-1.98-8.95-3.36c-0.33-0.17-0.69-0.34-1.03-0.52
		c-0.74-0.38-1.42-0.62-2.32-0.97c-0.38-0.15-1.09-0.29-1.25-0.49c-0.24-0.29-0.32-1.76-0.36-2.25c-0.17-2.11-0.25-3.85-0.57-5.89
		c-0.07-0.4-0.01-0.9-0.14-1.14c-0.12-0.22-0.74-0.47-1.07-0.62c-1.18-0.53-2.3-1.02-3.39-1.63c0-0.3,0.12-0.41,0-0.66
		c0.49-0.85,0.83-1.73,1.32-2.53c0.24-0.38,0.57-0.7,0.86-1.08c0.67-0.87,1.22-1.78,1.96-2.6c-0.4-0.52-1.13-0.81-1.86-1.14
		c-0.66-0.31-1.41-0.62-2.17-0.8c-0.39-0.09-1.09-0.03-1.18-0.31c-0.1-0.34,0.52-0.71,0.78-0.87c1.06-0.63,2.02-1.27,3.03-1.84
		c3.47-1.97,6.86-3.88,10.4-5.82c0.31-0.17,0.71-0.35,1.11-0.52c0.41-0.17,0.89-0.4,1.22-0.42c0.43-0.01,1.11,0.29,1.42,0.45
		c0.15,0.07,0.39,0.34,0.54,0.42c0.34,0.18,0.77,0.31,1.18,0.52c0.76,0.39,1.42,0.65,2.24,1.11c0.19,0.11,0.91,0.6,1.07,0.59
		c0.21-0.01,0.97-0.91,1.14-1.07c1.13-1.06,2.55-1.93,3.89-2.7c0.34-0.2,0.92,0.18,1.36,0.35c0.41,0.16,0.79,0.36,1.14,0.49
		c0.83,0.31,1.7,0.58,2.46,0.8c0.81,0.23,1.6,0.6,2.43,0.83c0.81,0.23,1.67,0.51,2.45,0.8c1.56,0.58,3.22,1.01,5.03,1.49
		c1.25,0.33,2.4,0.75,3.71,1.18c0.33,0.11,1.01,0.22,1.03,0.55c0.03,0.33-0.95,0.94-1.17,1.11C55.64,24.49,54.41,25.42,53.44,26.76z
		 M47.88,19.58c-0.72-0.28-1.5-0.54-2.28-0.76c-0.79-0.22-1.52-0.59-2.28-0.8c-0.77-0.21-1.59-0.43-2.35-0.69
		c-0.76-0.26-1.47-0.79-2.17-0.9c-0.08-0.01-0.1,0.05-0.14,0.07c-1.27,0.6-2.58,1.56-3.56,2.46c-0.35,0.32-0.78,0.64-0.89,1.08
		c1.81,0.65,3.88,0.96,5.77,1.8c0.83,0.37,1.76,0.66,2.75,1.04c0.39,0.15,0.83,0.39,1.32,0.59c0.38,0.15,1.11,0.5,1.46,0.45
		c0.25-0.03,0.7-0.44,0.97-0.63c0.84-0.57,1.61-1.06,2.49-1.49c0.13-0.06,0.35-0.31,0.5-0.1c-0.23,0.29-0.61,0.37-0.92,0.55
		c-0.31,0.18-0.61,0.39-0.93,0.59c-0.61,0.38-1.3,0.69-1.74,1.25c0.62,0.43,1.31-0.24,1.78-0.52c0.44-0.27,0.83-0.59,1.21-0.66
		c0.07,0.23-0.24,0.32-0.39,0.42c-0.56,0.35-1.21,0.67-1.64,1.08c0.27,0.12,0.48-0.15,0.68-0.28c0.44-0.28,0.86-0.51,1.29-0.76
		c0.17-0.1,0.42-0.42,0.64-0.21c-0.61,0.56-1.55,0.81-2.07,1.46c1.76,0.7,3.49,1.43,5.38,2.01c0.7-0.74,1.34-1.54,2.1-2.22
		c0.77-0.68,1.66-1.21,2.39-1.94C54.38,21.27,51.01,20.81,47.88,19.58z M29.52,18.27c-0.42-0.2-0.88-0.35-1.25-0.55
		c-0.35-0.2-0.84-0.68-1.35-0.52c-1.38,0.42-2.65,1.27-3.96,1.98c-2.57,1.38-5.1,2.87-7.59,4.26c-1.3,0.73-2.57,1.46-3.71,2.25
		c0.65,0.31,1.37,0.45,2.03,0.73c0.3,0.12,0.61,0.3,0.93,0.45c0.3,0.15,0.66,0.28,0.92,0.45c0.22,0.14,0.58,0.65,0.89,0.66
		c0.2,0.01,0.74-0.33,1.03-0.48c1.08-0.54,2.11-1.1,3.07-1.53c1.49-0.66,2.94-1.2,4.24-1.87c1.36-0.7,2.72-1.39,4.1-2.01
		c0.7-0.32,1.42-0.62,2.1-0.93c0.7-0.32,1.42-0.63,2.04-1.04C32.06,19.43,30.64,18.8,29.52,18.27z M42.18,23.29
		c-1.19-0.44-2.27-0.87-3.43-1.32c-0.77-0.3-1.63-0.46-2.46-0.69c-0.83-0.23-1.63-0.54-2.42-0.73c-0.13-0.03-0.23-0.04-0.32,0
		c-1.4,0.61-2.79,1.34-4.24,1.98c-1.43,0.63-2.81,1.33-4.21,2.05c-2.82,1.46-5.91,2.43-8.44,4.02c0.68,0.24,1.3,0.54,2,0.76
		c0.64-0.54,1.44-0.81,2.21-1.18c0.38-0.18,0.73-0.47,1.1-0.69c0.76-0.46,1.56-0.84,2.35-1.25c0.38-0.2,0.79-0.51,1.25-0.45
		c-0.39,0.33-0.9,0.53-1.35,0.76c-1.44,0.74-2.8,1.49-4.1,2.32c-0.54,0.03-0.83,0.3-1.11,0.59c0.39,0.1,0.73,0.48,1.11,0.45
		c0.18-0.02,0.51-0.29,0.71-0.42c0.27-0.17,0.48-0.36,0.72-0.45c0.14-0.03,0.2,0.08,0.28,0c2.74-1.35,5.4-3.06,8.19-4.3
		c0.15-0.07,0.38-0.22,0.57-0.14c-0.02,0.23-0.34,0.29-0.54,0.38c-0.71,0.31-1.45,0.65-2.06,1.01c-0.11,0.06-0.08,0.27-0.22,0.31
		c-2.06,0.98-4.12,1.95-6.06,3.05c-0.09,0.09-0.16-0.02-0.28,0c-0.3,0.25-0.74,0.36-0.97,0.69c0.81,0.46,1.37-0.54,2.04-0.76
		c0.15-0.01,0.08,0.19,0.28,0.14c1.25-0.7,2.52-1.39,3.85-2.01c0.13,0.01,0.13,0.05,0.25,0c1.25-0.65,2.56-1.47,3.85-2.08
		c0.44-0.21,0.9-0.51,1.35-0.62c0.38-0.1,0.69-0.16,1.07-0.31c0.73-0.29,1.39-0.6,2.11-0.87c0.96-0.36,1.9-0.86,2.99-0.93
		c-0.1,0.28-0.46,0.25-0.68,0.31c-1.78,0.51-3.38,1.38-5.06,1.98c-0.11,0-0.21,0-0.32,0c-1.43,0.64-2.79,1.43-4.17,2.18
		c-0.49,0.27-1.12,0.67-1.71,0.73c-1.45,0.68-2.75,1.51-4.18,2.22C22,30.04,22,29.92,21.85,29.95c-0.15,0.15-0.42,0.21-0.53,0.42
		c0.12,0.16,0.37,0.2,0.53,0.31c0.23-0.19,0.55-0.65,0.89-0.48c-0.13,0.28-0.52,0.3-0.68,0.55c0.22,0.13,0.54-0.03,0.75-0.14
		c0.44-0.24,0.9-0.52,1.07-0.94c-0.34,0.05-0.52,0.42-0.86,0.35c0.12-0.37,0.59-0.46,0.89-0.63c0.69-0.37,1.32-0.71,2-1.04
		c0.34-0.16,0.69-0.41,1.07-0.42c-0.51,0.64-1.55,0.72-2.21,1.21c-0.29,0.22-0.5,0.55-0.71,0.83c0.95-0.37,1.68-0.96,2.67-1.28
		c0.15-0.05-0.01,0.19,0.15,0.14c2.31-1.5,4.91-2.92,7.45-4.16c0.4-0.2,0.8-0.27,1.25-0.41c0.91-0.29,1.86-0.74,2.85-1.01
		c0.3-0.08,0.74-0.32,1-0.1c-0.17,0.16-0.44,0.19-0.64,0.24c-0.77,0.19-1.37,0.42-2.03,0.66c-1.63,0.6-3.14,1.17-4.57,1.91
		c-1.88,0.97-3.63,2.15-5.38,3.19c-0.11,0,0.05-0.26-0.11-0.21c-0.18-0.02-0.22,0.11-0.36,0.14c-0.1,0.1,0.11,0.1,0.11,0.21
		c-0.06,0.12-0.29,0.21-0.21,0.35c0.35-0.1,0.61-0.29,0.93-0.45c0.33-0.17,0.67-0.25,0.99-0.42c0.41-0.21,0.81-0.53,1.25-0.8
		c0.42-0.25,0.85-0.54,1.28-0.8c0.95-0.57,2.23-1.01,2.96-1.7c1.39-0.5,2.87-1.09,4.31-1.52c0.49-0.15,1.05-0.36,1.5-0.31
		c-0.28,0.31-0.71,0.31-1.07,0.42c-0.38,0.11-0.77,0.26-1.14,0.38c-3.25,1.03-5.92,2.6-8.56,4.23c-0.4,0.25-0.67,0.58-1.1,0.55
		c-0.96,0.59-2.21,0.88-2.75,1.87c0.59-0.2,1-0.57,1.46-0.9c0.12-0.03,0.13,0.05,0.24,0.04c0.92-0.45,1.75-0.98,2.75-1.35
		c0.14-0.01,0.05,0.2,0.21,0.17c0.18-0.13,0.55-0.22,0.36-0.52c0.29-0.21,0.64-0.42,1-0.62c0.33-0.2,0.74-0.49,1.03-0.45
		c0.09,0.23-0.34,0.25-0.43,0.42c0.96-0.31,1.74-0.81,2.64-1.18c0.03-0.07-0.03-0.23,0.07-0.31c2.25-1.02,4.66-2.29,7.24-2.95
		c0.13-0.03,0.39-0.19,0.49,0c-0.37,0.27-0.86,0.29-1.28,0.45c-1.28,0.49-2.58,0.95-3.74,1.52c0.3,0.01,0.71-0.31,0.93-0.03
		c-1.95,0.69-3.77,1.49-5.42,2.46c0.01,0.15-0.05,0.23-0.11,0.31c-1,0.49-2.04,1.13-2.95,1.73c-0.44,0.28-1.04,0.49-1.15,1.04
		c0.71-0.23,1.19-0.67,1.72-1.08c0.63-0.09,0.95-0.51,1.42-0.76c1.39-0.73,2.86-1.33,4.35-1.94c0.13,0.01,0.1,0.17,0.28,0.14
		c1.96-0.69,3.82-1.49,5.92-2.04c-0.01-0.15,0.01-0.27,0.07-0.35c0.42-0.05,0.82-0.21,1.25-0.31c0.41-0.1,0.91-0.11,1.21-0.38
		c-0.39-0.12-0.81-0.31-1.21-0.17c-0.52,0.17-1.12,0.34-1.72,0.52c-0.6,0.18-1.21,0.45-1.71,0.42c0.12-0.29,0.52-0.27,0.78-0.34
		c0.88-0.24,1.78-0.56,2.64-0.8C42.94,23.54,42.52,23.42,42.18,23.29z M44.6,24.47c-0.84,0.11-1.7,0.52-2.5,0.62
		c0,0.13,0.02,0.27-0.07,0.31c-2.44,0.7-5.01,1.7-7.31,2.63c-0.34,0.14-0.73,0.37-1.03,0.42c-0.13,0.02-0.26-0.03-0.39,0
		c-0.26,0.06-0.6,0.32-0.93,0.48c-0.6,0.31-1.18,0.53-1.39,1.11c1.35-0.55,2.45-1.33,3.82-1.87c0.1,0.01,0.15,0.06,0.25,0.07
		c0.66-0.26,1.34-0.68,2.03-0.93c0.33-0.12,0.71-0.33,1.07-0.24c0.07,0.2-0.19,0.07-0.18,0.21c1.74-0.45,3.46-1.21,5.38-1.59
		c0.14,0.02,0.1,0.2,0.25,0.21c0.37-0.11,0.76-0.25,1.14-0.38c0.36-0.13,0.72-0.4,1.07-0.31c-0.42,0.47-1.33,0.58-1.96,0.83
		c-0.2,0.08-0.38,0.31-0.58,0.07c-0.05-0.12,0.27-0.14,0.07-0.17c-0.49,0.05-0.85,0.23-1.32,0.31c-0.29,0.33-0.78,0.47-1.1,0.76
		c0.89-0.13,1.91-0.43,2.71-0.76c0.1,0.06,0.17,0.15,0.22,0.28c0,0.13-0.18,0.08-0.18,0.21c1.09-0.25,2.64-0.58,3.81-0.87
		c0.07-0.02,0.66-0.28,0.68-0.03c0.01,0.13-0.61,0.22-0.68,0.24c-0.33,0.08-0.56,0.09-0.74,0.21c0.17,0,0.36-0.03,0.36,0.14
		c-0.16,0.21-0.44,0.16-0.68,0.21c-0.43,0.09-0.9,0.26-1.35,0.38c-0.44,0.12-1.07,0.14-1.18,0.59c0.76,0.23,1.31-0.11,2.08-0.28
		c0.7-0.16,1.47-0.37,2.09-0.45c0.63-0.09,1.12-0.26,1.68-0.17c-0.15,0.31-0.55,0.2-0.82,0.24c-0.62,0.1-1.41,0.27-2.11,0.42
		c-1.01,0.21-1.76,0.47-2.39,0.94c0.44,0.11,0.79-0.09,1.22-0.21c0.98-0.27,1.96-0.58,2.92-0.76c0.36-0.07,0.76-0.09,1.1-0.17
		c0.2-0.05,0.45-0.29,0.64-0.04c-1.07,0.36-2.17,0.56-3.24,0.83c-1.49,0.38-2.9,0.75-4.17,1.28c-0.24,0.1-0.53,0.21-0.68,0.42
		c0.82-0.24,1.56-0.58,2.5-0.69c0.59-0.07,1.25-0.4,1.89-0.59c1.02-0.29,1.95-0.53,2.89-0.73c0.16-0.03,0.46-0.13,0.6,0.04
		c-0.29,0.23-0.7,0.2-1.07,0.28c-0.64,0.14-1.19,0.31-1.82,0.49c-0.46,0.13-0.98,0.2-1.24,0.34c-0.1,0.06-0.16,0.18-0.25,0.24
		c-0.25,0.17-0.56,0.21-0.75,0.42c0.91-0.21,1.78-0.47,2.71-0.69c0.62-0.15,1.28-0.22,1.82-0.45c0.66-0.28,1.25-0.71,1.92-0.97
		c0.19-0.07,0.51-0.12,0.57-0.35c-2.16-0.64-3.99-1.59-6.13-2.25c-0.94,0.31-1.91,0.59-2.86,0.9c-0.09,0.1-0.44,0.25-0.54,0.04
		c0.84-0.48,2-0.65,2.93-1.04C45.21,24.43,44.82,24.44,44.6,24.47z M46.02,26.41c0.12,0.05,0.44,0.03,0.53-0.07
		C46.41,26.28,46.12,26.33,46.02,26.41z M45.52,26.55c0.08,0.05,0.34,0.02,0.4-0.07C45.78,26.5,45.55,26.43,45.52,26.55z
		 M38.97,27.21c-0.12,0.06-0.2,0.18-0.32,0.24c-0.44,0.21-0.94,0.33-1.39,0.52c-0.93,0.39-1.81,0.78-2.64,1.21
		c-0.39,0.21-0.9,0.34-1.14,0.73c1.58-0.76,3.08-1.61,4.85-2.18c0.17-0.03,0.12,0.14,0.29,0.1c0.81-0.37,1.66-0.7,2.32-1.21
		C40.29,26.82,39.56,26.92,38.97,27.21z M44.99,26.72c0.14-0.01,0.34,0.03,0.36-0.1C45.2,26.63,45.01,26.59,44.99,26.72z
		 M40.93,27.87c0.9-0.07,1.68-0.49,2.5-0.69c0.57-0.14,0.99-0.16,1.42-0.42c-0.64,0.07-1.14,0.28-1.72,0.42
		c-0.06-0.07,0-0.24,0.04-0.31c0.14-0.01,0.35,0.05,0.35-0.1C42.45,26.93,41.65,27.36,40.93,27.87z M37.47,28.87
		c0.33,0.2,0.7-0.1,1.03-0.21c1.15-0.37,2.15-0.89,2.99-1.46C39.93,27.42,38.63,28.17,37.47,28.87z M50.62,28.32
		c-0.7,0.36-1.4,0.77-2.1,1.11c-1.44,0.69-2.79,1.52-4.21,2.22c-0.69,0.34-1.39,0.74-2.07,1.11c-2.09,1.14-4.08,2.4-6.35,3.29
		c0.22,0.48,0.71,0.82,1.03,1.25c0.32,0.43,0.61,0.92,0.93,1.39c0.31,0.46,0.59,0.95,0.86,1.46c0.52,1.02,1.23,1.96,1.6,3.05
		c0.4-0.15,0.78-0.38,1.14-0.59c1.11-0.65,2.26-1.24,3.43-1.84c2.28-1.17,4.43-2.61,6.73-3.74c1.98-0.97,3.95-1.98,5.95-2.81
		c0.4-0.17,0.83-0.33,1.18-0.59c-1.42-2.59-3.52-4.53-5.74-6.34C52.17,27.59,51.4,27.91,50.62,28.32z M37.54,27.45
		c0.12,0,0.25,0.01,0.25-0.1C37.68,27.36,37.55,27.34,37.54,27.45z M36.47,27.9c0.39-0.08,0.71-0.23,1-0.42
		C37.04,27.54,36.71,27.68,36.47,27.9z M36.15,28.01c0.06,0.05,0.26,0.02,0.25-0.1C36.32,27.94,36.16,27.91,36.15,28.01z
		 M43.31,28.22c-0.11-0.02-0.13-0.13-0.25-0.14c-0.51,0.24-1.1,0.41-1.43,0.83c0.87-0.22,1.69-0.48,2.42-0.83
		C43.72,28.03,43.61,28.21,43.31,28.22z M39.25,28.87c0.59-0.16,1.15-0.36,1.61-0.66C40.24,28.35,39.64,28.52,39.25,28.87z
		 M34.97,28.49c-0.62,0.31-1.28,0.66-1.92,1.01c-0.31,0.16-0.62,0.33-0.93,0.49c-0.28,0.14-0.71,0.24-0.82,0.59
		c0.36-0.02,0.68-0.25,1-0.42c0.68-0.36,1.34-0.7,2-1.04c0.32-0.16,0.72-0.3,0.89-0.62C35.11,28.49,35.04,28.49,34.97,28.49z
		 M34.97,29.46c0.01,0.08,0.2,0,0.18,0.1c0,0.23-0.3,0.17-0.36,0.35c0.7-0.2,1.26-0.54,1.93-0.76c0.12-0.33,0.52-0.39,0.75-0.62
		C36.66,28.73,35.65,29.03,34.97,29.46z M39.14,29.39c-0.02,0.12,0.16,0.06,0.1,0.21c-0.49,0.25-1.04,0.45-1.57,0.66
		c-0.12-0.2-0.42-0.13-0.61-0.03c-0.08,0.06-0.06,0.21-0.14,0.28c-0.82,0.53-1.86,0.86-2.67,1.35c-0.37,0.22-0.83,0.4-1.04,0.76
		c0.96-0.45,1.94-1.07,2.86-1.52c0.36-0.18,0.68-0.26,1.1-0.38c0.75-0.22,1.47-0.65,2.21-0.94c0.76-0.29,1.5-0.62,2.04-1.14
		C40.54,28.77,39.9,29.14,39.14,29.39z M47.66,28.94c-0.98,0.25-2.04,0.54-2.92,0.83c-0.36,0.12-1.02,0.19-1.07,0.59
		c0.47-0.08,0.92-0.22,1.42-0.38c0.46-0.15,0.91-0.49,1.36-0.55c0.11-0.02,0.25,0.04,0.35,0.03c0.47-0.04,0.88-0.31,1.24-0.52
		C47.92,28.89,47.77,28.91,47.66,28.94z M42.25,29.01c0.07,0.07,0.22,0.01,0.24-0.07C42.39,28.95,42.25,28.91,42.25,29.01z
		 M30.05,34.52c-1.25-0.47-2.47-1-3.71-1.46c-0.63-0.23-1.26-0.49-1.92-0.66c-0.61-0.41-1.36-0.57-2.07-0.87
		c-0.67-0.28-1.34-0.62-2.03-0.9c-0.7-0.28-1.4-0.58-2.11-0.83c-0.73-0.27-1.43-0.58-2.21-0.73c-0.08-0.01-0.11,0.05-0.14,0.07
		c-0.44,0.28-0.88,0.97-1.24,1.49c-0.36,0.52-0.85,1.01-1.18,1.53c-0.54,0.83-0.89,1.8-1.28,2.6c0.98,0.6,2.05,1.03,3.14,1.52
		c0.57,0.26,1.1,0.59,1.67,0.87c1.13,0.55,2.36,1.02,3.53,1.56c1.72,0.79,3.65,1.5,5.56,2.08c0.94,0.29,1.85,0.64,2.92,0.76
		c1.62-2,3.37-3.88,5.2-5.68C32.8,35.38,31.41,35.03,30.05,34.52z M40.67,29.6c0.55,0.01,1.04-0.33,1.5-0.52
		C41.58,29.16,41.08,29.34,40.67,29.6z M38.07,29.19c-0.64,0.18-1.22,0.47-1.82,0.73c-0.8,0.34-1.61,0.65-2.39,1.01
		c-0.79,0.36-1.5,0.8-2.24,1.18c-0.43,0.22-0.93,0.36-1.21,0.76c0.11,0.22-0.09,0.26-0.18,0.38c0.11,0.21,0.1,0.25-0.03,0.42
		c0.25-0.04,0.44-0.24,0.36-0.52c0.48-0.22,0.76-0.65,1.18-0.94c0.09,0.03,0.09,0.14,0.25,0.1c0.14-0.08,0.22-0.23,0.35-0.31
		c1.46-0.61,2.86-1.52,4.36-2.08c0.52-0.2,1.08-0.3,1.46-0.73C38.12,29.19,38.1,29.19,38.07,29.19z M27.63,29.95
		c0.03,0.27-0.11,0.37-0.25,0.49c0.59-0.27,1.21-0.81,1.78-1.21C28.54,29.36,28.11,29.67,27.63,29.95z M39.82,31.2
		c0.83-0.25,1.63-0.65,2.46-0.94c0.84-0.3,1.7-0.55,2.38-1.04C42.88,29.72,41.05,30.1,39.82,31.2z M24.92,29.81
		c0.14,0.34-0.26,0.37-0.28,0.66c0.69-0.21,1.09-0.72,1.49-1.21C25.64,29.35,25.35,29.65,24.92,29.81z M38,31.33
		c0.88-0.08,1.42-0.48,2.07-0.8c0.54-0.26,1.07-0.5,1.46-0.87C40.23,30.11,38.95,30.56,38,31.33z M44.81,30.61
		c0.63-0.17,1.14-0.44,1.6-0.76C45.76,29.98,45.25,30.26,44.81,30.61z M29.12,31.06c0.58-0.19,1.29-0.55,1.57-1.14
		C30.07,30.19,29.46,30.49,29.12,31.06z M34.51,30.02c0.08,0.07,0.22,0.01,0.25-0.07C34.65,29.94,34.54,29.95,34.51,30.02z
		 M23.07,30.99c-0.06-0.03-0.06-0.13-0.18-0.11c-0.04,0.05-0.15,0.04-0.14,0.14c0.4,0.24,0.86,0.42,1.39,0.52
		c0.02-0.35,0.47-0.46,0.46-0.73c-0.37,0.11-0.57,0.4-0.96,0.48c-0.01-0.08-0.13-0.07-0.11-0.17c0.34-0.34,0.78-0.59,1-1.04
		C23.92,30.27,23.51,30.65,23.07,30.99z M25.56,31.33c0.71-0.21,1.27-0.54,1.61-1.11C26.45,30.42,25.91,30.78,25.56,31.33z
		 M36.72,30.26c-0.78,0.3-1.56,0.72-2.32,1.08c-0.74,0.34-1.5,0.67-2.08,1.18c0.71-0.22,1.11-0.72,1.9-0.87
		c0.79-0.53,1.85-0.79,2.56-1.39C36.77,30.26,36.74,30.26,36.72,30.26z M43.13,30.82c-0.11-0.01-0.06-0.17-0.21-0.14
		c-0.56,0.19-1.11,0.38-1.42,0.8c0.57-0.02,1.04-0.52,1.53-0.28c0.36-0.28,0.93-0.36,1.24-0.69C43.8,30.51,43.58,30.77,43.13,30.82z
		 M27.49,30.85c-0.7,0.09-1.1,0.48-1.42,0.94c0.7-0.29,1.43-0.55,1.86-1.11C27.71,30.55,27.65,30.82,27.49,30.85z M40.96,31.06
		c0.41-0.06,0.71-0.21,1-0.38C41.55,30.73,41.25,30.88,40.96,31.06z M30.01,31.33c0.36-0.12,0.64-0.33,0.83-0.62
		C30.44,30.79,30.08,30.93,30.01,31.33z M31.62,30.85c-0.51,0.32-1.11,0.54-1.42,1.04c0.56-0.28,1.16-0.54,1.64-0.9
		C31.76,30.94,31.77,30.82,31.62,30.85z M29.8,31.09c0-0.03-0.02-0.04-0.07-0.04c-0.56,0.23-0.95,0.61-1.43,0.94
		c0,0.12-0.28,0.28-0.14,0.31C28.97,32.15,29.44,31.67,29.8,31.09z M40.64,31.2c0.12,0,0.25,0.01,0.25-0.1
		C40.78,31.1,40.67,31.11,40.64,31.2z M24.56,31.3c-0.1,0.08-0.22,0.15-0.25,0.31c0.32,0.39,0.76-0.07,0.89-0.38
		C24.97,31.27,24.77,31.52,24.56,31.3z M38.68,31.47c-0.02,0.11,0.1,0.09,0.11,0.17c0.25-0.02,0.42-0.12,0.57-0.24
		C39.2,31.15,38.84,31.34,38.68,31.47z M40.32,31.33c0.09,0,0.21,0.02,0.21-0.07C40.46,31.29,40.29,31.21,40.32,31.33z M27.56,31.58
		c0.05-0.07,0.15-0.08,0.25-0.1c0.01-0.1-0.08-0.1-0.18-0.1C27.65,31.46,27.46,31.53,27.56,31.58z M37.25,31.37
		c-1.09,0.54-2.51,1.13-3.42,1.84c0.99-0.33,1.87-0.88,2.75-1.28c0.3-0.14,0.69-0.18,0.93-0.45c-0.03-0.01-0.04-0.03-0.03-0.07
		C37.42,31.34,37.26,31.37,37.25,31.37z M38.54,32.44c0.03,0.13,0.04,0.18-0.04,0.28c0.98-0.3,1.83-0.74,2.53-1.32
		C40.15,31.57,39.38,32.13,38.54,32.44z M39.96,31.47c0.1,0,0.21,0.02,0.21-0.07C40.08,31.4,39.97,31.38,39.96,31.47z M26.74,32.48
		c0.63-0.23,1.21-0.51,1.6-0.97C27.69,31.72,27.11,31.99,26.74,32.48z M40.07,32.51c0.77-0.27,1.51-0.57,2.14-0.97
		C41.39,31.77,40.57,31.98,40.07,32.51z M25.1,31.92c0.23,0.34,0.62-0.09,0.69-0.35C25.51,31.66,25.23,31.72,25.1,31.92z
		 M25.89,32.2c0,0.02,0,0.05,0,0.07c0.09,0.11,0.26,0.14,0.46,0.14c0.13-0.33,0.51-0.41,0.64-0.73
		C26.57,31.81,26.18,31.96,25.89,32.2z M36.08,32.65c0.53-0.19,1.04-0.39,1.46-0.69C36.94,32.09,36.49,32.34,36.08,32.65z
		 M28.98,32.51c0.3-0.03,0.65-0.36,0.57-0.52C29.33,32.14,29.1,32.26,28.98,32.51z M29.8,32.51c0.26,0.16,0.62-0.09,0.61-0.42
		C30.15,32.17,29.94,32.3,29.8,32.51z M27.06,32.68c0.26,0.1,0.52-0.08,0.57-0.31c0.04,0,0.03-0.05-0.03-0.04
		C27.42,32.46,27.14,32.47,27.06,32.68z M27.67,32.93c0.3,0.23,0.77-0.08,0.85-0.38C28.16,32.5,27.81,32.67,27.67,32.93z
		 M30.98,33.41c0.36-0.12,0.6-0.37,0.82-0.62c0-0.04-0.01-0.08-0.07-0.07C31.47,32.92,31,33.1,30.98,33.41z M31.7,33.48
		c0.42-0.13,0.91-0.38,0.99-0.73C32.32,32.96,31.91,33.13,31.7,33.48z M29.09,33.21c0.29,0.17,0.74,0,0.86-0.21
		C29.67,32.94,29.23,32.9,29.09,33.21z M38.86,33.52c0.24-0.06,0.42-0.2,0.53-0.38C39.2,33.1,38.75,33.26,38.86,33.52z M32.84,33.27
		c0.08-0.02,0.18-0.03,0.17-0.14C32.89,33.13,32.84,33.18,32.84,33.27z M34.19,33.97c0.52-0.15,0.89-0.43,1.28-0.69
		C35.01,33.46,34.41,33.54,34.19,33.97z M36.33,33.97c0.43-0.16,0.88-0.3,1.14-0.62C36.99,33.46,36.64,33.7,36.33,33.97z
		 M31.59,33.97c0.32-0.02,0.52-0.17,0.61-0.42C31.95,33.65,31.69,33.73,31.59,33.97z M35.87,33.59c0,0.15,0.21,0.04,0.21-0.04
		C35.97,33.53,35.95,33.59,35.87,33.59z M39.21,33.59c-0.03,0.13,0.23,0.07,0.18-0.04C39.31,33.54,39.26,33.56,39.21,33.59z
		 M35.58,33.79c0.1,0.01,0.19,0.01,0.18-0.1C35.7,33.72,35.56,33.69,35.58,33.79z M36.11,34.07c0.1,0.01,0.2,0,0.18-0.1
		C36.23,34,36.1,33.97,36.11,34.07z M38.18,34.24c0.1,0,0.18-0.01,0.18-0.11C38.25,34.13,38.16,34.14,38.18,34.24z M33.09,37.81
		c-1.22,1.08-2.2,2.33-3.21,3.64c-0.2,0.26-0.47,0.69-0.64,0.73c-0.18,0.04-0.59-0.09-0.93-0.14c-0.91-0.14-1.76-0.51-2.46-0.73
		c-3.32-1.05-6.16-2.34-9.12-3.6c0.32,2.68,0.51,5.79,0.86,8.56c1.1,0.39,2.33,0.84,3.28,1.35c2.23,1.21,4.71,2.11,7.27,2.95
		c1.45,0.47,2.89,0.99,4.35,1.49c1.45,0.49,2.91,1.05,4.45,1.35c-0.12-1.29-0.28-2.6-0.5-3.92c-0.22-1.33-0.28-2.71-0.39-4.09
		c-0.06-0.75-0.2-1.52-0.29-2.29c-0.08-0.75-0.24-1.52-0.35-2.26c-0.25-1.53-0.32-3.06-0.71-4.47c-0.03,0-0.05,0-0.08,0
		C34.07,36.74,33.65,37.31,33.09,37.81z M36.04,37.26c-0.13-0.31-0.36-0.53-0.64-0.69C35.27,36.99,35.67,37.21,36.04,37.26z
		 M52.01,37.47c-0.02,0.12,0.13,0.09,0.1,0.21c-0.05,0.01-0.06,0.06-0.1,0.07c-0.17,0.03-0.24-0.16-0.36-0.07
		c-0.04,0.18,0.12,0.16,0.25,0.17c0.14,0.13,0.4,0.28,0.6,0.24c0.05-0.21,0.07-0.59,0-0.8C52.27,37.28,52.18,37.41,52.01,37.47z
		 M36,37.5c-0.17-0.03-0.26-0.15-0.46-0.14c-0.1,0.32,0.07,0.66,0.14,0.93c0.57,0.13,0.91,0.48,1.53,0.56
		c-0.19-0.4-0.55-0.64-0.96-0.83c-0.2-0.01-0.5,0.07-0.46-0.17c0.2-0.17,0.6,0.01,0.78,0.07c-0.05-0.3-0.22-0.48-0.47-0.59
		C36.06,37.37,36.1,37.5,36,37.5z M51.48,37.99c-0.08-0.04-0.11-0.13-0.22-0.14c-0.99,0.49-1.95,1.01-2.81,1.63
		c-0.51,0.21-1.01,0.43-1.35,0.8c0.52,0.12,1.08,0.19,1.67,0.35c0.53,0.14,1.11,0.56,1.5,0.24c0.67,0.3,1.47,0.47,2.21,0.7
		c0.13-0.14,0.04-0.42,0-0.59c-0.67-0.14-1.28-0.33-1.93-0.49c-0.09-0.17-0.5-0.05-0.47-0.35c0.76,0.03,1.62,0.62,2.39,0.52
		c-0.09-0.26-0.44-0.27-0.68-0.35c-0.53-0.17-1.07-0.32-1.57-0.48c-0.24-0.08-0.58-0.14-0.64-0.35c0.45-0.06,0.91,0.2,1.39,0.35
		c0.47,0.14,0.96,0.33,1.46,0.42c0.07-0.08,0.03-0.26,0-0.35c-0.64-0.2-1.22-0.37-1.89-0.55c-0.36-0.1-0.85-0.09-0.89-0.45
		c0.93,0.19,1.81,0.62,2.78,0.66c-0.44-0.51-1.38-0.53-1.92-0.93c0.3-0.22,0.66,0.09,0.96,0.21c0.34,0.13,0.69,0.3,1,0.31
		c-0.13-0.54-0.92-0.45-1.18-0.86c0.44-0.2,0.79,0.41,1.21,0.35C52.41,38.17,51.87,38.15,51.48,37.99z M35.83,38.58
		c-0.03,0-0.04,0.03-0.07,0.04c-0.1,0.17,0.05,0.39,0.07,0.55c0.82-0.1,1.29,0.43,1.96,0.59C37.55,38.96,36.47,38.98,35.83,38.58z
		 M35.83,39.31c0,0.47,0.08,0.87,0.18,1.25c0.96,0.35,1.82,0.8,2.85,1.07c-0.32-0.97-1.53-1.08-2.35-1.56
		c-0.18-0.01-0.44,0.05-0.42-0.14c0.88-0.23,1.37,0.51,2.13,0.62C37.82,39.77,36.67,39.54,35.83,39.31z M48.27,41.21
		c-0.23-0.1-0.54-0.17-0.82-0.28c-0.64-0.25-1.23-0.53-1.71,0.07c0.42,0.17,0.88,0.43,1.39,0.55c1.12,0.26,2.39,0.34,3.24,0.9
		c-0.32,0.18-0.69-0.1-1.03-0.21c-0.71-0.22-1.51-0.29-2.32-0.49c-0.61-0.15-1.19-0.63-1.67-0.59c-0.36,0.03-0.67,0.38-0.93,0.52
		c0.23,0.13,0.32,0.18,0.57,0.07c-0.04,0.44,0.57,0.25,0.61,0.62c-0.63,0.1-1.4-0.99-1.89-0.28c0.66,0.23,1.35,0.48,1.96,0.73
		c0.19,0.08,0.47,0.15,0.57,0.35c-0.32,0.06-0.71-0.12-1.11-0.28c-0.86-0.33-1.86-1.05-2.42-0.28c1.17,0.47,2.32,1.04,3.46,1.53
		c0.32,0.13,0.79,0.19,0.93,0.55c-0.36-0.04-0.7-0.22-1.04-0.35c-1.15-0.45-2.18-1.11-3.39-1.46c-0.07-0.05,0.02-0.27-0.1-0.28
		c-0.43,0.27-0.97,0.42-1.28,0.8c0.68,0.26,1.42,0.6,2.07,0.87c0.2,0.08,0.58,0.12,0.57,0.41c-1.1-0.28-1.9-0.86-2.99-1.14
		c-0.25,0.07-0.45,0.4-0.75,0.38c-0.16-0.01-0.27-0.19-0.43-0.28c-0.24-0.13-0.58-0.18-0.89-0.31c-0.79-0.34-1.79-0.87-2.57-1.07
		c-0.06,0.13-0.05,0.45,0,0.59c0.4-0.2,0.82,0.11,1.28,0.31c0.67,0.29,1.23,0.58,1.85,0.83c0.29,0.12,0.74,0.14,0.78,0.48
		c-1.43-0.35-2.37-1.19-3.85-1.49c-0.08,0.16,0.03,0.4,0.03,0.59c1.32,0.51,2.64,1.01,3.92,1.56c0.15,0.01,0.18-0.1,0.32-0.1
		c0.83,0.35,1.7,0.76,2.5,1.11c0.25,0.11,0.64,0.16,0.75,0.45c-0.55-0.06-1.06-0.33-1.56-0.55c-0.5-0.23-1-0.49-1.5-0.69
		c-0.17-0.04-0.12,0.14-0.29,0.1c-0.47-0.13-0.81-0.31-1.21-0.48c-0.31-0.13-0.62-0.26-0.93-0.38c-0.64-0.25-1.25-0.58-1.96-0.62
		c0.05,0.35,0.51,0.48,0.78,0.62c0.66,0.35,1.33,0.59,1.96,0.86c0.31,0.14,0.77,0.21,0.89,0.56c-1.2-0.32-2.34-1.01-3.49-1.49
		c-0.09,0.22-0.01,0.56,0.04,0.76c1.15,0.35,2.16,0.83,3.28,1.21c0.07-0.06,0.01-0.24,0.14-0.24c0.57,0.25,1.16,0.55,1.78,0.8
		c0.62,0.25,1.35,0.31,1.85,0.73c-0.32,0.13-0.64-0.11-0.93-0.21c-0.98-0.34-1.88-0.7-2.78-1.04c0.05,0.11,0.23,0.19,0.07,0.31
		c-1.1-0.46-2.16-0.95-3.39-1.28c0.02,1.05,0.14,2.01,0.29,2.95c0.14-0.01,0.26,0,0.36,0.04c0.74,0.33,1.7,0.63,2.46,0.93
		c0.23,0.09,0.66,0.14,0.64,0.45c-1.19-0.36-2.22-0.87-3.43-1.21c-0.14,0.49,0.48,0.61,0.86,0.76c0.63,0.25,1.13,0.5,1.72,0.73
		c0.26,0.1,0.74,0.15,0.67,0.49c-0.83-0.27-1.7-0.7-2.53-1.04c-0.15-0.06-0.73-0.44-0.65,0c0.05,0.06,0.23-0.05,0.32,0.04
		c0.51,0.26,1.06,0.52,1.61,0.76c0.54,0.25,1.16,0.39,1.53,0.83c-0.31,0.05-0.6-0.16-0.85-0.28c-0.84-0.39-1.67-0.79-2.5-1.15
		c-0.08,0.18,0,0.46,0.07,0.59c1.18,0.45,2.23,1.04,3.39,1.52c0.08,0.05,0.07,0.19,0.18,0.21c0.69-0.38,1.5-0.65,2.07-1.15
		c-0.08-0.1-0.3-0.05-0.25-0.28c0.28-0.07,0.76,0.36,0.96-0.03c0-0.16-0.23-0.09-0.17-0.31c0.27-0.05,0.51,0.25,0.71,0.04
		c-0.2-0.18-0.63-0.15-0.75-0.42c0.34-0.14,0.8,0.16,1.03,0.35c1.05-0.58,2.24-1.01,3.21-1.67c-0.05-0.18-0.45-0.15-0.32-0.42
		c0.31,0.01,0.75,0.51,0.93,0.04c-0.25-0.21-0.7-0.22-0.9-0.48c0.51-0.23,0.83,0.44,1.35,0.31c-0.08-0.27-0.46-0.27-0.75-0.35
		c-0.28-0.16-0.51-0.37-0.97-0.28c-0.71-0.27-1.51-0.54-2.21-0.83c-0.21-0.09-0.58-0.13-0.61-0.42c0.49,0.06,0.94,0.33,1.46,0.52
		c0.54,0.2,1.27,0.54,1.85,0.52c0.43,0.17,0.82,0.39,1.32,0.48c0.13,0.11,0.36,0.27,0.46,0.04c-0.25-0.16-0.57-0.25-0.86-0.38
		c-0.28-0.13-0.65-0.22-0.74-0.52c0.49,0,1.25,0.65,1.78,0.69c0.13,0.01,0.43,0.05,0.42-0.21c-1.96-0.57-3.61-1.43-5.49-2.08
		c0.37,0.33,0.91,0.53,1.46,0.76c0.41,0.17,0.84,0.38,1.21,0.52c0.2,0.07,0.49,0.03,0.54,0.31c-0.56-0.02-1.04-0.32-1.53-0.52
		c-0.51-0.21-1.01-0.44-1.53-0.62c-0.09,0.05-0.09,0.19-0.22,0.21c-0.92-0.28-1.89-0.59-2.67-0.97c-0.22-0.11-0.62-0.18-0.6-0.49
		c1.09,0.45,2.1,0.96,3.39,1.21c-0.17-0.22-0.52-0.26-0.64-0.52c-0.49-0.16-0.96-0.38-1.42-0.59c-0.47-0.21-1-0.35-1.32-0.73
		c0.32-0.09,0.56,0.15,0.82,0.28c0.84,0.41,1.71,0.69,2.53,1.07c0.05-0.05,0.09-0.12,0.18-0.14c1.31,0.51,2.92,1.25,4.38,1.77
		c0.66,0.23,1.46,0.62,1.89,0.07c-0.8-0.25-1.76-0.63-2.56-0.86c-0.21-0.06-0.55,0.01-0.57-0.31c0.86,0.16,2.2,0.62,3.1,0.87
		c0.34,0.09,0.57,0.22,0.75-0.1c-0.12-0.12-0.38-0.09-0.39-0.31c0.25-0.12,0.46,0.15,0.71,0.14c0.27-0.01,0.52-0.2,0.68-0.38
		c-0.27-0.17-0.67-0.22-1-0.35c-0.16-0.02-0.08,0.17-0.25,0.14c-1.17-0.28-2.32-0.62-3.28-1.07c-0.31-0.15-0.74-0.21-0.92-0.52
		c0.67,0.05,1.23,0.46,1.85,0.69c0.65,0.25,1.34,0.4,2.07,0.59c0.44-0.35,1.03,0.29,1.57,0.17c0.03-0.38-0.47-0.38-0.71-0.45
		c-0.44-0.13-0.86-0.34-1.18-0.45c-0.22-0.08-0.48-0.08-0.71-0.14c-0.53-0.13-1.07-0.34-1.57-0.48c-0.52-0.15-1.1-0.27-1.39-0.66
		c0.29-0.09,0.51,0.15,0.75,0.24c0.83,0.32,1.83,0.56,2.79,0.76c0.57,0.31,1.28,0.49,1.99,0.66c0.07-0.12,0.04-0.4,0-0.52
		c-0.42-0.27-1.12-0.27-1.39-0.69c0.53-0.07,0.83,0.37,1.39,0.38c0.07-0.07,0.03-0.23,0.04-0.35c-0.45-0.23-0.97-0.33-1.42-0.49
		c-0.26-0.09-0.61-0.15-0.68-0.42c0.69,0.05,1.27,0.5,2.06,0.55c0.29-0.82-1.66-0.51-1.81-1.14c0.67,0.11,1.22,0.34,1.81,0.52
		c0.07-0.08,0.04-0.29,0-0.38c-0.34-0.14-0.75-0.25-1.14-0.38c-0.35-0.12-0.88-0.15-1-0.52c0.69,0.08,1.3,0.53,2.14,0.59
		c0.08-0.11,0.02-0.33,0-0.45c-0.68-0.34-1.58-0.47-2.31-0.76c-0.52,0.26-1.11-0.22-1.74-0.35c-0.35-0.07-0.66-0.09-1-0.14
		c0.58,0.24,1.2,0.6,1.75,0.83c0.2,0.08,0.51,0.05,0.57,0.31C49.27,41.85,48.8,41.44,48.27,41.21z M36.86,41.73
		c0.61,0.26,1.19,0.51,1.74,0.73c0.27,0.11,0.74,0.11,0.71,0.45c-1.15-0.33-2.1-0.85-3.17-1.25c-0.1,0.41,0.42,0.45,0.68,0.55
		c0.95,0.38,1.88,0.91,2.89,1.14c-0.18-0.43-0.23-0.82-0.46-1.14c-0.2-0.28-0.54-0.36-0.96-0.52c-0.71-0.27-1.67-0.68-2.28-0.9
		C35.9,41.35,36.43,41.54,36.86,41.73z M37.22,50.99c0.61,0.43,1.53,0.57,1.99,1.14c-0.67-0.05-1.25-0.68-1.89-0.76
		c0.1,0.51,0.81,0.44,1.1,0.76c0.31,0.1,0.66,0.16,0.78,0.45c-0.66-0.01-1.21-0.6-1.82-0.66c-0.06,0.08,0.02,0.24,0.08,0.31
		c0.05,0.06,0.15-0.03,0.28,0c0.34,0.23,0.83,0.3,1.07,0.62c-0.45,0.13-0.82-0.39-1.31-0.45c-0.07,0.07-0.03,0.23-0.03,0.35
		c0.25,0.04,1.01,0.13,0.78,0.52C38.04,53.16,37.89,53,37.57,53c-0.06,0.15-0.01,0.47,0.07,0.59c0.56-0.08,1.01-0.41,1.5-0.62
		c0.47-0.21,1.01-0.38,1.39-0.73c-1.06-0.52-2.11-1.04-3.24-1.49c-0.03,0-0.05,0-0.07,0C37.17,50.85,37.22,50.84,37.22,50.99z"/>
</g>
</svg>
