<svg xmlns="http://www.w3.org/2000/svg" xml:space="preserve" id="Layer_1" x="0" y="0" style="enable-background:new 0 0 70 70" version="1.1" viewBox="0 0 70 70"><style>.st10{fill-rule:evenodd;clip-rule:evenodd;fill:#1779ff}</style><g style="opacity:.8"><path d="M29.98 20.49c-.48-.16-.91-.52-1.39-.8-.24-.14-.49-.27-.75-.38-.23-.1-.58-.15-.67-.42 0-.04.01-.06.03-.07.03-.02.06-.04.07 0 .73.28 1.45.67 2.07 1.07.24.16.65.27.64.6zM28.91 20.52c-.53.07-1.15-.35-1.46-.72.03-.02.05-.04.11-.04.47.23.96.45 1.35.76zM35.01 21.32c-.48.39-1.13.46-1.71.66-1.12.38-2.25.92-3.31 1.42-.52.25-.99.64-1.57.69.31-.36.81-.55 1.25-.76 1.29-.62 2.76-1.37 4.24-1.8.33-.1.62-.12.93-.28.1-.03.1.05.17.07zM36.29 21.91c-.16.27-.52.26-.78.35-1.25.42-2.67.93-3.81 1.52-.43.21-.84.54-1.32.49.36-.35.87-.49 1.32-.69.89-.42 1.8-.83 2.81-1.18.52-.18 1.08-.4 1.6-.56.12-.03.11.05.18.07zM37.18 22.36c-.26.26-.63.26-.96.38-1.1.38-2.16.92-3.21 1.35-.34.14-.7.37-1.06.31.26-.35.75-.4 1.17-.59.79-.35 1.58-.69 2.49-1.04.54-.2 1.05-.54 1.57-.41zM49.62 24.06c-.17.24-.45.37-.75.48-.07-.29.57-.66.75-.48zM29.52 24.33c-.06.33-.47.35-.71.45-1.36.54-2.64 1.19-3.92 1.91-.65.36-1.38.6-1.75 1.18-.33.13-.62.3-.92.45-.43.21-.75.39-1.21.59-.48.21-.86.62-1.39.73.02-.3.38-.39.6-.52.23-.13.47-.34.71-.45.49-.24 1.08-.42 1.53-.73.11-.08.18-.22.29-.31.19-.15.52-.3.79-.45 1.76-1 3.78-2.11 5.81-2.81.03-.01.06-.07.1-.07.03.01.03.03.07.03zM41.07 25.27c-1.99.57-3.94 1.18-5.81 1.87-.17.04-.15-.1-.29-.07-.69.21-1.32.65-1.99.76-.06-.23.25-.29.39-.34.47-.21 1.03-.43 1.53-.63.16-.04.12.12.25.1 1.41-.55 3.16-1.15 4.85-1.59.36-.09.85-.38 1.07-.1zM23.74 25.93c.04.31-.37.35-.57.45-1.23.63-2.52 1.42-3.71 2.11-.09.02-.16.05-.29.03-.28.12-.42.38-.78.42-.04-.28.32-.36.5-.48.59-.4 1.28-.71 2-1.07.94-.47 1.87-1.1 2.75-1.45.03-.01.07-.01.1-.01zM18.97 27.94c-.17.26-.49.38-.75.55-.1.13-.24.38-.46.28.2-.45.65-.65 1.07-.9.06 0 .11.02.14.07zM56.32 31.96c-.27-.01-.29-.26-.39-.41-.4-.57-.92-1.03-1.39-1.56-.46-.52-.86-1.08-1.31-1.59v-.1c.03-.02.05-.04.1-.04.35.22.56.59.82.9.51.61 1.04 1.18 1.57 1.8.24.28.62.57.6 1zM52.33 28.7h.07c.39.29.69.7.99 1.07.3.38.59.76.89 1.15.59.75 1.3 1.44 1.75 2.32-.27.02-.41-.29-.54-.45-1.01-1.29-2.14-2.65-3.17-3.95.01-.05.01-.09.01-.14zM51.73 29.32c.05-.01.06.03.1.04.45.68 1.04 1.26 1.6 1.87.55.6 1.15 1.21 1.36 2.05-.38-.17-.51-.67-.75-1.01-.7-.98-1.75-1.73-2.39-2.81-.02-.09.08-.07.08-.14zM51.08 29.95h.07c.41.35.66.86 1 1.28.34.41.83.77.93 1.28-.29.01-.39-.34-.54-.52-.47-.58-1.09-1.2-1.46-1.91v-.13zM50.37 30.26h.11c.32.39.66.78 1 1.18.32.38.73.79.78 1.32-.38-.29-.6-.75-.96-1.18-.31-.37-.84-.82-.93-1.32zM26.45 35.6c-.1.32-.41.51-.64.73-.46.43-.93.89-1.39 1.35-.21.22-.37.54-.71.62 0-.3.3-.53.49-.73.66-.66 1.38-1.35 2.07-2.01.09-.01.14.01.18.04zM28.06 36.12c.02.29-.32.43-.5.59-.21.19-.41.37-.6.55-.4.37-.72.87-1.21 1.11-.07-.29.26-.46.42-.63.53-.51 1.12-1.11 1.72-1.59 0-.04.07-.02.07-.07.05-.01.05.04.1.04zM30.52 36.29c-.16.41-.59.62-.9.9-.6.55-1.17 1.16-1.74 1.77-.28.29-.49.7-.89.87.05-.4.42-.69.68-.97.53-.58 1.11-1.15 1.71-1.7.33-.3.66-.6.96-.9.1-.03.09.04.18.03zM28.48 37.02c-.22.46-.66.75-1 1.11-.34.36-.58.82-1.03 1.08-.08-.27.2-.45.36-.62.46-.52.95-1.09 1.5-1.56.06-.01.12-.01.17-.01zM23.39 37.16c.01.18-.14.13-.22.07.01-.09.12-.07.22-.07zM25.56 37.5c0 .28-.21.35-.42.42-.12-.25.18-.39.42-.42zM48.52 39.51c.35.01.62.11.82.28-.15.29-.6-.09-.85-.14-.01-.06.04-.07.03-.14zM49.91 40.59c-.61-.1-1.49-.21-1.86-.66.03-.03.1-.02.12-.07.26.1.72.33 1.1.42.25.05.64-.03.64.31zM49.94 43.12c-.12.24-.39.04-.53 0-1.26-.38-2.56-.91-3.86-1.28.02-.03.04-.06.04-.1 1.56.22 2.94.9 4.35 1.38zM45.92 42.53c1.14.22 2.48.73 3.63 1.11.4.13.81.21 1.14.42-.14.19-.45.05-.61 0-.95-.27-1.99-.69-2.95-1.01-.42-.13-.85-.17-1.21-.38v-.14zM46.49 43.74c-.17.24-.47-.01-.64-.07-.65-.23-1.36-.52-1.97-.8v-.1c.03-.02.06-.04.11-.04.87.31 1.69.65 2.5 1.01zM23.71 44.43c-.18.25-.45.12-.75.07-.15.48.4 2.66-.07 2.91-.24.13-.7-.16-.78-.28-.41-.57-.04-1.99-.18-2.8-.23-.04-.59.18-.68-.11-.08-.24.2-.32.36-.48.25-.27.44-.69.64-.76.43-.27.75.32 1 .59.25.29.52.51.46.86zM47.48 45.51c-.79-.04-1.46-.53-2.17-.8-.72-.28-1.46-.52-2.06-.93-.48.03-.74-.14-.9-.42.24-.11.37.15.68.07 1.2.67 2.61 1.22 3.95 1.77.17.07.45.1.5.31zM26.74 45.65c-.01.99 0 1.96.04 2.91-.19.2-.42.46-.75.35-.37-.13-.32-1.25-.35-2.01-.03-.55.02-1.1-.04-1.46-.24-.17-.58-.1-.61-.42-.02-.25.28-.32.43-.48.16-.18.15-.57.5-.59.31-.02.62.48.75.62.22.24.66.46.54.83-.07.17-.28.19-.51.25zM50.48 45.99c-.22.21-.69.04-1-.03-.59-.15-1.28-.39-1.75-.59-.02-.03-.04-.06-.03-.1.43-.02 1.02.21 1.5.35.45.12.89.2 1.28.37zM43.81 47.24c-.6.01-1.13-.33-1.68-.52-.54-.19-1.09-.39-1.57-.66-.01-.06.03-.06.04-.1.03-.01.03-.04.07-.04.75.28 1.63.65 2.43.94.24.09.6.13.71.38zM42.45 48.66c-.7-.15-1.42-.58-2.06-.9-.15-.02-.15.11-.29.11-1-.62-2.33-.92-3.24-1.63.32-.11.62.16.96.31.74.33 1.52.69 2.21 1.01.49-.08.97.28 1.42.48.4.18.87.29 1 .62zM46.98 48.21c-.48.09-1.06-.3-1.5-.48-.52-.18-1.06-.36-1.53-.59-.03-.11.06-.11.07-.17h.03c1 .43 2.09.69 2.93 1.24zM39.64 48.28c-.41.04-.76-.28-1.14-.42-.58-.2-1.19-.33-1.64-.66.02-.03.03-.06.07-.07.37-.02.96.34 1.46.52.24.09.49.15.71.24.21.09.52.15.54.39zM41.03 47.41c.48.13 1.14.48 1.67.66.28.1.67.05.75.35-.1.11-.33.03-.43 0-.67-.2-1.37-.59-2.03-.8 0-.08 0-.16.04-.21zM40.21 49.15c-.27.09-.55-.11-.82-.21-.79-.29-1.74-.61-2.42-1.04v-.1c.03-.01.04-.04.07-.04h.08c.86.4 1.74.78 2.71 1.08.04.16.52.08.38.31zM46.88 48.98c-.89-.11-1.54-.44-2.25-.73-.02-.03-.04-.06-.03-.11.59 0 1.15.33 1.67.52.26.05.56.06.61.32zM40.14 48.31c.24.05.49.1.53.35-.2.06-.64-.09-.53-.35zM46.34 49.25c-.38.09-.93-.14-1.39-.31-.33-.13-.78-.27-.85-.55.37 0 .71.28 1.1.42.4.13.88.14 1.14.44zM42.92 49.67c-.71-.09-1.44-.47-2.06-.76v-.1c.03-.01.04-.04.07-.03.41.06.75.3 1.14.45.31.11.76.1.85.44zM45.42 49.53c-.61-.03-1.23-.35-1.72-.62 0-.04.01-.06.04-.07.03-.02.06-.04.11-.04.5.25 1.25.33 1.57.73zM44.1 49.46c.05.05.05.13 0 .17.1.18.46.1.46.38-.44.06-.77-.27-.96-.55-.25-.02-.46-.09-.57-.24-.02-.09.07-.07.07-.14.32.13.69.23 1 .38zM42.49 50.15c-.64-.07-1.42-.49-2.06-.76v-.1c.02-.02.06-.04.1-.04.27.05.49.14.68.28.45.18 1.04.23 1.28.62zM42.32 50.67c-.16.29-.54 0-.82-.07-.29-.07-.59-.07-.79-.21v-.11c.54-.01 1.16.2 1.61.39zM40.61 50.88c.41.02.7.17.99.31-.21.32-.71-.12-.99-.17v-.14zM41.32 51.68c-.2.09-.39-.1-.54-.17v-.11c.21-.07.52.05.54.28z" class="st10"/><path d="M53.44 26.76c1.06 1.13 2.38 2.04 3.39 3.26.99 1.2 2.14 2.32 2.67 3.88-.44.39-1.05.53-1.6.76-1.59.68-3.2 1.55-4.78 2.29-.05 1.62-.1 3.3.04 5.02.08 1.03-.04 2.32-.04 3.33 0 .33.13.77.04 1.01-.07.2-.58.42-.89.59-2.16 1.21-4.41 2.38-6.62 3.5-1.93.97-3.75 1.94-5.81 2.91-.67.31-1.46.82-2.03.87-.73.06-1.75-.35-2.53-.59-1.71-.53-3.02-1.02-4.6-1.56-3.07-1.05-6.27-1.98-8.95-3.36-.33-.17-.69-.34-1.03-.52-.74-.38-1.42-.62-2.32-.97-.38-.15-1.09-.29-1.25-.49-.24-.29-.32-1.76-.36-2.25-.17-2.11-.25-3.85-.57-5.89-.07-.4-.01-.9-.14-1.14-.12-.22-.74-.47-1.07-.62-1.18-.53-2.3-1.02-3.39-1.63 0-.3.12-.41 0-.66.49-.85.83-1.73 1.32-2.53.24-.38.57-.7.86-1.08.67-.87 1.22-1.78 1.96-2.6-.4-.52-1.13-.81-1.86-1.14-.66-.31-1.41-.62-2.17-.8-.39-.09-1.09-.03-1.18-.31-.1-.34.52-.71.78-.87 1.06-.63 2.02-1.27 3.03-1.84 3.47-1.97 6.86-3.88 10.4-5.82.31-.17.71-.35 1.11-.52.41-.17.89-.4 1.22-.42.43-.01 1.11.29 1.42.45.15.07.39.34.54.42.34.18.77.31 1.18.52.76.39 1.42.65 2.24 1.11.19.11.91.6 1.07.59.21-.01.97-.91 1.14-1.07 1.13-1.06 2.55-1.93 3.89-2.7.34-.2.92.18 1.36.35.41.16.79.36 1.14.49.83.31 1.7.58 2.46.8.81.23 1.6.6 2.43.83.81.23 1.67.51 2.45.8 1.56.58 3.22 1.01 5.03 1.49 1.25.33 2.4.75 3.71 1.18.33.11 1.01.22 1.03.55.03.33-.95.94-1.17 1.11-1.35 1-2.58 1.93-3.55 3.27zm-5.56-7.18c-.72-.28-1.5-.54-2.28-.76-.79-.22-1.52-.59-2.28-.8-.77-.21-1.59-.43-2.35-.69-.76-.26-1.47-.79-2.17-.9-.08-.01-.1.05-.14.07-1.27.6-2.58 1.56-3.56 2.46-.35.32-.78.64-.89 1.08 1.81.65 3.88.96 5.77 1.8.83.37 1.76.66 2.75 1.04.39.15.83.39 1.32.59.38.15 1.11.5 1.46.45.25-.03.7-.44.97-.63.84-.57 1.61-1.06 2.49-1.49.13-.06.35-.31.5-.1-.23.29-.61.37-.92.55-.31.18-.61.39-.93.59-.61.38-1.3.69-1.74 1.25.62.43 1.31-.24 1.78-.52.44-.27.83-.59 1.21-.66.07.23-.24.32-.39.42-.56.35-1.21.67-1.64 1.08.27.12.48-.15.68-.28.44-.28.86-.51 1.29-.76.17-.1.42-.42.64-.21-.61.56-1.55.81-2.07 1.46 1.76.7 3.49 1.43 5.38 2.01.7-.74 1.34-1.54 2.1-2.22.77-.68 1.66-1.21 2.39-1.94-2.87-1.2-6.24-1.66-9.37-2.89zm-18.36-1.31c-.42-.2-.88-.35-1.25-.55-.35-.2-.84-.68-1.35-.52-1.38.42-2.65 1.27-3.96 1.98-2.57 1.38-5.1 2.87-7.59 4.26-1.3.73-2.57 1.46-3.71 2.25.65.31 1.37.45 2.03.73.3.12.61.3.93.45.3.15.66.28.92.45.22.14.58.65.89.66.2.01.74-.33 1.03-.48 1.08-.54 2.11-1.1 3.07-1.53 1.49-.66 2.94-1.2 4.24-1.87 1.36-.7 2.72-1.39 4.1-2.01.7-.32 1.42-.62 2.1-.93.7-.32 1.42-.63 2.04-1.04-.95-.69-2.37-1.32-3.49-1.85zm12.66 5.02c-1.19-.44-2.27-.87-3.43-1.32-.77-.3-1.63-.46-2.46-.69-.83-.23-1.63-.54-2.42-.73-.13-.03-.23-.04-.32 0-1.4.61-2.79 1.34-4.24 1.98-1.43.63-2.81 1.33-4.21 2.05-2.82 1.46-5.91 2.43-8.44 4.02.68.24 1.3.54 2 .76.64-.54 1.44-.81 2.21-1.18.38-.18.73-.47 1.1-.69.76-.46 1.56-.84 2.35-1.25.38-.2.79-.51 1.25-.45-.39.33-.9.53-1.35.76-1.44.74-2.8 1.49-4.1 2.32-.54.03-.83.3-1.11.59.39.1.73.48 1.11.45.18-.02.51-.29.71-.42.27-.17.48-.36.72-.45.14-.03.2.08.28 0 2.74-1.35 5.4-3.06 8.19-4.3.15-.07.38-.22.57-.14-.02.23-.34.29-.54.38-.71.31-1.45.65-2.06 1.01-.11.06-.08.27-.22.31-2.06.98-4.12 1.95-6.06 3.05-.09.09-.16-.02-.28 0-.3.25-.74.36-.97.69.81.46 1.37-.54 2.04-.76.15-.01.08.19.28.14 1.25-.7 2.52-1.39 3.85-2.01.13.01.13.05.25 0 1.25-.65 2.56-1.47 3.85-2.08.44-.21.9-.51 1.35-.62.38-.1.69-.16 1.07-.31.73-.29 1.39-.6 2.11-.87.96-.36 1.9-.86 2.99-.93-.1.28-.46.25-.68.31-1.78.51-3.38 1.38-5.06 1.98h-.32c-1.43.64-2.79 1.43-4.17 2.18-.49.27-1.12.67-1.71.73-1.45.68-2.75 1.51-4.18 2.22-.13.02-.13-.1-.28-.07-.15.15-.42.21-.53.42.12.16.37.2.53.31.23-.19.55-.65.89-.48-.13.28-.52.3-.68.55.22.13.54-.03.75-.14.44-.24.9-.52 1.07-.94-.34.05-.52.42-.86.35.12-.37.59-.46.89-.63.69-.37 1.32-.71 2-1.04.34-.16.69-.41 1.07-.42-.51.64-1.55.72-2.21 1.21-.29.22-.5.55-.71.83.95-.37 1.68-.96 2.67-1.28.15-.05-.01.19.15.14 2.31-1.5 4.91-2.92 7.45-4.16.4-.2.8-.27 1.25-.41.91-.29 1.86-.74 2.85-1.01.3-.08.74-.32 1-.1-.17.16-.44.19-.64.24-.77.19-1.37.42-2.03.66-1.63.6-3.14 1.17-4.57 1.91-1.88.97-3.63 2.15-5.38 3.19-.11 0 .05-.26-.11-.21-.18-.02-.22.11-.36.14-.1.1.11.1.11.21-.06.12-.29.21-.21.35.35-.1.61-.29.93-.45.33-.17.67-.25.99-.42.41-.21.81-.53 1.25-.8.42-.25.85-.54 1.28-.8.95-.57 2.23-1.01 2.96-1.7 1.39-.5 2.87-1.09 4.31-1.52.49-.15 1.05-.36 1.5-.31-.28.31-.71.31-1.07.42-.38.11-.77.26-1.14.38-3.25 1.03-5.92 2.6-8.56 4.23-.4.25-.67.58-1.1.55-.96.59-2.21.88-2.75 1.87.59-.2 1-.57 1.46-.9.12-.03.13.05.24.04.92-.45 1.75-.98 2.75-1.35.14-.01.05.2.21.17.18-.13.55-.22.36-.52.29-.21.64-.42 1-.62.33-.2.74-.49 1.03-.45.09.23-.34.25-.43.42.96-.31 1.74-.81 2.64-1.18.03-.07-.03-.23.07-.31 2.25-1.02 4.66-2.29 7.24-2.95.13-.03.39-.19.49 0-.37.27-.86.29-1.28.45-1.28.49-2.58.95-3.74 1.52.3.01.71-.31.93-.03-1.95.69-3.77 1.49-5.42 2.46.01.15-.05.23-.11.31-1 .49-2.04 1.13-2.95 1.73-.44.28-1.04.49-1.15 1.04.71-.23 1.19-.67 1.72-1.08.63-.09.95-.51 1.42-.76 1.39-.73 2.86-1.33 4.35-1.94.13.01.1.17.28.14 1.96-.69 3.82-1.49 5.92-2.04-.01-.15.01-.27.07-.35.42-.05.82-.21 1.25-.31.41-.1.91-.11 1.21-.38-.39-.12-.81-.31-1.21-.17-.52.17-1.12.34-1.72.52-.6.18-1.21.45-1.71.42.12-.29.52-.27.78-.34.88-.24 1.78-.56 2.64-.8-.24-.29-.66-.41-1-.54zm2.42 1.18c-.84.11-1.7.52-2.5.62 0 .13.02.27-.07.31-2.44.7-5.01 1.7-7.31 2.63-.34.14-.73.37-1.03.42-.13.02-.26-.03-.39 0-.26.06-.6.32-.93.48-.6.31-1.18.53-1.39 1.11 1.35-.55 2.45-1.33 3.82-1.87.1.01.15.06.25.07.66-.26 1.34-.68 2.03-.93.33-.12.71-.33 1.07-.24.07.2-.19.07-.18.21 1.74-.45 3.46-1.21 5.38-1.59.14.02.1.2.25.21.37-.11.76-.25 1.14-.38.36-.13.72-.4 1.07-.31-.42.47-1.33.58-1.96.83-.2.08-.38.31-.58.07-.05-.12.27-.14.07-.17-.49.05-.85.23-1.32.31-.29.33-.78.47-1.1.76.89-.13 1.91-.43 2.71-.76.1.06.17.15.22.28 0 .13-.18.08-.18.21 1.09-.25 2.64-.58 3.81-.87.07-.02.66-.28.68-.03.01.13-.61.22-.68.24-.33.08-.56.09-.74.21.17 0 .36-.03.36.14-.16.21-.44.16-.68.21-.43.09-.9.26-1.35.38-.44.12-1.07.14-1.18.59.76.23 1.31-.11 2.08-.28.7-.16 1.47-.37 2.09-.45.63-.09 1.12-.26 1.68-.17-.15.31-.55.2-.82.24-.62.1-1.41.27-2.11.42-1.01.21-1.76.47-2.39.94.44.11.79-.09 1.22-.21.98-.27 1.96-.58 2.92-.76.36-.07.76-.09 1.1-.17.2-.05.45-.29.64-.04-1.07.36-2.17.56-3.24.83-1.49.38-2.9.75-4.17 1.28-.24.1-.53.21-.68.42.82-.24 1.56-.58 2.5-.69.59-.07 1.25-.4 1.89-.59 1.02-.29 1.95-.53 2.89-.73.16-.03.46-.13.6.04-.29.23-.7.2-1.07.28-.64.14-1.19.31-1.82.49-.46.13-.98.2-1.24.34-.1.06-.16.18-.25.24-.25.17-.56.21-.75.42.91-.21 1.78-.47 2.71-.69.62-.15 1.28-.22 1.82-.45.66-.28 1.25-.71 1.92-.97.19-.07.51-.12.57-.35-2.16-.64-3.99-1.59-6.13-2.25-.94.31-1.91.59-2.86.9-.09.1-.44.25-.54.04.84-.48 2-.65 2.93-1.04-.17-.22-.56-.21-.78-.18zm1.42 1.94c.12.05.44.03.53-.07-.14-.06-.43-.01-.53.07zm-.5.14c.08.05.34.02.4-.07-.14.02-.37-.05-.4.07zm-6.55.66c-.12.06-.2.18-.32.24-.44.21-.94.33-1.39.52-.93.39-1.81.78-2.64 1.21-.39.21-.9.34-1.14.73 1.58-.76 3.08-1.61 4.85-2.18.17-.03.12.14.29.1.81-.37 1.66-.7 2.32-1.21-.65.2-1.38.3-1.97.59zm6.02-.49c.14-.01.34.03.36-.1-.15.01-.34-.03-.36.1zm-4.06 1.15c.9-.07 1.68-.49 2.5-.69.57-.14.99-.16 1.42-.42-.64.07-1.14.28-1.72.42-.06-.07 0-.24.04-.31.14-.01.35.05.35-.1-1.07.16-1.87.59-2.59 1.1zm-3.46 1c.33.2.7-.1 1.03-.21 1.15-.37 2.15-.89 2.99-1.46-1.56.22-2.86.97-4.02 1.67zm13.15-.55c-.7.36-1.4.77-2.1 1.11-1.44.69-2.79 1.52-4.21 2.22-.69.34-1.39.74-2.07 1.11-2.09 1.14-4.08 2.4-6.35 3.29.22.48.71.82 1.03 1.25.32.43.61.92.93 1.39.31.46.59.95.86 1.46.52 1.02 1.23 1.96 1.6 3.05.4-.15.78-.38 1.14-.59 1.11-.65 2.26-1.24 3.43-1.84 2.28-1.17 4.43-2.61 6.73-3.74 1.98-.97 3.95-1.98 5.95-2.81.4-.17.83-.33 1.18-.59-1.42-2.59-3.52-4.53-5.74-6.34-.83.3-1.6.62-2.38 1.03zm-13.08-.87c.12 0 .25.01.25-.1-.11.01-.24-.01-.25.1zm-1.07.45c.39-.08.71-.23 1-.42-.43.06-.76.2-1 .42zm-.32.11c.06.05.26.02.25-.1-.08.03-.24 0-.25.1zm7.16.21c-.11-.02-.13-.13-.25-.14-.51.24-1.1.41-1.43.83.87-.22 1.69-.48 2.42-.83-.33-.05-.44.13-.74.14zm-4.06.65c.59-.16 1.15-.36 1.61-.66-.62.14-1.22.31-1.61.66zm-4.28-.38c-.62.31-1.28.66-1.92 1.01-.31.16-.62.33-.93.49-.28.14-.71.24-.82.59.36-.02.68-.25 1-.42.68-.36 1.34-.7 2-1.04.32-.16.72-.3.89-.62-.08-.01-.15-.01-.22-.01zm0 .97c.01.08.2 0 .18.1 0 .23-.3.17-.36.35.7-.2 1.26-.54 1.93-.76.12-.33.52-.39.75-.62-.81.2-1.82.5-2.5.93zm4.17-.07c-.02.12.16.06.1.21-.49.25-1.04.45-1.57.66-.12-.2-.42-.13-.61-.03-.08.06-.06.21-.14.28-.82.53-1.86.86-2.67 1.35-.37.22-.83.4-1.04.76.96-.45 1.94-1.07 2.86-1.52.36-.18.68-.26 1.1-.38.75-.22 1.47-.65 2.21-.94.76-.29 1.5-.62 2.04-1.14-.88.13-1.52.5-2.28.75zm8.52-.45c-.98.25-2.04.54-2.92.83-.36.12-1.02.19-1.07.59.47-.08.92-.22 1.42-.38.46-.15.91-.49 1.36-.55.11-.02.25.04.35.03.47-.04.88-.31 1.24-.52-.12-.05-.27-.03-.38 0zm-5.41.07c.07.07.22.01.24-.07-.1.01-.24-.03-.24.07zm-12.2 5.51c-1.25-.47-2.47-1-3.71-1.46-.63-.23-1.26-.49-1.92-.66-.61-.41-1.36-.57-2.07-.87-.67-.28-1.34-.62-2.03-.9-.7-.28-1.4-.58-2.11-.83-.73-.27-1.43-.58-2.21-.73-.08-.01-.11.05-.14.07-.44.28-.88.97-1.24 1.49s-.85 1.01-1.18 1.53c-.54.83-.89 1.8-1.28 2.6.98.6 2.05 1.03 3.14 1.52.57.26 1.1.59 1.67.87 1.13.55 2.36 1.02 3.53 1.56 1.72.79 3.65 1.5 5.56 2.08.94.29 1.85.64 2.92.76 1.62-2 3.37-3.88 5.2-5.68-1.38-.49-2.77-.84-4.13-1.35zm10.62-4.92c.55.01 1.04-.33 1.5-.52-.59.08-1.09.26-1.5.52zm-2.6-.41c-.64.18-1.22.47-1.82.73-.8.34-1.61.65-2.39 1.01-.79.36-1.5.8-2.24 1.18-.43.22-.93.36-1.21.76.11.22-.09.26-.18.38.11.21.1.25-.03.42.25-.04.44-.24.36-.52.48-.22.76-.65 1.18-.94.09.03.09.14.25.1.14-.08.22-.23.35-.31 1.46-.61 2.86-1.52 4.36-2.08.52-.2 1.08-.3 1.46-.73h-.09zm-10.44.76c.03.27-.11.37-.25.49.59-.27 1.21-.81 1.78-1.21-.62.13-1.05.44-1.53.72zm12.19 1.25c.83-.25 1.63-.65 2.46-.94.84-.3 1.7-.55 2.38-1.04-1.78.5-3.61.88-4.84 1.98zm-14.9-1.39c.14.34-.26.37-.28.66.69-.21 1.09-.72 1.49-1.21-.49.09-.78.39-1.21.55zM38 31.33c.88-.08 1.42-.48 2.07-.8.54-.26 1.07-.5 1.46-.87-1.3.45-2.58.9-3.53 1.67zm6.81-.72a5.05 5.05 0 0 0 1.6-.76c-.65.13-1.16.41-1.6.76zm-15.69.45c.58-.19 1.29-.55 1.57-1.14-.62.27-1.23.57-1.57 1.14zm5.39-1.04c.08.07.22.01.25-.07-.11-.01-.22 0-.25.07zm-11.44.97c-.06-.03-.06-.13-.18-.11-.04.05-.15.04-.14.14.4.24.86.42 1.39.52.02-.35.47-.46.46-.73-.37.11-.57.4-.96.48-.01-.08-.13-.07-.11-.17.34-.34.78-.59 1-1.04-.61.19-1.02.57-1.46.91zm2.49.34c.71-.21 1.27-.54 1.61-1.11-.72.2-1.26.56-1.61 1.11zm11.16-1.07c-.78.3-1.56.72-2.32 1.08-.74.34-1.5.67-2.08 1.18.71-.22 1.11-.72 1.9-.87.79-.53 1.85-.79 2.56-1.39h-.06zm6.41.56c-.11-.01-.06-.17-.21-.14-.56.19-1.11.38-1.42.8.57-.02 1.04-.52 1.53-.28.36-.28.93-.36 1.24-.69-.47 0-.69.26-1.14.31zm-15.64.03c-.7.09-1.1.48-1.42.94.7-.29 1.43-.55 1.86-1.11-.22-.13-.28.14-.44.17zm13.47.21c.41-.06.71-.21 1-.38-.41.05-.71.2-1 .38zm-10.95.27c.36-.12.64-.33.83-.62-.4.08-.76.22-.83.62zm1.61-.48c-.51.32-1.11.54-1.42 1.04.56-.28 1.16-.54 1.64-.9-.08-.05-.07-.17-.22-.14zm-1.82.24c0-.03-.02-.04-.07-.04-.56.23-.95.61-1.43.94 0 .12-.28.28-.14.31.81-.15 1.28-.63 1.64-1.21zm10.84.11c.12 0 .25.01.25-.1-.11 0-.22.01-.25.1zm-16.08.1c-.1.08-.22.15-.25.31.32.39.76-.07.89-.38-.23.04-.43.29-.64.07zm14.12.17c-.02.11.1.09.11.17.25-.02.42-.12.57-.24-.16-.25-.52-.06-.68.07zm1.64-.14c.09 0 .21.02.21-.07-.07.03-.24-.05-.21.07zm-12.76.25c.05-.07.15-.08.25-.1.01-.1-.08-.1-.18-.1.02.08-.17.15-.07.2zm9.69-.21c-1.09.54-2.51 1.13-3.42 1.84.99-.33 1.87-.88 2.75-1.28.3-.14.69-.18.93-.45-.03-.01-.04-.03-.03-.07-.06-.07-.22-.04-.23-.04zm1.29 1.07c.03.13.04.18-.04.28.98-.3 1.83-.74 2.53-1.32-.88.17-1.65.73-2.49 1.04zm1.42-.97c.1 0 .21.02.21-.07-.09 0-.2-.02-.21.07zm-13.22 1.01c.63-.23 1.21-.51 1.6-.97-.65.21-1.23.48-1.6.97zm13.33.03c.77-.27 1.51-.57 2.14-.97-.82.23-1.64.44-2.14.97zm-14.97-.59c.23.34.62-.09.69-.35-.28.09-.56.15-.69.35zm.79.28v.07c.09.11.26.14.46.14.13-.33.51-.41.64-.73-.42.13-.81.28-1.1.52zm10.19.45c.53-.19 1.04-.39 1.46-.69-.6.13-1.05.38-1.46.69zm-7.1-.14c.3-.03.65-.36.57-.52-.22.15-.45.27-.57.52zm.82 0c.26.16.62-.09.61-.42-.26.08-.47.21-.61.42zm-2.74.17c.26.1.52-.08.57-.31.04 0 .03-.05-.03-.04-.18.13-.46.14-.54.35zm.61.25c.3.23.77-.08.85-.38-.36-.05-.71.12-.85.38zm3.31.48c.36-.12.6-.37.82-.62 0-.04-.01-.08-.07-.07-.26.2-.73.38-.75.69zm.72.07c.42-.13.91-.38.99-.73-.37.21-.78.38-.99.73zm-2.61-.27c.29.17.74 0 .86-.21-.28-.06-.72-.1-.86.21zm9.77.31c.24-.06.42-.2.53-.38-.19-.04-.64.12-.53.38zm-6.02-.25c.08-.02.18-.03.17-.14-.12 0-.17.05-.17.14zm1.35.7c.52-.15.89-.43 1.28-.69-.46.18-1.06.26-1.28.69zm2.14 0c.43-.16.88-.3 1.14-.62-.48.11-.83.35-1.14.62zm-4.74 0c.32-.02.52-.17.61-.42-.25.1-.51.18-.61.42zm4.28-.38c0 .15.21.04.21-.04-.11-.02-.13.04-.21.04zm3.34 0c-.03.13.23.07.18-.04a.256.256 0 0 0-.18.04zm-3.63.2c.1.01.19.01.18-.1-.06.03-.2 0-.18.1zm.53.28c.1.01.2 0 .18-.1-.06.03-.19 0-.18.1zm2.07.17c.1 0 .18-.01.18-.11-.11 0-.2.01-.18.11zm-5.09 3.57c-1.22 1.08-2.2 2.33-3.21 3.64-.2.26-.47.69-.64.73-.18.04-.59-.09-.93-.14-.91-.14-1.76-.51-2.46-.73-3.32-1.05-6.16-2.34-9.12-3.6.32 2.68.51 5.79.86 8.56 1.1.39 2.33.84 3.28 1.35 2.23 1.21 4.71 2.11 7.27 2.95 1.45.47 2.89.99 4.35 1.49 1.45.49 2.91 1.05 4.45 1.35-.12-1.29-.28-2.6-.5-3.92-.22-1.33-.28-2.71-.39-4.09-.06-.75-.2-1.52-.29-2.29-.08-.75-.24-1.52-.35-2.26-.25-1.53-.32-3.06-.71-4.47h-.08c-.55.36-.97.93-1.53 1.43zm2.95-.55c-.13-.31-.36-.53-.64-.69-.13.42.27.64.64.69zm15.97.21c-.02.12.13.09.1.21-.05.01-.06.06-.1.07-.17.03-.24-.16-.36-.07-.04.18.12.16.25.17.14.13.4.28.6.24.05-.21.07-.59 0-.8-.23-.01-.32.12-.49.18zM36 37.5c-.17-.03-.26-.15-.46-.14-.1.32.07.66.14.93.57.13.91.48 1.53.56-.19-.4-.55-.64-.96-.83-.2-.01-.5.07-.46-.17.2-.17.6.01.78.07-.05-.3-.22-.48-.47-.59-.04.04 0 .17-.1.17zm15.48.49c-.08-.04-.11-.13-.22-.14-.99.49-1.95 1.01-2.81 1.63-.51.21-1.01.43-1.35.8.52.12 1.08.19 1.67.35.53.14 1.11.56 1.5.24.67.3 1.47.47 2.21.7.13-.14.04-.42 0-.59-.67-.14-1.28-.33-1.93-.49-.09-.17-.5-.05-.47-.35.76.03 1.62.62 2.39.52-.09-.26-.44-.27-.68-.35-.53-.17-1.07-.32-1.57-.48-.24-.08-.58-.14-.64-.35.45-.06.91.2 1.39.35.47.14.96.33 1.46.42.07-.08.03-.26 0-.35-.64-.2-1.22-.37-1.89-.55-.36-.1-.85-.09-.89-.45.93.19 1.81.62 2.78.66-.44-.51-1.38-.53-1.92-.93.3-.22.66.09.96.21.34.13.69.3 1 .31-.13-.54-.92-.45-1.18-.86.44-.2.79.41 1.21.35-.09-.47-.63-.49-1.02-.65zm-15.65.59c-.03 0-.04.03-.07.04-.1.17.05.39.07.55.82-.1 1.29.43 1.96.59-.24-.8-1.32-.78-1.96-1.18zm0 .73c0 .47.08.87.18 1.25.96.35 1.82.8 2.85 1.07-.32-.97-1.53-1.08-2.35-1.56-.18-.01-.44.05-.42-.14.88-.23 1.37.51 2.13.62-.4-.78-1.55-1.01-2.39-1.24zm12.44 1.9c-.23-.1-.54-.17-.82-.28-.64-.25-1.23-.53-1.71.07.42.17.88.43 1.39.55 1.12.26 2.39.34 3.24.9-.32.18-.69-.1-1.03-.21-.71-.22-1.51-.29-2.32-.49-.61-.15-1.19-.63-1.67-.59-.36.03-.67.38-.93.52.23.13.32.18.57.07-.04.44.57.25.61.62-.63.1-1.4-.99-1.89-.28.66.23 1.35.48 1.96.73.19.08.47.15.57.35-.32.06-.71-.12-1.11-.28-.86-.33-1.86-1.05-2.42-.28 1.17.47 2.32 1.04 3.46 1.53.32.13.79.19.93.55-.36-.04-.7-.22-1.04-.35-1.15-.45-2.18-1.11-3.39-1.46-.07-.05.02-.27-.1-.28-.43.27-.97.42-1.28.8.68.26 1.42.6 2.07.87.2.08.58.12.57.41-1.1-.28-1.9-.86-2.99-1.14-.25.07-.45.4-.75.38-.16-.01-.27-.19-.43-.28-.24-.13-.58-.18-.89-.31-.79-.34-1.79-.87-2.57-1.07-.06.13-.05.45 0 .59.4-.2.82.11 1.28.31.67.29 1.23.58 1.85.83.29.12.74.14.78.48-1.43-.35-2.37-1.19-3.85-1.49-.08.16.03.4.03.59 1.32.51 2.64 1.01 3.92 1.56.15.01.18-.1.32-.1.83.35 1.7.76 2.5 1.11.25.11.64.16.75.45-.55-.06-1.06-.33-1.56-.55-.5-.23-1-.49-1.5-.69-.17-.04-.12.14-.29.1-.47-.13-.81-.31-1.21-.48-.31-.13-.62-.26-.93-.38-.64-.25-1.25-.58-1.96-.62.05.35.51.48.78.62.66.35 1.33.59 1.96.86.31.14.77.21.89.56-1.2-.32-2.34-1.01-3.49-1.49-.09.22-.01.56.04.76 1.15.35 2.16.83 3.28 1.21.07-.06.01-.24.14-.24.57.25 1.16.55 1.78.8.62.25 1.35.31 1.85.73-.32.13-.64-.11-.93-.21-.98-.34-1.88-.7-2.78-1.04.05.11.23.19.07.31-1.1-.46-2.16-.95-3.39-1.28.02 1.05.14 2.01.29 2.95.14-.01.26 0 .36.04.74.33 1.7.63 2.46.93.23.09.66.14.64.45-1.19-.36-2.22-.87-3.43-1.21-.14.49.48.61.86.76.63.25 1.13.5 1.72.73.26.1.74.15.67.49-.83-.27-1.7-.7-2.53-1.04-.15-.06-.73-.44-.65 0 .05.06.23-.05.32.04.51.26 1.06.52 1.61.76.54.25 1.16.39 1.53.83-.31.05-.6-.16-.85-.28-.84-.39-1.67-.79-2.5-1.15-.08.18 0 .46.07.59 1.18.45 2.23 1.04 3.39 1.52.08.05.07.19.18.21.69-.38 1.5-.65 2.07-1.15-.08-.1-.3-.05-.25-.28.28-.07.76.36.96-.03 0-.16-.23-.09-.17-.31.27-.05.51.25.71.04-.2-.18-.63-.15-.75-.42.34-.14.8.16 1.03.35 1.05-.58 2.24-1.01 3.21-1.67-.05-.18-.45-.15-.32-.42.31.01.75.51.93.04-.25-.21-.7-.22-.9-.48.51-.23.83.44 1.35.31-.08-.27-.46-.27-.75-.35-.28-.16-.51-.37-.97-.28-.71-.27-1.51-.54-2.21-.83-.21-.09-.58-.13-.61-.42.49.06.94.33 1.46.52.54.2 1.27.54 1.85.52.43.17.82.39 1.32.48.13.11.36.27.46.04-.25-.16-.57-.25-.86-.38-.28-.13-.65-.22-.74-.52.49 0 1.25.65 1.78.69.13.01.43.05.42-.21-1.96-.57-3.61-1.43-5.49-2.08.37.33.91.53 1.46.76.41.17.84.38 1.21.52.2.07.49.03.54.31-.56-.02-1.04-.32-1.53-.52-.51-.21-1.01-.44-1.53-.62-.09.05-.09.19-.22.21-.92-.28-1.89-.59-2.67-.97-.22-.11-.62-.18-.6-.49 1.09.45 2.1.96 3.39 1.21-.17-.22-.52-.26-.64-.52-.49-.16-.96-.38-1.42-.59-.47-.21-1-.35-1.32-.73.32-.09.56.15.82.28.84.41 1.71.69 2.53 1.07.05-.05.09-.12.18-.14 1.31.51 2.92 1.25 4.38 1.77.66.23 1.46.62 1.89.07-.8-.25-1.76-.63-2.56-.86-.21-.06-.55.01-.57-.31.86.16 2.2.62 3.1.87.34.09.57.22.75-.1-.12-.12-.38-.09-.39-.31.25-.12.46.15.71.14.27-.01.52-.2.68-.38-.27-.17-.67-.22-1-.35-.16-.02-.08.17-.25.14-1.17-.28-2.32-.62-3.28-1.07-.31-.15-.74-.21-.92-.52.67.05 1.23.46 1.85.69.65.25 1.34.4 2.07.59.44-.35 1.03.29 1.57.17.03-.38-.47-.38-.71-.45-.44-.13-.86-.34-1.18-.45-.22-.08-.48-.08-.71-.14-.53-.13-1.07-.34-1.57-.48-.52-.15-1.1-.27-1.39-.66.29-.09.51.15.75.24.83.32 1.83.56 2.79.76.57.31 1.28.49 1.99.66.07-.12.04-.4 0-.52-.42-.27-1.12-.27-1.39-.69.53-.07.83.37 1.39.38.07-.07.03-.23.04-.35-.45-.23-.97-.33-1.42-.49-.26-.09-.61-.15-.68-.42.69.05 1.27.5 2.06.55.29-.82-1.66-.51-1.81-1.14.67.11 1.22.34 1.81.52.07-.08.04-.29 0-.38-.34-.14-.75-.25-1.14-.38-.35-.12-.88-.15-1-.52.69.08 1.3.53 2.14.59.08-.11.02-.33 0-.45-.68-.34-1.58-.47-2.31-.76-.52.26-1.11-.22-1.74-.35-.35-.07-.66-.09-1-.14.58.24 1.2.6 1.75.83.2.08.51.05.57.31-.5.12-.97-.29-1.5-.52zm-11.41.52c.61.26 1.19.51 1.74.73.27.11.74.11.71.45-1.15-.33-2.1-.85-3.17-1.25-.1.41.42.45.68.55.95.38 1.88.91 2.89 1.14-.18-.43-.23-.82-.46-1.14-.2-.28-.54-.36-.96-.52-.71-.27-1.67-.68-2.28-.9-.11.56.42.75.85.94zm.36 9.26c.61.43 1.53.57 1.99 1.14-.67-.05-1.25-.68-1.89-.76.1.51.81.44 1.1.76.31.1.66.16.78.45-.66-.01-1.21-.6-1.82-.66-.06.08.02.24.08.31.05.06.15-.03.28 0 .34.23.83.3 1.07.62-.45.13-.82-.39-1.31-.45-.07.07-.03.23-.03.35.25.04 1.01.13.78.52-.21-.11-.36-.27-.68-.27-.06.15-.01.47.07.59.56-.08 1.01-.41 1.5-.62.47-.21 1.01-.38 1.39-.73-1.06-.52-2.11-1.04-3.24-1.49h-.07c-.05.1 0 .09 0 .24z" class="st10"/></g></svg>