<svg width="190" height="37" viewBox="0 0 190 37" fill="none" xmlns="http://www.w3.org/2000/svg">
<path d="M21.9258 0.570312C21.8086 4.94531 21.75 9.32031 21.75 13.6953C21.75 22.3411 18.2083 26.6641 11.125 26.6641C7.6224 26.6641 4.98568 25.707 3.21484 23.793C1.44401 21.8789 0.558594 18.4414 0.558594 13.4805C0.558594 9.10547 0.5 4.80208 0.382812 0.570312H5.91016C5.74089 4.97135 5.65625 9.21615 5.65625 13.3047C5.65625 16.8854 6.11198 19.3398 7.02344 20.668C7.9349 21.9961 9.34115 22.6602 11.2422 22.6602C13.2344 22.6602 14.6732 22.0026 15.5586 20.6875C16.444 19.3594 16.8867 16.8854 16.8867 13.2656C16.8867 9.29427 16.8021 5.0625 16.6328 0.570312H21.9258ZM55.4414 26H50.2656C50.5391 22.7057 50.6758 19.5026 50.6758 16.3906C50.6758 14.0599 50.3763 12.5365 49.7773 11.8203C49.1784 11.1042 48.2214 10.7461 46.9062 10.7461C45.8516 10.7461 44.7383 11.1302 43.5664 11.8984C43.5143 13.526 43.4883 14.9844 43.4883 16.2734C43.4883 18.4479 43.5273 21.6901 43.6055 26H38.3711C38.6576 22.4323 38.8008 18.9622 38.8008 15.5898C38.8008 13.8451 38.5534 12.6016 38.0586 11.8594C37.5768 11.1172 36.5677 10.7461 35.0312 10.7461C33.612 10.7461 32.4336 11.2214 31.4961 12.1719C31.5612 17.3281 31.5938 21.9375 31.5938 26H26.3398C26.5742 21.9375 26.6914 18.7344 26.6914 16.3906C26.6914 13.3438 26.3724 10.4076 25.7344 7.58203L30.7344 7.03516L31.0664 9.10547H31.3789C33.0716 7.56901 34.9792 6.80078 37.1016 6.80078C39.7578 6.80078 41.6263 7.56901 42.707 9.10547H43.0195C44.9466 7.56901 46.8542 6.80078 48.7422 6.80078C50.9557 6.80078 52.6224 7.28255 53.7422 8.24609C54.875 9.19661 55.4414 10.9284 55.4414 13.4414C55.4414 13.6888 55.4284 14.1641 55.4023 14.8672C55.3763 15.5573 55.3633 16.026 55.3633 16.2734C55.3633 18.4479 55.3893 21.6901 55.4414 26ZM73.8984 22.0938L73.8008 26H59.0352L59.3086 22.2695C59.9596 21.6836 61.4896 19.8737 63.8984 16.8398C66.4766 13.5977 67.7656 11.7422 67.7656 11.2734V10.9609C64.6667 10.9609 61.8151 11.0716 59.2109 11.293L59.3086 7.44531H73.4883L73.1953 11.1953C72.375 12.0938 70.9102 13.9167 68.8008 16.6641C66.3398 19.8672 65.1094 21.7031 65.1094 22.1719V22.4648C68.0651 22.4648 70.9948 22.3411 73.8984 22.0938ZM94.6211 25.9805L90.0508 26.1367C89.8424 25.4336 89.7383 24.8737 89.7383 24.457H89.4258C87.7201 25.8633 85.7279 26.5664 83.4492 26.5664C81.3008 26.5664 79.6797 26.0065 78.5859 24.8867C77.5052 23.7539 76.9648 21.5013 76.9648 18.1289C76.9648 17.7253 76.9714 17.1589 76.9844 16.4297C77.0104 15.7005 77.0234 15.0625 77.0234 14.5156C77.0234 13.0703 76.8997 10.7656 76.6523 7.60156L82.1016 7.40625C81.8932 9.90625 81.7891 12.276 81.7891 14.5156C81.7891 17.7057 82.0234 19.8542 82.4922 20.9609C82.974 22.0677 83.9115 22.6211 85.3047 22.6211C86.8281 22.6211 88.1432 22.2565 89.25 21.5273C89.25 14.6784 89.1719 10.0299 89.0156 7.58203L94.2891 7.40625C94.1589 9.86719 94.0938 13.0573 94.0938 16.9766C94.0938 19.8802 94.2695 22.8815 94.6211 25.9805ZM118.293 4.75L117.863 8.38281C115.832 8.38281 114.562 8.67578 114.055 9.26172V9.51562C114.823 10.4922 115.207 11.5859 115.207 12.7969C115.207 14.6589 114.517 16.2474 113.137 17.5625C111.77 18.8776 109.725 19.5352 107.004 19.5352C105.676 19.5352 104.589 19.431 103.742 19.2227C103.052 19.5352 102.707 19.9453 102.707 20.4531C102.707 21.2474 103.117 21.8073 103.938 22.1328C104.771 22.4453 106.698 22.6016 109.719 22.6016C114.94 22.6016 117.551 24.3789 117.551 27.9336C117.551 30.4336 116.464 32.4193 114.289 33.8906C112.115 35.362 109.471 36.0977 106.359 36.0977C100.266 36.0977 97.2188 34.1836 97.2188 30.3555C97.2188 29.1706 97.5573 28.1615 98.2344 27.3281C98.9245 26.5078 99.7188 26.0065 100.617 25.8242V25.5312C99.5234 24.8411 98.9766 23.7865 98.9766 22.3672C98.9766 20.9349 99.7253 19.737 101.223 18.7734V18.5C99.1133 17.4453 98.0586 15.7982 98.0586 13.5586C98.0586 11.6445 98.7812 10.043 100.227 8.75391C101.685 7.46484 103.931 6.82031 106.965 6.82031C109.035 6.82031 110.715 7.21094 112.004 7.99219H112.277C112.655 5.53125 113.918 4.30078 116.066 4.30078C116.913 4.30078 117.655 4.45052 118.293 4.75ZM112.727 29.3789C112.727 28.4154 112.355 27.7188 111.613 27.2891C110.884 26.8594 109.621 26.6445 107.824 26.6445C106.366 26.6445 104.895 26.5794 103.41 26.4492C102.264 27.1263 101.691 28.1354 101.691 29.4766C101.691 31.9766 103.358 33.2266 106.691 33.2266C108.553 33.2266 110.025 32.875 111.105 32.1719C112.186 31.4688 112.727 30.5378 112.727 29.3789ZM110.422 13.3047C110.422 12.1328 110.044 11.2409 109.289 10.6289C108.534 10.0169 107.668 9.71094 106.691 9.71094C105.715 9.71094 104.855 10.0104 104.113 10.6094C103.384 11.1953 103.02 12.0612 103.02 13.207C103.02 14.3659 103.397 15.2448 104.152 15.8438C104.908 16.4427 105.786 16.7422 106.789 16.7422C107.74 16.7422 108.579 16.4557 109.309 15.8828C110.051 15.2969 110.422 14.4375 110.422 13.3047ZM137.805 14.7305C137.805 15.3945 137.766 16.2604 137.688 17.3281L125.109 17.543C125.292 19.0143 125.923 20.2383 127.004 21.2148C128.085 22.1914 129.504 22.6797 131.262 22.6797C133.215 22.6797 135.292 22.3867 137.492 21.8008L137.102 25.5898C135.305 26.2409 133.078 26.5664 130.422 26.5664C127.062 26.5664 124.484 25.6224 122.688 23.7344C120.904 21.8464 120.012 19.5742 120.012 16.918C120.012 14.1445 120.858 11.7422 122.551 9.71094C124.257 7.66667 126.62 6.64453 129.641 6.64453C132.401 6.64453 134.452 7.39323 135.793 8.89062C137.134 10.388 137.805 12.3346 137.805 14.7305ZM133.234 14.5547C133.234 11.5599 131.958 10.0625 129.406 10.0625C126.971 10.0625 125.526 11.612 125.07 14.7109L133.234 14.5547ZM147.57 22.6016C147.57 23.5521 147.238 24.3919 146.574 25.1211C145.923 25.8372 145.018 26.1953 143.859 26.1953C142.883 26.1953 142.121 25.8828 141.574 25.2578C141.027 24.6328 140.754 23.8841 140.754 23.0117C140.754 22.0612 141.079 21.2409 141.73 20.5508C142.395 19.8477 143.312 19.4961 144.484 19.4961C145.474 19.4961 146.236 19.8021 146.77 20.4141C147.303 21.013 147.57 21.7422 147.57 22.6016ZM168.391 14.7305C168.391 15.3945 168.352 16.2604 168.273 17.3281L155.695 17.543C155.878 19.0143 156.509 20.2383 157.59 21.2148C158.671 22.1914 160.09 22.6797 161.848 22.6797C163.801 22.6797 165.878 22.3867 168.078 21.8008L167.688 25.5898C165.891 26.2409 163.664 26.5664 161.008 26.5664C157.648 26.5664 155.07 25.6224 153.273 23.7344C151.49 21.8464 150.598 19.5742 150.598 16.918C150.598 14.1445 151.444 11.7422 153.137 9.71094C154.842 7.66667 157.206 6.64453 160.227 6.64453C162.987 6.64453 165.038 7.39323 166.379 8.89062C167.72 10.388 168.391 12.3346 168.391 14.7305ZM163.82 14.5547C163.82 11.5599 162.544 10.0625 159.992 10.0625C157.557 10.0625 156.112 11.612 155.656 14.7109L163.82 14.5547ZM189.387 25.9805L184.816 26.1367C184.608 25.4336 184.504 24.8737 184.504 24.457H184.191C182.486 25.8633 180.493 26.5664 178.215 26.5664C176.066 26.5664 174.445 26.0065 173.352 24.8867C172.271 23.7539 171.73 21.5013 171.73 18.1289C171.73 17.7253 171.737 17.1589 171.75 16.4297C171.776 15.7005 171.789 15.0625 171.789 14.5156C171.789 13.0703 171.665 10.7656 171.418 7.60156L176.867 7.40625C176.659 9.90625 176.555 12.276 176.555 14.5156C176.555 17.7057 176.789 19.8542 177.258 20.9609C177.74 22.0677 178.677 22.6211 180.07 22.6211C181.594 22.6211 182.909 22.2565 184.016 21.5273C184.016 14.6784 183.938 10.0299 183.781 7.58203L189.055 7.40625C188.924 9.86719 188.859 13.0573 188.859 16.9766C188.859 19.8802 189.035 22.8815 189.387 25.9805Z" fill="#004CE2"/>
</svg>
